<?xml version="1.0" encoding="UTF-8"?>
<svg id="Capa_1" data-name="Capa 1" xmlns="http://www.w3.org/2000/svg" xmlns:xlink="http://www.w3.org/1999/xlink" viewBox="0 0 800 300">
  <defs>
    <style>
      .cls-1 {
        fill: #fff;
      }

      .cls-2 {
        fill: #ffead7;
      }

      .cls-3 {
        fill: #fafafa;
      }

      .cls-4 {
        opacity: .5;
      }

      .cls-5 {
        fill: rgba(255, 255, 255, 0);
      }

      .cls-6 {
        fill: #a04618;
      }

      .cls-7 {
        clip-path: url(#clippath-2);
      }

      .cls-8 {
        fill: #aa3329;
      }

      .cls-9 {
        clip-path: url(#clippath-6);
      }

      .cls-10 {
        fill: #397d91;
      }

      .cls-11 {
        fill: #ea5975;
      }

      .cls-12 {
        opacity: .7;
      }

      .cls-13 {
        clip-path: url(#clippath-7);
      }

      .cls-14 {
        fill: #fffaf5;
      }

      .cls-15 {
        fill: #7cbbce;
      }

      .cls-16 {
        clip-path: url(#clippath-1);
      }

      .cls-17 {
        clip-path: url(#clippath-4);
      }

      .cls-18 {
        fill: #214b87;
      }

      .cls-19 {
        opacity: .3;
      }

      .cls-20 {
        fill: #511d0d;
      }

      .cls-21 {
        fill: #440e06;
      }

      .cls-22 {
        fill: #ffca9f;
      }

      .cls-23 {
        fill: #143966;
      }

      .cls-24 {
        fill: #2c333d;
      }

      .cls-25 {
        fill: #8cd0e0;
      }

      .cls-26 {
        fill: #efaa75;
      }

      .cls-27 {
        opacity: .6;
      }

      .cls-28 {
        fill: #555e6d;
      }

      .cls-29 {
        fill: #f9b175;
      }

      .cls-30 {
        fill: #e07c7c;
      }

      .cls-31 {
        fill: #a31414;
      }

      .cls-32 {
        fill: #ce5041;
      }

      .cls-33 {
        fill: #ff9739;
      }

      .cls-34 {
        fill: #ef8998;
      }

      .cls-35 {
        fill: #cc6a29;
      }

      .cls-36 {
        clip-path: url(#clippath-9);
      }

      .cls-37 {
        clip-path: url(#clippath);
      }

      .cls-38 {
        fill: none;
      }

      .cls-39 {
        fill: #842d21;
      }

      .cls-40 {
        fill: #66a9c4;
      }

      .cls-41 {
        fill: #bcbcbc;
      }

      .cls-42 {
        clip-path: url(#clippath-3);
      }

      .cls-43 {
        fill: #282f38;
      }

      .cls-44 {
        fill: #426ac4;
      }

      .cls-45 {
        clip-path: url(#clippath-8);
      }

      .cls-46 {
        fill: #ffebd9;
      }

      .cls-47 {
        fill: #efefef;
      }

      .cls-48 {
        opacity: .2;
      }

      .cls-49 {
        clip-path: url(#clippath-5);
      }

      .cls-50 {
        fill: #6b2a0d;
      }

      .cls-51 {
        fill: #772715;
      }

      .cls-52 {
        fill: #ffd0a9;
      }

      .cls-53 {
        fill: #0d0942;
      }

      .cls-54 {
        fill: #720f0f;
      }

      .cls-55 {
        fill: #fff6ee;
      }

      .cls-56 {
        fill: #a03b30;
      }

      .cls-57 {
        clip-path: url(#clippath-10);
      }

      .cls-58 {
        fill: #919191;
      }

      .cls-59 {
        fill: #f7bac3;
      }

      .cls-60 {
        fill: #ffefe1;
      }
    </style>
    <clipPath id="clippath">
      <path class="cls-38" d="M475.88,128.66c16.07,11.13-19.53-2.06-18.57-12.22-3.82,9.81-8.38,15.21-12.54,17.51l-3.58-15.9s3.5-11,34.68,10.61Z"/>
    </clipPath>
    <clipPath id="clippath-1">
      <path class="cls-38" d="M463.83,247.12s0,8.24-9.07,8.65-10.72,5.36-10.72,5.36l27.2,.41-.41-14.84-7.01,.41Z"/>
    </clipPath>
    <clipPath id="clippath-2">
      <path class="cls-38" d="M491.45,247.53l-2.47,13.19,6.58,2.88s.02,0,.02,0l12.12-.71c.52-.03,.92-.48,.89-1-.01-.2-.09-.4-.22-.55l-9.91-11.74-7.01-2.06Z"/>
    </clipPath>
    <clipPath id="clippath-3">
      <path class="cls-38" d="M492.64,115.94s2.25,59.33,4.73,67.87c2.93,10.11,2.73,67.34,2.73,67.34l-9.14-.46s-8.19-54.17-10.03-62.24-8-31.96-8-31.96l-10.62-3.49-2.68-.88,.03-35.29,32.99-.89Z"/>
    </clipPath>
    <clipPath id="clippath-4">
      <path class="cls-38" d="M502.08,80.72l-17.05-4.83-13.47,.44-15.68,5.17,3.54,53.85c10.68-.04,20.78-.46,31.63-2.79,.46-5.66,2.39-8.67,3.96-14.27,2.67-9.6,7.07-37.57,7.07-37.57Z"/>
    </clipPath>
    <clipPath id="clippath-5">
      <path class="cls-38" d="M502.08,80.72l-15.5-5.52s-8.65,33.62-7.6,53.14c1.05,19.53,4.24,34.06,7.31,34.06s16.62,1.05,18.54-.87c1.8-1.8-6.32-35.25-7.28-45.41-1.24-3.23,4.53-35.4,4.53-35.4Z"/>
    </clipPath>
    <clipPath id="clippath-6">
      <path class="cls-38" d="M477.63,52c.08-1.19-.78-2.3-1.86-2.8s-2.33-.5-3.52-.34-2.34,.47-3.54,.55c-1.59,.11-3.18-.19-4.61-.87,.5,.83,1.17,1.53,1.97,2.07-.78,.52-1.77,.62-2.64,.27-.55-.23-1.11-.63-1.67-.43-.22,.1-.42,.25-.56,.45-1.01,1.27-.94,3.1-.43,4.64,.57,1.75,1.66,3.29,3.13,4.4,1.47,1.09,3.32,1.68,5.14,1.56,.35-.04,.69-.05,1.04-.05,.71,.05,1.38,.38,1.96,.79,.54,.38,1.04,.83,1.36,1.41,.28,.5,.43,1.1,.83,1.51,.34,.35,.81,.53,1.27,.69l2.12,.76c.13,.05,.28,.1,.41,.04,.11-.04,1.06,.68,1.11,.57,1.72-3.39,2.65-7.84,3.38-11.68,.09-.46,.16-.94,0-1.38-.15-.42-.49-.73-.83-1.02-1.18-1-2.47-1.85-3.85-2.55l-.23,1.38Z"/>
    </clipPath>
    <clipPath id="clippath-7">
      <path class="cls-38" d="M379.99,250.23h-9.69s-6.87-41.79-2.9-59.57c1.53-6.86-1.21-29.23-1.24-39.28-.04-16,1.24-34.24,1.24-34.24l15.18,4.07s1.87,69.26,.63,73.94c-1.24,4.69-3.23,55.08-3.23,55.08Z"/>
    </clipPath>
    <clipPath id="clippath-8">
      <path class="cls-38" d="M372.06,80.62l9.26,2.3,2.48,27.75-1.11,25.98-35.02,.05s-.42-11.84-.6-15.14l-8.98-17.72,10.38-23.51,10.16-.71,13.43,1.01Z"/>
    </clipPath>
    <clipPath id="clippath-9">
      <path class="cls-38" d="M368.28,56.28c0-.96,.75-1.81,1.64-2.17s1.89-.33,2.84-.18c2.14,.35,4.15,1.26,5.82,2.64,.52,.43,1.01,.91,1.28,1.52,.37,.82,.3,1.75,.27,2.65-.06,1.58,0,3.16,.16,4.72,.11,.99,.32,2.09,1.12,2.68-1.1-.08-2.14-.56-2.92-1.35,.05,.82,.34,1.61,.84,2.26-.71-.17-1.36-.52-1.89-1.03,.1,.14,.1,.33,0,.48-1.62,.02-3.15-.76-4.09-2.08-.62,.49-.92,1.29-1.5,1.82-.65,.58-1.58,.78-2.45,.69s-1.7-.42-2.5-.76c-.11-.05-.24-.09-.36-.12-.2-.01-.39,.01-.58,.07-1.33,.3-2.72,.21-3.99-.27,.4-.38,.65-.89,.71-1.44-1.37,.38-2.84,.01-3.87-.97,.39-.41,1.01-.54,1.4-.95s.49-1.02,.56-1.59l.33-2.49c.13-1.02,.28-2.08,.87-2.93,.67-.97,1.82-1.51,2.99-1.64s2.34,.1,3.47,.44h-.16Z"/>
    </clipPath>
    <clipPath id="clippath-10">
      <path class="cls-38" d="M359.91,78.85c3.12-.83,6.57-8.52,6.76-11.74l4.46,6.08c-.6,2.13,.31,3.96,1.05,6.05,.39,1.08,.88,2.23,1.88,2.81-2.06,1.7-5.01,2.08-7.62,1.51s-5.37-2.29-6.54-4.7Z"/>
    </clipPath>
  </defs>
  <g id="_10" data-name=" 10">
    <rect id="_10-2" data-name=" 10-2" class="cls-5" x="172.04" y="-5.27" width="455.92" height="303.95"/>
    <ellipse class="cls-2" cx="506.21" cy="257.28" rx="38.77" ry="2.56"/>
    <path class="cls-2" d="M350.18,256.25c-21.41,0-38.77,1.15-38.77,2.56s17.36,2.56,38.77,2.56,38.77-1.15,38.77-2.56-17.36-2.56-38.77-2.56Z"/>
    <path class="cls-2" d="M498.34,97.36c-3.23-18.15-15.21-34.91-29.25-46.31-6.15-5-12.93-9.19-20.05-12.65-46.72-22.66-82.2,6.33-102.16,9.02s-51.39,8.46-65.12,43.74c-10.45,26.82-6.9,58.47,16.21,82.39,2.62,2.71,5.41,5.26,8.36,7.62,5.64,4.52,12.12,8.67,19.5,12.32,47.34,23.42,60.19,3.15,90.69,7.06,20.18,2.59,40.83-9.76,54.39-23.61,18.5-18.88,31.15-48.45,28.03-75.46-.16-1.38-.36-2.75-.6-4.12Z"/>
    <polygon class="cls-60" points="307.96 41.25 289.07 52.24 289.07 122.94 341.71 122.94 341.71 51.72 322.51 41.25 307.96 41.25"/>
    <path class="cls-3" d="M315.66,41.25h0c-9.77,0-19.03,3.72-26.05,10.47l-.54,.52V122.94h53.19V52.24l-.54-.52c-7.03-6.75-16.28-10.47-26.06-10.47Zm23.06,78.16h-46.13V53.75c13.05-11.97,33.08-11.97,46.13,0V119.41Z"/>
    <polygon class="cls-52" points="316.98 44.32 314.34 44.32 314.34 66.73 291.93 66.73 291.93 69.38 314.34 69.38 314.34 93.56 291.93 93.56 291.93 96.2 314.34 96.2 314.34 119.84 316.98 119.84 316.98 96.2 339.39 96.2 339.39 93.56 316.98 93.56 316.98 69.38 339.39 69.38 339.39 66.73 316.98 66.73 316.98 44.32"/>
    <path class="cls-52" d="M287.82,51l-.52,.52V124.7h56.72V51.52l-.52-.52c-15.35-15.35-40.33-15.35-55.68,0Zm52.67,70.17h-49.66V52.99c13.84-13.3,35.82-13.3,49.66,0V121.18Z"/>
    <path class="cls-14" d="M394.9,39.59V119.73c0,.68,.55,1.23,1.23,1.23h134.95V38.36h-134.95c-.68,0-1.23,.55-1.23,1.23Z"/>
    <g class="cls-4">
      <path class="cls-46" d="M400.27,45.14V112.83c0,.68,.55,1.23,1.23,1.23h124.29V43.91h-124.29c-.68,0-1.23,.55-1.23,1.23Z"/>
    </g>
    <path class="cls-52" d="M393.63,118.17v5.07c0,.25,.2,.45,.45,.45h136.99v-5.96h-136.99c-.25,0-.44,.2-.45,.45Z"/>
    <g class="cls-4">
      <path class="cls-52" d="M519.32,48.55h-65.26c-.31,0-.55,.31-.55,.7s.25,.7,.55,.7h65.26c.31,0,.55-.31,.55-.7s-.24-.7-.55-.7Z"/>
    </g>
    <g class="cls-4">
      <rect class="cls-52" x="457.74" y="53.5" width="62.27" height="1.4" rx=".1" ry=".1"/>
    </g>
    <rect class="cls-52" x="466.8" y="58.45" width="53.21" height="1.4" rx=".1" ry=".1"/>
    <g class="cls-4">
      <path class="cls-52" d="M519.25,72.86h-65.26c-.31,0-.55,.31-.55,.7s.25,.7,.55,.7h65.26c.31,0,.55-.31,.55-.7s-.25-.7-.55-.7Z"/>
    </g>
    <g class="cls-4">
      <rect class="cls-52" x="457.67" y="77.81" width="62.27" height="1.4" rx=".1" ry=".1"/>
    </g>
    <rect class="cls-52" x="466.73" y="82.76" width="53.21" height="1.4" rx=".1" ry=".1"/>
    <path class="cls-40" d="M504.51,109.15h-13.11c-.29,0-.53,.24-.53,.53v7.88h14.18v-7.88c0-.29-.24-.53-.53-.53Z"/>
    <path class="cls-40" d="M521.08,116.21h-13.74c-.31,0-.57,.32-.57,.72s.25,.72,.57,.72h13.74c.31,0,.57-.32,.57-.72s-.25-.72-.57-.72Z"/>
    <path class="cls-10" d="M423.94,167.01h-141.2v77.91h142.33v-76.78c0-.63-.51-1.13-1.13-1.13Z"/>
    <path class="cls-15" d="M427.29,167.01h-139.11v77.91h142.33v-74.68c0-1.78-1.45-3.23-3.23-3.22h0Z"/>
    <g class="cls-4">
      <path class="cls-25" d="M426.04,177.36c-8.31,8.77-15.1,18.96-24.07,27.05-8.97,8.09-21.06,14.04-32.91,11.72-13.03-2.55-22.17-14.06-33.74-20.58-9.71-5.47-21.59-7.33-32.27-4.16-5.6,1.68-10.7,4.7-14.86,8.8v44.74h142.33v-71.74c-1.61,1.25-3.08,2.7-4.48,4.18Z"/>
    </g>
    <path class="cls-40" d="M430.52,184.7l-142.13,.82c-.09,0-.16,.13-.16,.28s.07,.28,.16,.28l142.13-.82c.09,0,.16-.13,.16-.28s-.07-.28-.16-.28Z"/>
    <rect class="cls-10" x="255.02" y="182.86" width="24.02" height="62.06"/>
    <rect class="cls-15" x="260.59" y="182.86" width="24.02" height="62.06"/>
    <rect class="cls-26" x="416.68" y="130.31" width="5.52" height="12.33"/>
    <path class="cls-43" d="M444.36,118.33c-.16-.09-.36-.03-.45,.13,0,0,0,0,0,0l-4.18,7.6s-.04,.1-.04,.16v12.89c0,.18,.15,.33,.33,.33s.33-.15,.33-.33v-12.8l4.14-7.53c.09-.16,.03-.36-.13-.45,0,0,0,0,0,0Z"/>
    <path class="cls-10" d="M444.24,139.1h-49.88v110.67h51.18v-109.37c0-.71-.58-1.3-1.29-1.3h0Z"/>
    <path class="cls-43" d="M444.74,116.83c-1.1,.81-1.67,1.9-1.28,2.44s1.6,.3,2.7-.51,1.67-1.9,1.28-2.44-1.6-.31-2.7,.51Z"/>
    <path class="cls-43" d="M444.39,136.47h-8.74c-.1,0-.19,.08-.19,.19v2.74h9.11v-2.74c0-.1-.09-.19-.19-.19Z"/>
    <path class="cls-40" d="M454.05,139.1h-49.88v110.67h51.17v-109.37c0-.72-.58-1.3-1.29-1.3h0Z"/>
    <g class="cls-48">
      <path class="cls-25" d="M411.96,146.97h4.07c.62,0,1.12,.5,1.12,1.12v65.1c0,.62-.5,1.12-1.12,1.12h-4.07c-.62,0-1.12-.5-1.12-1.12v-65.1c0-.62,.5-1.12,1.12-1.12h0Z"/>
    </g>
    <g class="cls-48">
      <rect class="cls-25" x="432.28" y="165.63" width="13.62" height="78.94" rx="2.41" ry="2.41"/>
    </g>
    <g class="cls-4">
      <path class="cls-1" d="M440.02,138.77c-.18,0-.33,.15-.33,.33v110.66c0,.18,.15,.33,.33,.33s.33-.15,.33-.33v-110.67c0-.18-.15-.33-.33-.33Z"/>
    </g>
    <g class="cls-4">
      <path class="cls-1" d="M425.15,138.77c-.18,0-.33,.15-.33,.33v110.66c0,.18,.17,.33,.35,.32,.17,0,.31-.15,.32-.32v-110.67c0-.18-.15-.33-.33-.33Z"/>
    </g>
    <polygon class="cls-26" points="392.35 115.52 401.47 133.67 434.18 133.67 425.06 115.52 392.35 115.52"/>
    <polygon class="cls-55" points="396.51 115.52 405.62 133.67 438.33 133.67 429.22 115.52 396.51 115.52"/>
    <path class="cls-29" d="M396.19,115.33l9.31,18.54h33.14l-9.31-18.54h-33.14Zm9.55,18.15l-8.92-17.76h32.27l8.92,17.76h-32.27Z"/>
    <path class="cls-44" d="M467.65,77.63l-17.07,5.14-11.36,46.49,5.56,4.71c4.16-2.3,8.72-7.71,12.54-17.51-.96,10.16-9.27,31.63-7.47,33.44,1.92,1.92,7.72-10.55,10.78-10.55,.08,0,.16,0,.23,.01-.73-1.27-1.66-4.94-1.15-14.41,1.05-19.52,7.94-47.31,7.94-47.31Z"/>
    <g class="cls-37">
      <path class="cls-53" d="M432.75,117.99l-.76,24.71s16.16,15.59,18.25-11.02-17.1-13.33-17.49-13.69Z"/>
    </g>
    <path class="cls-34" d="M475.28,77.4l-5.04,2.02,.74,8.67,.93,2.2s7.26,9.57,3.43,12.97,3.97-1.57,3.97-1.57l3.79-11.49-3.94-9.6-3.88-3.21Z"/>
    <path class="cls-31" d="M463.83,247.12s0,8.24-9.07,8.65-10.72,5.36-10.72,5.36l27.2,.41-.41-14.84-7.01,.41Z"/>
    <g class="cls-16">
      <g>
        <rect class="cls-30" x="440.99" y="259.65" width="20.34" height=".1"/>
        <polygon class="cls-54" points="461.23 243.02 459.24 249.58 474.78 253.57 473.78 243.88 461.23 243.02"/>
      </g>
    </g>
    <path class="cls-31" d="M500.06,251.5l-1.61-1.91-7.01-2.06-1,5.33-1.47,7.85,6.58,2.88s.01,0,.02,0l12.11-.71c.52-.03,.92-.47,.89-1-.01-.21-.09-.4-.23-.56l-8.3-9.83Z"/>
    <polygon class="cls-54" points="491.44 247.53 490.45 252.87 500.06 251.5 498.45 249.59 491.44 247.53"/>
    <g class="cls-7">
      <rect class="cls-30" x="496.11" y="260.8" width="15.59" height=".1"/>
    </g>
    <path class="cls-53" d="M485.03,74.62l-10.06-.75-7.43,3.06-19.43,80.08s47.28-5.5,55.57,.35l-14.98-49.67-3.68-33.07Z"/>
    <path class="cls-44" d="M460.26,97.04s-1.74,81.73-.58,87.26,3,65,3,65h8.99s3.06-23.71,3.72-45.24c.28-9.53,.1-18.63-1.03-25.06-.44-2.54-.5-6.89-.37-12.02,.3-11.22,1.5-26.19,1.52-34.33,.04-18.88-1.15-40.41-1.15-40.41l-14.09,4.81Z"/>
    <path class="cls-18" d="M473.99,166.98l-1.25,10.42-5.7,3.04,5.51-.57,1.71,4.94s.69,8.44,1.13,19.25c.28-9.53,.1-18.63-1.03-25.06-.44-2.54-.5-6.89-.37-12.02Z"/>
    <path class="cls-44" d="M492.64,115.94l-32.99,.89-.03,35.29,2.68,.88,10.62,3.49s6.16,23.89,8,31.96c1.84,8.07,10.03,62.24,10.03,62.24l9.14,.46s.2-57.24-2.73-67.34c-2.48-8.54-4.73-67.87-4.73-67.87Z"/>
    <g class="cls-42">
      <path class="cls-18" d="M475.58,155.35s-11.97-2.66-12.74-2.66l19.77,59.12-1.14-22.62-5.89-33.83Z"/>
    </g>
    <path class="cls-31" d="M459.7,140.14l31.95-.86s.12-2.87,.45-6.9c-10.85,2.33-22.01,2.93-32.68,2.98l.28,4.79Z"/>
    <rect class="cls-47" x="464.46" y="135.47" width="7.67" height="4.1" transform="translate(-5.68 21.05) rotate(-2.56)"/>
    <path class="cls-28" d="M471.56,76.33l-15.68,5.17,3.54,53.85c10.68-.04,20.78-.46,31.63-2.79,.46-5.66,2.39-8.67,3.96-14.27,2.68-9.6,7.08-37.57,7.08-37.57l-17.05-4.83-13.47,.44Z"/>
    <g class="cls-17">
      <g class="cls-19">
        <path class="cls-24" d="M466.57,113.38c-1.82-7.88-1.23-16.09-.63-24.15,.37-4.92,.74-9.88,2.19-14.6-3.05-.56-6.14-.88-9.25-.97-1.52-.05-3.09-.03-4.52,.51-3.46,1.29-5.14,5.12-6.42,8.58-3.97,10.8-7.47,21.77-10.66,32.82-1.77,6.12-3.37,12.99-.36,18.6,1.22,2.29,3.13,4.14,5.19,5.71,4.87,3.7,10.67,5.96,16.52,7.75,7.39,2.25,14.97,3.82,22.65,4.68,3.66,.41,7.49,.64,10.91-.72l-11.87-19.25c-7.32-3.44-11.96-11.07-13.78-18.95Z"/>
      </g>
    </g>
    <path class="cls-44" d="M447.12,161.18s5.21,2.75,8.76,1.52,.51-6.58,.51-17.33,11.06-68.06,11.06-68.06l-11.57,4.2-8.76,79.67Z"/>
    <polygon class="cls-18" points="462.52 91.46 459.7 94.93 460.3 116.61 467.55 76.93 460.5 79.23 462.52 91.46"/>
    <path class="cls-58" d="M470.4,77.11c-1.25-.6-1.78-.19-1.78-.19l4,8.51,9.08-10.54-8.55,5.21c-.27,.16-2.47-2.86-2.75-2.99Z"/>
    <path class="cls-44" d="M502.08,80.72l-15.5-5.52s-8.65,33.62-7.6,53.14c1.05,19.53,4.24,34.06,7.31,34.06s16.62,1.05,18.54-.87c1.8-1.8-6.32-35.25-7.28-45.41,.56-10.12,4.53-35.4,4.53-35.4Z"/>
    <g class="cls-49">
      <path class="cls-18" d="M503.34,161.05c-22.81,1.52-25.28-42.39-25.28-42.39l-1.52,41.44,3.8,12.55,27.18-3.8s18.63-9.32-4.18-7.8Z"/>
    </g>
    <path class="cls-32" d="M481.71,53.17c-1.18-1-2.47-1.85-3.85-2.55l-.23,1.38c.08-1.19-.78-2.3-1.86-2.8s-2.33-.5-3.52-.34-2.34,.47-3.54,.55c-1.59,.11-3.18-.19-4.61-.87,.5,.83,1.17,1.53,1.97,2.07-.78,.52-1.77,.62-2.64,.27-.55-.23-1.11-.63-1.67-.43-.22,.1-.42,.25-.56,.45-1.01,1.27-.94,3.1-.43,4.64,.57,1.75,1.66,3.29,3.13,4.4,1.47,1.09,3.32,1.68,5.14,1.56,.35-.04,.69-.05,1.04-.05,.71,.05,1.38,.38,1.96,.79,.54,.38,1.04,.83,1.36,1.41,.28,.5,.43,1.1,.83,1.51,.34,.35,.81,.53,1.27,.69l2.12,.76c.13,.05,.28,.1,.41,.04,.11-.04,1.06,.68,1.11,.57,1.72-3.39,2.65-7.84,3.38-11.68,.09-.46,.16-.94,0-1.38-.15-.42-.49-.73-.83-1.02Z"/>
    <g class="cls-9">
      <g>
        <path class="cls-8" d="M475.95,52.76s.02-.09,.02-.14c-.25,.02-.5,.05-.75,.08l.73,.06Z"/>
        <path class="cls-8" d="M480.75,58.41c-.87-.56-1.85-.91-2.83-1.27,.21-.91,1.06-1.63,1.07-2.56,.01-.81-.64-1.51-1.4-1.79-.52-.19-1.08-.22-1.64-.18,0,.05,0,.09-.02,.14l-.73-.06c.25-.04,.5-.07,.75-.08,.03-.49-.25-.96-.63-1.27-.42-.33-.95-.5-1.47-.65-1.14-.33-2.41-.61-3.48-.08-.53,.26-6.3,4.31-8.71,3.53-.45-.14-.89-.34-1.36-.34-.77,0-1.42,.57-1.93,1.16s-.97,1.29-1.02,2.07c-.06,.8,.32,1.57,.8,2.2,.65,.84,1.5,1.5,2.47,1.91,1.12,.48,2.35,.62,3.56,.64,1.5,.03,3.16-.06,4.29,.93,.97,.84,1.23,2.22,1.86,3.34,.74,1.29,2.01,2.24,3.43,2.71s2.95,.49,4.41,.21c1.38-.26,2.8-.88,3.49-2.09,.2-.39,.36-.8,.47-1.22,.21-.73,.38-1.48,.51-2.23,.15-.88,.25-1.81,0-2.66-.29-.99-1.04-1.79-1.91-2.35Z"/>
      </g>
    </g>
    <path class="cls-59" d="M477.44,62.69c3.33-.64,1.78-3.89,.77-4.21s-2.21,3.61-2.21,3.61l-.8-3.48-1.22-.26c-2.85,3.17-6.09-3.81-6.09-3.81-.62,1.14-2.13,4.87-2.78,5.53,0,0,.98,6.17,1.67,8.87s3.02,2.04,3.02,2.04l.29,4.22-.85,1.46c.74-.08,1.19,.71,3.79,4.07,4.13-3.17,4.38-3.36,4.38-3.36l3.21-2.05-1.59-8.85-1.57-3.77Z"/>
    <path class="cls-11" d="M469.78,70.97l.09,1.3c5.36-.91,7.33-4.66,6.86-7.96-.8,4.42-4.34,6.45-6.95,6.66Z"/>
    <path class="cls-34" d="M469.04,64.05c-.28,.06-.57,.08-.86,.06,.07-.09,.15-.18,.24-.25l.08-.07-.31-2.34c-.01-.11-.11-.18-.22-.17s-.18,.11-.17,.22l.28,2.12c-.16,.15-.35,.37-.33,.57,.01,.11,.09,.2,.19,.24,.14,.05,.29,.07,.43,.07,.24,0,.49-.03,.73-.08,.11-.02,.18-.12,.16-.22-.02-.11-.12-.18-.22-.16,0,0,0,0,0,0h0Z"/>
    <path class="cls-1" d="M468.15,66.09s.38,1.51,1.81,1.08c1.84-.55,1.45-2.34,1.45-2.34,0,0-3.1,1.26-3.26,1.26Z"/>
    <path class="cls-21" d="M469.61,60.92c-.24,.06-.37,.41-.28,.79s.36,.64,.6,.58,.37-.41,.28-.79-.36-.64-.6-.58Z"/>
    <path class="cls-21" d="M466.65,61.48c-.24,.06-.37,.41-.29,.79s.36,.64,.6,.58,.37-.41,.29-.79-.36-.64-.6-.58Z"/>
    <path class="cls-21" d="M470.77,59.28s-1-.69-2.25,.02c-.09,.05-.13,.17-.07,.27,.03,.06,.1,.1,.17,.1,.03,0,.07,0,.1-.03,1.03-.58,1.8-.07,1.84-.04,.09,.06,.21,.04,.27-.05s.04-.21-.05-.27h0Z"/>
    <path class="cls-21" d="M467.39,59.98s-1-.69-2.25,.02c-.09,.05-.13,.17-.07,.27,.03,.06,.1,.1,.17,.1,.03,0,.07,0,.1-.03,1.03-.58,1.8-.07,1.84-.04,.09,.06,.21,.04,.27-.05s.04-.21-.05-.27h0Z"/>
    <path class="cls-11" d="M473.16,62.38c-.89,.1-1.58,.5-1.54,.89s.8,.64,1.69,.54,1.58-.5,1.54-.9-.8-.64-1.7-.54Z"/>
    <path class="cls-1" d="M476.77,77.3v7.59l1.19-1.34,6.84-7.65-2.99-2.91s-.96,3.34-5.05,4.31Z"/>
    <polygon class="cls-41" points="476.77 83.17 476.77 84.89 477.97 83.55 476.77 77.3 476.77 83.17"/>
    <polygon class="cls-1" points="467.65 77.63 468.8 81.64 469.49 84.03 469.56 84.27 471.19 77.3 469.85 74.66 467.65 77.63"/>
    <polygon class="cls-41" points="469.6 84.54 471.19 77.3 468.8 81.64 469.6 84.54"/>
    <path class="cls-18" d="M479.51,115.2l7.57-19.29v-3.58l6.86-14.37-8.91-3.34s-4.07,23.64-5.52,40.58Z"/>
    <polygon class="cls-26" points="429.93 86.33 432.26 90.45 450.62 83.29 448.72 78.78 429.93 86.33"/>
    <polygon class="cls-1" points="430.62 86.93 431.68 89.07 449.22 81.83 448.25 79.69 430.62 86.93"/>
    <polygon class="cls-26" points="431.57 87.75 442.39 113.67 460.94 105.85 450.49 79.99 431.57 87.75"/>
    <polygon class="cls-35" points="429.93 86.33 440.64 112.19 442.39 113.67 431.57 87.75 429.93 86.33"/>
    <polygon class="cls-35" points="437.18 91.93 438.5 95.04 450.35 90.17 449.03 87.07 437.18 91.93"/>
    <path class="cls-59" d="M443.92,99.27c-3.53,.31-6.31,.75-6.31,.75,0,0,1.88-2,3-2.56s3.32,.33,4.3-.66-1.62-1.34-3.68-1.34-6.31,3-6.31,2.25,1.5-3.81,2.62-3.81,4.37-.25,4.37-.81-2.94-.82-5.37-.82-5.93,5.94-5.93,7.12c0,.87,1,8.82,1.54,13.05,.2,1.56,.33,2.62,.33,2.62l5.75-.31c-.4-1.17-.64-2.38-.72-3.61-.05-1.02,.05-2.1,.49-3,.31-.65-.51-3.79,.33-4.02,2.17-.6,6.43-1.32,5.89-1.86-.72-.72-6.23-.05-6.23-.05,0,0,4.54-1.35,6.16-1.48,2.1-.15,3.17-1.77-.25-1.47Z"/>
    <path class="cls-11" d="M437.52,111.14c-1.58,.9-3.41,2.01-5.2,2.44,.17,1.35,.17,1.47,.17,1.48l5.75-.31c-.4-1.17-.64-2.38-.72-3.61Z"/>
    <path class="cls-44" d="M439.86,112.9l-8.93,2.05s5.81,17.93,8.62,19.03,5.77,0,5.77,0c0,0,3.98-3.41,3.41-5.97s-8.87-15.1-8.87-15.1Z"/>
    <path class="cls-44" d="M502.54,81.16l-8.6-3.21s4.36,37.93,4.49,37.67l5.46,11.89,2.98,30.74,11.3-1.39-3.27-35.89-12.36-39.8Z"/>
    <path class="cls-39" d="M513.6,162.5h-2.03c-2.69,0-5.25,1.13-7.06,3.11l-6.54,7.14h29.24l-6.54-7.14c-1.82-1.98-4.38-3.1-7.06-3.1Zm-14.31,9.66l5.65-6.16c1.71-1.86,4.11-2.91,6.63-2.92h2.03c2.52,0,4.93,1.06,6.63,2.92l5.65,6.16h-26.59Z"/>
    <rect class="cls-39" x="491.9" y="170.68" width="41.37" height="14.17"/>
    <rect class="cls-56" x="491.9" y="184.85" width="41.37" height="15.54"/>
    <g class="cls-12">
      <rect class="cls-1" x="523.43" y="181.36" width="2.74" height="12.94"/>
      <rect class="cls-1" x="499" y="181.36" width="2.74" height="12.94"/>
    </g>
    <path class="cls-59" d="M516.38,156.76l-7.44,.69-1.21,4.14c-.23,.61,.07,1.3,.68,1.53,.16,.06,.33,.09,.5,.08l-.05,1.66c-.04,1.08,.81,1.98,1.89,2.02,.06,0,.13,0,.19,0l5.2-.34c1.08-.07,1.89-1,1.82-2.08,0-.1-.02-.2-.04-.29l-1.54-7.4Z"/>
    <path class="cls-39" d="M387.73,255.61c-8.51-.4-8.51-8.47-8.51-8.47l-6.57-.4-.39,14.52,25.53-.4s-1.55-4.84-10.05-5.24Z"/>
    <path class="cls-39" d="M341.73,249.3l-9.3,11.5c-.47,.58-.1,1.48,.63,1.52l11.37,.7s.01,0,.02,0l6.18-2.82-2.32-12.91-6.58,2.01Z"/>
    <path class="cls-18" d="M367.41,117.14s-1.28,18.24-1.24,34.24c.03,10.05,2.77,32.42,1.24,39.28-3.97,17.77,2.9,59.57,2.9,59.57h9.69s1.99-50.39,3.23-55.08-.63-73.94-.63-73.94l-15.18-4.07Z"/>
    <g class="cls-13">
      <path class="cls-23" d="M370.16,114.12l-9.22,1.91-4.34,20.67-1.23,39.55,10.8,63.38s.29-42.21,1.76-45.88,2.9-3.54,2.9-3.54l-1.25-1.61h3.2l-3.62-1.79s2.28-9.2,2.57-16.14c.26-6.34,13.23-31.9,12.9-36.91-.02-.24,.11-.47,.33-.57,6.07-20.5-14.79-19.08-14.79-19.08Z"/>
    </g>
    <path class="cls-18" d="M382.72,135.7l-35.05,1s-2.38,50.79-5.04,58.03c-3.15,8.56-2.94,57.07-2.94,57.07l9.85-.4s8.82-45.9,10.81-52.74c.47-1.63,1.25-4.38,2.16-7.63h0c.31-1.11,.63-2.27,.97-3.46,2.79-10.02,6.36-26.72,6.36-26.72l12.84-1.85,.7-.34-.02-.56-.62-22.4Z"/>
    <path class="cls-23" d="M367.93,157.36l-5.44,33.66c.31-1.1,.63-2.26,.97-3.45,2.79-10.02,6.36-26.72,6.36-26.72l12.84-1.85,.7-.34-.02-.56-15.41-.74Z"/>
    <path class="cls-1" d="M389.69,91.34c-.65-3.91-3.5-7.1-7.31-8.18l-1.36-.39-4.7,40.15,5.11,4.14c2.18,1.76,5.11,2.26,7.74,1.32h0c3.65-1.31,5.84-5.04,5.2-8.87l-4.69-28.16Z"/>
    <g class="cls-19">
      <path d="M391.43,115.7c-.76-1.01-1.96-1.6-3.23-1.57-1.24,.04-2.58,.86-3.26,1.9,2.95-.93,6.09,.7,7.03,3.65,.15,.47,.23,.96,.26,1.45,.09-.92,.18-1.89,.1-2.83s-.35-1.85-.9-2.6Z"/>
    </g>
    <path class="cls-33" d="M372.06,80.62l-13.44-1.01-10.16,.71-10.38,23.51,8.98,17.72c.18,3.3,.6,15.14,.6,15.14l35.02-.05,1.11-25.98-2.48-27.75-9.26-2.3Z"/>
    <g class="cls-45">
      <g>
        <path class="cls-22" d="M349.77,76.93l-22.46,19.65s-2.74,22.83,13.74,21.55c27.65-27.68,8.73-41.2,8.73-41.2Z"/>
        <path class="cls-22" d="M368.7,88.25c6.48-.21,9.47-10.35,9.47-10.35l-21.79,.61s5.84,9.95,12.32,9.74Z"/>
        <polygon class="cls-22" points="384.95 112.9 386.45 81.59 379.71 80.96 384.95 112.9"/>
        <polygon class="cls-22" points="345 142.11 386.45 143.06 387.79 133.16 345.46 133.67 345 142.11"/>
      </g>
    </g>
    <rect x="386.02" y="116.33" width=".39" height=".52" transform="translate(94.46 395.22) rotate(-60.48)"/>
    <path class="cls-1" d="M359.21,101.22l-2.75-.6-10.52,8.29,7.47-12.77s3.19-9.22-3.19-16.04c-5.11,.51-9.42,4.01-10.98,8.9l-9.09,28.55c-1.52,4.78,1.12,9.9,5.9,11.42,3.58,1.14,7.49-.04,9.84-2.97l13.15-16.35s0,0,.01-.01c1.24-1.02,1.22-2.91,1.22-2.91l-1.07-5.52Z"/>
    <g class="cls-27">
      <path d="M359.21,101.22l-2.75-.6s-.51,6.94,2.6,9.02c1.24-1.02,1.22-2.91,1.22-2.91l-1.07-5.52Z"/>
    </g>
    <g class="cls-19">
      <path d="M337.01,116.73l8.94-7.82,.82-1.4c-7.78,.16-8.97,5.87-9.76,9.22Z"/>
    </g>
    <path class="cls-28" d="M368.37,89.05c-.33,.2-.52,.51-.41,.69l9.7,15.92,1.21-.74-9.7-15.92c-.11-.18-.47-.15-.8,.05Z"/>
    <path class="cls-59" d="M376.22,99.94c-.26-1.4-1.08-2.63-2.27-3.41l-3.24-2.13c-.75-.49-1.68-.59-2.51-.28l-6.25,2.33c-.99,.37-1.82,1.07-2.35,1.99-.96,1.66-2.42,4.18-2.38,4.04,0,0-1.85,2.66,.85,6.2l2.21-1.94,1.53-.12c2.25-.18,4.32-1.29,5.7-3.07l2.67-.09c1.22-.04,2.17-1.06,2.13-2.28-.01-.33-.1-.66-.25-.95l-.73-1.4,1.8,1.8,.88,2.36c.27,.71,1.06,1.07,1.77,.81,.63-.23,.99-.88,.87-1.54l-.42-2.31Z"/>
    <polygon class="cls-39" points="355.37 130.25 383.67 130.25 399.02 93.1 370.71 93.1 355.37 130.25"/>
    <path class="cls-59" d="M388.3,113.12c-.22-.31-.51-.56-.84-.75l-.78-.44c-.46-.26-1.04-.1-1.3,.36-.21,.37-.15,.82,.14,1.13l2.15,2.24-2.85-1.74c-.48-.29-1.11-.14-1.41,.34-.22,.37-.2,.83,.07,1.17l2.71,3.43-2.29-1.92c-.39-.33-.98-.28-1.31,.11-.29,.35-.29,.86,0,1.21l2.65,3.08-2.23-1.86c-.38-.32-.94-.27-1.26,.11-.3,.36-.28,.88,.05,1.21l2.9,2.91c.54,.54,1.29,.82,2.05,.76h0c.96-.08,1.79-.67,2.18-1.55l1.83-4.15c.37-.85,.27-1.83-.28-2.59l-2.21-3.05Z"/>
    <path class="cls-1" d="M369.77,72.9c1.46,.07,1.99-1.2,1.99-1.2l-3.85-1.06s.4,2.19,1.86,2.26Z"/>
    <path d="M367.72,70.67c.02,.1,.44,2.34,2.05,2.42h.12c1.49,0,2.06-1.3,2.06-1.32l.09-.2-4.36-1.2,.05,.31Zm3.75,1.15c-.36,.58-1.01,.92-1.7,.88-.97-.04-1.43-1.21-1.6-1.79l3.29,.91Z"/>
    <path class="cls-6" d="M368.44,56.28l-.15-.05v.04h.15Z"/>
    <path class="cls-6" d="M380.29,65.46c-.17-1.57-.22-3.15-.16-4.72,.04-.9,.1-1.83-.27-2.65-.27-.61-.77-1.1-1.28-1.52-1.67-1.38-3.68-2.29-5.82-2.64-.95-.15-1.95-.19-2.84,.18s-1.61,1.19-1.64,2.13l.15,.05h-.15v-.05c-1.08-.31-2.2-.52-3.31-.4-1.17,.13-2.32,.68-2.99,1.64-.58,.85-.73,1.91-.87,2.93-.11,.83-.22,1.66-.33,2.49-.07,.57-.17,1.17-.56,1.59s-1.01,.55-1.4,.95c1.03,.98,2.5,1.35,3.87,.97-.06,.55-.31,1.06-.71,1.44,1.28,.48,2.66,.58,3.99,.27,.19-.06,.38-.08,.58-.07,.13,.02,.25,.06,.36,.12,.8,.34,1.63,.68,2.5,.76s1.81-.1,2.45-.69c.58-.53,.88-1.33,1.5-1.82,.94,1.32,2.47,2.1,4.09,2.08,.1-.14,.09-.33,0-.48,.52,.51,1.18,.87,1.89,1.03-.5-.65-.8-1.44-.84-2.26,.78,.79,1.82,1.26,2.92,1.35-.79-.6-1.01-1.69-1.11-2.68Z"/>
    <g class="cls-36">
      <g>
        <path class="cls-50" d="M370.65,55.14c.42-.36,.96-.56,1.49-.71,.99-.28,2.01-.44,3.04-.48-3.21-1.8-7.28-1.99-10.64-.48-.85,.38-1.74,.98-1.88,1.9l-.44,1.21c2.13-.38,4.32-.08,6.27,.86-.92,0-1.75,.53-2.13,1.37,.5-.52,1.25-.76,1.97-.78s1.44,.15,2.14,.31c-.24-.73,.5-1.41,1.18-1.76,.68-.36,1.4-.64,2.14-.84-.68-.13-1.36-.26-2.05-.17s-1.36,.43-1.69,1.04c-.11-.54,.17-1.11,.59-1.47Z"/>
        <path class="cls-50" d="M381.15,63.82c-1.47,.46-3.19-.08-4.14-1.28-.54-.69-.87-1.58-1.61-2.06-.13-.09-.29-.15-.45-.17-.44-.03-.77,.42-.86,.85s-.01,.88-.09,1.31-.38,.89-.82,.9c-.36,0-.66-.29-.81-.63s-.19-.7-.32-1.04c-.48-1.28-2.3-1.83-3.41-1.03-.81,.58-1.14,1.62-1.71,2.44-.42,.59-1,1.09-1.7,1.29s-1.51,.07-2.03-.43-.68-1.38-.28-1.98c-1.31,1.66-3.96,2.05-5.69,.84l-5.91,1.56c.19,1.22,1.13,2.17,2.09,2.94,2.83,2.23,6.29,3.56,9.84,4.15s7.18,.46,10.75-.01c1.56-.2,3.12-.48,4.58-1.08s2.79-1.57,3.62-2.91c.27-.43,.48-.93,.42-1.44-.1-.89-.96-1.47-1.47-2.21Z"/>
      </g>
    </g>
    <path class="cls-59" d="M372.18,79.23c-.74-2.08-1.65-3.92-1.05-6.05l-4.46-6.08c-.19,3.21-3.64,10.92-6.76,11.74,1.17,2.41,3.93,4.13,6.54,4.7s5.55,.19,7.62-1.51c-1-.57-1.5-1.73-1.88-2.81Z"/>
    <g class="cls-57">
      <path class="cls-11" d="M370.33,69.21l-4.7-1c-1.52,3.93,.44,8.34,4.37,9.86,.22,.09,.45,.16,.68,.23,.71,.19,1.51,.28,2.14-.09,.6-.35,.92-1.06,.97-1.75s-.15-1.38-.39-2.04c-.69-1.91-1.73-3.68-3.07-5.21Z"/>
    </g>
    <path class="cls-59" d="M376.29,62.64l-1.66-.89c.37,.76,.99,1.44,1.59,2.06-1.08-.25-2.16-.5-3.18-.93s-1.98-1.05-2.65-1.93c.17,.49,.43,.95,.77,1.34-1.08-.01-2.05-.65-2.49-1.63-.06,.12-.12,.24-.19,.36-.57,2.12-2.34,3.65-2.34,3.65l-.29,2.37-.81-.24,.1-1.43c-.06-.93-1.49-1.86-2.53-1.53s-.65,2.83-.08,4.37,1.98,1.03,1.98,1.03c.32,2.53,2.11,4.53,3.59,5.78,1.7,1.43,4.21,1.53,5.93,.13,2.26-1.84,1.75-5.1,2.49-6.98,.85-2.15,.9-4.72,1-5.47-.48-.15-.8,.17-1.24-.07Z"/>
    <path class="cls-34" d="M363.15,64.48c-.16,0-.31,.06-.42,.18-.17,.22-.1,.56,.02,1.12,.03,.14,.06,.29,.1,.45,.02,.11,.12,.17,.23,.15,.11-.02,.17-.12,.15-.23-.03-.17-.06-.32-.1-.46-.08-.36-.15-.73-.09-.8,0-.01,.05-.03,.12-.03,.16,0,.3,.07,.41,.18,.19,.19,.51,.72,.45,2.05,0,.11,.08,.2,.19,.2,0,0,0,0,0,0h0c.1,0,.19-.08,.19-.19,.06-1.4-.27-2.05-.57-2.34-.18-.19-.43-.3-.7-.3Z"/>
    <path class="cls-20" d="M371.75,64.48c-.17-.08-.34-.15-.51-.21-.34-.12-.69-.23-1.05-.31-.35-.09-.71-.15-1.07-.21l-.54-.08-.54-.06-.03,.39,.53,.04,.53,.06c.35,.05,.7,.1,1.05,.17,.35,.07,.69,.15,1.03,.26,.17,.05,.33,.11,.5,.18,.16,.06,.31,.14,.46,.23l.12-.17c-.08-.05-.16-.1-.24-.15-.08-.04-.16-.08-.24-.12Z"/>
    <path class="cls-20" d="M375.48,65.26c-.22-.05-.45-.1-.68-.15s-.45-.08-.69-.11l-.03,.31c.21,.03,.44,.07,.65,.12s.44,.1,.66,.16,.43,.12,.65,.19,.43,.14,.65,.21l.12-.37c-.22-.07-.44-.13-.66-.19s-.44-.11-.67-.17Z"/>
    <path class="cls-34" d="M373.27,66.69c-.11,0-.2,.08-.2,.19l-.09,2.45-1.39-.34c-.1-.03-.21,.04-.24,.14-.03,.1,.04,.21,.14,.24l1.85,.45,.11-2.93c0-.1-.07-.19-.18-.2Z"/>
    <path class="cls-51" d="M375.49,66.67c-.24-.06-.52,.23-.63,.66s0,.81,.25,.88,.52-.23,.63-.66,0-.82-.25-.88Z"/>
    <path class="cls-51" d="M370.81,65.66c-.24-.06-.52,.24-.63,.66s0,.81,.25,.88,.52-.24,.63-.66,0-.82-.25-.88Z"/>
    <path class="cls-1" d="M370.56,72.9c1.46,.07,1.99-1.2,1.99-1.2l-3.85-1.06s.4,2.19,1.86,2.26Z"/>
    <path class="cls-1" d="M361.92,38.4l-.03-.02s-.05-.02-.07-.02h-.08s-.04,0-.06,.01c-.02,0-.03,.02-.05,.03-.01,.01-.02,.03-.03,.05,0,.02-.01,.04-.01,.06v.04s.02,.05,.04,.06l.03,.02s.05,.02,.07,.02h.08s.04,0,.06-.01c.02,0,.03-.02,.05-.03,.01-.01,.02-.03,.03-.05,0-.02,.01-.04,.01-.06v-.04s-.02-.05-.04-.06Z"/>
    <polygon class="cls-1" points="358.82 79.64 363.38 88.76 369.53 83.89 362.41 76.42 358.82 79.64"/>
    <polygon class="cls-1" points="371.69 77.9 369.53 83.89 374.47 88.25 373.97 81.1 371.69 77.9"/>
  </g>
</svg>