<?xml version="1.0" encoding="UTF-8"?>
<svg id="Capa_1" data-name="Capa 1" xmlns="http://www.w3.org/2000/svg" viewBox="0 0 800 300">
  <defs>
    <style>
      .cls-1 {
        fill: #3b2c26;
      }

      .cls-2 {
        fill: #939393;
      }

      .cls-3 {
        fill: #fff;
      }

      .cls-4 {
        fill: #0080e1;
      }

      .cls-5 {
        fill: #bababa;
      }

      .cls-6 {
        fill: #e0464f;
      }

      .cls-7 {
        fill: #00abfe;
      }

      .cls-8 {
        fill: #5cd1ff;
      }

      .cls-9 {
        fill: #feb000;
      }

      .cls-10 {
        fill: #c87aed;
      }

      .cls-11 {
        fill: #3c4a5b;
      }

      .cls-12 {
        fill: #cedced;
      }

      .cls-13 {
        fill: #4d5a6d;
      }

      .cls-14 {
        fill: #eb7154;
      }

      .cls-15 {
        fill: #e9f2ff;
      }

      .cls-16 {
        fill: #7ad001;
      }

      .cls-17 {
        fill: #017326;
      }

      .cls-18 {
        fill: #ffad92;
      }

      .cls-19 {
        fill: #a765ce;
      }

      .cls-20 {
        fill: #ff6162;
      }
    </style>
  </defs>
  <path class="cls-15" d="M607.47,240.49c-.18,15.03-1.6,31.19-8.72,45.35H203.88c-11.72-40.92-16.6-84.92-3.85-125.39,9.89-31.4,29.88-58.85,53.42-81.87,32.8-32.07,74.37-56.93,119.18-61.88,43.11-8.59,88.94,2.4,126.06,25.94,37.12,23.54,65.88,58.9,85.66,98.16,10.31,20.47,18.38,42.28,21.45,64.99,1.55,11.48,1.82,23.11,1.68,34.69Z"/>
  <g>
    <rect class="cls-12" x="418.05" y="87.16" width="201.44" height="135.23" rx="8.31" ry="8.31"/>
    <g>
      <path class="cls-1" d="M559.95,148.61c.87-4.2-.59-8.49-1.72-12.63-1.75-6.41-2.73-13.03-2.92-19.67-.13-4.72,.12-9.51-1-14.1s-3.94-9.08-8.36-10.74c-.92-1.8-1.49-3.28-2.06-4.76-.75-1.97-1.52-3.97-2.77-5.67-2.9-3.95-7.99-5.72-12.88-6.04-9.31-.61-19.35,4.07-23,12.66-3.47,.71-5.78,4.02-6.09,7.58s1.42,7.21,4.47,9.28c-.26,14.6-.13,29.2,.02,44.19,12.9,3.11,26.19,4.58,39.45,4.35,5.21-.09,10.78-.57,16.83-4.46Z"/>
      <g>
        <path class="cls-20" d="M507.05,137.98c-5.7,3.06-9.09,9.13-11.46,15.15s-4.1,12.41-8.04,17.46c-3.59-7.7-6.82-15.56-9.77-23.64-3.27,2.74-6.42,5.63-9.49,9.25,.61,9.54,2.22,19.01,4.78,28.21,.84,3.02,1.81,6.05,3.57,8.64s4.45,4.7,7.55,5.11c3.32,.43,6.57-1.1,9.37-2.93,7.55-4.94,13.42-12.4,16.2-20.69,2.43-12.04,1.65-24.72-2.7-36.54Z"/>
        <path class="cls-6" d="M490.57,178.38c-.08,0-.15-.04-.19-.12-1.16-2.38-2.17-4.85-3-7.36-.04-.11,.02-.23,.13-.27,.11-.04,.23,.02,.27,.13,.82,2.49,1.82,4.95,2.98,7.31,.05,.1,0,.23-.1,.28-.03,.01-.06,.02-.09,.02Z"/>
        <path class="cls-6" d="M495.67,163.19c-.07,0-.13-.03-.18-.09-.07-.1-.04-.23,.06-.29,1.97-1.33,3.87-2.81,5.65-4.39,.09-.08,.22-.07,.3,.02s.07,.22-.02,.3c-1.79,1.59-3.71,3.08-5.69,4.42-.04,.02-.08,.04-.12,.04Z"/>
        <path class="cls-18" d="M477.21,148.66c-.56-2.96-1.13-5.93-1.79-8.94l1.04-4.68c.22-.98,.44-2.01,.16-2.98-.26-.89-.92-1.61-1.61-2.23-.79-.7-1.66-1.31-2.81-1.69-1.37-2.9-2.92-5.71-4.64-8.42-.39-.61-.79-1.22-1.28-1.75-.41-.44-1-.84-1.57-.65-.4,.14-.66,.55-.73,.97s.01,.85,.1,1.27c.25,1.18,.56,2.35,.79,3.57l-4.3,5.44c-.43,.54-.87,1.11-1,1.79-.19,.95,.27,1.89,.74,2.74,1.56,2.8,3.49,5.39,5.68,7.61,.44,.55,.88,1.09,1.44,1.89,.3,5.13,.91,10.24,2.17,14.83,1.8-1.23,3.43-2.69,4.92-4.28,1.26-1.34,3.01-2.87,2.7-4.49Z"/>
        <path class="cls-14" d="M469.14,139.33c-.11,0-.2-.08-.21-.19-.26-2.29,.49-4.66,2-6.4-.78-.35-1.52-.72-2.14-1.28-.76-.69-1.21-1.59-1.22-2.47,0-.38,.08-.69,.25-.92,.39-.51,1.09-.53,1.65-.48,.95,.07,1.91,.22,2.84,.42,.11,.03,.19,.14,.16,.25-.03,.11-.14,.19-.25,.16-.91-.2-1.85-.34-2.79-.41-.46-.04-1.02-.03-1.28,.32-.12,.15-.17,.37-.17,.66,0,.76,.4,1.55,1.08,2.16,.64,.58,1.45,.96,2.29,1.33,.06,.03,.11,.08,.12,.15,.01,.07,0,.14-.05,.19-1.56,1.66-2.35,4.01-2.09,6.28,.01,.12-.07,.22-.19,.23,0,0-.02,0-.02,0Z"/>
        <path class="cls-14" d="M463.55,134.9s-.04,0-.06,0c-.58-.03-1.06-.39-1.37-.66-.09-.08-.18-.16-.26-.24-.26-.24-.51-.46-.8-.62-.1-.05-.14-.18-.09-.29,.05-.1,.18-.14,.29-.09,.34,.18,.61,.43,.88,.68,.08,.08,.17,.15,.26,.23,.42,.36,.78,.54,1.12,.56,.39,.02,.8-.27,.88-.52,.03-.1,.12-.16,.22-.15,1.1,.08,2.21-.73,2.46-1.8,.02-.1,.12-.17,.23-.16,.5,.05,1.04-.21,1.3-.64,.06-.1,.19-.13,.29-.07,.1,.06,.13,.19,.07,.29-.32,.52-.92,.85-1.52,.85-.36,1.13-1.51,1.97-2.7,1.96-.2,.37-.7,.66-1.18,.66Z"/>
        <path class="cls-14" d="M464.58,134.02c-.05,0-.11-.02-.15-.06-1.3-1.31-2.49-2.74-3.55-4.25-.07-.1-.04-.23,.05-.29,.1-.07,.23-.04,.29,.05,1.04,1.49,2.22,2.9,3.51,4.2,.08,.08,.08,.22,0,.3-.04,.04-.09,.06-.15,.06Z"/>
        <path class="cls-14" d="M467.43,132.18c-.06,0-.12-.03-.16-.08-1.33-1.6-2.61-3.27-3.79-4.99-.07-.1-.04-.23,.05-.29,.1-.07,.23-.04,.29,.05,1.18,1.7,2.44,3.37,3.77,4.95,.07,.09,.06,.22-.03,.3-.04,.03-.09,.05-.14,.05Z"/>
        <path class="cls-14" d="M468.17,127.42c-.07,0-.14-.04-.18-.1-.87-1.48-1.94-2.83-3.19-4-.09-.08-.09-.21,0-.3,.08-.09,.21-.09,.3,0,1.28,1.2,2.38,2.58,3.27,4.09,.06,.1,.03,.23-.08,.29-.03,.02-.07,.03-.11,.03Z"/>
        <path class="cls-6" d="M466.94,162.39c.37-2.87,.52-5.77,.45-8.66,3.51-3.12,7.17-6.08,10.83-8.53,.73,.75,1.25,1.71,1.65,3.05-4.22,4.41-8.45,8.82-12.93,14.15Z"/>
      </g>
      <path class="cls-20" d="M557.35,199.31c-.11,7.81,1.51,15.5,3.44,23.09h-57.28c3.1-11.25,4.79-22.55,5.72-33.91-.76-2.21-1.68-4.41-2.57-6.63-1.79-4.46-3.51-8.99-3.78-13.79-.1-1.73-.01-3.44,.22-5.14,.48-3.55,1.57-7.04,2.82-10.47,.36-.99,.74-1.97,1.12-2.95,.15-.39,.31-.78,.46-1.17-.42-3.09-.54-6.56-.45-10.05,0-.1,0-.2,0-.3,5.3-3.12,10.93-5.93,16.75-8.56,.4-.18,.79-.35,1.19-.53,6.07-.39,12.18-.11,18.24,.82,4.8,.74,9.57,1.89,14.27,3.45,.31,.1,.62,.21,.92,.31,.05,.31,.11,.62,.16,.93,1.3,7.26,2.97,14.42,5.31,20.89-.94,5.07-1.83,10.15-2.69,15.23-.83,4.9-1.63,9.82-2.39,14.73-.72,4.66-1.41,9.34-1.48,14.05Z"/>
      <path class="cls-6" d="M509.42,188.27c-.09,0-.18-.06-.2-.16-.71-2.67-1.71-5.35-2.67-7.93-1.93-5.19-3.92-10.56-3.74-16.15,.18-5.53,2.51-10.86,4.57-15.56,.05-.11,.17-.16,.28-.11,.11,.05,.16,.17,.11,.28-2.04,4.67-4.35,9.96-4.53,15.41-.18,5.51,1.8,10.84,3.71,15.99,.96,2.6,1.96,5.28,2.68,7.97,.03,.11-.04,.23-.15,.26-.02,0-.04,0-.05,0Z"/>
      <path class="cls-6" d="M535.02,183.15c-.05,0-.11-.02-.15-.06-3.62-3.62-6.2-8.37-7.27-13.37-.02-.11,.05-.23,.16-.25,.11-.02,.23,.05,.25,.16,1.05,4.93,3.6,9.6,7.16,13.16,.08,.08,.08,.22,0,.3-.04,.04-.1,.06-.15,.06Z"/>
      <path class="cls-20" d="M583.26,208.85c-.82,4.23-1.32,9.36-1.85,13.55h-13.69c.13-11.06,.92-22.64,1.3-33.39-2.48-6.51-4.9-12.96-7.42-19.34-1.16-2.92-2.33-5.82-3.55-8.71-.81-3.6-1.26-7.37-1.36-11.22-.13-5.22,.41-10.57,1.61-15.76,.04-.17,.08-.34,.12-.5,.19,.02,.37,.05,.56,.08,3.97,.65,7.2,3.37,9.5,6.59,2.41,3.37,3.94,7.27,5.44,11.13,2.02,5.17,4.03,10.35,6.21,15.16,1.37,8.06,5.49,15.57,5.91,23.73,.33,6.31-1.58,12.48-2.79,18.67Z"/>
      <path class="cls-6" d="M570.22,188.86c-.05,0-.11-.02-.15-.06-.08-.08-.08-.21,0-.3l4.18-4.22s.14-.14,.27-.1c.07,.02,.13,.08,.15,.16,.03,.12,.04,.18-.77,1.02-.73,.76-1.92,1.92-3.53,3.45-.04,.04-.09,.06-.15,.06Z"/>
      <path class="cls-6" d="M570.49,188.71c-.09,0-.17-.06-.2-.14-.04-.11,.02-.23,.13-.27,1.23-.41,2.44-.79,3.68-.9,1.01-.09,2.47-.02,3.74,.79,.1,.06,.13,.19,.06,.29-.06,.1-.19,.13-.29,.06-1.16-.74-2.53-.8-3.47-.72-1.2,.11-2.38,.48-3.59,.88-.02,0-.05,.01-.07,.01Z"/>
      <path class="cls-6" d="M574.57,161.72s-.06,0-.09-.02c-2.65-1.32-4.9-3.33-6.5-5.82-.06-.1-.04-.23,.06-.29,.1-.06,.23-.04,.29,.06,1.56,2.42,3.75,4.38,6.33,5.67,.1,.05,.15,.18,.09,.28-.04,.07-.11,.12-.19,.12Z"/>
      <g>
        <path class="cls-18" d="M517.46,93.74c.71,.61,1.44,1.22,2.27,1.64,2.07,1.03,4.77,.65,6.47-.92,.8,1.41,1.93,2.62,3.33,3.28s3.05,.78,4.53,.32c.09,2.49,.32,4.72,1.78,6.14,.68,.66,1.56,1.07,2.43,1.46,.42-1.4,1.71-2.59,3.22-2.94,.92-.21,1.99-.08,2.65,.6,.35,.37,.56,.85,.69,1.35,.52,1.94,.05,4.07-1.01,5.78s-2.66,3.03-4.4,4.03c0,2.53-2.15,4.12-4.1,5.28-2.24,1.34-4.56,2.62-7.07,3.35s-5.25,.89-7.71,.01c-4.13-1.48-6.74-5.52-8.62-9.49-2.02-4.26-3.57-8.74-4.45-13.48,4.03,0,7.96-2.41,10-6.42Z"/>
        <path class="cls-18" d="M529.06,155.89c4.34-8.45,10.96-17.17,14.2-26.09-1.12-5.25-2.42-10.49-3.97-15.77-4.09,2-8.18,4-12.27,6-.72,.35-1.45,.71-2.33,.93-.45,3.2-.79,6.4-.94,9.59,2.4,8.46,2.17,16.87,5.31,25.33Z"/>
        <path class="cls-14" d="M523.86,123.91c-.55,0-1.1-.04-1.66-.12-.12-.02-.2-.12-.18-.24,.02-.12,.13-.2,.24-.18,3.71,.55,7.35-.97,10.11-2.36,1.12-.57,2.43-1.27,3.55-2.19,1.45-1.18,2.6-2.72,3.33-4.45,.05-.11,.17-.16,.28-.11,.11,.05,.16,.17,.11,.28-.75,1.79-1.95,3.38-3.45,4.61-1.15,.94-2.48,1.66-3.63,2.24-2.41,1.21-5.48,2.52-8.71,2.52Z"/>
        <path class="cls-14" d="M522.37,116.98c-.3,0-.61-.01-.91-.03-.12,0-.2-.11-.2-.23,0-.12,.11-.2,.23-.2,2.84,.2,5.7-.56,8.07-2.14,.1-.06,.23-.04,.29,.06,.06,.1,.04,.23-.06,.29-2.19,1.46-4.79,2.24-7.42,2.24Z"/>
        <path class="cls-1" d="M527.77,110.1c-2.66,0-4.83-2.17-4.83-4.83s2.17-4.83,4.83-4.83,4.83,2.17,4.83,4.83-2.17,4.83-4.83,4.83Zm0-8.95c-2.27,0-4.12,1.85-4.12,4.12s1.85,4.12,4.12,4.12,4.12-1.85,4.12-4.12-1.85-4.12-4.12-4.12Z"/>
        <path class="cls-1" d="M515,111.56c-2.66,0-4.83-2.17-4.83-4.83s2.17-4.83,4.83-4.83,4.83,2.17,4.83,4.83-2.17,4.83-4.83,4.83Zm0-8.95c-2.27,0-4.12,1.85-4.12,4.12s1.85,4.12,4.12,4.12,4.12-1.85,4.12-4.12-1.85-4.12-4.12-4.12Z"/>
        <path class="cls-1" d="M531.76,103.61c-.15,0-.29-.1-.34-.26-.05-.19,.06-.38,.24-.43,3.13-.89,6.49-1.11,9.71-.64,.19,.03,.33,.21,.3,.4-.03,.19-.21,.33-.4,.3-3.12-.45-6.38-.24-9.42,.62-.03,0-.06,.01-.1,.01Z"/>
        <path class="cls-1" d="M519.2,105.71c-.05,0-.11-.01-.16-.04-.17-.09-.24-.3-.16-.47,.4-.8,1.2-1.39,2.08-1.54,.88-.15,1.83,.14,2.48,.76,.14,.13,.14,.36,.01,.5-.13,.14-.36,.14-.5,.01-.49-.47-1.2-.69-1.87-.57-.67,.11-1.27,.56-1.57,1.16-.06,.12-.19,.19-.32,.19Z"/>
        <path class="cls-1" d="M508.4,106.53c-.18,0-.33-.13-.35-.31-.02-.19,.11-.37,.31-.39,.73-.09,1.46-.26,2.15-.51,.18-.07,.38,.03,.45,.21,.07,.18-.03,.38-.21,.45-.75,.27-1.52,.45-2.31,.55-.01,0-.03,0-.04,0Z"/>
        <path class="cls-10" d="M532.06,135.3c-.49,0-.98-.02-1.46-.08-3.49-.37-6.49-2.05-8.65-4.87-.12-.15-.09-.38,.06-.49,.15-.12,.38-.09,.49,.06,2.05,2.66,4.87,4.25,8.17,4.6,4.44,.46,9.54-1.36,13.66-4.87,.15-.13,.37-.11,.5,.04,.13,.15,.11,.37-.04,.5-3.82,3.26-8.47,5.11-12.73,5.11Z"/>
        <path class="cls-10" d="M533.11,133.94c-.46-.13-1,.16-1.14,.61s.12,1,.57,1.16,1.01-.09,1.18-.53-.03-1.08-.61-1.24Z"/>
        <path class="cls-10" d="M537.69,132.77c-.47,.01-.89,.45-.88,.92s.44,.9,.91,.9,.9-.43,.91-.9-.41-.91-.94-.92Z"/>
        <path class="cls-10" d="M528.43,133.3c-.37,.11-.83,.01-1.08,.3-.08,.09-.12,.22-.14,.34-.06,.45,.24,.93,.67,1.07s.96-.11,1.12-.54-.09-.97-.58-1.17Z"/>
      </g>
    </g>
    <path class="cls-2" d="M612.14,208.33h-186.74c-.19,0-.35-.16-.35-.35s.16-.35,.35-.35h186.74c.19,0,.35,.16,.35,.35s-.16,.35-.35,.35Z"/>
    <circle class="cls-3" cx="456.59" cy="207.98" r="3.92"/>
    <g>
      <path class="cls-2" d="M608.66,97.37c-.09,0-.18-.03-.25-.1-.14-.14-.14-.36,0-.5l3.88-3.88c.14-.14,.36-.14,.5,0,.14,.14,.14,.36,0,.5l-3.88,3.88c-.07,.07-.16,.1-.25,.1Z"/>
      <path class="cls-2" d="M612.54,97.37c-.09,0-.18-.03-.25-.1l-3.88-3.88c-.14-.14-.14-.36,0-.5,.14-.14,.36-.14,.5,0l3.88,3.88c.14,.14,.14,.36,0,.5-.07,.07-.16,.1-.25,.1Z"/>
    </g>
    <g>
      <path class="cls-2" d="M423.91,95.43c-.09,0-.18-.03-.25-.1-.14-.14-.14-.36,0-.5l1.94-1.94c.14-.14,.36-.14,.5,0,.14,.14,.14,.36,0,.5l-1.94,1.94c-.07,.07-.16,.1-.25,.1Z"/>
      <path class="cls-2" d="M425.85,97.37c-.09,0-.18-.03-.25-.1l-1.94-1.94c-.14-.14-.14-.36,0-.5,.14-.14,.36-.14,.5,0l1.94,1.94c.14,.14,.14,.36,0,.5-.07,.07-.16,.1-.25,.1Z"/>
    </g>
    <rect class="cls-5" x="430.71" y="92.64" width="52.12" height="3.41"/>
  </g>
  <g>
    <g>
      <path class="cls-18" d="M333.01,265.2c5.66,7.91,11.95,16.24,21.17,19.32,9.36,3.13,19.54,.11,28.95-2.89,16.43-9.25,33.23-18.67,50.03-28.09,3.97,3.27,9.31,4.13,13.73,2.38,3.48,1.15,6.97,1.87,10.01,.54,2.04-.89,3.6-2.6,4.84-4.44s2.21-3.85,3.46-5.69c3.21,1.26,6.76,2.1,10.36,2.55,1.4,.18,3.28-.04,3.54-1.42-7.62-4.5-15.39-8.76-23.28-12.77-1.39-.71-2.85-1.42-4.4-1.44-1.14-.01-2.26,.35-3.34,.72-4.16,1.41-8.3,2.88-12.41,4.42-24.9,4.43-50.02,10.78-74.42,19.25-.19-.98-.33-1.91-.07-3.4-9.17,4.26-18.63,7.91-28.17,10.96Z"/>
      <path class="cls-14" d="M354.62,263.4c-.06,0-.12-.03-.16-.08-.07-.09-.06-.22,.03-.3l6.75-5.59c.09-.07,.22-.06,.3,.03,.07,.09,.06,.22-.03,.3l-6.75,5.59s-.09,.05-.13,.05Z"/>
      <path class="cls-14" d="M465.18,246.44s-.05,0-.07-.01c-4.21-1.45-8.54-2.68-12.89-3.66-.11-.03-.19-.14-.16-.25,.03-.11,.14-.19,.25-.16,4.36,.98,8.71,2.22,12.93,3.67,.11,.04,.17,.16,.13,.27-.03,.09-.11,.14-.2,.14Z"/>
      <path class="cls-14" d="M450.23,253.34c-2.52,0-5.04-.28-7.47-.85-.11-.03-.18-.14-.16-.25,.03-.11,.14-.18,.25-.16,4.2,.97,8.67,1.1,12.92,.36,.86-.15,1.91-.5,2.05-1.32,.07-.45-.15-.95-.68-1.5-1.11-1.17-2.61-1.93-4.06-2.67-1.36-.69-2.78-1.41-3.91-2.47-.08-.08-.09-.21,0-.3,.08-.09,.21-.09,.3,0,1.09,1.03,2.47,1.73,3.81,2.4,1.48,.75,3.01,1.53,4.18,2.75,.62,.65,.88,1.28,.79,1.86-.14,.84-.97,1.42-2.39,1.67-1.84,.32-3.73,.48-5.62,.48Z"/>
      <path class="cls-14" d="M442.36,255.25c-.09,0-.18-.06-.2-.15-.03-.11,.03-.23,.14-.26,1.57-.47,3.04-1.2,4.35-2.18,.09-.07,.23-.05,.3,.04,.07,.09,.05,.23-.04,.3-1.36,1.01-2.87,1.76-4.49,2.25-.02,0-.04,0-.06,0Z"/>
    </g>
    <path class="cls-7" d="M320.05,266.98c.6,6.15,1.11,12.48,1.6,18.86h-117.02c-1.27-3.68-2.78-6.94-4.36-10.17-1.07-2.17-2.18-4.36-3.79-6.18-1.6-1.82-3.76-3.26-6.17-3.53-1.94-4.23-1.17-7.91-.36-11.21,1.52-6.18,3.04-12.36,4.56-18.54,.71-2.88,1.42-5.77,1.75-8.71,.19-1.72,.26-3.48,.86-5.1,.6-1.62,1.87-3.13,3.57-3.44,.87-3.17,1.97-5.93,3.25-8.61,3.59-10.42,7.99-20.87,16.82-26.73,2.9-1.92,6.14-3.25,9.35-4.56,8.03-3.28,16.11-6.58,24.58-8.47,.78-.87,1.79-1.53,2.95-1.98,2.41-.93,5.44-.91,8.28,.25,9.95,2.05,19.92,2.29,30.3,4.45,1.24,.26,2.4-.65,3.64-.91,1.2-.25,2.44,.13,3.61,.51,.35,.12,.69,.23,1.04,.35,9.87,3.39,19.32,8.03,28.03,13.79,8.16,8.09,13.73,18.05,16.2,28.75,2.49,1.25,3.88,2.63,4.22,4.42,.26,1.33-.11,2.69-.24,4.04-.19,2.01,.16,4.04,.51,6.03,1.36,7.8,2.72,15.6,4.08,23.39-6.24,2.99-11.92,6.46-18,9.08-6.09,2.62-12.64,4.37-19.26,4.21Z"/>
    <path class="cls-8" d="M325.66,266.53c10.42-5.74,20.97-11.26,31.63-16.54,1.2-.59,2.98-1.02,3.59,.17,.4,.77-.02,1.78,.4,2.54,.44,.78,1.66,1.04,1.79,1.92,.12,.76-.67,1.32-1.35,1.68-10.91,5.79-22.24,10.78-33.94,14.74-.51-1.55-1.13-3.07-2.13-4.51Z"/>
    <path class="cls-4" d="M227.72,256.07s-.06,0-.1-.02c-.1-.05-.15-.18-.09-.28,4.79-9.42,9.77-18.91,14.8-28.2,.06-.1,.18-.14,.29-.09,.1,.06,.14,.18,.09,.29-5.02,9.29-10,18.78-14.79,28.2-.04,.07-.11,.12-.19,.12Z"/>
    <path class="cls-4" d="M238.22,235.97c-.07,0-.14-.04-.18-.1-.06-.1-.03-.23,.07-.29l6.72-4.17c.1-.06,.23-.03,.29,.07,.06,.1,.03,.23-.07,.29l-6.72,4.17s-.07,.03-.11,.03Z"/>
    <path class="cls-4" d="M200.9,223.27c-.09,0-.18-.06-.2-.15-.03-.11,.03-.23,.14-.26l5.24-1.56c1.49-.44,3.03-.9,4.49-1.5,4.65-1.9,8.56-5.18,12.34-8.35,.09-.07,.22-.06,.3,.03,.07,.09,.06,.22-.03,.3-3.81,3.19-7.74,6.49-12.45,8.41-1.48,.6-3.03,1.07-4.53,1.51l-5.24,1.56s-.04,0-.06,0Z"/>
    <path class="cls-4" d="M346.67,219.25s-.06,0-.08-.02c-5.62-2.4-10.4-6.91-13.11-12.39-.05-.1,0-.23,.1-.28,.1-.05,.23,0,.28,.1,2.67,5.39,7.37,9.83,12.9,12.19,.11,.05,.16,.17,.11,.28-.03,.08-.11,.13-.19,.13Z"/>
    <path class="cls-4" d="M319.96,267.36h0c-.12,0-.21-.1-.21-.21l.84-56.62c0-.12,.1-.21,.21-.21h0c.12,0,.21,.1,.21,.21l-.84,56.62c0,.12-.1,.21-.21,.21Z"/>
    <path class="cls-4" d="M304.52,173.27c-1.33,3.72-3.73,8.24-6.83,10.71-3.26,2.6-7.03,5.39-10.98,7.23-11.93-1.86-25.98-9.81-32.01-20.62,3.09-3.66,8.39-2.88,11.24-1.73,9.95,2.05,19.92,2.29,30.3,4.45,1.24,.26,2.4-.65,3.64-.91,1.2-.25,2.44,.13,3.61,.51,.35,.12,.69,.23,1.04,.35Z"/>
    <g>
      <path class="cls-1" d="M314.56,129.23c2.5-1.8,4.78-3.97,6.35-6.63s2.36-5.84,1.79-8.86-2.6-5.84-6.08-6.85c-2.41-4.61-6.4-8.32-11.02-10.72s-9.85-3.5-15.06-3.53c-6.43-.04-12.92,1.57-18.39,4.95s-9.88,8.57-11.75,14.94c-3.03,.11-5.74,2.23-7.16,4.91s-1.73,5.82-1.55,8.84c.48,7.87,4.47,15.75,11.21,19.57,4.45,1.92,9.7,.73,13.95-1.6,4.25-2.34,7.81-5.71,11.75-8.54,2.87-2.06,5.97-3.84,9.33-4.92,5.05-1.63,10.46-1.63,16.65-1.55Z"/>
      <path class="cls-18" d="M285.67,185.36c-8.05-4.12-16.45-8.53-21.52-16.01,2.92-7.67,5.44-15.24,7.93-23.09,7.42,5.43,16.57,8.45,26.07,8.28-.61,7.46-.78,14.96-.49,22.63-3.43,3.21-7.3,5.97-11.99,8.19Z"/>
      <path class="cls-18" d="M318.37,120.11c-1.27,9.65-3.07,19.23-5.37,28.69-.85,3.51-1.81,7.08-3.84,10.07-4.34,6.39-12.86,8.85-20.75,7.85-7.43-2.18-14.11-6.84-18.68-13.16-3.24-.02-5.89-2.53-7.84-5.12-1.41-1.88-2.68-4-2.78-6.35s1.34-4.89,3.65-5.32c1.48-.27,3.01,.36,4.16,1.34s1.97,2.27,3.33,3.38c.49,.79,1.18,1.69,2.11,1.57,.97-.12,1.41-1.26,1.63-2.21,1.22-5.34,1.68-10.85,1.07-16.31,4.87-.73,9.44-3.27,12.96-7.18-.97,2.09-1.71,4.28-2.21,6.53-.12,.55-.23,1.12-.15,1.68s.39,1.12,.9,1.36c.43,.2,.94,.15,1.41,.09,4.11-.55,8.11-1.94,11.62-3.99-.3,1.06,.2,2.28,1.15,2.83,1.11,.65,2.51,.35,3.76,.02,2.51-.67,5.01-1.4,7.48-2.18,2.3-.73,4.65-1.55,6.37-3.61Z"/>
      <path class="cls-14" d="M297.21,154.06c-3.41,0-6.83-1.14-9.43-3.33-.09-.08-.1-.21-.02-.3,.08-.09,.21-.1,.3-.02,4.35,3.68,11.09,4.29,16.03,1.46,.1-.06,.23-.02,.29,.08,.06,.1,.02,.23-.08,.29-2.14,1.23-4.61,1.83-7.09,1.83Z"/>
      <path class="cls-14" d="M295.04,166.37c-1.55,0-3.17-.16-4.84-.47-7.94-1.49-15.2-6.1-19.92-12.65-.07-.09-.05-.23,.05-.3,.09-.07,.23-.05,.3,.05,4.66,6.46,11.82,11.01,19.66,12.48,4.52,.85,8.7,.52,12.07-.95,.11-.05,.23,0,.28,.11,.05,.11,0,.23-.11,.28-2.2,.96-4.73,1.44-7.47,1.44Z"/>
    </g>
    <g>
      <path class="cls-12" d="M346.67,285.85v-3.86s-3.26-5.32-13.01-2.91c-9.75,2.41-32.79,3.07-32.79,3.07l-1.36,3.7h47.15Z"/>
      <path class="cls-12" d="M346.67,285.85v-3.86s3.26-5.32,13.01-2.91,32.79,3.07,32.79,3.07l1.36,3.7h-47.15Z"/>
      <polygon class="cls-5" points="300.87 282.15 268.74 282.15 266.23 285.85 299.52 285.85 300.87 282.15"/>
    </g>
    <g>
      <path class="cls-1" d="M320.72,263.14c-2.82-4.49-5.33-9.18-7.52-14.01-.8-1.77-1.57-3.63-1.49-5.57,.04-.79,.39-1.75,1.18-1.84,.78-.09,1.34,.72,1.69,1.43,3.36,6.63,6.66,13.28,10.05,19.92-1.2,.1-2.42,.02-3.91,.07Z"/>
      <path class="cls-18" d="M338.22,272.42c-.11,1.21-1.17,2.22-2.37,2.41-.38,1.28-1.61,2.28-2.96,2.38-.87,1.52-2.74,2.06-4.44,2.38-9.36,1.79-19.62,3.33-28.63,.23-18.26,4.01-36.33,4.51-54.92,6.02h-42.39c-.1-.02-.2-.04-.3-.05-3.05-.56-6.24-1.45-8.35-3.72-1.72-1.85-2.5-4.42-2.63-6.95-.14-2.52,.32-5.04,.76-7.53,10.36-3.39,21.09-6.83,31.97-9.64,23.88,2.82,48.82,5.63,73.41,8.51,6.92-1.26,13.77-2.92,20.49-4.99,.6-.17,1.43-.6,2.49-.6,1.13,0,2.18,.55,3.23,.97,2.34,.94,4.68,1.89,7.02,2.83,1.25,.5,2.52,1.02,3.59,1.84,1.07,.82,1.94,2,2.07,3.34,1.12,.1,2.07,1.35,1.95,2.56Z"/>
      <path class="cls-14" d="M336.14,269.9s-.04,0-.06,0c-3.01-.88-6.08-1.68-9.14-2.38-.11-.03-.18-.14-.16-.25,.03-.11,.14-.18,.25-.16,3.06,.71,6.14,1.51,9.16,2.39,.11,.03,.18,.15,.14,.26-.03,.09-.11,.15-.2,.15Z"/>
      <path class="cls-14" d="M335.78,275.07s-.04,0-.06,0c-3.29-.92-6.68-1.61-10.07-2.05-.12-.02-.2-.12-.18-.24s.12-.2,.24-.18c3.41,.45,6.81,1.14,10.12,2.07,.11,.03,.18,.15,.15,.26-.03,.09-.11,.15-.2,.15Z"/>
      <path class="cls-14" d="M325.22,277.58c-.12,0-.21-.09-.21-.21,0-.12,.09-.21,.21-.21l7.65-.1h0c.12,0,.21,.09,.21,.21,0,.12-.09,.21-.21,.21l-7.65,.1h0Z"/>
      <path class="cls-14" d="M320.47,277.68s-.04,0-.05,0c-.11-.03-.18-.15-.15-.26,1.17-4.37,1.98-8.86,2.4-13.36,.01-.12,.12-.2,.23-.19,.12,.01,.2,.11,.19,.23-.43,4.52-1.24,9.04-2.42,13.43-.03,.09-.11,.16-.2,.16Z"/>
      <path class="cls-8" d="M186.85,261.32c12.1-4.35,24.96-6.43,37.81-6.59,1.23-.01,2.49,0,3.62,.47s2.11,1.52,2.3,3.12c-5.86,1.49-11.73,2.98-17.59,4.46-6.78,1.72-13.59,3.45-19.96,6.35-1.12,.51-2.29,1.06-3.51,.94s-2.43-1.24-2.15-2.43c.13-.57,.57-1.06,.6-1.64,.04-.84-.75-1.45-1.32-2.07s-1.12-2.14,.19-2.61Z"/>
    </g>
  </g>
  <g>
    <circle class="cls-9" cx="216.57" cy="77.33" r="36.62"/>
    <path class="cls-13" d="M199.52,87.77c-.24,0-.48-.13-.61-.36-.19-.34-.08-.77,.26-.96l16.83-9.61,9.68-25.79c.14-.36,.54-.55,.91-.41,.36,.14,.55,.54,.41,.91l-9.77,26.03c-.06,.15-.17,.28-.31,.36l-17.05,9.73c-.11,.06-.23,.09-.35,.09Z"/>
    <circle class="cls-3" cx="216.57" cy="77.33" r="2.62"/>
  </g>
  <g>
    <rect class="cls-16" x="388.11" y="102.5" width="59.87" height="59.87" rx="29.93" ry="29.93"/>
    <circle class="cls-3" cx="398.19" cy="116.33" r="3.62"/>
    <path class="cls-17" d="M441.52,117.04h-35.55c-.39,0-.7-.32-.7-.7s.32-.7,.7-.7h35.55c.39,0,.7,.32,.7,.7s-.32,.7-.7,.7Z"/>
    <circle class="cls-3" cx="398.19" cy="132.44" r="3.62"/>
    <path class="cls-17" d="M441.52,133.14h-35.55c-.39,0-.7-.32-.7-.7s.32-.7,.7-.7h35.55c.39,0,.7,.32,.7,.7s-.32,.7-.7,.7Z"/>
    <circle class="cls-3" cx="398.19" cy="148.54" r="3.62"/>
    <path class="cls-17" d="M441.52,149.25h-35.55c-.39,0-.7-.32-.7-.7s.32-.7,.7-.7h35.55c.39,0,.7,.32,.7,.7s-.32,.7-.7,.7Z"/>
  </g>
  <g>
    <rect class="cls-20" x="316.95" y="17.46" width="59.87" height="59.87" rx="29.93" ry="29.93"/>
    <path class="cls-3" d="M336.97,58.79v-22.77c0-3.92,4.74-5.88,7.51-3.11l10.78,10.78c2.05,2.05,2.05,5.39,0,7.44l-10.78,10.78c-2.77,2.77-7.51,.81-7.51-3.11Z"/>
  </g>
  <path class="cls-10" d="M537.88,285.85h-73.71c-3.15,0-4.97-3.58-3.12-6.13l29.61-40.66c1.51-2.08,3.93-3.3,6.49-3.3h73.71c3.15,0,4.97,3.58,3.12,6.13l-29.61,40.66c-1.51,2.08-3.93,3.3-6.49,3.3Z"/>
  <path class="cls-19" d="M493.4,285.85h77.34c1.48,0,2.34-1.68,1.46-2.88l-13.92-19.11c-.71-.98-1.84-1.55-3.05-1.55h-77.34c-1.48,0-2.34,1.68-1.46,2.88l13.92,19.11c.71,.98,1.84,1.55,3.05,1.55Z"/>
  <g>
    <path class="cls-9" d="M424.84,61.86c-.34-.46-.36-1.09-.06-1.58l.67-1.07,.3-.48,.67-1.07c.31-.49,.88-.74,1.45-.63l5.06,.95c.7,.13,1.05,.93,.67,1.54l-1.87,2.97-.3,.48-1.87,2.97c-.38,.6-1.25,.64-1.67,.06l-3.05-4.15Z"/>
    <path class="cls-7" d="M437.57,74.67c1.37,.26,2.76-.35,3.51-1.53l1.63-2.59,.73-1.16,1.63-2.59c.74-1.18,.69-2.7-.14-3.83l-7.38-10.06c-1.02-1.4-3.13-1.32-4.06,.15l-4.54,7.21-.73,1.16-4.54,7.21c-.92,1.47-.08,3.4,1.62,3.72l12.26,2.31Z"/>
    <path class="cls-13" d="M416.88,63.89c-.37,0-.68-.28-.7-.65-.46-6.51,2.38-11.03,8.45-13.42,.36-.14,.77,.03,.91,.4,.14,.36-.03,.77-.4,.91-5.51,2.17-7.98,6.1-7.56,12.01,.03,.39-.26,.72-.65,.75-.02,0-.03,0-.05,0Z"/>
    <path class="cls-13" d="M409.79,65.28c-.37,0-.68-.28-.7-.65-.75-10.58,3.86-17.91,13.73-21.8,.36-.14,.77,.03,.91,.4,.14,.36-.03,.77-.4,.91-9.36,3.69-13.56,10.36-12.84,20.39,.03,.39-.26,.72-.65,.75-.02,0-.03,0-.05,0Z"/>
    <path class="cls-13" d="M402.65,65.31c-.37,0-.68-.28-.7-.65-.98-13.72,5.01-23.23,17.8-28.28,.36-.14,.77,.03,.91,.4,.14,.36-.03,.77-.4,.91-12.33,4.86-17.86,13.65-16.92,26.87,.03,.39-.26,.72-.65,.75-.02,0-.03,0-.05,0Z"/>
  </g>
  <path class="cls-11" d="M642.21,286.2H157.79c-.19,0-.35-.16-.35-.35s.16-.35,.35-.35h484.42c.19,0,.35,.16,.35,.35s-.16,.35-.35,.35Z"/>
</svg>