<?xml version="1.0" encoding="UTF-8"?>
<svg id="Capa_1" data-name="Capa 1" xmlns="http://www.w3.org/2000/svg" viewBox="0 0 800 400">
  <defs>
    <style>
      .cls-1 {
        fill: #faf1e7;
      }

      .cls-2 {
        fill: #fff;
      }

      .cls-3 {
        fill: #fdb0b2;
      }

      .cls-4 {
        fill: #1cadb4;
      }

      .cls-5 {
        fill: #228cb3;
      }

      .cls-6 {
        fill: #4e9eb8;
      }

      .cls-7 {
        fill: #e26a85;
      }

      .cls-8 {
        fill: #be164b;
      }

      .cls-9 {
        fill: #e67c92;
      }

      .cls-10 {
        fill: #64bcbe;
      }

      .cls-11 {
        fill: #d8b236;
      }

      .cls-12 {
        fill: #e9c9bf;
      }

      .cls-13 {
        fill: #7a77bd;
      }

      .cls-14 {
        fill: #c92b46;
      }

      .cls-15 {
        fill: #494a89;
      }
    </style>
  </defs>
  <g id="Layer0_18_FILL" data-name="Layer0 18 FILL">
    <path class="cls-15" d="M350.51,270.67l-23.05,49.66h135.65l-15.84-41.68-33.82-7.98h-62.94Zm87.3-199.24c-1.17-3.43-3.64-6.26-6.88-7.87-3.41-.62-6.93-.02-9.94,1.69-3.11,1.65-6.59,2.48-10.11,2.4-.29-.04-1.77-.51-4.42-1.42-1.37-.55-2.87-.69-4.32-.38-1.68,.66-3.04,1.93-3.82,3.55-1.75,2.99-2.75,4.63-3,4.92-1.67,1.63-3.59,2.97-5.68,3.99-2.09,.99-3.96,2.38-5.52,4.1-1.95,3.13-2.56,6.91-1.69,10.49,.7,3.84,.99,7.74,.87,11.64-.14,.8-.6,2.42-1.37,4.86-.57,1.54-.9,3.16-.98,4.81,0,1.76,.72,3.45,2.02,4.64,1,1.3,2.79,1.71,4.26,.98,.63-.36,1.14-.89,1.48-1.53,2.47,.96,4.52,2.76,5.79,5.08,.5,1.24,.81,2.55,.93,3.88,.29,2.37,.47,3.72,.55,4.04,.41,1.91,1.25,3.71,2.46,5.24,1.16,1.57,2.65,2.85,4.37,3.77,1.86,.93,3.88,1.48,5.95,1.64,1.05,.11,2.11,.17,3.17,.16l-.27-4.21-.55-8.36c-5.02-.75-9.71-2.95-13.49-6.33-.47-.43-.94-.89-1.42-1.37-3.45-3.36-5.92-7.59-7.15-12.24-.42-1.67-.69-3.37-.82-5.08,1.02-1.82,2.44-3.39,4.15-4.59,2.26-1.57,4.22-3.53,5.79-5.79,.56-1.17,.91-2.42,1.04-3.71,.14-1.75,.25-3.06,.33-3.93-.03-2.66,1.18-5.19,3.28-6.83,1.18-.69,2.64-.69,3.82,0,1.02,.35,1.73,1.27,1.8,2.35,2.54-.88,5.31-.83,7.81,.16,2.73,.93,4.98,2.92,6.23,5.52,.99,2.69,1.61,5.5,1.86,8.36,.16,2.81,1.02,5.54,2.51,7.92,.7,.99,1.73,1.7,2.9,2.02,.61,.07,1.24-.02,1.8-.27,.58-.22,1.05-.65,1.31-1.2,.19-.52,.25-1.09,.16-1.64-.14-.73-.23-1.27-.27-1.64-.07-.58,.04-1.18,.33-1.69,.23-.51,.76-.82,1.31-.76,.62,.17,1.12,.61,1.37,1.2,1.15,2.38,1.44,5.08,.82,7.65-.33,2.08-.51,3.42-.55,4.04-.12,1.3-.03,2.61,.27,3.88,.26,1.13,.87,2.14,1.75,2.9-.87,1.21-1.84,2.34-2.9,3.39-1.84,1.87-3.94,3.47-6.23,4.75l.87,8.36,.6,5.52c.95-.38,1.83-.89,2.62-1.53,1.46-1.35,2.57-2.37,3.33-3.06,1.07-1.03,2.28-1.9,3.61-2.57,1.33-.47,2.7-.84,4.1-1.09,1.37-.24,2.71-.64,3.99-1.2,2.07-1.14,3.63-3.01,4.37-5.24,.83-2.31,1.2-4.76,1.09-7.21-.04-.66-.27-3.04-.71-7.15-.11-.89-.2-1.73-.27-2.51-.1-1.55-.05-3.11,.16-4.64,1.17-4.33,1.97-7.56,2.4-9.67,.09-.42,.16-.84,.22-1.26,.56-2.55-.07-5.22-1.69-7.26-1.3-1.31-2.89-2.3-4.64-2.9-1.74-.61-3.43-1.37-5.03-2.29-2.7-2.67-4.79-5.9-6.12-9.46Z"/>
    <path class="cls-3" d="M429.78,134.96v.05c-2.09,1.16-4.34,2.02-6.67,2.57-2.15,.48-4.35,.72-6.56,.71-1.52,0-3.03-.11-4.53-.33-.12-.02-.24-.04-.38-.05l.27,4.21,.44,5.95h-9.18l-3.61,14.04,13.06,7.32,27.21-5.19,4.7-12.73-.71-.05-12.35-1.31-1.09-9.67-.6-5.52h0Zm85.99-99.21l-10.92-9.34-19.45,21.2,17.43,14.09,6.06,30.81c.46-.18,.94-.32,1.42-.44,2.36-.48,4.81,.03,6.78,1.42,2.03,1.13,3.3,3.25,3.33,5.57-.34,2.87-1.92,5.44-4.32,7.05-.98,.78-2.27,1.8-3.88,3.06l4.21,21.25,1.86,10.16-7.7-8.03-10.87,3.93,3.93,23.27,49.17-24.91-26.22-72.06-10.82-27.04h0Zm-112.98,43.93c-2.09,1.64-3.31,4.17-3.28,6.83-.07,.87-.18,2.18-.33,3.93-.12,1.29-.48,2.55-1.04,3.71-1.57,2.26-3.53,4.22-5.79,5.79-1.71,1.2-3.13,2.77-4.15,4.59,.13,1.71,.4,3.41,.82,5.08,1.24,4.65,3.71,8.88,7.15,12.24,.48,.48,.95,.93,1.42,1.37,3.79,3.38,8.47,5.58,13.49,6.34,1.52,.26,3.05,.39,4.59,.38,4.62,.06,9.18-1.09,13.22-3.33,2.29-1.28,4.39-2.88,6.23-4.75,1.06-1.05,2.03-2.18,2.9-3.39-.88-.75-1.49-1.77-1.75-2.9-.3-1.27-.39-2.58-.27-3.88,.04-.62,.22-1.97,.55-4.04,.62-2.57,.33-5.27-.82-7.65-.24-.59-.75-1.03-1.37-1.2-.56-.05-1.08,.26-1.31,.76-.29,.52-.4,1.11-.33,1.69,.04,.36,.13,.91,.27,1.64,.08,.55,.03,1.12-.16,1.64-.26,.56-.73,.99-1.31,1.2-.57,.25-1.19,.34-1.8,.27-1.17-.32-2.19-1.03-2.9-2.02-1.49-2.39-2.36-5.11-2.51-7.92-.25-2.86-.87-5.67-1.86-8.36-1.25-2.6-3.5-4.59-6.23-5.52-2.5-.99-5.27-1.05-7.81-.16-.07-1.07-.78-2-1.8-2.35-1.18-.69-2.64-.69-3.82,0h0Zm-51.9,50.09l-5.57-8.91-3.17-5.08,32.4-54.03,.27,.11,15.46,5.46v-.87l10.16-11.64-23.49-18.57-66.87,83.09,27.21,28.08,13.6-17.64Z"/>
    <path class="cls-6" d="M475.83,212.76l33.43-19.89-2.13-12.56c-24.41,15.08-50.03,28.11-76.59,38.95,6.26-.11,15.68-.16,28.24-.16-15.5,13.8-31.77,26.72-48.73,38.68,5.28-.73,13.15-1.88,23.6-3.44-13.45,4.27-26.48,9.74-38.95,16.33h18.74l33.82,7.98,28.57-65.89Z"/>
    <path class="cls-2" d="M455.68,152.61l-.27,.11-10.87-1.2-4.7,12.73-27.21,5.19-13.06-7.32,3.61-14.04h-8.19l-5.57,17.59,13.77,11.25-4.92,19.18,12.02,1.58,6.17-18.58,27.15-3.28,12.07-23.22Z"/>
    <path class="cls-10" d="M503.64,159.77l-3.93-23.27-36.71,13.44-7.32,2.68-12.07,23.22-27.15,3.28-6.17,18.58-12.02-1.58,4.92-19.18-13.77-11.25,5.57-17.59-20.43,.05-23.66-18.36-13.61,17.65-4.59,6.01-4.32,26.82,24.31,15.9-5.96,67.2,3.77,7.32h44.2c12.47-6.6,25.5-12.07,38.95-16.33-10.45,1.57-18.32,2.71-23.6,3.44,16.96-11.96,33.23-24.88,48.73-38.68-12.57,0-21.98,.05-28.24,.16,26.57-10.84,52.19-23.87,76.59-38.95l-1.58-9.23-1.91-11.31Z"/>
    <path class="cls-5" d="M516.21,164.85l-10.65,6.23,1.58,9.23,2.13,12.56,6.94-28.02Z"/>
    <path class="cls-9" d="M516.43,130.43l-5.85,2.13,7.7,8.03-1.86-10.16Zm39.01,11.58l-2.62-7.15-49.17,24.91,1.91,11.31,10.65-6.23,39.23-22.84h0Zm-139.75-12.07c-1.54,0-3.07-.13-4.59-.38l.55,8.36c.14,.02,.27,.04,.38,.05,1.5,.22,3.02,.33,4.53,.33,2.2,0,4.4-.23,6.56-.71,2.33-.55,4.57-1.41,6.67-2.57v-.05l-.88-8.36c-4.04,2.25-8.6,3.4-13.22,3.34Zm-73.53-14.15l3.17,5.08,29.5-59-.27-.11-32.4,54.03h0Zm-32.07,3.55l-3.17,3.99,25.79,30.1,4.59-6.01-27.21-28.08Z"/>
    <path class="cls-14" d="M520.41,99.07c-.03-2.32-1.3-4.45-3.33-5.57-1.96-1.39-4.42-1.9-6.78-1.42-.48,.12-.96,.26-1.42,.44l3.33,16.66c1.61-1.26,2.9-2.28,3.88-3.06,2.4-1.6,3.98-4.18,4.32-7.05Z"/>
    <path class="cls-7" d="M482.83,122.29c-1.35,.36-4.01,.97-7.98,1.8-2.66,.51-5.29,1.19-7.87,2.02-7.22,2.55-13.42,7.38-17.65,13.77-2.5,3.51-4.36,7.43-5.52,11.58l.71,.05,10.87,1.2,.27-.11,7.32-2.68c1.02-3.01,2.54-5.84,4.48-8.36,4.08-5.83,10.47-9.63,17.54-10.43,1.42-.18,3.59-.35,6.5-.49,2.12-.09,4.2-.67,6.06-1.69,2.81-1.95,4.94-4.71,6.12-7.92,1.3-3.24,3.01-6.31,5.08-9.12,1.27-1,2.42-1.92,3.44-2.73l-3.33-16.66c-1.69,.7-3.2,1.76-4.43,3.11-1.6,1.71-2.86,3.72-3.71,5.9-.26,.62-.93,2.7-2.02,6.23-.57,2.07-1.42,4.05-2.51,5.9-3.3,4.37-8.04,7.43-13.38,8.63Z"/>
    <path class="cls-11" d="M475.56,82.46c-.67,.93-1.25,1.92-1.75,2.95-1.52,3.32-4.32,5.88-7.76,7.1-1.91,.57-3.9,.83-5.9,.76-2.17,0-3.79,.02-4.86,.05-.06,.41-.13,.83-.22,1.26-.44,2.11-1.24,5.34-2.4,9.67-.21,1.54-.27,3.09-.16,4.64,.41-.25,.83-.49,1.26-.71,1.84-.97,3.78-1.72,5.79-2.24,1.06-.26,3.08-.69,6.06-1.31,2.05-.44,4.08-1.01,6.06-1.69,1.94-.71,3.76-1.7,5.41-2.95,2.13-1.68,3.75-3.91,4.7-6.45,.97-2.5,1.24-5.22,.76-7.87-.18-1.23-.67-2.39-1.42-3.39-.66-.98-1.77-1.56-2.95-1.53-1.07,.18-2.02,.8-2.62,1.7Z"/>
  </g>
  <g id="Layer0_19_FILL" data-name="Layer0 19 FILL">
    <path class="cls-8" d="M514.79,320.33l8.47-17.15-11.36-23.44-8.91,26.82-60.26-2.4,5.3,16.17h66.76Z"/>
    <path class="cls-5" d="M470.21,258.81l-16.83,2.9,9.23,18.03h22.34l-8.36-22.07-6.39,1.15Zm87.63-29.55l-20.27,6.17-30.37,9.18-15.41,13.93-1.86-9.56,44.69-35.4-5.9-1.8,21.63-19.78,43.32-10.6,13.55,16.01,2.35-5.68-15.19-18.19-50.53,13.71-18.85,23.44-9.56-2.9-48.13,34.8,1.75,10h14.2l6.61,27.15h10.76l-.98-20.05,68.01-8.58-9.83-21.85Z"/>
    <path class="cls-15" d="M469.06,252.58l1.15,6.23,6.39-1.15,8.36,22.07h4.92l-6.61-27.15h-14.2Zm37.7,27.15v-17.43l55.72-4.04,5.19-7.15-68.01,8.58,.98,20.05h6.12Zm30.81-44.3l15.62-19.56h46.38l7.65-18.47-13.55-16.01-43.32,10.6-21.63,19.78,5.9,1.8-44.69,35.4,1.86,9.56,15.41-13.93,30.37-9.18Z"/>
    <path class="cls-7" d="M511.89,279.74h-53.7l-15.46,24.42,60.26,2.4,8.9-26.82Z"/>
  </g>
  <g id="Layer0_62_FILL" data-name="Layer0 62 FILL">
    <path class="cls-4" d="M321.83,90.33c-1.34,.97-2.6,2.05-3.77,3.22,2.9-.13,5.81,.02,8.69,.43,4.19,.66,6.59,1,7.21,1.04,2.36,.22,4.72-.23,6.83-1.31,1.21-.7,2.17-1.77,2.73-3.06,.59-1.2,.55-2.61-.11-3.77-1.13-2-3.64-2.73-7.54-2.19-5.07,.71-9.88,2.65-14.04,5.63Z"/>
    <path class="cls-5" d="M311.12,252.26h-6.18l-5.9,67.96h-26.11l1.26-8.25-29.06,14.31h76.97v8.41l21.42-12.67v-8.41h-37.75l2.68-31.36,2.68-29.99Zm-92.87-85.11l-20.05-.16-7.48,6.56,181.81,4.64,32.78,104.07,5.57-8.47-26.71-104.95-139.14-1.42-26.77-.28Z"/>
    <path class="cls-15" d="M276.38,150.81c2.49-.76,3.8-1.16,3.93-1.2,5.54-1.84,10.65-4.78,15.02-8.63-.82-.08-1.64-.08-2.46,0-4.9,.5-9.49,2.61-13.06,6.01-1.27,1.16-2.43,2.44-3.44,3.82Zm-85.66,22.72l22.45,108.72h65.34l-4.32,29.72-1.26,8.25h26.11l5.9-67.96h6.18l-2.68,29.99h96.86l-32.78-104.07-181.81-4.64h0Zm54.41,152.75v8.41h76.97v-8.41h-76.97Z"/>
    <path class="cls-13" d="M297.08,141.41c-.57-.19-1.15-.34-1.75-.44-4.38,3.86-9.49,6.79-15.02,8.63-.13,.04-1.44,.45-3.93,1.2-1.6,2.22-2.76,4.72-3.44,7.38,1.86-2.11,4.2-3.74,6.83-4.75,3.5-1.35,7.18-2.14,10.93-2.35,2.04-.26,3.15-.4,3.33-.44,1.12-.17,2.21-.52,3.22-1.04,1-.56,1.8-1.42,2.29-2.46,.57-1,.67-2.2,.27-3.28-.45-1.22-1.47-2.13-2.73-2.46Z"/>
    <path class="cls-7" d="M249.28,145.67c-4.74,.98-9.36,2.48-13.77,4.48-7.49,3.57-13.57,9.55-17.26,16.99l26.77,.27c4.14-4.79,9.34-8.55,15.19-10.98,3.24-1.41,6.56-2.63,9.94-3.66,2.56-.79,4.63-1.45,6.23-1.97,1.02-1.39,2.17-2.67,3.44-3.82,3.56-3.4,8.16-5.51,13.06-6.01,.82-.08,1.64-.08,2.46,0,.94-.83,1.8-1.74,2.57-2.73,2.25-2.81,3.7-6.16,4.21-9.72,.6-3.52-.05-7.14-1.86-10.22-.65-1.12-1.52-2.08-2.57-2.84-1.04-.76-2.31-1.15-3.61-1.09-2.37,.26-4.39,1.82-5.24,4.04-.11,.18-1.04,2.6-2.79,7.26-3.06,7.9-10.58,13.51-22.56,16.83-6.34,1.39-11.07,2.45-14.2,3.17Z"/>
    <path class="cls-11" d="M265.56,101.8c-1.37-.32-2.81-.12-4.04,.55-1.3,.64-2.44,1.58-3.33,2.73-.86,1.11-1.65,2.28-2.35,3.5-1.06,1.82-1.78,3.02-2.19,3.61-4.22,4.21-9.31,7.44-14.91,9.45-5.52,1.85-10.29,5.43-13.61,10.22-.86,1.68-1.45,3.49-1.75,5.35-.1,.57-.21,1.28-.33,2.13,1.91-3.37,4.52-6.29,7.65-8.58,2.92-1.71,6.12-2.88,9.45-3.44,2.15-.4,5.39-.91,9.72-1.53,3.25-.48,6.42-1.44,9.4-2.84,3.84-1.91,6.99-4.96,9.01-8.74,1.23-2.09,1.75-4.53,1.47-6.94-.13-1.23-.6-2.41-1.37-3.39-.68-1-1.68-1.73-2.84-2.08Z"/>
  </g>
  <path class="cls-15" d="M334.04,238.6c5.28,5.8,8,13.47,7.57,21.3,.04,7.84-3.11,15.36-8.73,20.83h0c-5.59,4.91-12.26,8.41-19.48,10.22-10.53,2.56-18.31,4.63-23.36,6.2h-.02c-8.07,2.51-15.61,6.49-22.23,11.75h0c-6.68,5.19-11.76,12.15-14.67,20.09-2.99,8.24-2.75,17.3,.69,25.36h0c2.87,8.28,9.48,14.7,17.83,17.34h.01c7.39,2.05,15.27,1.36,22.2-1.94,7.13-3.43,13.9-7.55,20.23-12.3,6.18-4.6,12.71-8.7,19.54-12.26h0c6.05-3.17,12.98-4.27,19.71-3.12,3.97,1.04,7.78,2.61,11.33,4.65h.02c3.89,2.15,7.91,4.04,12.05,5.66,6.67,2.28,13.83,2.69,20.71,1.17h0c6.91-1.43,13.37-4.53,18.8-9.03h.01c5.29-4.49,9.58-10.04,12.58-16.29,3.07-6.23,4.99-12.95,5.68-19.86v-.02c.44-5.86,.51-11.73,.23-17.6h0c-.36-9.05-.52-14.84-.49-17.37,.24-12.69,3.41-21.95,9.77-27.7h0c3.69-3.07,7.9-5.44,12.43-7.01h.01c3.16-1.24,7.95-3.08,14.35-5.52l.16-.07c5.14-2.34,9.56-6,12.82-10.61h0c3.54-4.47,4.63-10.4,2.9-15.83-.39-1.14-1.64-1.75-2.78-1.36-1.13,.39-1.74,1.62-1.36,2.76,1.25,4.12,.37,8.59-2.35,11.93-2.81,3.96-6.61,7.1-11.02,9.12-6.38,2.43-11.15,4.26-14.31,5.5-5.03,1.76-9.7,4.42-13.79,7.84-7.11,6.42-10.94,16.68-11.21,30.86h0c-.04,2.58,.13,8.44,.49,17.6,.28,5.67,.21,11.36-.21,17.02-.63,6.39-2.41,12.61-5.25,18.37h0c-2.73,5.71-6.63,10.77-11.45,14.86-4.89,4.05-10.7,6.83-16.92,8.12-6.11,1.36-12.47,1.01-18.39-1.02h-.02c-3.92-1.55-7.74-3.35-11.43-5.39-3.91-2.24-8.11-3.94-12.48-5.07h0c-7.66-1.35-15.55-.14-22.46,3.44-7.07,3.67-13.83,7.9-20.22,12.65h0c-6.08,4.56-12.58,8.53-19.42,11.85h0c-5.98,2.88-12.8,3.51-19.21,1.78-7.07-2.28-12.65-7.76-15.05-14.79-3.02-7.07-3.25-15.03-.63-22.26h0c2.64-7.19,7.25-13.48,13.3-18.16,6.19-4.92,13.25-8.64,20.8-10.97,5.01-1.56,12.72-3.61,23.14-6.14l.11-.03c7.91-2.01,15.22-5.88,21.33-11.29,6.46-6.25,10.09-14.86,10.06-23.85h0c.48-8.97-2.66-17.75-8.71-24.37-.82-.89-2.2-.95-3.09-.13-.89,.82-.95,2.2-.13,3.09h0Z"/>
  <path class="cls-1" d="M332.79,237.13c5.28,5.8,8,13.47,7.57,21.3,.04,7.84-3.11,15.36-8.73,20.83h0c-5.59,4.91-12.26,8.41-19.48,10.22-10.53,2.56-18.31,4.63-23.36,6.2h-.02c-8.07,2.51-15.61,6.49-22.23,11.75h0c-6.68,5.19-11.76,12.15-14.67,20.09-2.99,8.24-2.75,17.3,.69,25.36h0c2.87,8.28,9.48,14.7,17.83,17.34h.01c7.39,2.05,15.27,1.36,22.2-1.94,7.13-3.43,13.9-7.55,20.23-12.3,6.18-4.6,12.71-8.7,19.54-12.26h0c6.05-3.17,12.98-4.27,19.71-3.12,3.97,1.04,7.78,2.6,11.33,4.65h.02c3.89,2.15,7.91,4.04,12.05,5.66,6.67,2.28,13.83,2.69,20.71,1.17h0c6.91-1.43,13.37-4.53,18.8-9.03h.01c5.29-4.49,9.58-10.04,12.58-16.29,3.07-6.23,4.99-12.95,5.68-19.86v-.02c.44-5.86,.51-11.73,.23-17.6h0c-.36-9.05-.52-14.83-.49-17.37,.24-12.69,3.41-21.95,9.77-27.7h0c3.69-3.07,7.9-5.44,12.43-7.01h.01c3.16-1.24,7.95-3.08,14.35-5.52l.16-.07c5.14-2.34,9.56-6,12.82-10.61h0c3.54-4.47,4.63-10.4,2.9-15.83-.4-1.14-1.65-1.74-2.78-1.34-1.12,.39-1.73,1.61-1.35,2.74,1.25,4.12,.37,8.59-2.35,11.93-2.81,3.96-6.61,7.1-11.02,9.12-6.38,2.43-11.15,4.26-14.31,5.49-5.03,1.76-9.7,4.42-13.79,7.85-7.11,6.42-10.94,16.68-11.21,30.86h0c-.04,2.58,.13,8.44,.49,17.6,.28,5.67,.21,11.36-.21,17.02-.63,6.39-2.41,12.61-5.25,18.37h0c-2.73,5.71-6.63,10.77-11.45,14.86-4.89,4.05-10.7,6.84-16.92,8.12-6.11,1.36-12.47,1.01-18.39-1.02h-.02c-3.92-1.55-7.74-3.35-11.43-5.39-3.91-2.24-8.11-3.94-12.48-5.07h0c-7.66-1.35-15.55-.14-22.45,3.44-7.07,3.67-13.83,7.9-20.22,12.65h0c-6.08,4.56-12.58,8.53-19.42,11.85h0c-5.98,2.88-12.8,3.51-19.21,1.78-7.07-2.28-12.65-7.76-15.05-14.79-3.02-7.07-3.24-15.03-.63-22.26v-.02c2.65-7.18,7.26-13.47,13.3-18.15,6.19-4.92,13.25-8.64,20.8-10.98,5.01-1.56,12.72-3.6,23.14-6.14l.11-.03c7.91-2.01,15.22-5.88,21.33-11.29,6.46-6.25,10.09-14.86,10.06-23.85h0c.48-8.97-2.66-17.75-8.72-24.38-.83-.88-2.21-.91-3.09-.08-.84,.8-.91,2.11-.16,3l.03,.04h0Z"/>
  <g id="Layer0_77_FILL" data-name="Layer0 77 FILL">
    <path class="cls-1" d="M498.78,180.64c.18-4.11-.47-8.22-1.91-12.07-6.82-5.95-17.17-5.25-23.12,1.56h0c-.28,.33-.55,.66-.81,1-2.82,4.39-4.24,9.54-4.04,14.75,0,2.33,.25,4.66,.76,6.94,.73,3.25,2.01,6.35,3.77,9.18,1.28,2.27,3.12,4.17,5.35,5.52,.51,.09,1.02,.14,1.53,.16,.59,.02,1.3,.02,2.13,0,2.54-.25,4.96-1.2,6.99-2.73,3.31-2.4,5.71-5.85,6.83-9.78,1.68-4.66,2.53-9.58,2.51-14.53Z"/>
    <path class="cls-12" d="M497.47,169.16c-.2-.21-.4-.41-.6-.6,1.45,3.85,2.1,7.96,1.91,12.07,.01,4.95-.84,9.87-2.51,14.53-1.12,3.93-3.52,7.38-6.83,9.78-2.04,1.54-4.45,2.48-6.99,2.73-.83,.02-1.54,.02-2.13,0-.51-.02-1.02-.07-1.53-.16,.57,.32,1.18,.58,1.8,.77,1.35,.45,2.79,.62,4.21,.49,4.83-.55,9.15-3.26,11.75-7.38,3.36-5,5.2-10.86,5.3-16.88,.71-5.5-.87-11.05-4.37-15.35Z"/>
  </g>
  <path class="cls-15" d="M478.49,192.29c-.09,2.12-.14,4.14-.14,6.05h0c.03,2.25,.25,4.47,.67,6.67,.17,.84,.39,1.67,.68,2.48,.1,.28,.41,.43,.7,.33s.43-.41,.33-.7h0c-.27-.76-.48-1.54-.63-2.33h0c-.4-2.13-.62-4.29-.64-6.45,0-1.92,.05-3.94,.14-6.07,.68,0,1.35,0,2.03,0,4.56,.1,9.08,.79,13.47,2.03,.29,.08,.59-.09,.67-.38s-.09-.59-.38-.67c-4.47-1.27-9.09-1.96-13.74-2.07h0c-.87-.02-1.73-.02-2.59,0h0c-3,.07-6,.4-8.94,.99-.3,.05-.5,.33-.45,.63,.05,.3,.33,.5,.63,.45,.01,0,.02,0,.03,0h0c2.69-.54,5.42-.86,8.16-.96Z"/>
  <g id="Layer0_97_FILL" data-name="Layer0 97 FILL">
    <path class="cls-15" d="M402.36,104.64c-.02-1.34-1.12-2.41-2.46-2.39-1.34,.02-2.41,1.12-2.39,2.46s1.12,2.41,2.46,2.39c.63,0,1.23-.26,1.68-.71,.47-.46,.72-1.09,.71-1.75Z"/>
  </g>
  <g id="Layer0_98_FILL" data-name="Layer0 98 FILL">
    <path class="cls-15" d="M420.6,105.63c-.02-1.34-1.12-2.41-2.46-2.39-1.34,.02-2.41,1.12-2.39,2.46,.02,1.34,1.12,2.41,2.46,2.39,.63,0,1.23-.26,1.68-.71,.47-.46,.72-1.09,.71-1.75Z"/>
  </g>
</svg>