<?xml version="1.0" encoding="UTF-8"?>
<svg id="Capa_1" data-name="Capa 1" xmlns="http://www.w3.org/2000/svg" viewBox="0 0 800 300">
  <defs>
    <style>
      .cls-1 {
        fill: #fbbd9d;
      }

      .cls-2 {
        fill: #1d7772;
      }

      .cls-3 {
        fill: #e54a64;
      }

      .cls-4 {
        fill: #3d2009;
      }

      .cls-5 {
        fill: #42395c;
      }

      .cls-6 {
        fill: #7b3838;
      }

      .cls-7 {
        fill: #fff;
      }

      .cls-8 {
        fill: #f4cd6c;
      }

      .cls-9 {
        fill: #f4a589;
      }

      .cls-10 {
        fill: #5c8ed6;
      }

      .cls-11 {
        fill: #429866;
      }

      .cls-12 {
        fill: #336eb5;
      }

      .cls-13 {
        fill: #52b1c1;
      }

      .cls-14 {
        fill: #8da64c;
      }

      .cls-15 {
        fill: #f4ab8c;
      }

      .cls-16 {
        fill: #107075;
      }

      .cls-17 {
        fill: #4682cc;
      }

      .cls-18 {
        fill: #3598a8;
      }

      .cls-19 {
        fill: #c4263d;
      }

      .cls-20 {
        fill: #da2326;
      }

      .cls-21 {
        fill: #4aa1b5;
      }

      .cls-22 {
        fill: #dd333c;
      }

      .cls-23 {
        fill: #e53841;
      }

      .cls-24 {
        fill: #b81f1e;
      }

      .cls-25 {
        fill: #369694;
      }

      .cls-26 {
        fill: #d8f4f4;
      }

      .cls-27 {
        fill: #ef863f;
      }

      .cls-28 {
        fill: #b2163f;
      }

      .cls-29 {
        fill: #ef4864;
      }

      .cls-30 {
        fill: #ff9d45;
      }

      .cls-31 {
        fill: #282243;
      }

      .cls-32 {
        fill: #ff806d;
      }

      .cls-33 {
        fill: #e06d20;
      }

      .cls-34 {
        fill: #774849;
      }

      .cls-35 {
        fill: #ea792d;
      }

      .cls-36 {
        fill: #2d8782;
      }

      .cls-37 {
        fill: #c3eae9;
      }

      .cls-38 {
        fill: #f28775;
      }

      .cls-39 {
        fill: #fdfeff;
      }

      .cls-40 {
        fill: #ce2e49;
      }

      .cls-41 {
        fill: #4c260c;
      }

      .cls-42 {
        fill: #c2efee;
      }

      .cls-43 {
        fill: #ebf1f7;
      }

      .cls-44 {
        fill: #378747;
      }

      .cls-45 {
        fill: #288993;
      }

      .cls-46 {
        fill: #cc234f;
      }

      .cls-47 {
        fill: #352f4f;
      }

      .cls-48 {
        fill: #f4eaea;
      }

      .cls-49 {
        fill: #c62246;
      }

      .cls-50 {
        fill: #359693;
      }

      .cls-51 {
        fill: #267773;
      }

      .cls-52 {
        fill: #eda085;
      }

      .cls-53 {
        fill: #5bb5c4;
      }

      .cls-54 {
        fill: #1c1935;
      }

      .cls-55 {
        fill: #788e35;
      }

      .cls-56 {
        fill: #5887cc;
      }

      .cls-57 {
        fill: #d8681d;
      }

      .cls-58 {
        fill: #1e5124;
      }

      .cls-59 {
        fill: #3bb7b3;
      }

      .cls-60 {
        fill: #f5b54e;
      }

      .cls-61 {
        fill: #6eb4f9;
      }

      .cls-62 {
        fill: #fc9e8b;
      }

      .cls-63 {
        fill: #eddbd3;
      }

      .cls-64 {
        fill: #3473b2;
      }

      .cls-65 {
        fill: #6d3f41;
      }

      .cls-66 {
        fill: #6b2c2c;
      }

      .cls-67 {
        fill: #328453;
      }

      .cls-68 {
        fill: #f7ebe4;
      }

      .cls-69 {
        fill: #66a4ed;
      }

      .cls-70 {
        fill: #f4c458;
      }

      .cls-71 {
        fill: #ffdb80;
      }

      .cls-72 {
        fill: #44a8a7;
      }

      .cls-73 {
        fill: #263238;
      }

      .cls-74 {
        fill: #2a7236;
      }

      .cls-75 {
        fill: #fefefe;
      }

      .cls-76 {
        fill: #db284e;
      }

      .cls-77 {
        fill: #c15b16;
      }

      .cls-78 {
        fill: #2a6834;
      }

      .cls-79 {
        fill: #181530;
      }
    </style>
  </defs>
  <path class="cls-26" d="M574.78,257.8c0,14.64-68.23,26.51-152.4,26.51-47.83,0-90.52-3.84-118.46-9.83-21.22-4.56-33.94-10.36-33.94-16.68,0-14.64,68.23-26.51,152.4-26.51,63.07,0,117.19,6.66,140.36,16.16,7.75,3.18,12.04,6.67,12.04,10.34Z"/>
  <g>
    <g>
      <path class="cls-78" d="M558.15,207.86s26.24-38.74,38.71-22.97c0,0,5.23,10.28-10.23,16.82-14.75,6.24-28.48,6.15-28.48,6.15Z"/>
      <path class="cls-58" d="M587.91,189.96s-16.47,7.72-29.76,17.9c0,0,20.38-9.63,29.76-17.9Z"/>
    </g>
    <g>
      <path class="cls-44" d="M532.46,234.64s73.7-61.03,53.19-80.09c-21.96-20.42-50.09,54.08-53.19,80.09Z"/>
      <path class="cls-74" d="M575.44,166.01s-26.5,32.37-42.98,68.62c0,0,38.82-58.41,42.98-68.62Z"/>
    </g>
    <g>
      <path class="cls-14" d="M534.9,229.64s36.91-41.96,51.44-29.65c14.54,12.3-12.39,29.78-12.39,29.78,0,0,12.84-4.44,14.07,2,1.24,6.44-14.77,14.67-34.37,13.7-19.61-.97-28.13-2.28-18.75-15.82Z"/>
      <path class="cls-55" d="M574.61,212.46s-17.92,7.83-43.24,27.8c0,0,22.2-9.93,43.24-27.8Z"/>
      <path class="cls-55" d="M571.88,236.21s-19.99-.3-40.51,4.06c0,0,17.35,1.46,40.51-4.06Z"/>
    </g>
  </g>
  <path class="cls-37" d="M562.74,247.46c-10.19,20.89-217.09,31.37-258.82,27.02-21.22-4.56-33.94-10.36-33.94-16.68,0-14.64,68.23-26.51,152.4-26.51,63.07,0,117.19,6.66,140.36,16.16Z"/>
  <g>
    <path class="cls-42" d="M529.44,190.12c-23.06,15.03-51.67,20.94-78.91,17.44,0,0-.01,0-.02,0-5.21-.66-10.32-1.66-15.36-2.99-60.69,39.87-169.89,17.63-178-55.83-.13-1.12-.23-2.26-.3-3.4-3.25-51.81,59.49-94.39,121.57-90.12,.14-.17,.27-.34,.42-.5,40.27-49.47,119.34-50.52,163.74-11.02,14.19,12.63,24.84,29.4,29.54,50.07,8.3,38.16-10.43,75.73-42.68,96.35Z"/>
    <path class="cls-26" d="M542.58,43.7c-14.38,59.04-79.58,109.56-163.38,120.72-44.89,5.97-87.57-.34-122.04-15.68-.13-1.12-.23-2.26-.3-3.4-3.25-51.81,59.49-94.39,121.57-90.12,.14-.17,.27-.34,.42-.5,40.27-49.47,119.34-50.52,163.74-11.02Z"/>
    <g>
      <g>
        <path class="cls-60" d="M412.26,79.5v28.43c0,15.76-12.78,28.54-28.54,28.54h-67.12c-15.76,0-28.54-12.78-28.54-28.54v-28.43c0-15.77,12.78-28.54,28.54-28.54h67.12c1.66,0,3.29,.14,4.88,.42,13.44,2.31,23.67,14.02,23.67,28.13Z"/>
        <path class="cls-71" d="M405.5,79.5v28.43c0,15.76-12.78,28.54-28.54,28.54h-67.12c-15.76,0-28.54-12.78-28.54-28.54v-28.43c0-15.77,12.78-28.54,28.54-28.54h67.12c4.57,0,8.88,1.08,12.72,2.99,9.38,4.67,15.83,14.36,15.83,25.56Z"/>
      </g>
      <ellipse class="cls-70" cx="343.73" cy="76.96" rx="23.9" ry="29.11"/>
      <g>
        <path class="cls-70" d="M390.96,57.75c-.38-1.3-.81-2.57-1.29-3.81-3.01-1.5-6.32-2.49-9.82-2.84-.95-.1-1.92-.15-2.9-.15h-13.6c1.89,1.06,3.59,2.48,5.07,4.17,.23,.27,.46,.54,.68,.82,.14,.18,.28,.37,.42,.55,1.54,2.09,2.77,4.53,3.62,7.2,.41,1.26,.73,2.58,.95,3.94,.56,3.29,.58,6.82-.02,10.42-.56,3.36-1.62,6.48-3.05,9.27-.25,.49-.51,.97-.79,1.44-1.29,2.18-2.82,4.13-4.53,5.77-.27,.26-.54,.51-.82,.75-1.66,1.46-3.46,2.65-5.37,3.51-.07,.04-.14,.07-.21,.1-.99,.44-2,.79-3.04,1.05-.01,0-.03,0-.04,.01-1.3,.32-2.63,.5-3.97,.52-.54,.01-1.08,0-1.62-.05-.48-.04-.95-.1-1.44-.18-.03,0-.06-.01-.1-.02-.44-.07-.87-.17-1.3-.27-.04-.01-.07-.02-.11-.03l-.43-.12c-2.84-.83-5.37-2.37-7.51-4.45-5.59-5.44-8.45-14.55-6.83-24.19,.92-5.49,3.16-10.34,6.21-14.12,1.41-1.75,3-3.26,4.72-4.5,.15-.11,.31-.22,.47-.33,.68-.47,1.38-.9,2.1-1.27h-23.99c-1.98,3.52-3.58,7.37-4.72,11.48-.49,1.78-.9,3.61-1.21,5.49-.26,1.53-.45,3.06-.57,4.57-.5,6.1,.09,12.01,1.58,17.47,.93,3.43,2.23,6.68,3.84,9.69,.57,1.05,1.17,2.07,1.81,3.05,2.82,4.34,6.36,8.03,10.48,10.83,3.62,2.46,7.68,4.22,12.09,5.12,.37,.08,.75,.15,1.13,.21,0,.01,.01,.01,.02,.01,.96,.16,1.93,.28,2.89,.35,.14,.01,.27,.02,.41,.03,.33,.02,.65,.03,.97,.05,1.96,.07,3.9-.03,5.81-.3,.36-.05,.73-.11,1.09-.17,1.9-.33,3.77-.83,5.6-1.48,.28-.1,.57-.2,.85-.31,.26-.1,.53-.21,.79-.31,.73-.29,1.44-.61,2.15-.95,1.62-.79,3.2-1.69,4.72-2.72,.33-.22,.65-.43,.97-.66,.29-.21,.58-.42,.86-.64,1.8-1.35,3.52-2.87,5.12-4.54h0c6.54-6.79,11.32-16,13.1-26.61,1.34-8.01,.81-15.84-1.24-22.86Z"/>
        <path class="cls-8" d="M378.35,120.21l-4.34,2.08c-.26,.13-.53,.23-.8,.32h-.02l-1.04-9.54-.72-6.62,7.67,.77h0s2.19,4.57,2.19,4.57c1.51,3.14,.19,6.91-2.95,8.42Z"/>
      </g>
      <g>
        <polygon class="cls-56" points="334.46 122.12 344.33 122.61 341.73 120.69 334.46 122.12"/>
        <path class="cls-64" d="M371.45,123.49l-4.34,2.08c-.26,.13-.53,.23-.8,.32,0,0-.02,.01-.03,.01-2.95,.93-6.2-.42-7.58-3.28l-1.1-2.29-1.69-3.52-6.53-13.58-1.6-3.34-1.6-3.33c-1.38-2.87-.4-6.26,2.18-7.97,.25-.17,.5-.31,.77-.44l4.34-2.09c1.45-.7,3.05-.79,4.48-.37,1.66,.48,3.12,1.64,3.93,3.33l1.45,3.03,5.77,11.99,3.11,6.47h0s2.19,4.57,2.19,4.57c1.51,3.14,.19,6.91-2.95,8.42Z"/>
        <path class="cls-17" d="M382.4,56.31c-.74-1.81-1.59-3.54-2.54-5.2-.03-.05-.06-.1-.09-.15-.69-1.19-1.43-2.34-2.22-3.44-5.49-7.65-13.33-13.02-22.62-14.58-1.27-.21-2.53-.34-3.79-.41h-.1s-.03-.01-.05-.02l-7.36-.31h-.18s-.01,0-.01,0l1.02,.68c-1.3,.2-2.58,.47-3.85,.82-7.56,2.06-14.5,6.69-19.95,13.16-1.1,1.3-2.13,2.66-3.1,4.11-2.78,4.13-5.01,8.83-6.51,13.94-.6,2.04-1.09,4.15-1.45,6.31-.34,2.01-.55,4.01-.66,5.98-.33,6,.38,11.81,1.98,17.14,1.02,3.45,2.42,6.71,4.15,9.7,.58,1.02,1.21,2.01,1.88,2.97,2.97,4.3,6.68,7.91,10.95,10.58,2.88,1.79,6.01,3.15,9.36,4.01,.88,.22,1.77,.42,2.68,.57,0,0,.02,0,.02,0,0,0,.01,0,.02,0,1.45,.25,2.89,.39,4.33,.43,2.08,.07,4.15-.05,6.17-.37,.22-.03,.45-.07,.67-.11h0c2.2-.38,4.35-.98,6.45-1.78,2.09-.79,4.11-1.78,6.05-2.97,.54-.32,1.07-.66,1.6-1.01,.62-.41,1.23-.85,1.84-1.3,1.69-1.27,3.3-2.68,4.83-4.24,.1-.1,.2-.2,.3-.3,1.11-1.15,2.17-2.37,3.17-3.66,4.91-6.29,8.46-14.14,9.93-22.95,1.65-9.86,.46-19.43-2.9-27.58Zm-14.78,19.86v.05c-.01,1.68-.15,3.4-.45,5.13-.66,3.95-2,7.57-3.84,10.7-.25,.42-.5,.82-.76,1.22-1.11,1.69-2.38,3.22-3.77,4.56-.81,.78-1.67,1.5-2.56,2.14-1.84,1.33-3.82,2.35-5.89,2.98-.32,.1-.65,.2-.97,.28-.48,.12-.97,.22-1.46,.3-1.84,.3-3.72,.31-5.61,0-.03,0-.07-.01-.1-.02h0c-.63-.11-1.25-.25-1.85-.42t-.01,0c-10.23-3-16.56-15.31-14.33-28.64,1.13-6.74,4.25-12.52,8.43-16.52,2.76-2.65,5.99-4.52,9.41-5.37,.3-.07,.61-.14,.91-.2h.01c.53-.11,1.07-.19,1.61-.24,1.48-.15,2.99-.11,4.51,.15,2.57,.43,4.92,1.43,7.01,2.88,1.88,1.31,3.54,2.98,4.93,4.94,.69,.97,1.31,2.01,1.86,3.11,.29,.57,.55,1.15,.8,1.76,0,.01,.01,.02,.01,.03,.43,1.04,.79,2.13,1.1,3.25,.35,1.3,.61,2.65,.78,4.04,.16,1.27,.23,2.57,.23,3.9Z"/>
        <path class="cls-69" d="M347.77,99.88s-.05,.03-.08,.05c.04,0,.07,.02,.11,.03,.43,.1,.86,.2,1.3,.27,.03,0,.07,.01,.1,.02,.48,.08,.95,.14,1.44,.18,.15-1.14,.33-2.28,.52-3.4-1.06,1.07-2.2,2.03-3.39,2.85Zm29.36-34.33c-.25-1.36-.55-2.69-.9-4-.57-2.11-1.28-4.16-2.12-6.12-.31-.73-.64-1.45-.98-2.15-.11-.23-.23-.47-.35-.7-.28-.55-.57-1.1-.88-1.63-2.24-3.96-5.05-7.46-8.32-10.34-4.71-4.13-10.38-6.98-16.72-8.04-1.08-.18-2.16-.3-3.22-.38-.06,0-.12,0-.18-.01h-.01c-.17-.01-.34-.02-.51-.02-13.2-.62-25.76,6.78-33.69,18.8-.25,.38-.5,.76-.74,1.15-.86,1.38-1.66,2.83-2.39,4.32-1.89,3.86-3.34,8.07-4.25,12.56-.13,.61-.25,1.23-.35,1.85-.67,3.98-.87,7.92-.65,11.73,.32,5.68,1.57,11.09,3.61,15.99,1.38,3.33,3.13,6.41,5.19,9.19,.7,.94,1.44,1.85,2.21,2.71,3.17,3.57,6.92,6.47,11.15,8.5,.58,.29,1.15,.54,1.75,.78,.07,.03,.14,.06,.21,.09,.67,.27,1.36,.53,2.06,.75,1.57,.52,3.19,.92,4.86,1.2,.06,.02,.11,.02,.18,.03,.8,.13,1.6,.23,2.39,.3,.83,.07,1.66,.11,2.49,.12,.99,.01,1.99-.02,2.97-.1h.03c.3-.02,.61-.05,.91-.09,.76-.08,1.52-.19,2.28-.32,2.34-.41,4.65-1.07,6.88-1.96,.06-.02,.12-.05,.18-.07,.31-.13,.63-.26,.94-.39,1.63-.71,3.22-1.55,4.76-2.5,3.12-1.92,6.01-4.29,8.62-7.07h0c1.65-1.76,3.17-3.65,4.56-5.7,0,0,0,0,0,0,.69-1.01,1.35-2.06,1.96-3.14,1.95-3.38,3.54-7.08,4.71-11.03,.22-.75,.43-1.52,.62-2.29,.3-1.19,.56-2.41,.77-3.65,.03-.13,.05-.26,.07-.39,.03-.2,.06-.41,.1-.61,.07-.44,.13-.87,.18-1.32h0c.73-5.53,.57-10.95-.37-16.04Zm-52.95,32.13c-2.24-2.37-4-5.35-5.15-8.72-1.52-4.45-1.98-9.58-1.09-14.87,.2-1.18,.46-2.34,.78-3.46,1.07-3.81,2.8-7.22,4.98-10.07,.33-.43,.66-.84,1.01-1.24,4.79-5.55,11.41-8.53,18.1-7.41,.51,.09,1.01,.19,1.5,.32,.15,.04,.3,.08,.44,.12t.01,0c.29,.08,.57,.17,.85,.27,1.92,.67,3.68,1.67,5.27,2.95,2.61,2.1,4.74,4.95,6.23,8.28,1.17,2.59,1.94,5.47,2.26,8.52,.03,.27,.06,.55,.08,.82h0c.11,1.48,.13,2.98,.03,4.51-.07,1.08-.19,2.18-.38,3.28-.27,1.62-.66,3.2-1.15,4.69h0c-.63,1.96-1.44,3.79-2.4,5.49,0,0,0,0,0,0-1.24,2.21-2.72,4.17-4.39,5.85-1.06,1.07-2.2,2.03-3.39,2.85-.03,.02-.05,.03-.08,.05-1.83,1.27-3.8,2.21-5.86,2.79h0c-.48,.15-.97,.27-1.46,.36h-.02c-2,.39-4.05,.44-6.11,.09-.47-.08-.94-.18-1.4-.29-2.14-.55-4.12-1.5-5.89-2.78-.98-.71-1.9-1.52-2.75-2.42Z"/>
        <path class="cls-64" d="M372.21,110.51h0s-7.67-.78-7.67-.78l.72,6.62,1.04,9.54h.02c.27-.08,.54-.19,.8-.32l4.34-2.08c3.14-1.51,4.46-5.28,2.95-8.42l-2.19-4.56Z"/>
        <path class="cls-69" d="M366.68,114.22l-2.16-4.48-4.14-8.63-4.44-9.24c-.11-.24-.25-.47-.39-.69-1.69-2.64-5.12-3.66-8.02-2.27l-4.34,2.09c-3.14,1.51-4.46,5.27-2.95,8.41l1.59,3.32,4.25,8.84,3.95,8.2,2.56,5.32,.18,.38c1.51,3.14,5.27,4.46,8.41,2.95l4.34-2.09c3.14-1.5,4.46-5.27,2.95-8.41l-1.78-3.71Z"/>
        <path class="cls-61" d="M317.95,74.09c.2-1.19,.46-2.34,.78-3.47l-17.86,11.95c.32,5.68,1.57,11.09,3.61,15.99l14.56-9.6c-1.51-4.45-1.98-9.58-1.09-14.87Z"/>
        <path class="cls-61" d="M363.58,40.62l-17.95,12.01c5.06,1.77,9.1,5.87,11.49,11.23l16.02-10.57c-2.41-4.93-5.65-9.24-9.55-12.67Z"/>
        <path class="cls-61" d="M306.12,56.44l36.81-24.28c-15.1-.71-29.37,9.07-36.81,24.28Z"/>
        <path class="cls-61" d="M324.19,97.69l-14.52,10.08c.69,.94,1.43,1.84,2.2,2.71l15.07-10.37c-.98-.71-1.9-1.52-2.75-2.42Z"/>
        <path class="cls-61" d="M359.46,73.2h0c.11,1.47,.13,2.98,.03,4.51l17.65-12.15c-.25-1.36-.55-2.69-.9-4l-16.78,11.64Z"/>
        <path class="cls-61" d="M324.98,119.84c.68,.28,1.36,.53,2.06,.75,1.57,.52,3.19,.92,4.86,1.2,.06,.01,.11,.02,.17,.03,2.65,.43,5.29,.53,7.88,.32,.31-.02,.61-.05,.92-.09l30.19-21.16c1.95-3.38,3.54-7.08,4.71-11.03,.22-.75,.43-1.51,.62-2.29,.3-1.19,.56-2.41,.77-3.65,.03-.13,.05-.26,.07-.39,.04-.2,.07-.41,.1-.62l-52.55,36.84c.07,.03,.14,.05,.2,.08Z"/>
      </g>
    </g>
    <g>
      <path class="cls-78" d="M557.35,139.07c-20.06-1.25-8.76,44.15-8.76,44.15,0,0,9.24-10.16,14.45-25.3,5.46-15.87-5.69-18.85-5.69-18.85Z"/>
      <path class="cls-58" d="M555.15,149.12s-5.25,17.41-6.56,34.1c0,0,6.45-21.6,6.56-34.1Z"/>
    </g>
    <path class="cls-67" d="M437.75,202.97c-11.42-5.45-18.92,2.71-18.92,2.71,0,0-3.5-3.73-11.23-2.44-7.73,1.3-8.95,9.19-8.95,9.19,0,0-2.15-3.04-5.7-2.75-3.55,.29-4.88,3.73-4.88,3.73,0,0-2.96-7.96-13.04-6.45-10.08,1.51-10.5,12.91-10.5,12.91,0,0-10.34-7.71-16.09,1.26-2.82,4.4-1.14,8.31,1.32,11.14,2.54,2.94,5.91,4.74,5.91,4.74l77.29,.14c3.87-1,6.83-3.49,8.87-6.72,5.65-8.92,4.3-23.46-4.08-27.46Z"/>
    <path class="cls-11" d="M422.97,230.86s-.65-8.12-8.75-11.74c-8.1-3.62-14.81,.74-14.81,.74-6.93-3.32-9.71,1.73-9.71,1.73,0,0-3.07-4.33-13.02-3.21-9.96,1.11-12.16,9-12.16,9-7.28-1.5-11.93,1.49-14.77,4.88,2.54,2.94,5.91,4.74,5.91,4.74l77.29,.14c3.87-1,6.83-3.49,8.87-6.72-1.4-1.43-3.26-2.68-5.71-3.5-10.95-3.7-13.15,3.93-13.15,3.93Z"/>
    <g>
      <path class="cls-60" d="M528.12,148.3h-66.24c-11.3,0-20.47,8.98-20.47,20.06v59.79c0,11.08,9.16,20.06,20.47,20.06h66.24c11.3,0,20.47-8.98,20.47-20.06v-59.79c0-11.08-9.16-20.06-20.47-20.06Z"/>
      <path class="cls-71" d="M517.49,148.3h-66.24c-11.3,0-20.47,8.98-20.47,20.06v59.79c0,11.08,9.16,20.06,20.47,20.06h66.24c11.3,0,20.47-8.98,20.47-20.06v-59.79c0-11.08-9.16-20.06-20.47-20.06Z"/>
    </g>
    <g>
      <g>
        <path class="cls-65" d="M392.62,155.35c-.41-.1-.85-.12-1.29-.05l-20.84,3.45c-1.33,.22-2.33,1.22-2.62,2.45-.04,.17-.07,.35-.08,.53-.01,.24,0,.48,.04,.73,.29,1.76,1.95,2.95,3.71,2.66l20.85-3.45c1.51-.25,2.6-1.51,2.69-2.98,.02-.25,0-.49-.04-.74-.21-1.31-1.2-2.32-2.43-2.61Z"/>
        <path class="cls-34" d="M391.33,155.31l-20.84,3.45c-1.33,.22-2.33,1.22-2.62,2.45,.41,.09,.84,.11,1.28,.04l20.85-3.45c1.33-.22,2.33-1.22,2.62-2.45-.41-.1-.85-.12-1.29-.05Z"/>
      </g>
      <g>
        <path class="cls-65" d="M398.64,186.44c-.41-.1-.85-.12-1.29-.05l-21.73,3.95c-1.33,.22-2.33,1.22-2.62,2.45-.04,.17-.07,.35-.08,.53-.01,.24,0,.48,.04,.73,.29,1.76,1.95,2.95,3.71,2.66l21.73-3.95c1.51-.25,2.6-1.51,2.69-2.98,.02-.25,0-.49-.04-.74-.21-1.31-1.2-2.32-2.43-2.61Z"/>
        <path class="cls-34" d="M397.35,186.39l-21.73,3.95c-1.33,.22-2.33,1.22-2.62,2.45,.41,.09,.84,.11,1.28,.04l21.73-3.95c1.33-.22,2.33-1.22,2.62-2.45-.41-.1-.85-.12-1.29-.05Z"/>
      </g>
      <g>
        <path class="cls-65" d="M403.43,216.13c-.41-.08-.85-.08-1.29,.01l-21.53,4.89c-1.31,.28-2.28,1.32-2.51,2.57-.03,.17-.05,.35-.06,.53,0,.24,.02,.48,.07,.73,.37,1.75,2.08,2.86,3.82,2.5l21.54-4.89c1.5-.32,2.53-1.62,2.56-3.09,0-.25-.02-.49-.07-.73-.27-1.3-1.3-2.27-2.54-2.51Z"/>
        <path class="cls-34" d="M402.14,216.14l-21.53,4.89c-1.31,.28-2.28,1.32-2.51,2.57,.41,.08,.84,.07,1.28-.02l21.54-4.89c1.31-.28,2.28-1.32,2.51-2.56-.41-.08-.85-.08-1.29,.01Z"/>
      </g>
      <g>
        <path class="cls-65" d="M364.85,136.18c-.09-.5-.29-.95-.58-1.33-.2-.28-.45-.52-.73-.71-.67-.47-1.52-.67-2.38-.52-1.73,.31-2.87,1.96-2.56,3.68l20.8,115.22c.3,1.66,1.82,2.78,3.47,2.59,.07,0,.14-.01,.21-.03,1.73-.31,2.87-1.96,2.56-3.68l-20.8-115.22Z"/>
        <path class="cls-34" d="M364.85,136.18c-.09-.5-.29-.95-.58-1.33-.07,0-.14,.01-.21,.03-1.72,.31-2.87,1.96-2.56,3.69l20.8,115.21c.09,.5,.29,.95,.58,1.33,.07,0,.14-.01,.21-.03,1.73-.31,2.87-1.96,2.56-3.68l-20.8-115.22Z"/>
      </g>
      <g>
        <path class="cls-65" d="M394.35,132.2c-.1-.5-.3-.95-.6-1.32-.2-.28-.45-.51-.73-.7-.68-.46-1.52-.66-2.38-.5-1.72,.33-2.85,1.99-2.52,3.71l20.99,112.66c.32,1.66,1.85,2.76,3.5,2.55,.07,0,.14-.02,.21-.03,1.72-.33,2.85-1.99,2.52-3.71l-20.99-112.66Z"/>
        <path class="cls-34" d="M394.35,132.2c-.1-.5-.3-.95-.6-1.32-.07,0-.14,.02-.21,.03-1.72,.33-2.85,1.99-2.52,3.72l20.99,112.65c.1,.5,.3,.95,.6,1.32,.07,0,.14-.02,.21-.03,1.72-.33,2.85-1.99,2.52-3.71l-20.99-112.66Z"/>
      </g>
    </g>
    <g>
      <path class="cls-5" d="M458.44,126.41l-2.54-3.35-7.27,.56s-25.35-.1-33.26,4.22c-7.9,4.32-22.27,40.33-22.27,40.33,0,0-1.44,3.3-.46,6.13h0c.3,.88,.83,1.71,1.71,2.39l10.92,2.67s4.12,.8,5.71-3.13c1.59-3.93,14.29-27.42,14.29-27.42l19.64-5.79,21.33-6.29-5.9-7.8-1.9-2.51Z"/>
      <g>
        <path class="cls-1" d="M394.5,176.54l-1.18,3.9,10.41,2.77,1.78-3.6s-6.39-3.87-11.01-3.07Z"/>
        <path class="cls-31" d="M401.06,182.5l-7.74-2.06-1.64,2.39c-.34,.5-.82,.91-1.36,1.17-1.37,.65-4.22,1.82-7.58,2.2-2.19,.25-3.6,1.67-4.47,3.12-.37,.62-.42,1.31-.23,1.93,.27,.9,1.06,1.63,2.12,1.73l21.19,1.98c.81,.07,1.58-.37,1.91-1.12,.34-.75,.69-1.84,.77-3.32,.06-1.05-.31-7.32-.31-7.32l-2.66-.71Z"/>
        <path class="cls-54" d="M401.06,182.5c-1.01,1.59-6.24,8.84-16.88,8.79-2.45-.01-4.47-.02-6.14-.04,.27,.9,1.06,1.63,2.12,1.73l21.19,1.98c.81,.07,1.58-.37,1.91-1.12,.34-.75,.69-1.84,.77-3.32,.06-1.05-.31-7.32-.31-7.32l-2.66-.71Z"/>
      </g>
      <path class="cls-47" d="M448.62,123.62s-26.81,7.03-29.35,13.8c-2.55,6.77-1.04,16.41-5.24,23.91-4.11,7.34-14.59,14.28-21.4,12.97,.3,.88,.83,1.71,1.71,2.39l10.92,2.67s4.12,.8,5.71-3.13c1.59-3.93,14.29-27.42,14.29-27.42l19.64-5.79,5.59-8.68,9.84-5.42-1.9-2.51-9.81-2.79Z"/>
      <g>
        <path class="cls-1" d="M443.15,195.66l1.56,3.76,9.8-4.48-.91-3.91s-7.39,1.07-10.45,4.63Z"/>
        <path class="cls-31" d="M459.41,200.4c-.62-.85-4.89-5.45-4.89-5.45l-2.51,1.14-7.29,3.33,.25,2.88c.05,.6-.05,1.22-.31,1.77-.64,1.37-2.1,4.09-4.45,6.52-1.54,1.58-1.71,3.58-1.47,5.25,.11,.72,.51,1.28,1.05,1.64,.78,.52,1.86,.58,2.74-.01l17.62-11.94c.67-.46,.98-1.29,.76-2.08-.21-.8-.64-1.86-1.52-3.05Z"/>
        <path class="cls-54" d="M459.41,200.4c-.62-.85-4.89-5.45-4.89-5.45l-2.51,1.14c.23,1.87,.8,10.8-7.44,17.52-1.9,1.55-3.46,2.82-4.76,3.87,.78,.52,1.86,.58,2.74-.01l17.62-11.94c.67-.46,.98-1.29,.76-2.08-.21-.8-.64-1.86-1.52-3.05Z"/>
      </g>
      <g>
        <path class="cls-5" d="M423.13,145.61c-1.8,8.99,12.17,41.78,12.17,41.78,0,0,.35,4.1,2.44,6.74,1.18,1.5,2.93,2.53,5.49,2.08l11.03-5.34s4.14-2.43,1.71-9.29c-2.42-6.87-9.38-24.36-9.38-24.36,0,0,2.36-.15,1.67-2.1,0,0,25.32-1.98,33.5-5.21,1.89-.74,3.37-1.94,4.54-3.34,3.89-4.69,4.25-11.65,4.25-11.65l-35.94-4.86s-29.7,6.59-31.5,15.58Z"/>
        <path class="cls-47" d="M470.03,148.4s-18.9,3.91-22.19,4.01c-3.28,.11-8.78-2.56-7.11-.85,1.67,1.72,4.21,2.68,4.21,2.68,0,0-6.47-.12-3.61,3.85,2.86,3.98,11.05,18.76,7.89,26.54-2.51,6.14-8.88,8.69-11.46,9.5,1.18,1.5,2.93,2.53,5.49,2.08l11.03-5.34s4.14-2.43,1.71-9.29c-2.42-6.87-9.38-24.36-9.38-24.36,0,0,2.36-.15,1.67-2.1,0,0,25.32-1.98,33.5-5.21,1.89-.74,3.37-1.94,4.54-3.34l-16.1-7.99-.18,9.84Z"/>
      </g>
      <g>
        <path class="cls-59" d="M499.42,84.83c-6.58-7.98-14.75-11.23-14.75-11.23,0,0-14.51-.43-19.81,3.52-5.3,3.95-13.57,18.34-13.57,18.34,6.28,2.61,9.11,7.26,9.11,7.26,0,0-.27,3.47-1.25,9.38-.95,5.72-5.44,9.23-7.68,9.26-.07,0-.14,0-.21,0-.3-.03-.56,0-.8,.05-1.48,.38-1.83,2.22-1.83,2.22,3.35,.49,8.11,2.98,13.7,10.57,.61,.83,1.23,1.72,1.86,2.67,.13,.19,.25,.38,.38,.58,6.57,10.15,13.87,12.31,15.49,14.48,1.62,2.18,4.16,1.33,4.16,1.33,7.09-2.11,8.72-15.78,8.72-15.78,.04-1.61-.15-3.67-.45-5.89-.98-7.26-3.22-16.18-3.22-16.18,6.9-4.2,17.2-4.27,17.2-4.27-1.36-8.91-7.04-26.31-7.04-26.31Z"/>
        <path class="cls-36" d="M473.9,73.74c-.4,1.61-.02,5.87,2.12,8.24l1.94-2.37-2.28-7.76s-1.39,.28-1.78,1.9Z"/>
        <g>
          <g>
            <path class="cls-1" d="M484.48,68.31l-8.89,2.88s.06,1.11-.04,3.12c-.04,.91-.11,2.01-.24,3.26-.08,.76-.02,1.54,.18,2.28,.15,.55,.38,1.04,.7,1.04,.71-.02,6.79-2.27,8.49-7.29l-.12-3.32-.07-1.97Z"/>
            <path class="cls-9" d="M475.58,71.19s.06,1.11-.04,3.12c.23,.17,.61,.28,1.24,.26,1.77-.07,5.28-1.79,7.77-4.29l-.07-1.97-8.89,2.88Z"/>
          </g>
          <g>
            <g>
              <path class="cls-1" d="M480.96,48.42s-5.49-1.63-8.14,4.44c-.5,1.15-1.16,2.38-1.85,3.66,0,0,0,.01,0,.02-.86,1.59-1.77,3.25-2.5,4.86-.05,.1-.09,.21-.14,.31-1.66,3.8,.14,7.37,3.33,9.01,5.84,2.99,11.57-.49,13.64-3.27,2.07-2.77,8.96-16.74-4.33-19.02Z"/>
              <ellipse class="cls-62" cx="481.19" cy="64.41" rx="3.81" ry="3.43" transform="translate(35.61 257.17) rotate(-31.02)"/>
              <path class="cls-62" d="M470.97,56.51s0,.01,0,.02c-.86,1.59-1.77,3.25-2.5,4.86,.98-.3,1.87-1.04,2.39-2.09,.48-.99,.53-2.06,.23-2.98-.04,.06-.07,.13-.11,.19Z"/>
              <g>
                <path class="cls-73" d="M479,59.26c-.3-.18-.73,0-.96,.41-.24,.41-.19,.88,.11,1.06,.29,.18,.72,0,.96-.41,.24-.41,.19-.88-.11-1.06Z"/>
                <path class="cls-73" d="M472.61,56.6c-.28-.13-.67,.12-.86,.57-.2,.44-.12,.91,.16,1.04,.28,.13,.67-.12,.86-.57,.19-.44,.12-.91-.16-1.04Z"/>
                <path class="cls-73" d="M480.39,56.36c-.51-.18-.99-.22-1.3-.19-.32,.04-.46,.14-.42,.22,.1,.19,.76,.28,1.5,.55,.74,.25,1.31,.59,1.51,.51,.09-.04,.05-.21-.17-.43-.21-.22-.61-.49-1.12-.67Z"/>
                <path class="cls-73" d="M474.3,53.8c-.34-.22-.71-.31-.96-.31-.26,0-.4,.08-.39,.17,.02,.18,.51,.34,1.01,.67,.5,.31,.85,.69,1.03,.63,.08-.03,.1-.19,0-.42-.1-.23-.34-.52-.68-.74Z"/>
                <path class="cls-32" d="M474.27,59.02c-.07-.04-.16-.02-.19,.05l-.61,1.04c-.11,.19-.27,.33-.46,.4-.17,.06-.34,.05-.48-.03-.28-.16-.66-.03-.86,.29l-.04,.07c-.18,.3-.25,.64-.2,.96,.05,.31,.2,.56,.43,.72,.02,.01,.03,.02,.05,.03l.64,.38c.07,.04,.16,.02,.2-.05,.04-.07,.02-.16-.05-.2l-.64-.38c-.19-.11-.31-.3-.34-.55-.04-.25,.02-.53,.17-.78l.04-.07c.11-.19,.32-.28,.47-.19,.21,.13,.47,.14,.73,.05,.25-.09,.46-.28,.6-.52l.61-1.04c.04-.07,0-.16-.05-.2Z"/>
              </g>
              <path class="cls-38" d="M472.38,67.46c1.41,.07,2.15-1.67,2.15-1.67-1.45-.78-3.79-1.49-3.79-1.49-.18,1.37,.23,3.09,1.64,3.16Z"/>
            </g>
            <path class="cls-4" d="M494.4,55.18c.37-.79,.53-1.65,.25-2.5-.87-2.69-2.98-2.24-2.98-2.24-1.51-8.41-8.14-7.58-8.14-7.58-2.99-2.83-4.12,.37-4.12,.37-2.43-2.93-2.63,.25-2.63,.25,0,0-.7-.85-1.61-1.27-.5-.23-1.08-.33-1.64-.1-1.59,.67,.36,4.47,.36,4.47,0,0-4.66,1.21-4.04,3.47,.61,2.24,3.28,1.74,3.28,1.74,0,0-1.18,1.02-.67,1.89,.06,.1,.13,.19,.23,.28,.22,.2,.65,.3,1.17,.32,.29,.02,.61,0,.94-.02,1.72-.12,3.82-.64,3.98-.68,0,0,0,0,0,0-.05,.03-2.07,1.2,.94,2.25,3.05,1.07,4.99,1.06,4.99,1.06,0,0-1.38,2.23-.19,3.86,1.2,1.63,.78,4.44-.04,5.71,0,0,.26,.65,1.29-.8l.49,.26,2.04,1.07s.92-.74,2.12-1.83c.67-.61,1.43-1.33,2.15-2.09,1.91-2,3.64-4.3,3.19-5.71-.32-1.03-.84-1.7-1.36-2.14Z"/>
            <path class="cls-1" d="M490.21,64.55c-1.9-1.69-3.83,.03-3.83,.03l-2.85,4.05c3.66,3.1,9.12-1.91,6.67-4.08Z"/>
            <path class="cls-41" d="M494.4,55.18c.37-.79,.53-1.65,.25-2.5-.87-2.69-2.98-2.24-2.98-2.24-1.51-8.41-8.14-7.58-8.14-7.58-2.99-2.83-4.12,.37-4.12,.37-2.43-2.93-2.63,.25-2.63,.25,0,0-.7-.85-1.61-1.27-.41,.18-.51,1.01,1.08,3.8,0,0-2.8,2.02-.31,2.84,.11,.03,.22,.07,.32,.1,2.38,.66,4.59,.04,4.59,.04,0,0-.89,1.87,1.04,2.69,1.94,.83,4.95,.48,4.95,.48,0,0,0,1.35,1.67,1.77,.15,.04,.31,.07,.48,.1,1.56,.2,2.53,.4,2.98,1.01,.16,.23,.25,.51,.28,.87,.05,.88-.51,1.61-.59,2.45-.02,.2-.02,.41,.03,.62,.01,.04,.02,.08,.04,.13,.06,.22,.17,.46,.35,.71,.87,1.23,.89,1.84,.5,3.23,1.91-2,3.64-4.3,3.19-5.71-.32-1.03-.84-1.7-1.36-2.14Z"/>
          </g>
        </g>
        <path class="cls-50" d="M483,72.29c-3.3,1.72-6.98,9.68-6.98,9.68,8.67-2.36,10.57-8.3,10.57-8.3,0,0-.29-3.11-3.59-1.39Z"/>
        <path class="cls-50" d="M483.24,96.58s.72,6.56,.94,14.82c0,.01,0,.02,0,.04,.06,2.28-1.17,4.39-3.12,5.56-3.98,2.38-11.57,5.91-20.3,4.85-3.94-.47-6.98-.58-9.3-.49-.35,.01-.69,.03-1.01,.05-1.48,.38-1.83,2.22-1.83,2.22,3.35,.49,8.11,2.98,13.7,10.57h0c.28,.38,.56,.77,.84,1.17,.06,.09,.13,.18,.19,.28,.26,.38,.53,.77,.8,1.18,.01,.02,.02,.03,.03,.05h0c.13,.19,.25,.38,.38,.58,6.57,10.15,13.87,12.31,15.49,14.48,1.62,2.18,4.16,1.33,4.16,1.33,7.09-2.11,8.72-15.78,8.72-15.78,.04-1.61-.15-3.67-.45-5.89l-1.57-8.86-1.65-7.32-3.59-18.48c1.85-13.77,13.75-12.1,13.75-12.1-13.91-2.76-16.18,11.75-16.18,11.75Z"/>
        <path class="cls-1" d="M504.51,112.43c-.1-.74-.16-1.18-.16-1.18-9.72,.38-15.08,4.16-15.08,4.16l1.65,7.32-22.73,8.17c-5.27,3.77-7.97,12.32-7.52,14.63,.45,2.31,2.97,4.49,2.97,4.49,0,0,.19,.32,.57,.7h0c.34,.34,.84,.69,1.5,.88,1.4,.39,1.91-.69,1.91-.69,.54,.08,.79-.43,.79-.43,.95-.71,.49-5.01,2.06-7.44,1.56-2.43,2.1-5.5,2.1-5.5,0,0,19.31,.52,26.03-.8,6.73-1.32,8.05-8.74,7.76-10.85-.24-1.7-1.42-10.29-1.86-13.46Z"/>
        <path class="cls-9" d="M489.27,115.41l1.65,7.32c5.03-6.24,11.31-9.32,13.59-10.3-.1-.74-.16-1.18-.16-1.18-9.72,.38-15.08,4.16-15.08,4.16Z"/>
        <path class="cls-1" d="M451.29,95.46l-12.45-13.6s.43-3.53-.02-5.77c-.37-1.78-2.64-5.51-3.58-6.98-.27-.43-.92-.39-1.12,.08-.12,.27-.17,.66-.09,1.19,.23,1.5,.35,2.31,.36,2.4-.15-.09-2.6-1.48-3.82-3.2-1.26-1.77-3.42-4.33-4.83-3.81-1.41,.52-2.97,6.65-.38,10.84,2.6,4.19,8.32,8.05,8.32,8.05,0,0,2.37,5.98,5.34,12.39,.23,.48,.45,.97,.68,1.46l.07,.14c2.7,5.71,5.77,11.41,7.95,13.23,4.86,4.03,9.25,3.47,11.15,1.39,0,0,.14-.64,.33-1.73,.35-1.91,.87-5.2,1.18-8.83,0,0-2.87-5.2-9.11-7.26Z"/>
        <path class="cls-9" d="M451.29,95.46l3.12,3.06s3.15,1.19,5.98,4.2c0,0-2.13-4.91-9.1-7.26Z"/>
        <path class="cls-9" d="M434.56,73.15s.14,1.29,.1,1.62-1.94,3.13-.11,5.73c0,0-1.13-2.59,.45-5.59l-.44-1.76Z"/>
        <path class="cls-9" d="M427.42,76.42c.98-2.07,3.54-4.28,3.54-4.28-3.07,1.1-3.54,4.28-3.54,4.28Z"/>
        <path class="cls-9" d="M439.78,98.65c2.7,5.71,5.77,11.41,7.95,13.23,4.86,4.03,9.25,3.47,11.15,1.39,0,0,.14-.64,.33-1.73-.87,.81-2.37,1.65-4.84,1.67-4.43,.03-10.83-6.97-14.6-14.56Z"/>
        <path class="cls-9" d="M469.01,143.9c-.11,.77-.35,5.28-.87,5.93-.52,.65-1.46,.87-1.46,.87,0,0-.79,.93-2.47,.01,.34,.33,.84,.69,1.5,.88,1.4,.39,1.91-.69,1.91-.69,.54,.08,.79-.43,.79-.43,.95-.71,.49-5.01,2.06-7.44,1.56-2.43,2.1-5.5,2.1-5.5,0,0-.62,.69-1.36,2.4-.73,1.71-2.1,3.21-2.21,3.97Z"/>
        <path class="cls-50" d="M458.38,99.89s1.24,1.36,2.01,2.83l2.11-14.45s1.06-7.41,3.17-10.58c0,0-3.33,4.26-4.31,8.47-.98,4.21-2.98,13.73-2.98,13.73Z"/>
        <rect class="cls-2" x="479.35" y="90.73" width="2.11" height="9.53" rx=".92" ry=".92" transform="translate(262.94 534.38) rotate(-74.88)"/>
        <path class="cls-2" d="M507.36,110.48c-.05-.56-.48-1.01-1.05-1.11-6.99-1.22-14.78,2.17-17.55,3.54-.59,.29-.84,.98-.57,1.58l.35,.77c.31,.68,1.16,.93,1.81,.55,5.67-3.27,12.85-3.62,15.8-3.61,.74,0,1.31-.6,1.25-1.32l-.04-.39Z"/>
        <path class="cls-2" d="M452.23,93.86c-.24-.08-.5-.02-.67,.15l-.85,.83,1.1,1.14c6.02,2.64,8.58,6.75,8.58,6.75l.37-2.55c-2.86-4.08-7.22-5.86-8.53-6.32Z"/>
      </g>
    </g>
    <g>
      <polygon class="cls-70" points="468.72 235.08 512.8 235.08 488.75 164.59 468.72 235.08"/>
      <path class="cls-70" d="M518.63,149.07s-.07-.29-.22-.77h-33.61c-.16,.49-.23,.77-.23,.77l-19.22,80.13c-.73,3.04,2.09,5.88,5.84,5.88h7.4c2.89,0,5.37-1.72,5.87-4.08l6.03-28.64c.37-1.76,2.21-3.04,4.36-3.04h11.22c2.15,0,3.99,1.28,4.36,3.04l6.04,28.64c.49,2.36,2.97,4.08,5.86,4.08h9.69c3.75,0,6.57-2.84,5.84-5.88l-19.22-80.13Z"/>
      <g>
        <path class="cls-24" d="M511.72,149.07s-2.95-12.6-17.03-12.6h-11.46l2.57,2.13c-6.53,3.59-8.14,10.47-8.14,10.47l-19.22,80.13c-.73,3.04,2.09,5.88,5.84,5.88h7.4c2.89,0,5.37-1.72,5.87-4.08l6.03-28.64c.37-1.75,2.21-3.04,4.36-3.04h11.21c2.15,0,3.99,1.28,4.36,3.04l6.03,28.64c.5,2.36,2.97,4.08,5.87,4.08h9.69c3.75,0,6.57-2.84,5.84-5.88l-19.22-80.13Z"/>
        <path class="cls-22" d="M516.46,211.27l-1.03-4.31-1.68-6.99-4.53-18.88-7.62-31.75-.06-.26s-1.07-4.59-5.03-8.23c-.79-.73-1.7-1.42-2.75-2.03h0c-.9-.53-1.89-.99-2.99-1.37-1.79-.6-3.86-.97-6.25-.97-14.09,0-17.03,12.6-17.03,12.6l-2.36,9.81-1.37,5.71-1.76,7.34-3.97,16.57h0s-9.77,40.7-9.77,40.7c-.66,2.73,1.53,5.29,4.7,5.79,.37,.06,.75,.09,1.14,.09h9.69c2.89,0,5.37-1.72,5.87-4.08l3.17-15.04,2.87-13.61c.37-1.76,2.21-3.04,4.36-3.04h8.92c.38,0,.74,.04,1.1,.11,1.66,.35,2.96,1.48,3.27,2.92l3.04,14.44,1.5,7.15,1.02,4.87,.46,2.18c.5,2.36,2.97,4.08,5.87,4.08h9.69c3.76,0,6.57-2.84,5.84-5.88l-4.31-17.93Z"/>
        <path class="cls-23" d="M496.51,140.84l-34.52,31.09-3.97,16.57,43.58-39.16-.06-.26s-1.07-4.59-5.03-8.23Z"/>
        <path class="cls-23" d="M465.13,158.88l-1.37,5.71,30-25.79c-.9-.53-1.89-.99-2.99-1.37l-25.64,21.44Z"/>
        <path class="cls-23" d="M454.1,235.08h9.69c2.89,0,5.37-1.72,5.87-4.08l3.17-15.04-19.86,19.03c.37,.06,.75,.09,1.14,.09Z"/>
        <path class="cls-23" d="M490.07,199.43c1.66,.35,2.96,1.48,3.27,2.92l3.04,14.44,17.37-16.83-4.53-18.88-19.15,18.35Z"/>
        <polygon class="cls-23" points="497.89 223.95 498.91 228.81 516.46 211.27 515.43 206.96 497.89 223.95"/>
        <path class="cls-24" d="M485.06,161.97c-.13-.55-.93-.54-1.05,.01l-4.78,22.98h11.17l-1.76-7.58-3.58-15.41Z"/>
        <polygon class="cls-70" points="487.09 184.96 490.41 184.96 488.65 177.38 487.09 184.96"/>
      </g>
    </g>
  </g>
  <g>
    <g>
      <g>
        <path class="cls-78" d="M257.3,199.14s-3.58,7.04,7.01,11.52c10.1,4.27,19.51,4.21,19.51,4.21,0,0-17.97-26.53-26.51-15.73Z"/>
        <path class="cls-58" d="M283.81,214.87c-9.1-6.97-20.38-12.26-20.38-12.26,6.42,5.66,20.38,12.26,20.38,12.26Z"/>
      </g>
      <g>
        <path class="cls-44" d="M264.97,178.35c-14.05,13.06,36.43,54.86,36.43,54.86-2.13-17.82-21.39-68.85-36.43-54.86Z"/>
        <path class="cls-74" d="M301.41,233.21c-11.29-24.83-29.44-47-29.44-47,2.85,7,29.44,47,29.44,47Z"/>
      </g>
      <path class="cls-78" d="M284.67,231.25l-19.05-12.04s-6.93-2.7-9.34,1.46c-2.41,4.16,4.09,9.98,4.09,9.98,0,0-11.75-2.02-13.5,5.79-1.75,7.81,10.73,16.46,33.72,9.51,22.99-6.95,4.09-14.69,4.09-14.69Z"/>
      <g>
        <path class="cls-14" d="M264.5,209.48c-9.96,8.43,8.49,20.4,8.49,20.4,0,0-8.79-3.04-9.64,1.37-.85,4.41,10.11,10.05,23.54,9.38,13.43-.66,19.27-1.56,12.84-10.84,0,0-25.28-28.74-35.23-20.31Z"/>
        <path class="cls-55" d="M302.15,237.07c-17.34-13.68-29.61-19.04-29.61-19.04,14.41,12.24,29.61,19.04,29.61,19.04Z"/>
        <path class="cls-55" d="M274.41,234.29c15.86,3.78,27.75,2.78,27.75,2.78-14.06-2.98-27.75-2.78-27.75-2.78Z"/>
      </g>
    </g>
    <g>
      <path class="cls-66" d="M338.23,241.41l2.46,13.77s21.47-.93,27.2-4.15c5.74-3.22,9-9.85,4.66-16.05-12.44-17.78-34.32,6.43-34.32,6.43Z"/>
      <g>
        <path class="cls-75" d="M351.83,248.09s-1.46-1.41-3.75-2.91c-1.42-.94-3.16-1.9-5.07-2.59-4.97-1.78-7.73,3.47-7.73,3.47,0,0-6.97,10.27,0,11.59,2.03,.38,5.1,.3,8.43-.08,8.1-.92,17.75-3.59,17.73-5.56-.02-2.78-9.62-3.92-9.62-3.92Z"/>
        <path class="cls-48" d="M335.29,246.06s-6.97,10.27,0,11.59c2.03,.38,5.1,.3,8.43-.08-.29-1.35-.44-3.3-.06-5.96,.55-3.93,2.88-5.69,4.43-6.44-1.42-.94-3.16-1.9-5.07-2.59-4.97-1.78-7.73,3.47-7.73,3.47Z"/>
      </g>
      <path class="cls-6" d="M295.13,234.14s-1.1,.14-2.8,.51c-2.29,.49-5.67,1.37-8.84,2.86-3.29,1.55-6.34,3.72-7.7,6.75-3.61,8.07-2.96,22.66,13.68,24.63,16.64,1.96,48.61-10.06,48.61-10.06,0,0,3.38-8.95-1.02-14.27-4.41-5.33-41.94-10.4-41.94-10.4Z"/>
      <path class="cls-66" d="M283.49,237.5s-1.31,8.32,3.93,10.59c5.24,2.27,18.99,.8,18.99,.8l7.52,2.3c.9,.28,1.87,.23,2.75-.12l3.85-1.57-28.2-14.85c-2.29,.49-5.67,1.37-8.84,2.86Z"/>
      <g>
        <path class="cls-31" d="M304.65,179.95l-9.41-.77-13.15-1.08s-.74,.44-1.56,1.37c-1.72,1.95-3.76,6.08,.17,12.83,0,0-2.77,7.18,1.39,10.08,.55,.38,1.13,.63,1.72,.76,3.87,.89,8.24-2.9,8.24-2.9,0,0,9.34,3.78,14.24-5.29,3.4-6.27,1.31-11.03-.3-13.38-.72-1.05-1.34-1.61-1.34-1.61Z"/>
        <path class="cls-79" d="M319.01,154.98l-3.44,4.62s-2.94,20.36,5.27,11.83c8.21-8.53-1.83-16.45-1.83-16.45Z"/>
        <path class="cls-31" d="M307.28,164.29h0c-.36-1.01-.78-1.86-1.27-2.57-3.99-5.92-11.64-3.08-11.64-3.08,0,0-3.06-.19-6.42,1.2-2.97,1.24-6.18,3.72-7.7,8.7-1.37,4.47-1.03,8.11,.29,10.93,1.34,2.88,3.68,4.91,6.25,6.11,1.2,.57,2.47,.95,3.7,1.16,4.49,.75,11.76,.68,15.51-5.18,1.6-2.51,2.55-6.08,2.36-11.11-.1-2.51-.48-4.53-1.07-6.16Z"/>
        <path class="cls-79" d="M306.01,161.72c-.47,.62-1.04,1.01-1.9,1.07-4.31-.11-9.05,3.25-6.01,9.73,2.88,8.45-9.16,6.45-11.31,13.07-2.89,7.7,4.04,13.27-2.97,17.55,3.87,.89,8.24-2.9,8.24-2.9,8.8,4.47,21.13-7.73,13.94-18.67,2.75-3.44,2.97-13.12,1.17-17.98,5.18-.66,3.47-3.05,4.33-7.19,.82-3.97,4.21-1.42,4.49-1.2-5.33-5.33-7.99,2.82-9.97,6.53Z"/>
        <path class="cls-3" d="M349.7,193.58l-1.51,7.31c-1.14-.63-2.27,0-2.27,0-.43-.05-2.84-2.91-5.79-6.41h0c-3.94-4.68-8.83-10.47-11.17-12.13-4.07-2.9-6.67-3.71-6.67-3.71l2.39,17.46,2.64,19.26s9.53,9.34,24.9,11.15c3.53,.41,6.11-.7,7.99-2.68h0c6.35-6.64,4.86-22.94,4.86-22.94-10.34-.63-15.38-7.31-15.38-7.31Z"/>
        <path class="cls-76" d="M338.54,217.49c-6.43-6.05-6.93-12.47-7.44-17.26-.51-4.79-5.25-10.96-5.25-10.96l-1.17,6.82,2.64,19.26s9.53,9.34,24.9,11.15c3.53,.41,6.11-.7,7.99-2.68-7.67,3.93-15.25-.28-21.67-6.33Z"/>
        <path class="cls-3" d="M325.55,188.65c-1.01-3.09-3.26-10.01-3.26-10.01-.81-.22-1.58-.41-2.32-.59-8.36-2.05-12.38-2-12.38-2-8.06,2.05-13.96,7.27-17.09,10.65-.87,.93-1.58,1.99-2.12,3.13-.51,1.08-.87,2.24-1.05,3.45-.66,4.46-1.5,12.75-.58,22.33,1.39,14.36,2.27,18.02,4.92,23.81,2.64,5.8,13.86,7.43,23.69,4.28,0,0,1.77-6.65-2.1-12.8l15.82-2.25s.89-24.32,.51-28.58c-.38-4.27-4.03-11.42-4.03-11.42Z"/>
        <path class="cls-76" d="M307.59,176.04c-8.06,2.05-13.96,7.27-17.09,10.65-.87,.93-1.58,1.99-2.12,3.13,1.43,.35,3.78-1.72,8.38-3.32,5.54-1.93,8.31,.67,13.45-.67,5.15-1.35,5.8-4.79,5.8-4.79,2.67-1.22,3.97-3,3.97-3-8.36-2.05-12.38-2-12.38-2Z"/>
        <path class="cls-49" d="M311.88,178.63c.59,1.07,2.15,3.31,2.88,7.58,0,0,1.41-4.16-1.67-8.86-3.08-4.7-1.8,.22-1.22,1.29Z"/>
        <path class="cls-28" d="M304.35,174.6c-2.31,.27-2.67,1.51-2.67,1.51l1.6,1.38,1.41-.36s1.77-2.78-.34-2.54Z"/>
        <path class="cls-9" d="M312.31,176.51c-1.58-1.34-8.14-5.75-8.14-5.75l-.5,5.94s-1.14,1.21,1.03,4.77c3.44,5.63,7.88,7.15,9.42,6.13,2.18-1.43-1.7-7.77-1.7-7.77l-.12-3.32Z"/>
        <path class="cls-1" d="M321.97,167.43c-.46-1.8-1.11-3.68-1.71-5.49,0,0,0-.01,0-.02-.48-1.45-.94-2.85-1.25-4.13-1.66-6.77-7.64-6.08-7.64-6.08-14.2-.04-9.58,15.69-7.94,18.94,1.64,3.25,6.43,7.37,13.54,5.86,3.69-.78,6.12-4.5,5.09-8.74-.03-.12-.06-.23-.09-.35Z"/>
        <path class="cls-62" d="M310.6,165.53c-1.67-1.45-4.09-1.4-5.39,.1-1.31,1.51-1.01,3.9,.66,5.35,1.67,1.45,4.09,1.4,5.39-.1s1.01-3.9-.66-5.35Z"/>
        <path class="cls-62" d="M320.26,161.92c-.03-.07-.05-.15-.08-.22-.48,.9-.61,2.02-.3,3.13,.34,1.19,1.13,2.12,2.09,2.6-.46-1.8-1.11-3.68-1.71-5.49,0,0,0-.01,0-.02Z"/>
        <g>
          <path class="cls-73" d="M310.26,162.97c-.36,.14-.51,.66-.32,1.16,.18,.5,.63,.78,.99,.64,.36-.14,.51-.66,.32-1.16-.18-.5-.63-.78-.99-.64Z"/>
          <path class="cls-73" d="M317.87,161.26c-.34,.09-.51,.59-.38,1.13,.13,.53,.51,.89,.85,.8,.34-.09,.51-.59,.38-1.13-.13-.53-.51-.89-.85-.8Z"/>
          <path class="cls-73" d="M310.76,159.53c-.34-.1-.89-.14-1.48-.04-.6,.1-1.09,.32-1.37,.52-.28,.21-.36,.38-.27,.45,.21,.13,.91-.14,1.78-.27,.87-.16,1.62-.13,1.77-.32,.06-.09-.08-.23-.42-.33Z"/>
          <path class="cls-73" d="M317.66,157.66c-.28-.05-.7-.02-1.13,.16-.42,.18-.74,.45-.9,.69-.16,.24-.18,.42-.09,.46,.19,.1,.65-.26,1.27-.5,.61-.27,1.19-.34,1.25-.54,.02-.1-.12-.21-.4-.26Z"/>
          <path class="cls-32" d="M318.54,166.1c-.15-.38-.53-.59-.86-.46-.16,.06-.35,.04-.52-.06-.18-.1-.33-.28-.42-.5l-.46-1.21c-.03-.08-.12-.12-.2-.09-.07,.02-.12,.12-.09,.2l.46,1.21c.11,.29,.31,.52,.55,.66,.26,.15,.53,.17,.78,.08,.17-.06,.37,.06,.46,.29l.03,.08c.11,.29,.13,.59,.04,.86-.08,.25-.24,.44-.46,.52l-.74,.29c-.08,.02-.12,.12-.09,.2s.12,.12,.2,.09l.74-.29s.04-.02,.06-.02c.28-.13,.48-.37,.59-.69,.11-.33,.09-.71-.05-1.06l-.03-.08Z"/>
        </g>
        <path class="cls-31" d="M313.47,147.11s-2-3.55-11.43-2.26c-9.43,1.29-11.24,9.95-11.24,9.95-2.17,1.34-3.48,2.67-3.45,4.97,.05,3.53,1.69,6.32,5.09,7.86,1.3,.59,2.51,.88,3.6,.98,3.59,.34,5.86-1.4,5.86-1.4,4,0,4.24-2.69,4.13-4.01h0c-.04-.43-.12-.7-.12-.7,5.18-.66,3.47-3.05,4.33-7.19,.82-3.97,4.21-1.42,4.49-1.2,.01,.01,.02,.02,.02,.02,2.11-1.89,4.11,3.11,4.11,3.11,.1-.81,.14-1.56,.15-2.26,.06-8.07-5.54-7.87-5.54-7.87Z"/>
        <path class="cls-1" d="M298.86,166.76c-2.93,1.81,1.82,7.99,6.18,5.44l-2.22-4.71s-1.68-2.14-3.96-.73Z"/>
        <path class="cls-79" d="M314.74,154.01c2.11-1.89,4.27,3.78,4.27,3.78,.1-.81-.02-2.23-.02-2.93-.83-1.79-2.34-3.82-4.26-.86Z"/>
        <path class="cls-76" d="M310.21,226.95h-2.72c-.68,0-1.26-.5-1.36-1.18-.47-3.31-1.97-13.07-4.63-22.5-3.28-11.58-10.96-14-10.96-14,7.24,6.03,9.2,13.06,11.36,24.02,2.16,10.96-3.21,17.14-3.21,17.14,0,0,.46-.08,4.54-1.64,4.07-1.55,5.38-.84,6.64-.67,1.26,.17,3.4,2.78,3.4,2.78-1.22-2.36-3.05-3.95-3.05-3.95Z"/>
        <path class="cls-76" d="M345.92,200.89c-.43-.05-2.84-2.91-5.79-6.41l5.08,8.8c-.25,4,1.68,6.41,1.68,4.15s1.76-5.21,1.76-5.21l1.04-8.63-1.51,7.31c-1.14-.63-2.27,0-2.27,0Z"/>
        <path class="cls-49" d="M305.95,181.61c-1.92-3.83-3.28-7.62-4.26-5.49-.34,.74-.35,1.6-.12,2.38,.78,2.57,3.39,8.86,10.31,9.24,0,0-3.74-1.74-5.93-6.13Z"/>
        <path class="cls-76" d="M318.77,230.9c-4.56,2.36,10.9,0,10.9,0l-1.93-12.48s-4.41,10.12-8.97,12.48Z"/>
        <path class="cls-1" d="M315.68,241.67l11.56-4.86v-8.9l-13.99,2.99c2.65,5.68,2.42,10.77,2.42,10.77Z"/>
        <g>
          <g>
            <polygon class="cls-21" points="358.98 210.43 356.3 210.88 356.29 210.88 341.26 213.45 335.56 214.42 325.84 216.08 322.87 234.19 321.12 244.84 320.94 245.94 336.16 242.68 338.93 242.08 342.26 241.37 342.27 241.37 348.17 240.11 356.31 238.36 359.09 237.77 362.47 237.04 363.75 230.4 363.75 230.4 364.8 224.95 364.8 224.95 367.77 209.56 367.89 208.91 362.51 209.82 358.98 210.43"/>
            <polygon class="cls-53" points="342.27 241.37 348.17 240.11 367.77 209.56 367.89 208.91 362.51 209.82 342.27 241.37"/>
            <polygon class="cls-53" points="322.87 234.19 321.12 244.84 341.26 213.45 335.56 214.42 322.87 234.19"/>
            <polygon class="cls-53" points="356.29 210.88 336.16 242.68 338.93 242.08 358.98 210.43 356.3 210.88 356.29 210.88"/>
            <polygon class="cls-53" points="359.09 237.77 363.75 230.4 363.75 230.4 364.8 224.95 356.31 238.36 359.09 237.77"/>
            <polygon class="cls-18" points="324.16 215.36 325.84 216.08 367.89 208.91 366.24 208.29 324.16 215.36"/>
            <polygon class="cls-45" points="319.04 245.95 320.94 245.95 325.84 216.08 324.16 215.36 319.04 245.95"/>
          </g>
          <path class="cls-13" d="M320.61,247.68l41.35-8.97c.3-.07,.52-.33,.51-.64v-1.02s-41.53,8.9-41.53,8.9l-.34,1.73Z"/>
          <path class="cls-45" d="M307.23,242.54v1.47c0,.08,.05,.14,.12,.16l12.95,3.52c.32,.09,.64-.16,.64-.49v-1.25l-13.5-3.57c-.11-.03-.21,.05-.21,.16Z"/>
          <polygon class="cls-16" points="319.12 245.46 320.11 239.59 307.44 242.37 319.12 245.46"/>
        </g>
        <path class="cls-76" d="M365.08,200.89c-7.61-7.29-15.38-7.31-15.38-7.31,6.88,8.21,15.38,7.31,15.38,7.31Z"/>
        <g>
          <path class="cls-1" d="M351.01,194.94c3.65,4.28,8.46,5.22,8.46,5.22l.13-9.65-7.46-3.45-1.13,7.87Z"/>
          <path class="cls-1" d="M352.88,176.04c-1.97,1.31-2.44,5.86-.73,11.03l7.46,3.45s2.82-3.75,2.86-6.71c.04-2.96-1.43-5.18-1.43-5.18,0,0-6.19-3.91-8.16-2.59Z"/>
          <path class="cls-15" d="M359.61,179.49l-6.37-1.47-1.38,2.62,3.58,4.67s2.77,1.09,3.83,.55,1.35-4.23,1.28-4.96c-.07-.73-.93-1.4-.93-1.4Z"/>
          <path class="cls-1" d="M354.12,166.08c-1.45,.38-2.38,11.22-2.38,11.22,.71,.05,1.49-.53,2.08-1.1,.55-.54,.93-1.07,.93-1.07l.09-1.33,.36-5.67s.38-2.42-1.07-2.04Z"/>
          <path class="cls-15" d="M352.67,176.19h1.14c.55-.54,.93-1.07,.93-1.07l.09-1.33c-1.77,.43-2.16,2.41-2.16,2.41Z"/>
          <g>
            <path class="cls-15" d="M361.93,178.3c-.37-1.46-4.53-3.68-6.13-4.05-1.61-.37-3.13,1.94-3.13,1.94-.02,.09-.03,.17-.04,.26-.61,4.5,6.76,6.63,7.92,6.41,1.05-.19,1.61-2.48,1.46-4.01-.02-.2-.05-.38-.09-.55Z"/>
            <path class="cls-1" d="M355.8,174.25c-1.61-.37-3.13,1.94-3.13,1.94-.02,.09-.03,.17-.04,.26,.56,3.78,6.86,5.56,7.92,5.36,.82-.15,1.34-1.6,1.46-2.96-.02-.2-.05-.38-.09-.55-.37-1.46-4.53-3.68-6.13-4.05Z"/>
          </g>
          <path class="cls-1" d="M359.61,178.64s-2.24-1.29-4.29-.71c-2.06,.57-4.21,3.69-4.21,3.69-.1,2.14,1.04,5.45,1.04,5.45,0,0,.07,.87,1.5,1.82,1.42,.94,3.73,.6,4.35-2.37,.06-.27,.09-.54,.09-.79h0c.09-2.57-1.88-4.35-1.88-4.35l.58-1.36,1.61-.07c1.93-.24,1.3-1.19,1.22-1.29,0-.01,0-.02,0-.02Z"/>
          <path class="cls-52" d="M358.82,179.65c-.88,.11-1.98,.1-2.29,.09-.05,0-.1,.03-.13,.07l-.87,1.45c-.05,.09-.03,.2,.06,.26,.53,.36,2.27,1.7,2.49,4.17,.08-2.22-1.4-3.86-1.79-4.25-.06-.06-.07-.14-.04-.21l.49-1.14c.02-.05,.07-.09,.13-.09l1.51-.06c1.93-.24,1.3-1.19,1.22-1.29,.03,.13,.17,.88-.79,1Z"/>
        </g>
        <path class="cls-38" d="M314.86,171.03s.74,1.74,2.15,1.67,1.82-1.79,1.64-3.16c0,0-2.34,.7-3.79,1.49Z"/>
      </g>
    </g>
  </g>
  <g>
    <g>
      <rect class="cls-2" x="202.29" y="138.48" width="56.18" height="20.58" rx="8.56" ry="8.56"/>
      <path class="cls-72" d="M274.78,155.97l-10.19-6v-2.51c0-4.96-4.02-8.98-8.98-8.98h-38.22c-4.96,0-8.98,4.02-8.98,8.98v2.62c0,4.96,4.02,8.98,8.98,8.98h38.22c2.82,0,5.35-1.3,6.99-3.34l11.9,1.11c.49,.05,.7-.61,.28-.86Z"/>
    </g>
    <g>
      <circle class="cls-75" cx="225.08" cy="149.34" r="2.98"/>
      <circle class="cls-75" cx="236.46" cy="149.34" r="2.98" transform="translate(-39.15 101.86) rotate(-22.5)"/>
      <circle class="cls-75" cx="247.85" cy="149.34" r="2.98"/>
    </g>
  </g>
  <path class="cls-27" d="M512.86,74.81c-.76,.33-.62,1.45,.2,1.58l9.58,1.56-.93-6.97-8.85,3.83Z"/>
  <g>
    <g>
      <path class="cls-24" d="M430.63,29.12c-.05-1.58-1.42-2.79-2.99-2.65l-4.07,.36c-1.57,.14-2.7,1.56-2.48,3.12l2.82,20.32c.2,1.45,1.5,2.49,2.96,2.36l1.9-.17c1.45-.13,2.56-1.37,2.51-2.83l-.65-20.51Z"/>
      <path class="cls-20" d="M428.67,29.29c-.05-1.58-1.42-2.79-2.99-2.65l-4.07,.36c-1.57,.14-2.7,1.56-2.48,3.12l2.82,20.32c.2,1.45,1.5,2.49,2.96,2.36l1.9-.17c1.45-.13,2.56-1.37,2.51-2.83l-.65-20.51Z"/>
    </g>
    <g>
      <ellipse class="cls-24" cx="427.68" cy="58.34" rx="3.76" ry="3.72" transform="translate(-3.46 37.5) rotate(-5)"/>
      <rect class="cls-24" x="426.28" y="54.67" width="1.4" height="7.45" transform="translate(-3.46 37.42) rotate(-5)"/>
      <ellipse class="cls-20" cx="426.28" cy="58.46" rx="3.76" ry="3.72" transform="translate(-3.47 37.32) rotate(-4.99)"/>
    </g>
  </g>
  <g>
    <g>
      <path class="cls-33" d="M264.99,98.79c-.43-1.39-1.94-2.12-3.3-1.61l-3.52,1.32c-1.35,.51-2.01,2.05-1.43,3.38l7.52,17.29c.54,1.23,1.95,1.83,3.21,1.36l1.64-.62c1.26-.47,1.92-1.84,1.52-3.12l-5.65-18Z"/>
      <path class="cls-27" d="M263.3,99.42c-.43-1.39-1.94-2.12-3.3-1.61l-3.52,1.32c-1.35,.51-2.01,2.05-1.43,3.38l7.52,17.29c.54,1.23,1.95,1.83,3.21,1.36l1.64-.62c1.26-.47,1.92-1.84,1.52-3.12l-5.65-18Z"/>
    </g>
    <g>
      <path class="cls-33" d="M268.4,122.18c-1.79,.67-2.69,2.65-2.03,4.42s2.65,2.66,4.44,1.99,2.69-2.65,2.03-4.42c-.67-1.77-2.65-2.66-4.44-1.99Z"/>
      <rect class="cls-24" x="268.36" y="122.19" width="1.29" height="6.85" transform="translate(-27 102.74) rotate(-20.61)"/>
      <ellipse class="cls-27" cx="268.4" cy="125.84" rx="3.46" ry="3.42" transform="translate(-27.12 102.52) rotate(-20.61)"/>
    </g>
  </g>
  <g>
    <g>
      <path class="cls-46" d="M531.35,131.45c-.87-.42-1.74-.48-2.62-.19-.88,.29-1.52,.87-1.94,1.72-.47,.96-.52,1.86-.16,2.69,.36,.83,.95,1.45,1.77,1.85,.8,.39,1.63,.46,2.51,.21,.87-.25,1.54-.84,2-1.79,.41-.85,.47-1.71,.17-2.58-.3-.86-.88-1.5-1.73-1.92Z"/>
      <path class="cls-46" d="M548.47,110.61c-1.15-1.45-2.71-2.66-4.67-3.61-2.11-1.02-4.17-1.49-6.18-1.39-2,.1-3.74,.61-5.21,1.53s-2.51,2.02-3.13,3.31c-.3,.62-.32,1.33-.06,2.12,.26,.79,.77,1.36,1.53,1.73,1.29,.62,2.53,.28,3.73-1.03,1.2-1.23,2.33-2.04,3.4-2.46,1.07-.41,2.35-.25,3.84,.47,1.27,.62,2.13,1.49,2.58,2.63,.44,1.14,.41,2.25-.12,3.33-.27,.56-.65,1.01-1.14,1.35-.49,.35-1.03,.62-1.6,.82-.57,.2-1.48,.47-2.71,.81-1.41,.39-2.56,.76-3.44,1.1-.89,.35-1.71,.85-2.46,1.51-.76,.66-1.41,1.56-1.96,2.7-.44,.91-.53,1.71-.27,2.4,.26,.69,.74,1.21,1.44,1.55,1.36,.66,2.5,.34,3.44-.94,.47-.59,.81-1,1.01-1.23,.2-.23,.44-.44,.7-.64,.26-.2,.61-.39,1.04-.57,.43-.18,.98-.37,1.64-.57,2.39-.68,4.06-1.18,5-1.5,.95-.32,1.87-.8,2.75-1.44,.89-.64,1.61-1.54,2.17-2.69,.71-1.46,.95-3.02,.74-4.66-.22-1.64-.9-3.19-2.05-4.64Z"/>
    </g>
    <rect class="cls-40" x="529.16" y="111.76" width="2.5" height="2.55" transform="translate(301.19 604.53) rotate(-77.03)"/>
    <rect class="cls-40" x="537.81" y="105.52" width="2.5" height="2.55" transform="translate(313.96 608.12) rotate(-77.03)"/>
    <rect class="cls-40" x="530.96" y="127.62" width="1.11" height="2.57" transform="translate(286.58 617.92) rotate(-77.03)"/>
    <rect class="cls-40" x="528.5" y="130.11" width="1.11" height="2.57" transform="translate(282.24 617.44) rotate(-77.03)"/>
    <rect class="cls-40" x="527.47" y="135.68" width="1.11" height="2.57" transform="translate(276.01 620.76) rotate(-77.03)"/>
    <g>
      <path class="cls-29" d="M545.95,110.03c-1.15-1.45-2.71-2.66-4.67-3.61-2.11-1.02-4.17-1.49-6.18-1.39-2,.1-3.74,.61-5.21,1.53-1.47,.92-2.51,2.02-3.13,3.31-.3,.62-.32,1.33-.06,2.12,.26,.79,.77,1.36,1.53,1.73,1.29,.62,2.53,.28,3.73-1.03,1.2-1.23,2.33-2.04,3.4-2.46,1.07-.41,2.35-.25,3.84,.47,1.27,.62,2.13,1.49,2.58,2.63,.44,1.14,.41,2.25-.12,3.33-.27,.56-.65,1.01-1.14,1.35-.49,.35-1.03,.62-1.6,.82-.57,.2-1.48,.47-2.71,.81-1.41,.39-2.56,.76-3.44,1.1-.89,.35-1.71,.85-2.46,1.51-.76,.66-1.41,1.56-1.96,2.7-.44,.91-.53,1.71-.27,2.4,.26,.69,.74,1.21,1.44,1.55,1.36,.66,2.5,.34,3.44-.94,.47-.59,.81-1,1.01-1.23,.2-.23,.44-.44,.7-.64,.26-.2,.61-.39,1.04-.57,.43-.18,.98-.37,1.64-.57,2.39-.68,4.06-1.18,5-1.5,.95-.32,1.87-.8,2.75-1.44,.89-.64,1.61-1.54,2.17-2.69,.71-1.46,.95-3.02,.74-4.66-.22-1.64-.9-3.19-2.05-4.64Z"/>
      <path class="cls-29" d="M528.83,130.87c-.87-.42-1.74-.48-2.62-.19-.88,.29-1.52,.87-1.94,1.72-.47,.96-.52,1.86-.16,2.69,.36,.83,.95,1.45,1.77,1.85,.8,.39,1.63,.46,2.51,.21,.87-.25,1.54-.84,2-1.79,.41-.85,.47-1.71,.17-2.58-.3-.86-.88-1.5-1.73-1.92Z"/>
    </g>
  </g>
  <g>
    <g>
      <path class="cls-12" d="M442.03,56.48c-.88-.32-1.73-.3-2.55,.07-.82,.37-1.39,.99-1.71,1.86-.36,.98-.32,1.85,.11,2.62,.43,.77,1.06,1.31,1.9,1.62,.81,.3,1.63,.28,2.45-.04,.82-.32,1.41-.97,1.76-1.93,.32-.87,.29-1.7-.09-2.51-.38-.81-1-1.37-1.86-1.69Z"/>
      <path class="cls-12" d="M456.56,34.61c-1.26-1.29-2.89-2.3-4.88-3.03-2.15-.78-4.19-1.03-6.12-.73-1.93,.29-3.56,.96-4.89,1.99s-2.23,2.21-2.71,3.52c-.23,.63-.18,1.32,.15,2.06,.33,.74,.88,1.25,1.65,1.53,1.31,.48,2.48,.02,3.51-1.36,1.04-1.31,2.05-2.21,3.05-2.71,.99-.5,2.25-.48,3.76,.07,1.29,.47,2.21,1.24,2.76,2.29,.54,1.06,.61,2.13,.21,3.24-.21,.56-.53,1.04-.98,1.42-.44,.38-.93,.7-1.47,.95-.54,.25-1.38,.6-2.55,1.05-1.33,.51-2.4,.98-3.23,1.41-.83,.42-1.57,.99-2.24,1.71-.67,.72-1.21,1.65-1.63,2.81-.34,.92-.35,1.71-.03,2.35,.32,.65,.84,1.1,1.55,1.36,1.38,.5,2.46,.09,3.24-1.25,.4-.62,.68-1.05,.86-1.29,.17-.24,.38-.47,.61-.69,.24-.22,.55-.44,.95-.66,.4-.22,.91-.46,1.54-.71,2.25-.9,3.81-1.55,4.7-1.95,.89-.4,1.73-.96,2.53-1.66,.8-.71,1.41-1.65,1.83-2.82,.54-1.49,.63-3.02,.26-4.59-.37-1.57-1.19-3-2.45-4.3Z"/>
    </g>
    <rect class="cls-12" x="438.09" y="37.49" width="2.43" height="2.49" transform="translate(346.12 469.78) rotate(-82.84)"/>
    <rect class="cls-12" x="445.85" y="30.6" width="2.43" height="2.49" transform="translate(359.75 471.45) rotate(-82.84)"/>
    <rect class="cls-12" x="441.4" y="52.74" width="1.08" height="2.5" transform="translate(333.28 485.76) rotate(-82.84)"/>
    <rect class="cls-12" x="439.26" y="55.4" width="1.08" height="2.5" transform="translate(328.77 485.96) rotate(-82.84)"/>
    <rect class="cls-12" x="438.81" y="60.9" width="1.08" height="2.5" transform="translate(322.92 490.33) rotate(-82.84)"/>
    <g>
      <path class="cls-10" d="M454.06,34.29c-1.26-1.29-2.89-2.3-4.88-3.03-2.15-.78-4.19-1.03-6.12-.73-1.93,.29-3.56,.96-4.89,1.99-1.33,1.04-2.23,2.21-2.71,3.52-.23,.63-.18,1.32,.15,2.06,.33,.74,.88,1.25,1.65,1.53,1.31,.48,2.48,.02,3.51-1.36,1.04-1.31,2.05-2.21,3.05-2.71,.99-.5,2.25-.48,3.76,.07,1.29,.47,2.21,1.24,2.76,2.29,.54,1.06,.61,2.13,.21,3.24-.21,.56-.53,1.04-.98,1.42-.44,.38-.93,.7-1.47,.95-.54,.25-1.38,.6-2.55,1.05-1.33,.51-2.4,.98-3.23,1.41-.83,.42-1.57,.99-2.24,1.71-.67,.72-1.21,1.65-1.63,2.81-.34,.92-.35,1.71-.03,2.35,.32,.65,.84,1.1,1.55,1.36,1.38,.5,2.46,.09,3.24-1.25,.4-.62,.68-1.05,.86-1.29,.17-.24,.38-.47,.61-.69,.24-.22,.55-.44,.95-.66,.4-.22,.91-.46,1.54-.71,2.25-.9,3.81-1.55,4.7-1.95,.89-.4,1.73-.96,2.53-1.66,.8-.71,1.41-1.65,1.83-2.82,.54-1.49,.63-3.02,.26-4.59-.37-1.57-1.19-3-2.45-4.3Z"/>
      <path class="cls-10" d="M439.53,56.17c-.88-.32-1.73-.3-2.55,.07-.82,.37-1.39,.99-1.71,1.86-.36,.98-.32,1.85,.11,2.62,.43,.77,1.06,1.31,1.9,1.62,.81,.3,1.63,.28,2.45-.04,.82-.32,1.41-.97,1.76-1.93,.32-.87,.29-1.7-.09-2.51-.38-.81-1-1.37-1.86-1.69Z"/>
    </g>
  </g>
  <g>
    <g>
      <path class="cls-33" d="M570.47,48.25h-38.46c-4.42,0-7.93,3.71-7.69,8.12l1.45,26.67c.22,4.09,3.6,7.29,7.69,7.29h34.11c3.93,0,7.23-2.96,7.66-6.87l2.9-26.67c.5-4.56-3.07-8.54-7.66-8.54Z"/>
      <path class="cls-27" d="M512.86,74.81c-.76,.33-.62,1.45,.2,1.58l9.58,1.56-.93-6.97-8.85,3.83Z"/>
      <path class="cls-30" d="M564.78,48.25h-38.46c-4.42,0-7.93,3.71-7.69,8.12l1.45,26.67c.22,4.09,3.6,7.29,7.69,7.29h34.11c3.93,0,7.23-2.96,7.66-6.87l2.9-26.67c.5-4.56-3.07-8.54-7.66-8.54Z"/>
    </g>
    <g>
      <rect class="cls-75" x="525.74" y="57.96" width="40.96" height="3.89" rx="1.85" ry="1.85"/>
      <rect class="cls-75" x="525.74" y="67.35" width="39.62" height="3.89" rx="1.85" ry="1.85"/>
      <rect class="cls-75" x="525.74" y="76.74" width="23.77" height="3.89" rx="1.85" ry="1.85"/>
    </g>
  </g>
  <g>
    <path class="cls-19" d="M398.9,255.97l-27.72-5.06c-.28-.05-.57-.01-.82,.12l-25.58,13.11c-.17,.09-.31,.21-.42,.34-.58,.7-.25,1.88,.75,2.08l31.27,6.47c.34,.07,.69,0,.98-.19l22.03-14.51c.7-.46,.74-1.35,.3-1.9-.18-.23-.45-.4-.78-.46Z"/>
    <path class="cls-22" d="M398.9,255.97l-27.72-5.06c-.28-.05-.57-.01-.82,.12l-25.58,13.11c-.17,.09-.31,.21-.42,.34,.17,.22,.42,.4,.75,.46l31.27,6.47c.34,.07,.69,0,.98-.19l22.03-14.51c.12-.08,.22-.17,.3-.27-.18-.23-.45-.4-.78-.46Z"/>
    <path class="cls-43" d="M396.96,256.58h-.03s-7.44-1.37-7.44-1.37l-18.47-3.37s-.07,0-.07,0c-.05,0-.1,.01-.15,.04l-8.68,4.45-4.31,2.21-11.21,5.74,30,6.21s.04,0,.06,0c.07,0,.13-.02,.19-.06l20.23-13.34c.21-.14,.15-.47-.1-.52Z"/>
    <polygon class="cls-39" points="362.11 256.33 357.8 258.54 396.93 256.58 389.49 255.22 362.11 256.33"/>
    <polygon class="cls-39" points="352.23 261.39 393.46 259.48 395.17 258.35 354.07 260.45 352.23 261.39"/>
    <polygon class="cls-39" points="359.9 267.04 384.42 265.44 386.84 263.84 353.9 265.8 359.9 267.04"/>
  </g>
  <g>
    <g>
      <path class="cls-72" d="M425.39,256.92l31.44,4.58c.38,.05,.76-.05,1.08-.26l19.17-13.56-27.35-1.9-24.34,11.15Z"/>
      <g>
        <path class="cls-25" d="M424.68,262.94c.31,1.04,1.19,1.78,2.24,1.92l30.6,4.56,.02-8.02-32.16-4.48s-1.74,2.48-.7,6.02Z"/>
        <path class="cls-7" d="M425.81,258.38c-.2,.54-.49,1.55-.41,2.82,.08,1.4,1.12,2.52,2.47,2.7l29.66,4.66v-6.05l-31.1-4.51c-.27-.03-.52,.12-.62,.38Z"/>
        <path class="cls-51" d="M457.54,262.49l-.02,6.06v.87l19.55-15.02v-.82c-.96-2.63,0-4.88,0-4.88v-1.03l-19.53,13.73v1.09Z"/>
        <path class="cls-68" d="M457.54,262.49h-.02v6.06l19.55-14.97c-.96-2.63,0-4.88,0-4.88l-19.53,13.79Z"/>
        <polygon class="cls-63" points="476.65 251.85 476.65 251.22 459.92 262.99 476.65 251.85"/>
      </g>
    </g>
    <g>
      <g>
        <path class="cls-27" d="M449.36,239.94l-13.31,5.67-7,2.98,26.23,3.59c.31,.04,.63-.02,.9-.2l15.99-10.07-9.65-.84-13.16-1.14Z"/>
        <g>
          <path class="cls-57" d="M428.46,253.47c.26,.85,1,1.46,1.87,1.59l25.53,3.56,.02-6.51-26.83-3.52s-1.45,1.99-.59,4.87Z"/>
          <path class="cls-7" d="M429.4,249.79c-.17,.44-.41,1.25-.34,2.28,.07,1.13,.94,2.06,2.06,2.23l24.75,3.63v-4.91l-25.95-3.53c-.22-.03-.44,.09-.52,.3Z"/>
          <path class="cls-77" d="M455.88,253v4.92s-.01,.71-.01,.71l16.31-11.24v-.67c-.8-2.15,0-3.96,0-3.96v-.83l-16.29,10.2v.88Z"/>
          <path class="cls-68" d="M455.88,253h-.01v4.92l16.31-11.2c-.8-2.15,0-3.96,0-3.96l-16.29,10.25Z"/>
          <polygon class="cls-63" points="471.82 245.3 471.82 244.79 457.87 254.08 471.82 245.3"/>
        </g>
      </g>
      <g>
        <path class="cls-68" d="M453.92,255.19c-9.93-2.57-22.7-3.8-22.7-3.8l22.7,3.8Z"/>
        <path class="cls-68" d="M453.69,256.43c-9.93-2.57-22.7-3.8-22.7-3.8l22.7,3.8Z"/>
      </g>
      <path class="cls-35" d="M436.05,245.61l-7,2.98,26.23,3.59c.31,.04,.63-.02,.9-.2l15.99-10.07-9.65-.84c-4.23,1.89-13.91,5.35-26.47,4.53Z"/>
    </g>
  </g>
</svg>