<?xml version="1.0" encoding="UTF-8"?>
<svg id="Capa_1" data-name="Capa 1" xmlns="http://www.w3.org/2000/svg" xmlns:xlink="http://www.w3.org/1999/xlink" viewBox="0 0 800 300">
  <defs>
    <style>
      .cls-1 {
        clip-path: url(#clippath-20);
      }

      .cls-2 {
        clip-path: url(#clippath-11);
      }

      .cls-3 {
        clip-path: url(#clippath-16);
      }

      .cls-4 {
        fill: #fff;
      }

      .cls-5 {
        fill: #d3ad88;
      }

      .cls-6 {
        fill: #551906;
      }

      .cls-7 {
        fill: #bc3737;
      }

      .cls-8 {
        fill: #002566;
      }

      .cls-9 {
        fill: #b25910;
      }

      .cls-10 {
        fill: #aa5705;
      }

      .cls-11 {
        fill: rgba(255, 255, 255, 0);
      }

      .cls-12 {
        fill: #02308e;
      }

      .cls-13 {
        fill: #c65d17;
      }

      .cls-14 {
        fill: #5276f7;
      }

      .cls-15 {
        fill: #f1a55a;
      }

      .cls-16 {
        clip-path: url(#clippath-2);
      }

      .cls-17 {
        fill: #ffc44d;
      }

      .cls-18 {
        clip-path: url(#clippath-13);
      }

      .cls-19 {
        fill: #6a89e2;
      }

      .cls-20 {
        clip-path: url(#clippath-15);
      }

      .cls-21 {
        clip-path: url(#clippath-6);
      }

      .cls-22 {
        fill: #f0f3ff;
      }

      .cls-23 {
        fill: #7d96ff;
      }

      .cls-24 {
        fill: #3a61c1;
      }

      .cls-25 {
        fill: #c68334;
      }

      .cls-26 {
        clip-path: url(#clippath-7);
      }

      .cls-27 {
        fill: #b5bcf7;
      }

      .cls-28 {
        fill: #365abf;
      }

      .cls-29 {
        clip-path: url(#clippath-1);
      }

      .cls-30 {
        clip-path: url(#clippath-4);
      }

      .cls-31 {
        fill: #f9a755;
      }

      .cls-32 {
        fill: #d93539;
      }

      .cls-33 {
        fill: #dbdffe;
      }

      .cls-34 {
        fill: #1541bc;
      }

      .cls-35 {
        fill: #959cf5;
      }

      .cls-36 {
        fill: #0d0d0d;
      }

      .cls-37 {
        clip-path: url(#clippath-12);
      }

      .cls-38 {
        fill: #a69fed;
      }

      .cls-39 {
        fill: #de494d;
      }

      .cls-40 {
        fill: #082c7c;
      }

      .cls-41 {
        fill: #c15634;
      }

      .cls-42 {
        fill: #ffd278;
      }

      .cls-43 {
        fill: #ffc19d;
      }

      .cls-44 {
        fill: #1b43b2;
      }

      .cls-45 {
        fill: #94a6ff;
      }

      .cls-46 {
        fill: #672212;
      }

      .cls-47 {
        fill: #ffe2ae;
      }

      .cls-48 {
        clip-path: url(#clippath-9);
      }

      .cls-49 {
        clip-path: url(#clippath);
      }

      .cls-50 {
        fill: #b20b18;
      }

      .cls-51 {
        fill: #6071ea;
      }

      .cls-52 {
        fill: none;
      }

      .cls-53 {
        clip-path: url(#clippath-19);
      }

      .cls-54 {
        fill: #e57700;
      }

      .cls-55 {
        clip-path: url(#clippath-3);
      }

      .cls-56 {
        fill: #fffae9;
      }

      .cls-57 {
        fill: #991346;
      }

      .cls-58 {
        fill: #8e1010;
      }

      .cls-59 {
        clip-path: url(#clippath-8);
      }

      .cls-60 {
        fill: #ffaa7b;
      }

      .cls-61 {
        fill: #e0822d;
      }

      .cls-62 {
        clip-path: url(#clippath-18);
      }

      .cls-63 {
        clip-path: url(#clippath-14);
      }

      .cls-64 {
        clip-path: url(#clippath-17);
      }

      .cls-65 {
        clip-path: url(#clippath-5);
      }

      .cls-66 {
        fill: #b6cbff;
      }

      .cls-67 {
        fill: #f49769;
      }

      .cls-68 {
        opacity: .57;
      }

      .cls-69 {
        clip-path: url(#clippath-10);
      }

      .cls-70 {
        opacity: .38;
      }

      .cls-71 {
        fill: #ffb255;
      }

      .cls-72 {
        fill: #e88d6d;
      }

      .cls-73 {
        fill: #db3721;
      }

      .cls-74 {
        fill: #fefefe;
      }
    </style>
    <clipPath id="clippath">
      <rect class="cls-52" x="277.79" y="30.57" width="270.19" height="138.04" rx="12.15" ry="12.15"/>
    </clipPath>
    <clipPath id="clippath-1">
      <circle class="cls-52" cx="411.32" cy="66.82" r="27.24"/>
    </clipPath>
    <clipPath id="clippath-2">
      <ellipse class="cls-52" cx="410.89" cy="252.47" rx="178.28" ry="35.35"/>
    </clipPath>
    <clipPath id="clippath-3">
      <path class="cls-52" d="M231.7,204.32s-10.05-25.61-21.73-39.6c-11.68-14-3.71-19.89,1.31-16.64s14.2,16.08,21.34,31.95c8.96,22.66,12.33,39.97,12.33,39.97,0,0-.92,2.04-1.7,2.44s-11.56-18.11-11.56-18.11Z"/>
    </clipPath>
    <clipPath id="clippath-4">
      <path class="cls-52" d="M252.58,243.44s-.13-.18-.36-.51c-1.95-2.72-11.48-15.62-22.33-23.81-12.19-9.19-31.55-24.51-38.47-32.4-6.92-7.9-11.01-18.43-3.38-21.31s21.25,11.8,29.23,20.54c7.99,8.74,20.32,23.29,29.31,39.07l6,18.42Z"/>
    </clipPath>
    <clipPath id="clippath-5">
      <path class="cls-52" d="M231.73,85.05h99.15c6.41,0,11.77,4.86,12.4,11.24l4.35,44.09c.52,5.25,4.35,9.58,9.5,10.74l26.88,6.02c5.95,1.33,10.01,6.84,9.52,12.92l-5.67,70.4-70.62,17.54c-3.99,.99-8.18,.84-12.1-.43l-59.18-19.25c-4.93-1.61-8.52-5.87-9.27-11l-18.32-126.86c-1.17-8.12,5.13-15.4,13.33-15.4Z"/>
    </clipPath>
    <clipPath id="clippath-6">
      <path class="cls-52" d="M308.13,148.99l-2.88,.44s-4.92,11.22-5.67,20.62,2.47,18.71,17.49,22.05c15.02,3.34,47.99,7.73,47.99,7.73,0,0-.13-8.4,8.27-15.8,8.39-7.4,12.6-10.91,19.25-11.47-16.55-9.59-21.75-13.1-37.55-16.36-15.8-3.26-18.05-8.02-18.05-8.02l-28.83,.81Z"/>
    </clipPath>
    <clipPath id="clippath-7">
      <polygon class="cls-52" points="427.02 213.85 424.57 211.84 455.04 193.91 549.07 193.91 524.94 211.84 522.49 214.6 427.02 213.85"/>
    </clipPath>
    <clipPath id="clippath-8">
      <rect class="cls-52" x="427.02" y="214.6" width="95.47" height="23.26"/>
    </clipPath>
    <clipPath id="clippath-9">
      <path class="cls-52" d="M304.47,60.76s-1.44-3.51-6.02-3.2-8.27,3.24-8.09,9.27,3.79,9.04,8.31,9.73,6.86-5.51,6.86-5.51l-1.07-10.28Z"/>
    </clipPath>
    <clipPath id="clippath-10">
      <path class="cls-52" d="M329.53,55.98s-2.76-3.89-9.11-4.68-9.03,1.55-9.03,1.55c0,0-4.72-.25-7.06,5.27-2.34,5.52-1.84,8.99-1.09,14.21s5.1,9.65,10.87,11.66c9.28-11.41,11.91-20.56,12.16-20.98s3.26-7.02,3.26-7.02Z"/>
    </clipPath>
    <clipPath id="clippath-11">
      <path class="cls-52" d="M313.4,80.26c-1.24,.45-2.01,1.68-1.87,2.99,.3,2.91,.65,7.81-.26,9.19-1.32,2.01-3.7,4.64-10.85,6.05s-4.13,6.05-1.5,16.14c2.63,10.09,6.89,24,6.64,28.65s-.31,6.14-.31,6.14c0,0,17.93,6.39,31.72-1.25-.75-5.89-1.38-5.96-1.13-11.22s1.13-7.65,1.13-7.65c0,0,2.82,6.27,5.77,9.28s6.08,5.26,10.91,8.21,10.03,5.89,12.66,5.77c2.63-.13,6.08-2.51,7.27-5.51s-.44-4.13-3.89-5.89-15.36-8.15-17.49-10.72-4.51-8.02-5.64-13.04-3.38-13.67-6.58-15.92-13.73-6.52-17.74-8.09c-.23-2.12-.29-4.26-.19-6.39l-5.08-8.02-3.57,1.3Z"/>
    </clipPath>
    <clipPath id="clippath-12">
      <path class="cls-52" d="M390.69,172.81l1.89-.25s3.53,1.61,5.62,3.41,3.03,6.4,3.88,27.47c.85,21.06,2.16,48.33,2.92,49.84s8.88,6.28,13.6,7.78,7.61,2.05,7.61,7.7-3.47,5.31-8.92,5.68-12.47,.31-13.54-.38-.63-2.26-1.19-3.07-2.19-2.95-2.19-2.95c0,0,.13,6.27-.75,6.2s-4.2,.25-5.08-.13-1.63-3.76-2.51-8.02,.32-8.15,1.57-12.04c-1.69-9.09-6.32-31.52-7.21-35.42s-3.14-13.29-3.14-13.29l-4.35-25.85s5.36-5.81,11.8-6.68Z"/>
    </clipPath>
    <clipPath id="clippath-13">
      <path class="cls-52" d="M378.58,179.49c.09-.06,5.72,2.12,7.6,7.39s-1.28,30.6-1.85,43.72-.78,30.47-.78,30.47c0,0,3.99,4.45,9.42,7.54s8.48,3.09,9.49,5.31,1.3,6.98-1.67,8.53-8.69,1.09-14.13,.92-8.69-.5-9.4-1.09-.17-2.51-1.09-3.8-1.67-2.38-1.67-2.38c0,0-.21,5.81-.71,5.93s-4.89,.38-6.14-.25-1.13-7.98-1.17-12.62,4.13-8.19,4.05-11.28-2.72-29.21-3.47-38.99c-.75-9.78-.76-18.35-1.38-18.89s-.55-1.35-.55-1.35c0,0-.26-9.71,13.45-19.15Z"/>
    </clipPath>
    <clipPath id="clippath-14">
      <path class="cls-52" d="M479.81,150.67l.97,23.25c.1,2.33,2.05,4.15,4.38,4.08l38.79-1.14c2.12-.06,3.88-1.68,4.11-3.79l2.52-22.43c.14-1.25-.28-2.49-1.14-3.4l-19.15-20.28c-1.77-1.87-4.72-1.98-6.62-.24l-22.48,20.62c-.93,.85-1.43,2.06-1.38,3.32Z"/>
    </clipPath>
    <clipPath id="clippath-15">
      <path class="cls-52" d="M585.84,154.78s-11.9,3.77-15.88,20.79c-3.98,17.02,4.47,27.9,4.47,27.9,0,0,12.74-5.84,15.45-21.41s-4.04-27.27-4.04-27.27Z"/>
    </clipPath>
    <clipPath id="clippath-16">
      <path class="cls-52" d="M616.07,193.85s-8.82-3.31-19.12,4.95-10.34,18.66-10.34,18.66c0,0,10.29,2.47,19.16-5.52,8.87-7.99,10.31-18.09,10.31-18.09Z"/>
    </clipPath>
    <clipPath id="clippath-17">
      <path class="cls-52" d="M321.42,60.03l-1,.67s-2.34-.38-3.64,5.47-.88,7.56-2.34,7.48-2.09-1.04-2.09-1.04c0,0-3.01-1.09-3.26,1.75s2.38,3.26,3.22,4.85,2.01,4.13,5.68,6.81c3.68,2.68,8.11,3.76,11.53,.54,2.72-2.17,4.31-13.33,3.97-18.81-2.71-6.52-5.72-11.87-12.08-7.73Z"/>
    </clipPath>
    <clipPath id="clippath-18">
      <polygon class="cls-52" points="364.47 183.2 364.94 187.72 355.72 190.01 324.6 170.43 325.19 167.12 380.41 156.23 364.47 183.2"/>
    </clipPath>
    <clipPath id="clippath-19">
      <path class="cls-52" d="M344.43,152.93l1.5-1.6s8.26,2.62,11.69,3.32,7.26,6.14,7.37,7.24,.85,8.63-.2,9.32c-.34,.23-1.18,.19-2.19-.05-.79-.32-.79-1.06-.84-1.61-.09,1.03-.41,1.17-.73,1.14-.03,0-.07,0-.1-.02-.14-.04-.28-.1-.4-.18-.37-.22-.8-.62-.97-1.09-.24-.67-.59-2.61-.59-2.61,0,0,.3,1.64-.41,1.87-.95,.31-1.7-.8-1.82-.97-1.56-2.08-2.76-3.06-5.56-4.03s-7.2,.51-9.2-3.3c-.17-.75-.16-1.54,.02-2.29,.55-2.47-.04-4.57,2.42-5.15Z"/>
    </clipPath>
    <clipPath id="clippath-20">
      <path class="cls-52" d="M298.63,99.63c2.82-.22,6.91,.86,10.02,6.64,3.1,5.78,5.16,24.9,5.15,25.07s14.02,8.76,18.75,10.81,11,5.72,12.92,7.35,.52,4.45-.47,7.17-1.81,5.4-4.01,5.43-20.92-10.43-30.75-14.56-10.13-6.7-11.74-13.95-2.49-16.02-3.32-21.12-.83-12.5,3.45-12.84Z"/>
    </clipPath>
  </defs>
  <g id="_06" data-name=" 06">
    <rect id="_06-2" data-name=" 06-2" class="cls-11" x="131.24" y="-29.17" width="537.52" height="358.35"/>
    <path class="cls-33" d="M553.75,38.04c-56.53-42.68-94.42,1.06-179.64-19.5C288.89-2.03,244.53,31.33,238.26,60.66c-6.44,30.09,3.43,70.71,10.91,84.06,7.48,13.35,29.13,40.82,97.26,43.63,68.13,2.82,147.02,.69,187.48-8.75,40.46-9.44,76.38-98.88,19.85-141.56Z"/>
    <rect class="cls-14" x="272.03" y="25.05" width="281.73" height="149.08" rx="12.15" ry="12.15"/>
    <rect class="cls-56" x="277.79" y="30.57" width="270.19" height="138.04" rx="12.15" ry="12.15"/>
    <g class="cls-49">
      <g>
        <path class="cls-74" d="M537,164.22h-246.65c-11.2,0-12.46-6.96-12.46-6.96l-5.87-5.51,2.76,20.09,267.39,2.22,7.99-10.44s5.45-13.87-2.18-21.67c0,13.46-1.01,22.28-10.98,22.28Z"/>
        <path d="M547.76,141.38v.56c0,6.96-.3,12.36-1.74,16.1-1.57,4.06-4.43,5.95-9.02,5.95h-246.65c-5.69,0-8.71-1.84-10.24-3.39-1.66-1.67-1.99-3.37-1.99-3.38v-.07s-6.41-6.01-6.41-6.01l2.87,20.93,267.59,2.22h.11l8.06-10.54,.02-.03v-.03c.94-2.57,1.54-5.25,1.8-7.97,.54-5.88-.85-10.7-4.02-13.94l-.39-.4Zm3.96,14.29c-.25,2.67-.84,5.3-1.75,7.83l-7.9,10.33-267.08-2.21-2.64-19.25,5.34,5.02c.08,.37,.52,1.94,2.08,3.52,1.6,1.62,4.73,3.55,10.59,3.55h246.65c4.8,0,7.8-1.98,9.44-6.24,1.43-3.7,1.75-8.96,1.77-15.69,3.51,3.93,3.85,9.28,3.5,13.15h0Z"/>
      </g>
    </g>
    <rect class="cls-34" x="360.15" y="102.25" width="107.57" height="21.31" rx="3.75" ry="3.75"/>
    <rect class="cls-34" x="360.15" y="132.88" width="107.57" height="21.31" rx="3.75" ry="3.75"/>
    <rect class="cls-51" x="357.53" y="102.25" width="107.57" height="21.31" rx="3.75" ry="3.75"/>
    <rect class="cls-4" x="357.53" y="132.88" width="107.57" height="21.31" rx="3.75" ry="3.75"/>
    <path class="cls-4" d="M368.46,110.05c-1.71,0-3.1,1.39-3.1,3.1s1.39,3.1,3.1,3.1,3.1-1.39,3.1-3.1-1.39-3.1-3.1-3.1h0Z"/>
    <path class="cls-4" d="M385.5,110.05c-1.71,0-3.1,1.39-3.1,3.1s1.39,3.1,3.1,3.1,3.1-1.39,3.1-3.1-1.39-3.1-3.1-3.1h0Z"/>
    <circle class="cls-4" cx="402.55" cy="113.15" r="3.1"/>
    <circle class="cls-4" cx="419.59" cy="113.15" r="3.1"/>
    <circle class="cls-4" cx="436.64" cy="113.15" r="3.1"/>
    <path class="cls-4" d="M453.68,110.05c-1.71,0-3.1,1.39-3.1,3.1s1.39,3.1,3.1,3.1,3.1-1.39,3.1-3.1-1.39-3.1-3.1-3.1h0Z"/>
    <rect class="cls-14" x="362.8" y="146.88" width="11.31" height="2.01" rx=".94" ry=".94"/>
    <rect class="cls-14" x="379.85" y="146.88" width="11.31" height="2.01" rx=".94" ry=".94"/>
    <rect class="cls-14" x="396.89" y="146.88" width="11.31" height="2.01" rx=".94" ry=".94"/>
    <rect class="cls-14" x="413.94" y="146.88" width="11.31" height="2.01" rx=".94" ry=".94"/>
    <rect class="cls-14" x="430.98" y="146.88" width="11.31" height="2.01" rx=".94" ry=".94"/>
    <rect class="cls-14" x="448.03" y="146.88" width="11.31" height="2.01" rx=".94" ry=".94"/>
    <circle class="cls-34" cx="411.32" cy="66.82" r="29.22"/>
    <circle class="cls-35" cx="411.32" cy="66.82" r="27.24"/>
    <g class="cls-29">
      <g>
        <path class="cls-4" d="M418.24,65.7c-6.32-1.28-8.07-.27-8.07-.27l-5.38,.56s-11.04,5.84-12.04,26.27c5.83,5.83,21.69,7.52,21.69,7.52l16.93-8.53s-2.04-20.01-13.12-25.55Z"/>
        <circle class="cls-4" cx="411.32" cy="56.65" r="11.39"/>
      </g>
    </g>
    <ellipse class="cls-33" cx="410.89" cy="252.47" rx="178.28" ry="35.35"/>
    <g class="cls-16">
      <g>
        <ellipse class="cls-38" cx="493.88" cy="252.61" rx="82.57" ry="19"/>
        <path class="cls-38" d="M396.89,251.76c-5.36-8.19,22.8-23.55-12.82-25.54-35.62-1.99-79.91-8.25-81.46-9.11s-63.95,35.36-63.95,35.36c7.5,2.57,66.36,25.71,77.29,25.71s35.72-2.05,51.69,3.59,65.02,5.12,62.88-6.64c-2.13-11.76-28.28-15.17-33.64-23.37Z"/>
      </g>
    </g>
    <path class="cls-5" d="M540.17,45.41c-9.56,0-17.34,7.78-17.34,17.34h4.05c0-7.33,5.95-13.27,13.28-13.28,9.19,0,16.67,7.48,16.67,16.67V244.02h4.06V66.14c0-11.43-9.3-20.73-20.73-20.73Z"/>
    <path class="cls-25" d="M525.69,60.86c-9.2-5.85-20.65-4.32-25.58,3.43,1.19-1.87,9.62,1.35,18.81,7.2s15.69,12.12,14.5,13.99c4.93-7.75,1.47-18.77-7.73-24.62Z"/>
    <ellipse class="cls-10" cx="516.77" cy="74.88" rx="4.02" ry="19.74" transform="translate(176.23 470.72) rotate(-57.54)"/>
    <path class="cls-23" d="M231.7,204.32s-10.05-25.61-21.73-39.6c-11.68-14-3.71-19.89,1.31-16.64s14.2,16.08,21.34,31.95c8.96,22.66,12.33,39.97,12.33,39.97,0,0-.92,2.04-1.7,2.44s-11.56-18.11-11.56-18.11Z"/>
    <g class="cls-55">
      <path class="cls-12" d="M240.39,221.81c-.13-.81-.27-1.63-.41-2.44s-.29-1.62-.44-2.43c-.62-3.24-1.3-6.47-2.08-9.67s-1.62-6.4-2.57-9.56-2-6.3-3.11-9.41l-.89-2.31-.45-1.16-.48-1.15-.96-2.29c-.33-.76-.68-1.51-1.03-2.26l-.52-1.13c-.18-.37-.37-.74-.55-1.11l-1.1-2.22-1.16-2.19c-.38-.73-.8-1.44-1.21-2.16l-.61-1.08c-.2-.36-.42-.71-.63-1.06l-.64-1.06-.32-.53c-.11-.18-.22-.34-.33-.52-.45-.69-.88-1.39-1.34-2.08s-.92-1.38-1.38-2.05c-.95-1.35-1.91-2.69-2.93-3.99-.5-.65-1.02-1.3-1.54-1.93s-1.06-1.26-1.62-1.87c.51,.64,1,1.31,1.49,1.97s.96,1.33,1.42,2.02c.94,1.35,1.84,2.73,2.71,4.12,.44,.69,.86,1.4,1.3,2.09s.84,1.42,1.25,2.12c.1,.18,.21,.35,.31,.53l.3,.54,.61,1.07c.2,.36,.41,.71,.6,1.07l.57,1.09c.79,1.44,1.5,2.92,2.25,4.37l1.06,2.22c.17,.37,.36,.74,.52,1.11l.5,1.12c.33,.75,.67,1.49,1,2.25l.95,2.27,.47,1.14,.44,1.15,.88,2.3c.28,.77,.55,1.54,.83,2.32s.56,1.54,.8,2.32l.77,2.34,.19,.58,.18,.59,.37,1.18,.37,1.17,.18,.59,.17,.59,.69,2.36c.24,.79,.44,1.58,.66,2.37s.45,1.58,.66,2.38l.63,2.38,.61,2.39c.21,.79,.4,1.59,.59,2.39l.29,1.2,.28,1.2c.38,1.6,.74,3.21,1.1,4.81l.26,1.21,.26,1.21c.17,.8,.34,1.61,.5,2.42-.1-.82-.21-1.63-.33-2.45s-.24-1.63-.37-2.44Z"/>
    </g>
    <path class="cls-27" d="M252.58,243.44s-.13-.18-.36-.51c-1.95-2.72-11.48-15.62-22.33-23.81-12.19-9.19-31.55-24.51-38.47-32.4-6.92-7.9-11.01-18.43-3.38-21.31s21.25,11.8,29.23,20.54c7.99,8.74,20.32,23.29,29.31,39.07l6,18.42Z"/>
    <g class="cls-30">
      <path class="cls-12" d="M242.87,221.25c-1.12-1.42-2.27-2.83-3.41-4.23l-1.74-2.09-.87-1.05-.88-1.03c-.58-.69-1.18-1.38-1.77-2.07s-1.2-1.36-1.79-2.04l-.9-1.02-.45-.51-.46-.5-1.84-2.01-.46-.5-.47-.49-.94-.98-.94-.98-.47-.49-.48-.48-1.94-1.92c-.65-.63-1.32-1.25-1.98-1.87-.33-.31-.66-.62-1-.93l-1.01-.91c-.68-.61-1.34-1.22-2.03-1.81s-1.36-1.2-2.05-1.79l-2.08-1.75c-1.4-1.15-2.8-2.31-4.23-3.42s-2.86-2.23-4.31-3.31c-.72-.54-1.46-1.07-2.19-1.61s-1.47-1.06-2.21-1.58-1.49-1.03-2.24-1.54-1.51-1-2.27-1.49c.73,.53,1.45,1.08,2.17,1.63s1.44,1.1,2.15,1.66l2.13,1.68c.7,.57,1.42,1.13,2.11,1.7,1.41,1.14,2.8,2.28,4.18,3.45l1.03,.88c.35,.29,.69,.58,1.03,.88,.69,.59,1.38,1.18,2.05,1.77,2.72,2.38,5.4,4.8,8.01,7.3l.98,.94,.49,.47c.17,.15,.33,.31,.49,.47l1.91,1.91,.48,.48,.47,.49,.93,.98,.93,.98,.46,.49,.46,.5,1.84,1.99,.46,.5,.45,.51,.9,1.01c.6,.68,1.21,1.35,1.8,2.03s1.18,1.37,1.78,2.05l.89,1.02,.88,1.03,1.76,2.07,1.74,2.08c.59,.69,1.17,1.38,1.75,2.08,4.63,5.56,9.21,11.16,13.74,16.81-2.07-2.97-4.22-5.89-6.4-8.78s-4.39-5.76-6.65-8.6Z"/>
    </g>
    <path class="cls-12" d="M213.4,221.19c-7.96-5.3-15.05-11.32-21.04-17.89l-.85,.78c6.06,6.64,13.21,12.72,21.25,18.07,6.61,4.37,13.58,8.17,20.83,11.36,10.08,4.44,18.91,6.92,22.17,7.6l.24-1.12c-.09-.02-9.46-2.02-21.95-7.53-7.19-3.16-14.11-6.93-20.66-11.26Z"/>
    <path class="cls-23" d="M188.5,196.85c-2.7,.88-4.17,3.78-3.3,6.48,.88,2.7,3.78,4.17,6.48,3.3,2.7-.88,4.17-3.78,3.3-6.48-.88-2.7-3.78-4.18-6.48-3.3,0,0,0,0,0,0Z"/>
    <path class="cls-9" d="M246.17,255.04s1.32,1.6,4.42,1.6,4.04-1.03,4.04-1.32v-20.02l-11.38-1.69,2.92,21.43Z"/>
    <path class="cls-9" d="M304.56,251.98l2.93,21.55s1.32,1.6,4.42,1.6,4.04-1.03,4.04-1.32-.01-20.14-.01-20.14l-11.38-1.69Z"/>
    <path class="cls-74" d="M373.42,258.56s1.32,1.6,4.42,1.6,4.04-1.03,4.04-1.32,2.45-19.65,2.45-19.65l-11.38-1.69,.47,21.06Z"/>
    <path d="M373.2,258.57v.08l.05,.06c.06,.07,1.42,1.68,4.59,1.68s4.27-1.13,4.27-1.54c.02-.36,1.61-13,2.44-19.63l.03-.22-11.86-1.76,.48,21.33Zm8.46,.28h0Zm0-.01c-.02,.06-.2,.34-.8,.6-.51,.23-1.45,.5-3.02,.5-2.63,0-3.93-1.19-4.2-1.46l-.46-20.71,10.9,1.62c-.35,2.77-2.39,18.91-2.42,19.45h0Z"/>
    <path class="cls-42" d="M231.73,85.05h99.15c6.41,0,11.77,4.86,12.4,11.24l4.35,44.09c.52,5.25,4.35,9.58,9.5,10.74l26.88,6.02c5.95,1.33,10.01,6.84,9.52,12.92l-5.67,70.4-70.62,17.54c-3.99,.99-8.18,.84-12.1-.43l-59.18-19.25c-4.93-1.61-8.52-5.87-9.27-11l-18.32-126.86c-1.17-8.12,5.13-15.4,13.33-15.4Z"/>
    <g class="cls-65">
      <g>
        <path class="cls-31" d="M347.75,166.52c1.64-9.85-3.71-39.56-2.82-41.99s-12.9-41.05-19-43.87-20.02,3.33-20.02,3.33c0,0,1.53,8.17-13.29,11.45-14.83,3.28-4.3,31.11-2.27,51.45s-4.54,34.65-3.83,39.34,11.88,28.4,38.08,30.39c26.2,1.99,52.24,5.59,53.18,.51s-31.67-40.75-30.03-50.6Z"/>
        <path class="cls-47" d="M392.51,150.68l-39.49-8.74-4.06,2.87s-8.47,3.24-7.6,6.37,2.63,3.38,11.28,5.77,25.58,4.76,28.71,7.9,0,49.02,0,49.02l-5.14,32.6,16.67,1.13s10.91-84.25,9.78-86.88c-1.13-2.63-10.16-10.03-10.16-10.03Z"/>
        <path class="cls-61" d="M366.43,196.19c-15.67,4.51-51.15,6.77-51.15,6.77,0,0,2.88,10.91,3.89,14.92,31.09,.5,58.3-8.27,61.06-9.65s3.01-4.64,2.88-10.78c-.13-6.14-1-5.77-16.67-1.26Z"/>
        <path class="cls-46" d="M308.13,148.99l-2.88,.44s-4.92,11.22-5.67,20.62,2.47,18.71,17.49,22.05c15.02,3.34,47.99,7.73,47.99,7.73,0,0-.13-8.4,8.27-15.8,8.39-7.4,12.6-10.91,19.25-11.47-16.55-9.59-21.75-13.1-37.55-16.36-15.8-3.26-18.05-8.02-18.05-8.02l-28.83,.81Z"/>
        <g class="cls-21">
          <path class="cls-36" d="M309.69,171.22c-1.76-6.92-.55-13.98,.78-18.69,1.44-5.13,3.34-8.66,3.36-8.69l-1.11-.6c-.08,.15-1.97,3.66-3.45,8.92-2.49,8.81-1.8,15.4-.79,19.38,1.51,5.92,13.27,11.59,34.95,16.86,16,3.89,31.78,6.13,31.93,6.15l.18-1.25c-.16-.02-15.88-2.26-31.82-6.13-26.39-6.41-33.06-12.21-34.01-15.94Z"/>
        </g>
        <path class="cls-31" d="M317.76,212.4s4.54,43.47,5.29,46.24,51.4-6.03,56.16-13.67c3.13-14.29,3.41-39.88,3.41-39.88l-7.55-.11-57.32,7.44Z"/>
        <path class="cls-47" d="M297.98,171.11c-11.66-5.01-26.58-9.4-35.35-12.04-8.78-2.63-10.53-3.89-12.16-8.27-1.63-4.38-6.64-42.63-6.64-53.79s7.27-11.97,7.27-11.97l-.13-3.57s-42.31,2.63-42.31,3.57,4.13,63.56,4.13,63.56l18.81,91.77,81.81,25.96,13.35-6.96s-3.57-42.22-8.46-62.53-8.65-20.72-20.31-25.73Z"/>
        <path class="cls-42" d="M296.6,189.04c-5.39-11.16-36.98-20.06-52.28-26.07-15.06-3.43-22.13-1.38-22.13-1.38,0,0-15.8,64.69-15.61,66.39s53.41,26.33,53.41,26.33c0,0,44.26,7.71,46.52,4.08s1.13-18.05-.59-30.59-3.93-27.59-9.32-38.75Z"/>
      </g>
    </g>
    <path class="cls-8" d="M428.4,263.37s2.26,3.01,5.26,0c.44-9.84,1-23.76,1-23.76l-8.27-.78,2,24.54Z"/>
    <path class="cls-8" d="M453.97,247.8s2.26,3.01,5.27,0c.44-9.84,1-23.76,1-23.76l-8.28-.78,2.01,24.54Z"/>
    <path class="cls-8" d="M513.34,260.74s2.26,3.01,5.26,0c.44-9.84,1-23.76,1-23.76l-8.27-.78,2,24.54Z"/>
    <path class="cls-8" d="M540.04,241.8s2.26,3.01,5.27,0c.44-9.84,1-23.76,1-23.76l-8.27-.78,2,24.54Z"/>
    <path class="cls-44" d="M521.36,208.33s.5,26.83,.5,27.21,3.07,5.08,3.07,5.08l24.13-19.87v-26.83l-7.08,2.19-20.62,12.22Z"/>
    <polygon class="cls-19" points="427.02 213.85 424.57 211.84 455.04 193.91 549.07 193.91 524.94 211.84 522.49 214.6 427.02 213.85"/>
    <g class="cls-26">
      <g>
        <g class="cls-70">
          <polygon class="cls-4" points="416.61 207.63 413.94 217.26 526.42 192.85 500.36 190.01 416.61 207.63"/>
        </g>
        <g class="cls-70">
          <polygon class="cls-4" points="456.11 216.26 460.24 219.07 549.07 197.13 552.68 191.85 546.31 193.03 456.11 216.26"/>
        </g>
      </g>
    </g>
    <rect class="cls-66" x="424.57" y="211.84" width="100.36" height="28.77"/>
    <rect class="cls-24" x="427.02" y="214.6" width="95.47" height="23.26"/>
    <g class="cls-59">
      <g>
        <path class="cls-40" d="M418.13,205.7l1.93,34.92c.38-.19,6.96-2.76,6.96-2.76l33.23-23.75-6-8.66s-34.67-.5-36.12,.25Z"/>
        <polygon class="cls-60" points="464.67 208.99 437.3 216.26 445.49 221.03 436.96 225.8 436.96 227.42 479.84 236.2 506.17 214.51 483.73 212 464.67 208.99"/>
        <rect class="cls-4" x="436.96" y="226.66" width="42.88" height="9.54"/>
        <rect class="cls-4" x="436.96" y="216.26" width="42.88" height="9.54"/>
      </g>
    </g>
    <path class="cls-58" d="M304.47,60.76s-1.44-3.51-6.02-3.2-8.27,3.24-8.09,9.27,3.79,9.04,8.31,9.73,6.86-5.51,6.86-5.51l-1.07-10.28Z"/>
    <g class="cls-48">
      <path class="cls-42" d="M302.62,57.54s-4.73,2.21-4.04,8.61c.69,6.39,4.26,10.06,4.36,10.22s2.26-1.13,2.26-1.13l.72-17.52-3.17-.18h-.13Z"/>
    </g>
    <path class="cls-7" d="M329.53,55.98s-2.76-3.89-9.11-4.68-9.03,1.55-9.03,1.55c0,0-4.72-.25-7.06,5.27-2.34,5.52-1.84,8.99-1.09,14.21s5.1,9.65,10.87,11.66c9.28-11.41,11.91-20.56,12.16-20.98s3.26-7.02,3.26-7.02Z"/>
    <g class="cls-69">
      <g>
        <path class="cls-57" d="M327.46,51.13c-2.11-1.6-2.35,3.8-3.98,4.51s-2.47-.21-8.92-1.5c6.86,2.64,6.75,5.1,6.75,5.1,0,0-6.99-.59-8.98,8.31-1.99,8.9-4.46,7.24-7.74,6.47s-4.81-4.4-4.81-4.4c0,0,2.76,9.09,7.27,13.78s5.63,2.58,9.02,3.86c3.4,1.28,13.46-17.59,13.46-17.59l2.15-12.84s-2.11-4.11-4.22-5.71Z"/>
        <path class="cls-4" d="M305.88,57.78c-1.58,1.11-1.41,2.97-1.41,2.97,0,0,4.23,1.78,8.04-1.33-5.1,.24-6.63-1.64-6.63-1.64Z"/>
      </g>
    </g>
    <path class="cls-45" d="M313.4,80.26c-1.24,.45-2.01,1.68-1.87,2.99,.3,2.91,.65,7.81-.26,9.19-1.32,2.01-3.7,4.64-10.85,6.05s-4.13,6.05-1.5,16.14c2.63,10.09,6.89,24,6.64,28.65s-.31,6.14-.31,6.14c0,0,17.93,6.39,31.72-1.25-.75-5.89-1.38-5.96-1.13-11.22s1.13-7.65,1.13-7.65c0,0,2.82,6.27,5.77,9.28s6.08,5.26,10.91,8.21,10.03,5.89,12.66,5.77c2.63-.13,6.08-2.51,7.27-5.51s-.44-4.13-3.89-5.89-15.36-8.15-17.49-10.72-4.51-8.02-5.64-13.04-3.38-13.67-6.58-15.92-13.73-6.52-17.74-8.09c-.23-2.12-.29-4.26-.19-6.39l-5.08-8.02-3.57,1.3Z"/>
    <g class="cls-2">
      <g>
        <path class="cls-22" d="M374.11,134.43l-38.26-39.41,.43,12.97,5.11,8.95-3.78,18.73,38.71,30.26s7.25-15.58,7.76-19.05-9.96-12.45-9.96-12.45Z"/>
        <path class="cls-72" d="M312.65,70.82s-5.01,4.81-4.76,5.79,2.13,13.39,2.13,13.39c0,0,6.78,6.27,14.54,0-.13-11.91-11.91-19.18-11.91-19.18Z"/>
        <path class="cls-36" d="M339.41,129.37c.25-6.39,3.89-9.72,1-15.11s-4.13-6.27-4.13-6.27c.06,.19,2.76,5.14,2.95,9.34s-2.26,11.97-2.26,11.97l1.38,6.33,6.27,7.52s-5.46-7.4-5.21-13.79Z"/>
        <polygon class="cls-36" points="308.87 83.17 324.64 92.15 325.06 85.05 311.98 77.54 308.87 83.17"/>
        <path class="cls-36" d="M327.18,125.77c-.06,.03-.13,.05-.19,.07l-.38,.16c-.26,.08-.51,.18-.78,.25s-.52,.14-.78,.2c-.13,.03-.26,.05-.4,.08l-.2,.04-.2,.03c-.53,.09-1.06,.14-1.6,.16-1.09,.04-2.18-.01-3.25-.16-1.1-.14-2.19-.34-3.33-.6,.23,.19,.47,.35,.72,.51,.25,.15,.51,.29,.77,.42,.53,.26,1.07,.47,1.64,.64,1.14,.35,2.33,.5,3.52,.46,.3,0,.6-.04,.9-.08,.3-.05,.59-.09,.89-.17,.59-.14,1.16-.34,1.7-.6l.2-.1c.07-.03,.13-.07,.2-.11,.13-.07,.26-.15,.39-.23,.25-.16,.49-.34,.72-.52,.11-.1,.23-.19,.34-.29s.21-.21,.31-.31c.05-.05,.1-.1,.15-.16l.14-.17c.09-.11,.18-.23,.27-.34-.53,.26-1.01,.54-1.53,.75l-.19,.09Z"/>
        <path class="cls-36" d="M308.31,107.43s-5.54,7.48-5.63,9.24-1.32,28.77-1.32,28.77l22.08,9.94,15.05-9.42s-16.98-11.08-23.05-14.69c-2.56-17.85-6.87-23.84-7.13-23.84Z"/>
      </g>
    </g>
    <path class="cls-72" d="M390.69,172.81l1.89-.25s3.53,1.61,5.62,3.41,3.03,6.4,3.88,27.47c.85,21.06,2.16,48.33,2.92,49.84s8.88,6.28,13.6,7.78,7.61,2.05,7.61,7.7-3.47,5.31-8.92,5.68-12.47,.31-13.54-.38-.63-2.26-1.19-3.07-2.19-2.95-2.19-2.95c0,0,.13,6.27-.75,6.2s-4.2,.25-5.08-.13-1.63-3.76-2.51-8.02,.32-8.15,1.57-12.04c-1.69-9.09-6.32-31.52-7.21-35.42s-3.14-13.29-3.14-13.29l-4.35-25.85s5.36-5.81,11.8-6.68Z"/>
    <g class="cls-37">
      <g>
        <path class="cls-4" d="M388.22,236.09s.23,11.21,1.88,17.28,2.85,6.77,4.17,6.8,11.85-3.6,12.6-3.6,1.57-2.63,1.57-2.63c0,0,2.38-8.46,0-19.93-14.61,7.52-20.21,2.1-20.21,2.1Z"/>
        <path class="cls-32" d="M427.87,257.93c-.88-.57-11.16-5.45-22.88-4.67-2.32,4.17-11.41,.78-11.41,.78l-2.82-2.07c-3.26,5.51,1,12.35,.38,21.31s2.38,3.51,4.64,4.01,27.21,.75,27.21,.75l8.02-9.03s-2.26-10.53-3.13-11.1Z"/>
        <path class="cls-6" d="M392.2,270.97l.31,4.39s9.9,.5,10.5,.46,23.79-1.17,23.79-1.17l.82-4.62s-10.59,1.32-21.82,1.38c-11.22,.06-13.6-.43-13.6-.43Z"/>
        <path class="cls-4" d="M409.81,255.62l-2.88,4.2s5.77,4.2,8.71-.69c-2.51-3.76-5.83-3.51-5.83-3.51Z"/>
      </g>
    </g>
    <path class="cls-43" d="M378.58,179.49c.09-.06,5.72,2.12,7.6,7.39s-1.28,30.6-1.85,43.72-.78,30.47-.78,30.47c0,0,3.99,4.45,9.42,7.54s8.48,3.09,9.49,5.31,1.3,6.98-1.67,8.53-8.69,1.09-14.13,.92-8.69-.5-9.4-1.09-.17-2.51-1.09-3.8-1.67-2.38-1.67-2.38c0,0-.21,5.81-.71,5.93s-4.89,.38-6.14-.25-1.13-7.98-1.17-12.62,4.13-8.19,4.05-11.28-2.72-29.21-3.47-38.99c-.75-9.78-.76-18.35-1.38-18.89s-.55-1.35-.55-1.35c0,0-.26-9.71,13.45-19.15Z"/>
    <g class="cls-18">
      <g>
        <path class="cls-4" d="M367.94,244.53s-1.32,5.74-1.98,14.11c3.2,4.52,19.41,4.27,19.93,3.56s1.13-9.31,0-17.21c-7.14,4.7-17.96-.47-17.96-.47Z"/>
        <path class="cls-32" d="M370.38,259.03s-.43-1.58-.94-1.1c-8.09,7.58-6.96,25.61-6.96,25.63s25.29,1.77,25.58,1.77,13.07-1.77,13.07-1.77l7.71-10.93s-18.43-8.67-23.32-11.85c-4.08,2.13-15.14-1.75-15.14-1.75Z"/>
        <path class="cls-6" d="M380.82,280.53c-11.94-.75-15.69-2.26-15.69-2.26v6.02s29.41,.17,30.24,.06,7.82,.51,7.78-3.66c-3.52,.16-10.39,.6-22.34-.16Z"/>
        <path class="cls-4" d="M383.48,267.71s4.76,2.73,8.22-.27l-4.09-4.01-4.14,4.28Z"/>
      </g>
    </g>
    <path class="cls-17" d="M541.03,132.62c-13.08,.41-41.7,1.3-55.39,1.69-3.93,.11-7.33,3.69-7.17,7.54,.55,13.15,1.65,39.4,1.61,39.73-.05,.36,38.67-1.31,53.82-1.98,3.37-.15,6.42-2.86,6.99-6.21l5.78-34.23c.62-3.66-1.96-6.65-5.64-6.54Z"/>
    <path class="cls-56" d="M532.22,137.9c-13.67,.74-42.52,2.32-57.48,3.12-4.88,.26-8.93,4.89-8.38,9.59l3.52,30.28c.41,3.53,3.34,5.93,7.01,5.73l24.42-1.31s1.51,15.54,1.66,15.54,20.7-16.14,20.7-16.14l5.32-.36c4.3-.29,8.03-4.01,8.3-8.26l1.98-31.14c.26-4.15-2.87-7.28-7.05-7.05Z"/>
    <path class="cls-13" d="M532.2,137.55c-15.2,.83-42.87,2.34-57.48,3.12l.02,.34-.02-.34c-2.48,.13-4.88,1.37-6.58,3.38-1.61,1.91-2.39,4.32-2.12,6.59l3.52,30.28c.41,3.56,3.3,6.04,6.94,6.04,.14,0,.29,0,.43-.01l24.09-1.29c.1,1.02,.41,4.25,.74,7.44,.23,2.26,.42,4.06,.56,5.35,.09,.77,.16,1.36,.21,1.77,.03,.23,.05,.39,.07,.51,.03,.16,.08,.46,.38,.46q.17,0,3.51-2.59c1.72-1.34,4.12-3.21,7.11-5.55,4.74-3.71,9.52-7.47,10.21-8.01l5.21-.36c4.47-.31,8.34-4.16,8.62-8.58l1.98-31.15c.13-2.09-.55-4.01-1.93-5.41s-3.34-2.12-5.48-2Zm6.73,7.37l-1.98,31.15c-.26,4.09-3.84,7.66-7.98,7.94l-5.43,.37-.08,.07c-5.1,4.01-17.77,13.94-20.24,15.81-.27-2.02-1.04-9.71-1.55-14.98l-.03-.33-24.75,1.32c-.13,0-.26,.01-.39,.01-3.28,0-5.89-2.23-6.26-5.43l-3.53-30.28c-.24-2.08,.47-4.29,1.97-6.06,1.58-1.87,3.8-3.02,6.09-3.14,14.61-.79,42.28-2.3,57.48-3.12,1.94-.11,3.7,.53,4.95,1.8s1.86,2.98,1.74,4.88h0Z"/>
    <path class="cls-54" d="M479.81,150.67l.97,23.25c.1,2.33,2.05,4.15,4.38,4.08l38.79-1.14c2.12-.06,3.88-1.68,4.11-3.79l2.52-22.43c.14-1.25-.28-2.49-1.14-3.4l-19.15-20.28c-1.77-1.87-4.72-1.98-6.62-.24l-22.48,20.62c-.93,.85-1.43,2.06-1.38,3.32Z"/>
    <g class="cls-63">
      <g>
        <polygon class="cls-71" points="530.8 148.69 478.63 179.49 530.12 179.49 534.09 152.22 533.13 147.04 530.8 148.69"/>
        <path class="cls-13" d="M530.62,148.39l-53.24,31.44h53.04l4.02-27.57v-.06s-1.06-5.76-1.06-5.76l-2.76,1.94Zm-.79,30.75h-49.92l51.08-30.17,1.91-1.34,.85,4.59-3.92,26.92Z"/>
        <path class="cls-42" d="M476.64,147.23s-.05,32.67-.05,33.08,50.94-.69,50.94-.69l.14-2.87-47.92-28.07-3.1-1.45Z"/>
        <path class="cls-13" d="M476.29,146.69v.54c0,.33-.05,32.68-.05,33.09v.15l.1,.1c.11,.11,.19,.19,3.51,.19,1.17,0,2.74,0,4.86-.03,4.24-.04,10.13-.13,17.49-.26,12.54-.22,25.19-.49,25.32-.49h.32s.16-3.41,.16-3.41l-48.1-28.17-3.61-1.7Zm50.9,32.6c-13.48,.29-46.95,.94-50.26,.73,0-3.02,.05-28.21,.05-32.25l2.59,1.22,47.73,27.95-.11,2.35Z"/>
        <path class="cls-54" d="M473.3,130.89c-.27,.69,.67,14.65,.67,14.65l5.76,3.15h51.07s6.02-.14,6.02-.48-28.07-35.26-28.07-35.26c0,0-35.19,17.25-35.46,17.94Z"/>
      </g>
    </g>
    <polygon class="cls-4" points="484.72 151.75 505.21 163.61 527.12 150.86 528.35 133.75 484.72 133.75 484.72 151.75"/>
    <path class="cls-12" d="M586.3,216.78c-9.67,7.3-14.47,17.41-18.33,25.52-.39,.82-.77,1.62-1.15,2.39,.18-10.3,2.32-20.67,4.15-27.76,2.13-8.24,4.31-13.95,4.34-14,.1-.27-.03-.57-.3-.67-.27-.1-.57,.03-.67,.3-.02,.06-2.22,5.81-4.36,14.1-1.98,7.66-4.31,19.13-4.19,30.26l.02,2.11,.95-1.88c.7-1.37,1.4-2.85,2.14-4.41,3.81-8.02,8.56-18,18.02-25.14,.22-.18,.26-.5,.08-.73-.17-.21-.48-.26-.7-.1h0Z"/>
    <path class="cls-27" d="M585.84,154.78s-11.9,3.77-15.88,20.79c-3.98,17.02,4.47,27.9,4.47,27.9,0,0,12.74-5.84,15.45-21.41s-4.04-27.27-4.04-27.27Z"/>
    <g class="cls-20">
      <g>
        <path class="cls-12" d="M579.53,169.04c-.3,.86-.57,1.74-.85,2.61-.55,1.74-1.05,3.51-1.5,5.28s-.86,3.56-1.23,5.36c-.73,3.59-1.24,7.22-1.54,10.88l-.06,.69-.04,.69c-.03,.46-.06,.92-.08,1.37l-.05,1.37-.02,.69v.69s0,1.38,0,1.38c.01,.46,.02,.92,.03,1.38l.02,.69,.04,.69c.03,.46,.05,.91,.09,1.37,.03-.46,.06-.91,.09-1.37l.04-.68,.05-.68c.04-.46,.06-.91,.09-1.36l.12-1.36,.06-.68,.07-.68,.14-1.36c.11-.9,.19-1.81,.32-2.71,.23-1.8,.5-3.6,.8-5.39l.23-1.34c.08-.45,.16-.89,.24-1.34l.11-.67,.13-.67c.09-.45,.17-.89,.26-1.34,.72-3.56,1.54-7.1,2.46-10.61l.35-1.32,.36-1.32,.37-1.31,.38-1.31c.5-1.75,1.04-3.49,1.61-5.23-.8,1.65-1.48,3.34-2.13,5.05-.33,.82-.64,1.68-.94,2.54Z"/>
        <path class="cls-12" d="M584.69,173.21c-1.03,0-2.04,.17-3.01,.52-.49,.18-.96,.42-1.39,.7-.66,.43-1.23,.98-1.67,1.62-.07,.11-.14,.22-.2,.33l-.1,.17-.08,.17c-.05,.11-.11,.23-.16,.34s-.09,.24-.13,.36c-.02,.06-.04,.11-.06,.18l-.04,.18c-.03,.12-.05,.24-.07,.37,.61-.8,1.22-1.5,1.95-2.05,.09-.07,.18-.14,.27-.2,.09-.06,.18-.13,.28-.19s.19-.11,.29-.18,.2-.11,.3-.17l.15-.08,.15-.07c.1-.05,.2-.1,.31-.14l.31-.14,.32-.12c.87-.32,1.77-.55,2.68-.7,.93-.16,1.88-.27,2.87-.36-.46-.19-.95-.33-1.44-.41-.5-.08-1-.13-1.5-.13Z"/>
        <path class="cls-12" d="M576.07,177.71c-.61-.66-1.4-1.14-2.27-1.38-.29-.08-.58-.13-.87-.15-.3-.02-.6,0-.89,.07,.5,.33,.96,.61,1.4,.9s.87,.57,1.27,.88c.2,.15,.4,.31,.6,.47s.39,.33,.58,.5c.39,.34,.76,.73,1.21,1.14-.01-.6-.19-1.19-.5-1.7-.15-.26-.33-.51-.53-.73Z"/>
        <path class="cls-12" d="M574.22,189.26c-.2-.22-.43-.42-.67-.6-.48-.36-1.02-.62-1.6-.78-.29-.08-.58-.13-.87-.14-.3-.02-.6,0-.89,.07,.5,.33,.96,.61,1.4,.9s.87,.57,1.27,.88c.2,.15,.4,.31,.6,.47s.39,.33,.58,.5c.39,.34,.76,.73,1.21,1.14-.01-.6-.19-1.19-.5-1.7-.15-.26-.33-.5-.53-.72Z"/>
        <path class="cls-12" d="M578.68,168.02c-.2-.22-.43-.42-.67-.6-.48-.36-1.02-.62-1.6-.78-.29-.08-.58-.13-.87-.15-.3-.02-.6,0-.89,.07,.5,.33,.96,.61,1.4,.9s.87,.57,1.27,.88c.2,.15,.4,.31,.6,.47s.39,.33,.58,.5c.39,.34,.76,.73,1.21,1.14-.02-.6-.19-1.19-.5-1.7-.15-.26-.33-.5-.54-.73Z"/>
        <path class="cls-12" d="M582.39,184.61l-.34-.02h-.17c-.06,0-.11,0-.17,0h-.34c-.23,.03-.46,.04-.69,.08s-.46,.08-.68,.13c-.91,.22-1.75,.63-2.49,1.21-.36,.29-.68,.62-.97,.98-.28,.36-.5,.76-.65,1.19,.65-.55,1.35-1.03,2.11-1.42,.72-.37,1.48-.65,2.27-.85,.2-.05,.39-.1,.59-.13s.4-.07,.6-.1c.41-.05,.82-.1,1.23-.12,.84-.06,1.69-.05,2.59-.08-.79-.43-1.66-.71-2.56-.82l-.33-.04Z"/>
      </g>
    </g>
    <path class="cls-27" d="M616.07,193.85s-8.82-3.31-19.12,4.95-10.34,18.66-10.34,18.66c0,0,10.29,2.47,19.16-5.52,8.87-7.99,10.31-18.09,10.31-18.09Z"/>
    <g class="cls-3">
      <g>
        <path class="cls-12" d="M603.89,200.44c-2.29,1.55-4.5,3.23-6.6,5.03-2.11,1.8-4.1,3.72-5.97,5.77-.24,.25-.47,.51-.69,.78l-.68,.78-.66,.8-.33,.4-.32,.41-.63,.82c-.2,.28-.41,.56-.61,.84-.41,.56-.78,1.14-1.16,1.72,1.87-2.03,3.75-4.03,5.73-5.93s3.99-3.74,6.07-5.53,4.21-3.5,6.38-5.17c1.09-.84,2.18-1.66,3.29-2.48,1.1-.82,2.22-1.62,3.35-2.41-1.26,.57-2.46,1.26-3.66,1.95s-2.36,1.42-3.51,2.2Z"/>
        <path class="cls-12" d="M606.86,204.17c-.6-.51-1.3-.89-2.05-1.13l-.29-.08-.29-.07c-.1-.02-.2-.03-.3-.05-.1-.02-.2-.03-.3-.03-.6-.05-1.21,.03-1.78,.23-.09,.03-.18,.07-.28,.11l-.14,.06-.13,.07c-.09,.05-.17,.09-.26,.15s-.16,.11-.24,.17c-.15,.12-.3,.25-.43,.39,.76-.14,1.45-.24,2.13-.2,.08,0,.17,0,.25,.01,.08,0,.17,.01,.25,.02s.16,.03,.25,.03,.16,.03,.24,.04l.12,.02,.12,.03c.08,.02,.16,.03,.24,.06l.24,.06,.24,.07c.65,.21,1.29,.48,1.9,.79,.63,.31,1.26,.67,1.94,1.03-.17-.35-.38-.67-.63-.97-.24-.3-.52-.58-.81-.83Z"/>
        <path class="cls-74" d="M599.06,204.84c.71-2.69-1.2-4.67-1.2-4.67l1.2,4.67Z"/>
        <path d="M599.59,202.21c-.12-.45-.33-.86-.62-1.22-.07-.09-.15-.17-.23-.25s-.17-.16-.26-.23c-.09-.07-.19-.14-.29-.19-.1-.06-.21-.11-.33-.14,.1,.47,.21,.86,.32,1.24l.31,1.1c.06,.18,.09,.36,.14,.54,.03,.18,.1,.36,.13,.55,.1,.38,.16,.77,.3,1.24,.32-.35,.53-.78,.6-1.25,.04-.23,.06-.46,.05-.7-.02-.23-.06-.46-.12-.68Z"/>
        <path class="cls-74" d="M592.58,210.83c.71-2.69-1.2-4.67-1.2-4.67l1.2,4.67Z"/>
        <path d="M592.5,206.98c-.07-.09-.15-.17-.23-.25-.08-.08-.17-.16-.26-.23-.09-.07-.19-.14-.29-.19-.1-.06-.21-.11-.33-.14,.1,.47,.21,.86,.32,1.24l.31,1.1c.06,.18,.09,.36,.14,.54,.03,.18,.1,.36,.13,.55,.1,.38,.16,.77,.3,1.24,.32-.35,.53-.78,.6-1.25,.04-.23,.06-.46,.05-.7-.02-.23-.05-.46-.11-.69-.12-.45-.33-.86-.63-1.22Z"/>
        <path class="cls-74" d="M605.13,200.3c.71-2.69-1.2-4.67-1.2-4.67l1.2,4.67Z"/>
        <path d="M605.66,197.67c-.12-.45-.33-.86-.62-1.23-.07-.09-.15-.17-.23-.25-.08-.08-.17-.16-.26-.23-.09-.07-.19-.13-.29-.19-.1-.06-.21-.11-.33-.14,.1,.47,.21,.86,.32,1.24l.31,1.1c.06,.18,.09,.36,.14,.54,.03,.18,.1,.36,.13,.55,.1,.38,.16,.77,.3,1.24,.32-.35,.53-.78,.6-1.25,.04-.23,.06-.46,.05-.7-.02-.23-.06-.46-.12-.68Z"/>
        <path class="cls-12" d="M600.19,209.87l-.19-.18c-.06-.06-.13-.12-.2-.17l-.21-.16c-.29-.21-.6-.39-.92-.53-.66-.3-1.37-.44-2.09-.42-.35,.01-.71,.07-1.05,.17-.34,.1-.66,.26-.93,.47,.64,.02,1.28,.11,1.9,.25,.58,.14,1.15,.33,1.7,.57,.27,.12,.54,.26,.8,.4,.26,.15,.53,.3,.79,.47,.53,.33,1.05,.71,1.65,1.07-.22-.66-.59-1.26-1.06-1.76l-.18-.19Z"/>
      </g>
    </g>
    <path class="cls-58" d="M327.36,54.68c-6.18-.17-6.94,5.89-6.94,6.02,0,0,3.43-1.05,6.64,.33s3.85,5.77,6.69,8.11,2.59,6.77,.79,9.82c2.72-1.55,5.35-5.47,5.43-9.86s-2.92-5.47-4.47-8.19-1.96-6.06-8.15-6.23Z"/>
    <path class="cls-43" d="M321.42,60.03l-1,.67s-2.34-.38-3.64,5.47-.88,7.56-2.34,7.48-2.09-1.04-2.09-1.04c0,0-3.01-1.09-3.26,1.75s2.38,3.26,3.22,4.85,2.01,4.13,5.68,6.81c3.68,2.68,8.11,3.76,11.53,.54,2.72-2.17,4.31-13.33,3.97-18.81-2.71-6.52-5.72-11.87-12.08-7.73Z"/>
    <g class="cls-64">
      <g>
        <path d="M320.96,67.62c-1.69,.19-2.54,.83-3.2,1.54-.54,.58,2.1-.55,3.23-.66,1.76-.17,3.02,.42,3,.04-.07-.89-1.34-1.11-3.03-.92Z"/>
        <path d="M330.68,67.72c-1.69-.19-2.96,.03-3.03,.92-.03,.38,1.24-.22,3-.04,1.13,.11,3.77,1.24,3.23,.66-.66-.71-1.51-1.35-3.2-1.54Z"/>
        <path d="M321.44,71.28c-.64,0-1.15,.69-1.15,1.54s.51,1.54,1.15,1.54,1.15-.69,1.15-1.54-.51-1.54-1.15-1.54Z"/>
        <path d="M321.71,71.52l.4,.65c.45-.27,.72-.76,.7-1.28-.66,.73-1.1,.63-1.1,.63Z"/>
        <path d="M329.75,71.28c-.59,0-1.08,.69-1.08,1.54s.48,1.54,1.08,1.54,1.08-.69,1.08-1.54-.48-1.54-1.08-1.54Z"/>
        <path d="M329.95,71.52l.4,.65c.45-.27,.72-.76,.7-1.28-.66,.73-1.1,.63-1.1,.63Z"/>
        <g class="cls-68">
          <circle class="cls-67" cx="318.01" cy="78.18" r="2.94"/>
        </g>
        <path class="cls-73" d="M326.71,79.11s2.45-1.25,2.39-1.79-2.39-5.74-2.39-5.74v7.52Z"/>
        <g class="cls-68">
          <circle class="cls-67" cx="333.01" cy="78.18" r="2.94"/>
        </g>
        <path d="M326.24,81.95c-.24,0-.48,0-.72,0-.49-.03-.97-.11-1.44-.23-.48-.11-.97-.27-1.47-.44,.36,.41,.8,.73,1.29,.95,.5,.23,1.03,.37,1.58,.41,.28,.02,.55,0,.83-.03,.27-.04,.54-.1,.8-.2,.51-.18,.97-.49,1.34-.88-.48,.15-.98,.27-1.48,.36-.24,.04-.49,.06-.73,.07Z"/>
      </g>
    </g>
    <polygon class="cls-4" points="364.47 183.2 364.94 187.72 355.72 190.01 324.6 170.43 325.19 167.12 380.41 156.23 364.47 183.2"/>
    <g class="cls-62">
      <path class="cls-50" d="M319.19,165.89s.56,7.86,.85,7.84,9.69,8.55,11.66,11.33,23.22,10.48,23.22,10.48l1.89-8.17-35.07-22.47-2.54,.99Z"/>
    </g>
    <path class="cls-43" d="M344.43,152.93l1.5-1.6s8.26,2.62,11.69,3.32,7.26,6.14,7.37,7.24,.85,8.63-.2,9.32c-.34,.23-1.18,.19-2.19-.05-.79-.32-.79-1.06-.84-1.61-.09,1.03-.41,1.17-.73,1.14-.03,0-.07,0-.1-.02-.14-.04-.28-.1-.4-.18-.37-.22-.8-.62-.97-1.09-.24-.67-.59-2.61-.59-2.61,0,0,.3,1.64-.41,1.87-.95,.31-1.7-.8-1.82-.97-1.56-2.08-2.76-3.06-5.56-4.03s-7.2,.51-9.2-3.3c-.17-.75-.16-1.54,.02-2.29,.55-2.47-.04-4.57,2.42-5.15Z"/>
    <g class="cls-53">
      <g>
        <path class="cls-41" d="M361.71,167.53c-.06-.59-.14-1.17-.22-1.75s-.18-1.16-.29-1.74c-.06-.29-.11-.58-.19-.87-.02-.07-.04-.14-.06-.22s-.04-.14-.07-.22c-.05-.15-.12-.3-.21-.44-.16-.26-.34-.51-.54-.74-.19-.23-.39-.45-.6-.66-.41-.43-.85-.82-1.29-1.21s-.91-.75-1.39-1.1c.83,.84,1.66,1.67,2.42,2.55,.37,.44,.75,.89,1.02,1.38,.07,.11,.12,.24,.16,.36,.02,.06,.04,.13,.06,.2s.04,.14,.05,.21c.07,.28,.12,.57,.18,.85,.11,.57,.21,1.15,.31,1.72s.19,1.16,.29,1.73,.19,1.16,.27,1.74c.09,.57,.02,1.16-.21,1.7,.32-.51,.47-1.11,.43-1.71-.03-.59-.08-1.18-.14-1.76Z"/>
        <path class="cls-41" d="M358.98,168.39l-.03,.03s0,.02,0,.03l.03-.06Z"/>
        <path class="cls-41" d="M359.1,166.54c-.05-.21-.11-.42-.2-.62-.16-.4-.35-.78-.57-1.15-.21-.37-.44-.72-.69-1.06-.13-.17-.25-.34-.39-.51-.15-.17-.31-.32-.48-.46-.17-.14-.34-.26-.52-.38l-.27-.17-.27-.16c-.72-.43-1.48-.79-2.26-1.1,.7,.46,1.41,.9,2.08,1.38l.25,.18,.25,.19c.16,.12,.32,.25,.47,.38,.15,.13,.28,.27,.41,.42,.12,.16,.25,.33,.36,.49,.23,.34,.46,.68,.68,1.03,.21,.35,.41,.71,.58,1.08,.08,.18,.16,.37,.21,.56,.05,.19,.09,.39,.11,.59,.05,.4,.08,.8,.1,1.21l.03-.03-.03,.06s0-.02,0-.03c-.1,.11-.21,.23-.31,.35s-.22,.26-.33,.39c.13-.11,.27-.21,.39-.32s.26-.22,.39-.33l.02-.02v-.04c.04-.42,.06-.84,.04-1.26,0-.22-.03-.44-.07-.66Z"/>
        <path class="cls-41" d="M363.67,171.38h0s0-.01,0,0c.07-1.35,.09-2.7,.08-4.05,0-.68-.02-1.35-.04-2.03s-.06-1.35-.13-2.03l-.06-.51c-.02-.17-.05-.34-.08-.51-.08-.35-.2-.69-.38-1-.33-.6-.71-1.18-1.15-1.71-.42-.53-.88-1.03-1.35-1.53s-.96-.96-1.47-1.4c.89,1.01,1.77,2.04,2.55,3.13,.39,.53,.75,1.1,1.05,1.69,.14,.28,.25,.58,.32,.89,.02,.16,.05,.32,.07,.49l.05,.5c.06,.67,.1,1.34,.14,2.01s.07,1.35,.1,2.02c.07,1.35,.13,2.7,.2,4.05h0c.07,.24,.15,.48,.22,.72-.04-.24-.08-.48-.13-.72h0Z"/>
      </g>
    </g>
    <path class="cls-50" d="M366.19,139.8l-8.96,47.76,3.49,1.17,43.49-10.31c5.37-1.27,9.73-5.49,11.22-10.83l10.77-38.81-3.54-2.37-56.47,13.38Z"/>
    <path class="cls-39" d="M360.72,188.72l46.11-10.93c6.23-1.48,11.15-6.61,12.37-12.89l6.99-36.12-56.47,13.38-9.01,46.56Z"/>
    <ellipse class="cls-4" cx="394.43" cy="158.54" rx="7.18" ry="4.42" transform="translate(71.34 434.8) rotate(-62.43)"/>
    <path class="cls-4" d="M298.63,99.63c2.82-.22,6.91,.86,10.02,6.64,3.1,5.78,5.16,24.9,5.15,25.07s14.02,8.76,18.75,10.81,11,5.72,12.92,7.35,.52,4.45-.47,7.17-1.81,5.4-4.01,5.43-20.92-10.43-30.75-14.56-10.13-6.7-11.74-13.95-2.49-16.02-3.32-21.12-.83-12.5,3.45-12.84Z"/>
    <g class="cls-1">
      <g>
        <circle class="cls-36" cx="334.92" cy="156.21" r="1.36"/>
        <circle class="cls-36" cx="339.23" cy="158.35" r="1.36"/>
      </g>
    </g>
    <path class="cls-34" d="M597.08,120.3c-.06-.15-.11-.31-.17-.46l-.19-.45-.1-.22-.11-.22-.21-.43c-.6-1.15-1.35-2.21-2.22-3.16-.88-.94-1.87-1.78-2.93-2.51-1.07-.72-2.2-1.34-3.37-1.87-1.18-.52-2.38-.97-3.62-1.33-2.47-.72-5-1.21-7.55-1.48-2.55-.28-5.12-.4-7.68-.37-1.28,.01-2.56,.06-3.85,.13-1.28,.08-2.56,.19-3.83,.34,1.27-.16,2.55-.25,3.83-.32s2.56-.11,3.84-.11c2.56-.01,5.13,.13,7.67,.42,2.55,.29,5.06,.8,7.52,1.53,1.22,.37,2.42,.82,3.59,1.34,1.16,.53,2.28,1.15,3.34,1.87,1.05,.72,2.02,1.56,2.89,2.49,.86,.94,1.59,1.99,2.18,3.12l.21,.43,.1,.21,.09,.22,.18,.44c.06,.15,.11,.3,.16,.45,.23,.59,.38,1.21,.46,1.84,.08,.63,.12,1.26,.09,1.9,0,.32-.03,.63-.06,.95,0,.16-.04,.32-.05,.47l-.06,.47c-.4,2.52-1.31,4.94-2.5,7.19-.29,.57-.62,1.12-.93,1.67-.34,.54-.67,1.09-1.03,1.61-.7,1.07-1.48,2.08-2.27,3.09-3.22,3.97-7.01,7.46-11.04,10.61-2.02,1.58-4.1,3.06-6.23,4.49l-1.6,1.06-1.62,1.03-.81,.51-.82,.5c-.55,.33-1.09,.66-1.65,.99-8.84,5.17-18.16,9.5-27.67,13.31-4.76,1.9-9.56,3.69-14.41,5.35l-1.82,.63-1.82,.61-1.82,.61-.91,.3-.92,.29-3.66,1.17-3.68,1.13c-1.22,.38-2.45,.74-3.68,1.1s-2.46,.73-3.69,1.07l-3.7,1.04-3.71,1.01-1.86,.5-1.86,.48-3.72,.96-3.73,.93-1.87,.46-1.87,.45c-9.97,2.39-19.99,4.57-30.06,6.53l-3.78,.72c-1.26,.24-2.52,.49-3.78,.72l-3.78,.69c-1.26,.23-2.53,.46-3.79,.68l-3.79,.66-1.89,.33-1.9,.32-7.58,1.29c-20.23,3.41-40.48,6.65-60.79,9.57-20.3,2.92-40.65,5.55-61.07,7.51-10.21,.97-20.44,1.75-30.68,2.19-5.12,.21-10.25,.34-15.37,.31-2.56-.01-5.12-.07-7.68-.17-2.56-.1-5.12-.27-7.67-.5-2.55-.23-5.09-.54-7.62-.97-1.26-.21-2.52-.47-3.76-.75-1.24-.3-2.48-.61-3.7-1.01l-.46-.14c-.15-.05-.3-.11-.45-.16-.3-.11-.6-.21-.9-.33l-.89-.36c-.3-.11-.58-.26-.88-.39-1.16-.53-2.27-1.17-3.31-1.91-1.03-.74-1.94-1.64-2.69-2.66-.09-.13-.17-.27-.26-.4s-.17-.26-.25-.41l-.23-.42c-.08-.14-.14-.29-.21-.43-.14-.28-.25-.58-.37-.88-.05-.15-.1-.3-.15-.45-.02-.08-.05-.15-.07-.23l-.06-.23-.06-.23-.03-.11-.02-.11-.09-.47c-.04-.31-.07-.63-.08-.95-.02-.64,.03-1.27,.15-1.9,.27-1.25,.78-2.43,1.49-3.48,.36-.53,.74-1.04,1.17-1.52,.42-.48,.87-.93,1.34-1.37s.96-.84,1.46-1.24,1.02-.77,1.55-1.13c2.12-1.44,4.4-2.64,6.73-3.69,1.17-.53,2.36-1.01,3.56-1.46,1.2-.45,2.41-.87,3.64-1.24-1.23,.36-2.45,.77-3.65,1.21s-2.39,.92-3.57,1.44c-2.35,1.03-4.63,2.22-6.77,3.65-.53,.36-1.06,.73-1.56,1.12s-1,.8-1.48,1.24-.93,.89-1.36,1.37c-.43,.48-.82,.99-1.19,1.53-.73,1.07-1.26,2.27-1.54,3.53-.13,.64-.18,1.28-.16,1.93,0,.32,.04,.65,.08,.97l.08,.48,.02,.11,.03,.11,.06,.24,.06,.23c.02,.08,.05,.16,.07,.23,.05,.15,.1,.31,.15,.46,.12,.3,.23,.61,.37,.9,.07,.14,.13,.3,.21,.44l.23,.43c.07,.14,.16,.28,.25,.42s.17,.28,.26,.41c.76,1.05,1.68,1.97,2.73,2.73,1.04,.76,2.16,1.41,3.33,1.95,.29,.13,.58,.27,.88,.4l.89,.36c.3,.11,.6,.22,.91,.33,.15,.05,.3,.11,.46,.16l.46,.15c1.22,.41,2.47,.73,3.71,1.03,1.25,.29,2.51,.55,3.78,.77,2.53,.44,5.08,.77,7.64,1.01,5.11,.49,10.25,.68,15.38,.73,5.13,.05,10.26-.06,15.39-.26,10.26-.4,20.49-1.17,30.71-2.11,10.22-.94,20.42-2.08,30.6-3.33,10.18-1.25,20.35-2.62,30.51-4.07,10.16-1.45,20.3-2.99,30.44-4.58,10.14-1.6,20.26-3.25,30.37-4.95,5.06-.85,10.11-1.72,15.16-2.61,1.26-.22,2.53-.45,3.79-.69l3.78-.7c1.26-.23,2.53-.48,3.78-.72l3.78-.73c10.07-1.98,20.1-4.16,30.08-6.55l1.87-.45,1.87-.47,3.73-.93,3.72-.97,1.86-.49,1.86-.51,3.71-1.01,3.7-1.05c1.24-.34,2.46-.72,3.69-1.08s2.46-.72,3.69-1.1l3.68-1.13,3.67-1.18,.92-.29,.91-.31,1.83-.61,1.83-.61,1.82-.64c4.85-1.68,9.66-3.48,14.42-5.4,9.52-3.85,18.85-8.2,27.7-13.42,.55-.33,1.1-.67,1.65-1l.82-.5,.81-.52,1.63-1.03,1.61-1.07c2.13-1.44,4.22-2.94,6.23-4.53s3.97-3.27,5.83-5.05c1.86-1.77,3.61-3.67,5.23-5.67,.79-1.02,1.57-2.04,2.27-3.12,.37-.53,.69-1.09,1.03-1.63,.32-.56,.65-1.11,.93-1.69,1.19-2.28,2.1-4.73,2.49-7.29l.06-.48c.02-.16,.04-.32,.05-.48,.02-.32,.05-.64,.05-.97,.02-.65-.02-1.3-.1-1.94-.09-.64-.25-1.26-.48-1.86Z"/>
    <circle class="cls-15" cx="277.78" cy="37.75" r="2.72"/>
    <path d="M277.21,34.93c-1.56,.32-2.57,1.85-2.25,3.41,.28,1.34,1.45,2.3,2.82,2.31,.2,0,.4-.02,.59-.06,1.56-.35,2.54-1.89,2.2-3.45-.34-1.53-1.83-2.51-3.36-2.21h0Zm1.1,5.32c-1.38,.28-2.72-.6-3.01-1.98-.28-1.38,.6-2.72,1.98-3.01,1.38-.28,2.72,.6,3.01,1.98,0,0,0,0,0,0,.29,1.36-.58,2.71-1.94,3-.01,0-.02,0-.04,0h0Z"/>
    <rect class="cls-73" x="257.51" y="39.5" width="6.23" height="6.23" transform="translate(-3.24 53.42) rotate(-11.63)"/>
    <path class="cls-28" d="M282.57,52.55l3.96,2.61,2.61-3.96-3.96-2.61-2.61,3.97Zm5.62-1.16l-1.85,2.81-2.81-1.85,1.85-2.81,2.81,1.85Z"/>
    <polygon class="cls-74" points="266.78 54.91 274.46 56.91 272.65 50.91 266.78 54.91"/>
    <path d="M266.39,54.98l8.31,2.17-1.95-6.5-6.36,4.33Zm.79-.14l5.38-3.66,1.66,5.5-7.04-1.84Z"/>
    <polygon class="cls-15" points="294 39.07 298.43 40.38 298.33 35.14 294 39.07"/>
    <path d="M293.65,39.15l4.96,1.45-.11-5.86-4.84,4.4Zm.69-.16l3.82-3.48,.09,4.63-3.92-1.15Z"/>
    <path class="cls-36" d="M311.45,77.15c-1.61,0-2.87,2.03-2.87,4.62s1.26,4.62,2.87,4.62,2.87-2.03,2.87-4.62-1.26-4.62-2.87-4.62Zm0,8.67c-1.25,0-2.3-1.85-2.3-4.05s1.05-4.05,2.3-4.05,2.3,1.85,2.3,4.05-1.06,4.05-2.3,4.05Z"/>
  </g>
</svg>