<?xml version="1.0" encoding="UTF-8"?>
<svg id="Capa_1" data-name="Capa 1" xmlns="http://www.w3.org/2000/svg" viewBox="0 0 800 400">
  <defs>
    <style>
      .cls-1 {
        fill: #e06347;
      }

      .cls-2 {
        fill: #fdb0b2;
      }

      .cls-3 {
        fill: #3c3d69;
      }

      .cls-4 {
        fill: #f2d4c9;
      }

      .cls-5 {
        fill: #228cb3;
      }

      .cls-6 {
        fill: #4e9eb8;
      }

      .cls-7 {
        fill: #f87080;
      }

      .cls-8 {
        fill: #e26a85;
      }

      .cls-9 {
        fill: #344668;
      }

      .cls-10 {
        fill: #68222d;
      }

      .cls-11 {
        fill: #3895b6;
      }

      .cls-12 {
        fill: #64bcbe;
      }

      .cls-13 {
        fill: #d94526;
      }

      .cls-14 {
        fill: #4f9395;
      }

      .cls-15 {
        fill: #b43c24;
      }

      .cls-16 {
        fill: #da426b;
      }

      .cls-17 {
        fill: #e9c880;
      }

      .cls-18 {
        fill: #7f2533;
      }

      .cls-19 {
        fill: #494a89;
      }

      .cls-20 {
        fill: #31304a;
      }

      .cls-21 {
        fill: #38234c;
      }

      .cls-22 {
        fill: #492867;
      }
    </style>
  </defs>
  <g id="Layer0_24_FILL" data-name="Layer0 24 FILL">
    <path class="cls-10" d="M111.5,335.71l-5.26-3.7-8.65,6.91-13.42,23.31-5.65,37.66h18.56l5.7-39.47,8.71-24.71Z"/>
    <path class="cls-21" d="M116.56,317.96l.2-13.05h-15.59l-10.25,11.42,5.91,12.87,3.25-3.88,16.48-7.37h0ZM41.15,160.38l-2.66,2.71,37.35,89.11,3.16,42.99,11.88-13.42,6.23-37.59-55.96-83.81Z"/>
    <path class="cls-14" d="M90.87,281.78l-11.88,13.42,5.38,12.65,6.55,8.49,10.25-11.42,1.63-16.29-11.93-6.84Z"/>
    <path class="cls-12" d="M128.13,256.99l-30.57,17.2-6.68,7.59,6.78,17.75,3.52,5.37,5.41-10.98,27.15-15.13,22.99,6.91,14.45,6.19-6.82-20.91-12.82-9.67-23.4-4.33Z"/>
    <path class="cls-18" d="M184.08,361.41l-11.88-28.27-37.75-9.72-22.95,12.29-14.4,24.8v39.38h94.16l-7.18-38.48Z"/>
    <path class="cls-20" d="M172.2,333.13l-4.11-12.69-1.72-5.38-32.07-16.01-17.54,18.86-20.07,4.65,.13,6.64,.77,9.71,13.91-3.21,24.62-5.6,36.08,3.03Z"/>
    <path class="cls-22" d="M170.89,310.78l.45-7.95-.18-10.93-14.45-6.19-22.99-6.91-27.15,15.13-5.41,10.98,15.4,13.05,16.85-3.88,32.97,.99,1.72,5.38,2.8-9.66h0ZM54.73,146.39l-10.92,11.2-2.67,2.8,48.41,89.38,1.31,32.02,6.68-7.59,30.57-17.2,23.4,4.33,12.82,9.67-9.03-24.66,8.58-103.24-12.64-2.44-12.1-2.3-1.49-.32-12.24,100.53-16.89,1.85-51.3-96.65-2.48,2.62Z"/>
    <path class="cls-2" d="M139.15,138.35l12.1,2.3,.36-9.21,16.12-12.24-9.85-13.69v-4.25h-3.07l-15.8,13.28,.13,23.8h0Zm-114.58-14.54l6.32,12.24,7.41,8.76,5.51,12.78,10.92-11.2-3.7-10.3,2.53-7.54v-15.81l-5.64-.36-2.98-6.46-20.37,17.89Z"/>
  </g>
  <g id="Layer0_25_FILL" data-name="Layer0 25 FILL">
    <path class="cls-2" d="M254.09,284.99l-10.07,3.39,5.83,19.42,12.6-6.28-1.54-14.91-6.82-1.63h0Zm-20.37,17.98l-12.87,5.56-.68-7.9h-19.51l.36,4.47,2.08,26.42,40.92-20.77v-12.2l-10.3,4.43h0Zm57.04-195.78l-4.47,1.67-.41,21.32,11.11,56.14-17.66,22.85,9.53,9.58,21.59-40.92-11.25-42.41,4.16-.27,6.41-19.15-19.02-8.81h0Zm3.93,28.59h-.18l.18-.04c.61-.09,1.23-.12,1.85-.09l-1.85,.13Z"/>
    <path class="cls-11" d="M279.56,316.38l6.14-6.1-.72-3.93-.09-1.04-8.52-2.48-2.73-16.2-11.2,14.89,.76,7-23.8,12.37,40.15-4.51h0Zm-56.36-15.76h-3.03l.68,7.9,12.87-5.56,4.76-18.82-20.21-29.34,4.93,45.81h0Zm58.58-34.96l22.63-31.3-5.78-5.87-26.11,12.23,9.26,24.93Z"/>
    <path class="cls-20" d="M239.41,320.89l-20.46,10.61h-7.45l-3.97,70.05h41.82l3.3-31.48,10.66,31.48h36.17l-19.92-85.17-40.15,4.51h0Zm-38.75-20.27l-12.2,3.03,12.56,1.45-.36-4.47Zm99.85-76.24l-1.9,4.11,5.78,5.87-3.88-9.98Z"/>
    <path class="cls-7" d="M218.95,331.51l20.46-10.61,23.8-12.37-.76-7-12.6,6.28-5.83-19.42v22.36l-40.92,20.77h15.85Zm84.41-196.37l-4.16,.27,11.25,42.41-21.59,40.92,9.76,9.76,1.9-4.11,17.62-38.75-14.77-50.49Z"/>
    <path class="cls-12" d="M288.86,218.73l-9.53-9.58-9.67,12.6-72.75,13.23-8.45,68.65,12.2-3.03h22.53l-1.63-31.66,12.15,34.01,10.3-4.43v-10.16l10.07-3.39,6.82,1.63,1.54,14.91,6.5-3.25,1.85,13.72,14.09-6.68-3.12-39.66v-20.18l16.85-16.98-9.76-9.76Z"/>
    <path class="cls-5" d="M294.51,135.77h.18l1.85-.13c-.62-.03-1.24,0-1.85,.09l-.18,.04Z"/>
  </g>
  <g id="Layer0_26_FILL" data-name="Layer0 26 FILL">
    <path class="cls-20" d="M661.54,128.37c-2.38-4.82-6.47-8.59-11.47-10.57-5.36-2.31-12.48-1.86-21.36,1.36-8.85,3.25-14.94,12.13-18.29,26.65-3.21,13.69-4.85,27.71-4.88,41.77,.06,8.02,.03,16.03-.09,24.02l68.47-9.21c-.11-6.15-.53-12.28-1.26-18.38-.75-6.29-1.31-12.54-1.67-18.74-.7-12.8-3.91-25.34-9.44-36.9Z"/>
  </g>
  <g id="Layer0_27_FILL" data-name="Layer0 27 FILL">
    <path class="cls-22" d="M518.65,200.13l-15.9,19.14,15.4-9.53,.5-9.61Zm257.07-67.7l-16.17-19.47,4.06,12.74,12.11,6.73Z"/>
    <path class="cls-6" d="M578.49,269.45l9.19-29.8-66.14,44.35,9.89,7.05,47.06-21.59h0Zm197.22-91v-10.21l-52.06,41.5-17.22-12.91,2.71,58.53,66.57-76.92Z"/>
    <path class="cls-7" d="M534.59,190.51l.19-1.17-8.22,3.88v10.43l9.8-7.05-1.76-6.1h0Zm216.56-95.97h-5.33l6.81,25.02,10.98,6.14-4.06-12.74-8.4-18.43Zm-220.85,67.34l-.68-1.81-10.34,2.57v6.14h8.31l2.71-6.91Z"/>
    <path class="cls-12" d="M624.52,345.51l-4.98-151.25-75.42,29.13-7.77-26.78-9.8,7.05-8.4,6.09-15.4,9.53,10.34,58.71,8.45,6.01,58.35-30.17-1.4,15.62-10.66,119.14h51.71l4.98-43.08Zm108.92-236.61l8.22,38.39-37.89,33.28-50.67,7.9,.09,157.03,8.76,46.7,40.19-18.74,12.2-5.69-5.19-112.4-2.71-58.53,8.72,29.17,60.56-57.76v-35.81l-12.11-6.73-10.98-6.14-19.19-10.66Z"/>
    <path class="cls-5" d="M653.19,345.51h-24.7l-5.12,50.2-44.74,6.48v2.21h123.52v-20.37c-16.07,4.99-28.65,6.25-44.64,11.74,.08-16.64-3.66-30.74-4.32-50.26Z"/>
    <path class="cls-9" d="M659.92,345.51c-1.25-9.4-3.53-9.11-6.73,0,.65,19.52,.94,37.6,.86,54.24,15.99-5.48,32.02-10.72,48.1-15.72v-10.57l-40.19,18.74-2.03-46.7h0Zm-31.43,0c-2.57-7.29-5.62-6.14-8.94,0v43.08h-40.92v13.6l49.86-4.16v-52.52Z"/>
    <path class="cls-20" d="M621.8,193.4l-2.26,.86v151.25h40.37l-6.82-157.03-31.29,4.92Z"/>
    <path class="cls-2" d="M731,57.14l-1.54,31.07,3.97,20.68,19.19,10.66-6.81-25.02h5.33l7.9-27.64-28.04-9.76h0Zm-217.37,95.61l1.9,22.49,3.12,24.89-.5,9.61,8.4-6.09v-10.43l8.22-3.88,7.22-41.32-9.07-4.65-19.29,9.39h0Zm15.99,7.32l.68,1.81-2.71,6.91h-8.31v-6.14l10.34-2.57Z"/>
  </g>
  <g id="Layer0_28_FILL" data-name="Layer0 28 FILL">
    <path class="cls-20" d="M646.64,181.52l-16.17,.72v22.17l17.25-2.25-1.08-20.64Z"/>
    <path class="cls-7" d="M630.47,165.4v11.7c2.76,.85,5.53,1.61,8.31,2.3,2.54,.66,5.18,.79,7.77,.41l-.77-14.41h-15.31Z"/>
    <path class="cls-2" d="M630.47,177.1v5.15l16.17-.72-.09-1.72c-2.59,.39-5.23,.25-7.77-.41-2.78-.69-5.55-1.46-8.31-2.3Z"/>
  </g>
  <g id="Layer0_44_FILL" data-name="Layer0 44 FILL">
    <path class="cls-2" d="M660.14,149.7c-3.93-.03-7.15,3.13-7.18,7.06s3.13,7.15,7.06,7.18c0,0,0,0,0,0h.11c3.92,0,7.1-3.16,7.11-7.08h0v-.04c.03-1.9-.72-3.72-2.07-5.05-1.32-1.36-3.15-2.11-5.04-2.08Z"/>
  </g>
  <g id="Layer0_45_FILL" data-name="Layer0 45 FILL">
    <path class="cls-2" d="M617.19,150.69c-3.92-.02-7.11,3.14-7.13,7.06h0v.07c0,3.94,3.19,7.14,7.13,7.14,3.94,0,7.14-3.19,7.14-7.13,0-3.94-3.19-7.14-7.13-7.14h-.01Z"/>
  </g>
  <g id="Layer0_46_FILL" data-name="Layer0 46 FILL">
    <path class="cls-2" d="M637.88,132.43c-12.33-.05-22.38,9.9-22.43,22.24-.05,12.33,9.9,22.37,22.23,22.43h.2c12.31,.01,22.29-9.95,22.31-22.26v-.05c.09-5.95-2.26-11.68-6.5-15.85-4.14-4.26-9.86-6.61-15.8-6.5Z"/>
  </g>
  <g id="Layer0_47_FILL" data-name="Layer0 47 FILL">
    <path class="cls-2" d="M395.11,209.87l5.95,14.98,14.82-8.62-8.37-16.38-12.4,10.03h0Zm-23.85-35.13c-1.59-.03-3.17-.29-4.68-.76-1.2,2.91-1.8,6.03-1.77,9.18-.02,12.79,10.33,23.17,23.12,23.19h.18c1.82,0,3.63-.2,5.39-.61,4.19-.96,8-3.12,10.99-6.2,.65-.65,1.26-1.34,1.81-2.07,1.68-2.01,2.96-4.32,3.78-6.8-.47-.18-.95-.38-1.46-.61-2.43-1.16-4.73-2.58-6.86-4.23-1.77-1.39-3.13-2.47-4.08-3.23,.74-.39,1.36-.97,1.82-1.66,.36-.66,.48-1.43,.35-2.17,.06-1.54-.59-3.03-1.76-4.03-.57-.5-1.27-.84-2.02-.96-.71-.17-1.45-.1-2.12,.21-1.13,.38-1.96,1.35-2.17,2.52,.31,3.62,1.3,7.14,2.92,10.39-1.02,.57-1.89,1.38-2.52,2.37-.34,.2-.56,.28-.66,.25-.17,0-.25-.13-.25-.4-2.25-5.81-4.19-11.73-5.79-17.75-4.35,2.39-9.26,3.56-14.22,3.38Z"/>
    <path class="cls-7" d="M406.3,197.47c-.56,.73-1.16,1.42-1.81,2.07-2.99,3.09-6.8,5.24-10.99,6.2l1.61,4.13,12.4-10.03-1.21-2.37Z"/>
    <path class="cls-22" d="M366.58,173.98c1.52,.47,3.1,.72,4.68,.76,4.96,.18,9.87-.99,14.22-3.38,1.61,6.02,3.54,11.94,5.79,17.75,0,.26,.08,.4,.25,.4,.1,.03,.32-.05,.66-.25,.63-.99,1.49-1.8,2.52-2.37-1.62-3.25-2.61-6.77-2.92-10.39,.21-1.17,1.04-2.13,2.17-2.52,.66-.31,1.41-.38,2.12-.21,.75,.13,1.45,.46,2.02,.96,1.17,1,1.82,2.49,1.76,4.03,.14,.74,.01,1.51-.35,2.17-.46,.7-1.08,1.27-1.82,1.66l4.08,3.23c2.13,1.65,4.43,3.07,6.86,4.23,.5,.22,.99,.43,1.46,.61,4.1-12.24-2.49-25.49-14.73-29.59-2.28-.77-4.67-1.17-7.07-1.21h-3.96c-1.38,.07-2.55,.17-3.53,.3-2.35,.29-4.65,.86-6.86,1.72-4.69,1.77-9.95,1.21-14.16-1.52,.03,.44-.02,1.72-.15,3.83-.13,1.25-.03,2.52,.3,3.73,.31,1.14,.88,2.19,1.66,3.08,.8,.9,1.78,1.62,2.88,2.12,.67,.37,1.38,.66,2.12,.86Z"/>
  </g>
  <g id="Layer0_48_FILL" data-name="Layer0 48 FILL">
    <path class="cls-22" d="M123.11,228.17c-2.91-1.25-6.21-1.25-9.12,0l-3.7,3.3,1.22,11.79,6.87,2.8h7.04l-2.3-17.89Z"/>
    <path class="cls-2" d="M113.99,228.17l-4.16-.99,.45,4.29,3.7-3.3Z"/>
    <path class="cls-7" d="M108.61,215.75l1.22,11.43,4.16,.99c2.91-1.25,6.21-1.25,9.12,0l-2.35-17.75-12.15,5.33Z"/>
  </g>
  <g id="Layer0_49_FILL" data-name="Layer0 49 FILL">
    <path class="cls-2" d="M133.95,191.86c-.94-1.6-2.08-3.07-3.39-4.38-3.85-3.95-9.16-6.14-14.68-6.05-9.42-.07-17.71,6.22-20.18,15.31,2.69,1.21,4.84,3.39,6.01,6.1,1.76,3.42,2.83,7.14,3.16,10.97l-3.25-5.46c-.04-.06-.09-.12-.13-.18-.83-1.52-2.42-2.47-4.16-2.49-.68,0-1.36,.13-1.99,.41-.5,.25-.96,.59-1.36,.99-1.84,1.86-1.83,4.86,.02,6.7,.88,.88,2.07,1.37,3.32,1.38,.63,0,1.26-.12,1.85-.36,.51,.66,1.05,1.3,1.63,1.9,.1,.1,.19,.19,.28,.27,3.89,3.98,9.24,6.19,14.81,6.1,11.46-.02,20.75-9.31,20.78-20.77,.05-3.66-.89-7.26-2.71-10.44Z"/>
    <path class="cls-3" d="M82.2,160.92c-4.14,3.16-6.58,8.07-6.59,13.28-.27,4.95,.36,9.91,1.85,14.63,1.27,3.45,2.12,7.05,2.53,10.7,.35,5.78,3.44,11.05,8.31,14.18,2.52,1.71,5.45,2.71,8.49,2.89,1.34,.1,2.67,.13,4.01,.09-.58-.6-1.12-1.24-1.63-1.9-.58,.25-1.21,.37-1.85,.36-2.61,.01-4.73-2.09-4.74-4.7,0-1.27,.5-2.48,1.4-3.38,.39-.4,.85-.74,1.36-.99,.62-.28,1.3-.42,1.99-.41,1.73,.02,3.32,.97,4.16,2.49,.05,.06,.09,.12,.13,.18l3.25,5.46c-.33-3.83-1.4-7.55-3.16-10.97-1.17-2.71-3.31-4.88-6-6.09,2.47-9.1,10.76-15.39,20.18-15.31,5.52-.08,10.83,2.11,14.68,6.05,1.31,1.31,2.45,2.78,3.39,4.38,1.01-5.63-1.01-11.38-5.33-15.13-2.17-1.78-4.67-3.1-7.36-3.88-3.36-1.13-6.01-3.75-7.18-7.09-1.28-3.44-3.52-6.43-6.46-8.63-3.45-2.25-7.66-3.05-11.69-2.21-5.03,.75-9.77,2.82-13.73,6.01Z"/>
  </g>
  <g id="Layer0_50_FILL" data-name="Layer0 50 FILL">
    <path class="cls-2" d="M250.61,232.19l-2.39-13.6c-4.65,2.52-10.12,3.08-15.18,1.54v14.5c5.91,2.05,12.44,1.14,17.57-2.44Zm11.65-48.96c-.96-1.73-2.16-3.31-3.56-4.7-.93-.93-1.94-1.78-3.03-2.53l-26.51,6.41,1.26,19.15-7.09-6.41,1.17,7.09c1.27,2.15,2.85,4.1,4.7,5.78,1.16,1.16,2.45,2.19,3.84,3.07,3.3,2.03,7.1,3.08,10.98,3.03,1.13,0,2.27-.07,3.39-.22,10.01-1.72,17.35-10.38,17.39-20.54,.05-3.54-.82-7.02-2.54-10.12h0Z"/>
    <path class="cls-7" d="M247.4,213.9c-1.12,.15-2.25,.23-3.39,.22-3.87,.05-7.68-.99-10.98-3.03v9.03c5.06,1.54,10.53,.99,15.18-1.54l-.81-4.7Z"/>
    <path class="cls-22" d="M208.93,149.19l.58,9.88,11.43,41.24,3.57,1.94-1.17-7.09,7.09,6.41-1.26-19.15,26.51-6.41c1.08,.75,2.1,1.6,3.03,2.53,1.4,1.39,2.6,2.97,3.56,4.7l-6.23-38.03-4.47-9.21-1.26,9.58-6.32-9.49-2.21,9.49-9.17-7.27-2.39,11.06-9.4-8.26-3.52,11.47-8.35-3.39Z"/>
  </g>
  <g id="Layer0_53_FILL" data-name="Layer0 53 FILL">
    <path class="cls-16" d="M341.97,310.92l3.75,5.91,26.46,5.42,13.28-42.54-2.35-7.86-19.64,32.86-21.51,6.21h0Zm137.52,7.17l5.78-6.5-12.51-71.49,8.71-84.23-31.6,138.02,10.61-7.33,5.65,35.55,13.37-4.02Z"/>
    <path class="cls-7" d="M325.85,265.34c2.51-.54,4.2-.93,5.06-1.17l2.39,11.43,5.51-2.98-2.8-9.98c1.21-.56,2.39-1.19,3.52-1.89l-2.17-19.38-6.59-3.03,.9,21.64-9.35,2.66,3.52,2.71h0Zm-4.02-34.68v9.26l5.83-1.04c-.62-3.1-1.12-5.55-1.49-7.36l-3.84-1.36-.5,.5h0Zm93.76-128.17l3.52,2.3,17.74-4.65-1.81-5.01-19.46,7.36Z"/>
    <path class="cls-2" d="M330.77,238.34l-3.12,.54-5.83,1.04-2.07,.36v27l6.99,11.92,6.55-3.61-2.39-11.43c-.87,.25-2.55,.64-5.06,1.17l-3.52-2.71,9.35-2.66-.9-21.64h0Zm59.21-16.85l3.3,7.14,31.17-10.43-3.3-12.28-31.17,15.58h0Zm45.07-126.36l-2.89-8.22-20.82,8.63,2.85,6-3.21-2.07-1.76,3.97,11.25,11.43,14.63,3.84,8.54-7.9-4.7-4.88-2.08-5.78-17.74,4.65-3.52-2.3,19.46-7.36Z"/>
    <path class="cls-20" d="M479.5,318.09l-13.37,4.02-23.08,6.91-40.28,.5-8.31,74.16h97.82l-12.77-85.59Z"/>
    <path class="cls-8" d="M451.58,108.4l-7.95,2.39-8.54,7.9-3.75,3.48,16.76,46.06-11.65,30.04-15.31,7.63,3.3,12.28-31.17,10.43-3.3-7.14-15.94,7.99-15.94,52.25-12.96-12.6-6.32,3.48-5.51,2.98-6.55,3.61-3.07,2.98,18.29,28.73,27.19,6.41,13.95-45.48,2.35,7.86,14.72,49.86,2.57-.04,40.28-.5,23.08-6.91v-61.87l-11.65,24.38,27-128.76-29.9-47.47Z"/>
  </g>
  <g id="Layer0_85_FILL" data-name="Layer0 85 FILL">
    <path class="cls-20" d="M645.2,133.6c.58-.98,1.23-1.91,1.94-2.8-2.65,.03-5.31,.1-7.99,.22-14.27,.66-23.71,6.87-28.32,18.61l30.31-4.25c.57-4.16,1.95-8.16,4.06-11.79Z"/>
  </g>
  <path class="cls-1" d="M117.15,196.01c-.81-2.52-2.26-3.5-4.16-3.19-1.85,.29-3.09,1.78-3.46,4.66-.07,.49,.28,.95,.77,1.01,.49,.06,.94-.29,1.01-.78,.23-1.83,.79-2.92,1.96-3.11h0c1.05-.17,1.7,.56,2.16,1.96,.15,.48,.65,.75,1.13,.6,.48-.15,.75-.65,.6-1.13h0v-.03s0,0,0,0Zm9.42,.39c.1-.55,.29-1.07,.57-1.56,.17-.26,.37-.41,.63-.34h.06c.3,.08,.54,.28,.67,.56,.32,.64,.52,1.35,.58,2.06,.08,.49,.55,.83,1.04,.74,.47-.08,.8-.5,.75-.98-.34-2.61-1.38-3.91-2.7-4.16-1.46-.35-2.76,.57-3.37,3.26-.11,.48,.19,.96,.67,1.08,0,0,0,0,0,0h0c.49,.11,.97-.19,1.08-.68ZM44.84,125.15l-2.03,3.81c-.07,.12-.11,.26-.11,.39l-.2,6.71c-.01,.5,.38,.91,.87,.93,.49,.01,.9-.36,.93-.85v-.03l.2-6.5,4.21-7.92h0s0-.02,0-.02h0s0-.03,0-.03h0s0-.02,0-.02h0s0-.02,0-.02v-.02s.01,0,.01,0h0s0-.02,0-.02v-.03c.03-.06,.04-.13,.05-.19v-.17h0v-.08s-.02-.05-.02-.05v-.03s-.01-.02-.01-.02v-.02s-.01,0-.01,0h0s0-.03,0-.03h0s0-.03,0-.03v-.02s-.01-.01-.01-.01h0s0-.03,0-.03h0s-.02-.04-.02-.04l-.03-.04-.03-.03h0s-.02-.03-.02-.03h0s-.02-.03-.02-.03l-.03-.03-.03-.03-.03-.03-.04-.03-5.87-4.41,.7-2.98,3.92,.34c.5,.04,.93-.33,.98-.83,.04-.49-.32-.93-.82-.97h0l-4.7-.41c-.45-.04-.86,.25-.96,.69l-1.01,4.31c-.08,.35,.05,.72,.34,.94l5.45,4.09-14.01,12.16c-.38,.32-.43,.89-.11,1.27s.89,.43,1.27,.11h0l.02-.02,11.19-9.71Zm111.42,1.14l-5.1-8.92,.75-5.47,5.68-4.9c.38-.33,.42-.9,.09-1.27s-.9-.42-1.27-.09l-5.94,5.12c-.17,.15-.28,.34-.31,.56l-.83,6.12c-.03,.2,.01,.4,.11,.57l5.27,9.19c.25,.43,.8,.58,1.23,.33s.58-.8,.33-1.23h0Z"/>
  <g id="Layer0_90_FILL" data-name="Layer0 90 FILL">
    <path class="cls-4" d="M619.54,283.63v-25.65l-29.04,33.82-9.71-26.2-2.3,3.48-2.57,28.77,2.94-3.61,9.21,27.68,31.48-38.3Zm90.37-10.97l-13.63-21.58-17.43,29.58-22.9-26.15,1.08,24.97,24.71,28.36,18.93-27.69,10.16,11.88-.9-19.38Z"/>
  </g>
  <path class="cls-13" d="M538.59,162.38l-6.96-10.09c-.15-.22-.4-.36-.66-.39-.27-.02-.53,.07-.72,.26l-2.94,2.94c-.25,.25-.33,.63-.21,.96l2.23,5.82-5.93,15.25c-.08,.2-.08,.43,0,.63l2.17,6.05c.17,.47,.68,.72,1.15,.55,.47-.17,.72-.68,.55-1.15h0l-2.06-5.74,5.93-15.27c.08-.21,.08-.44,0-.65l-2.14-5.59,1.76-1.75,6.34,9.2c.28,.41,.85,.52,1.26,.23,.41-.28,.52-.85,.23-1.26h0Zm199.66-86.56l2.44,11.55c.1,.49,.58,.8,1.07,.7,.49-.1,.8-.58,.7-1.07l-2.14-10.14,9.7,2.49c.49,.12,.97-.19,1.09-.67,.11-.47-.17-.95-.64-1.08l-10.59-2.71-3.55-14.2c-.11-.48-.6-.78-1.08-.67-.48,.11-.78,.59-.67,1.07v.04s3.68,14.71,3.68,14.71Z"/>
  <path class="cls-15" d="M292.28,119.66h0s0,.03,0,.03v.03h0v.03h0v.04s.02,.04,.02,.04l.02,.04v.04s.03,.04,.03,.04l.02,.04,4.45,7.7c.25,.43,.8,.58,1.23,.33s.58-.8,.33-1.23l-3.21-5.56,9.3,3.34c.47,.18,.99-.05,1.17-.52,.18-.47-.05-.99-.52-1.17h-.04s-11.12-4.01-11.12-4.01l-1.3-9.23c-.09-.49-.56-.82-1.05-.73-.47,.08-.79,.51-.74,.98l1.38,9.78Zm136.99-12.06l-9.75-3.62-5.83-3.83c-.42-.27-.98-.14-1.25,.29-.26,.41-.15,.95,.25,1.23l5.91,3.88c.06,.04,.12,.07,.18,.1l9.85,3.66c.47,.18,.99-.05,1.17-.52,.18-.47-.05-.99-.52-1.17,0,0-.02,0-.03-.01h0Z"/>
  <g id="Layer0_105_FILL" data-name="Layer0 105 FILL">
    <path class="cls-19" d="M244.29,192.21c-.18-1.11-1.23-1.86-2.34-1.67s-1.86,1.23-1.67,2.34v.05c.21,1.11,1.28,1.84,2.38,1.64,.52-.1,.99-.39,1.29-.82,.32-.44,.44-1,.33-1.53Z"/>
  </g>
  <g id="Layer0_106_FILL" data-name="Layer0 106 FILL">
    <path class="cls-19" d="M259.29,190.36c-.09-.53-.39-1.01-.83-1.32-.92-.64-2.19-.4-2.82,.52-.64,.92-.4,2.19,.52,2.82,.91,.63,2.16,.41,2.81-.5,.31-.44,.43-1,.33-1.53Z"/>
  </g>
  <g id="Layer0_107_FILL" data-name="Layer0 107 FILL">
    <path class="cls-17" d="M398.74,254.1c.69,2.52,1.91,4.86,3.57,6.87,1.67,2.06,3.5,3.99,5.47,5.78,1.99,2.43,3.34,5.32,3.93,8.4,.34,2.5,.07,5.03-.77,7.41-.09,.27-.81,1.99-2.17,5.15-.78,1.64-1.22,3.42-1.31,5.24,.07,2.31,1.03,4.51,2.67,6.14,1.59,1.72,3.57,3.02,5.78,3.79,2.88,1.08,5.98,1.42,9.03,.99,3.03-.37,5.89-1.57,8.27-3.48,2.39-1.93,4.12-4.55,4.97-7.5,.94-2.9,.82-6.04-.36-8.85-.51-1.27-1.13-2.49-1.85-3.66-.68-1.16-1.3-2.35-1.85-3.57-.94-2.74-1.07-5.69-.36-8.49,.77-2.95,1.8-5.82,3.07-8.58,1.32-2.8,2.46-5.68,3.43-8.62,.96-2.82,1.21-5.83,.72-8.76-.58-3.02-2.13-5.77-4.43-7.81-2.27-2.13-5.06-3.64-8.08-4.38-2.98-.66-6.08-.69-9.07-.09-3.03,.61-5.96,1.68-8.67,3.16-3.9,2.05-7.21,5.09-9.58,8.81-2.45,3.51-3.32,7.88-2.39,12.06h0Zm19.2-5.6c1.63-.02,3.2,.63,4.34,1.81,1.16,1.13,1.79,2.68,1.76,4.29,.04,3.32-2.62,6.05-5.94,6.09h-.16c-1.61,.03-3.17-.6-4.29-1.76-1.18-1.13-1.83-2.7-1.81-4.33,.04-3.35,2.75-6.06,6.1-6.1Z"/>
  </g>
  <g id="Layer0_108_FILL" data-name="Layer0 108 FILL">
    <path class="cls-19" d="M370.79,187.68c-.13-.46-.44-.86-.86-1.1-.4-.24-.88-.28-1.31-.1-.45,.08-.83,.36-1.06,.76-.27,.42-.34,.93-.21,1.41,.32,.86,1.22,1.35,2.12,1.16,.46-.12,.85-.41,1.11-.81,.24-.4,.31-.87,.21-1.32h0Zm12.75-2.67c-.11-.48-.43-.88-.86-1.11-.39-.24-.87-.29-1.31-.15-.45,.09-.83,.36-1.06,.76-.26,.42-.34,.94-.2,1.41,.28,.89,1.2,1.42,2.12,1.21,.47-.13,.86-.43,1.11-.85,.27-.36,.34-.84,.2-1.27h0Z"/>
  </g>
  <g id="Layer0_109_FILL" data-name="Layer0 109 FILL">
    <path class="cls-19" d="M630.47,155.14c-.06-.6-.36-1.15-.83-1.54-.44-.37-1.03-.52-1.59-.39-.56,.01-1.1,.27-1.45,.71-.41,.46-.61,1.08-.54,1.69,.21,1.12,1.22,1.92,2.36,1.86,.58-.06,1.13-.33,1.52-.76,.37-.44,.55-1,.52-1.57h0Zm16.2-.67c-.04-.61-.34-1.17-.83-1.54-.44-.37-1.01-.54-1.58-.46-.57,.02-1.1,.28-1.45,.72-.42,.46-.61,1.08-.54,1.69,.17,1.15,1.19,1.98,2.35,1.92,.6-.07,1.15-.36,1.54-.83,.4-.39,.59-.95,.51-1.5h0Z"/>
  </g>
</svg>