<?xml version="1.0" encoding="UTF-8"?>
<svg id="Capa_1" data-name="Capa 1" xmlns="http://www.w3.org/2000/svg" viewBox="0 0 800 300">
  <defs>
    <style>
      .cls-1 {
        fill: #fff;
      }

      .cls-2 {
        fill: #0561fc;
      }

      .cls-3 {
        fill: #eaf4fe;
      }

      .cls-4 {
        stroke: #7eb3ff;
        stroke-width: .48px;
      }

      .cls-4, .cls-5, .cls-6 {
        fill: none;
        stroke-miterlimit: 10;
      }

      .cls-7 {
        fill: #d4edff;
      }

      .cls-8 {
        fill: #c5e1f9;
      }

      .cls-9 {
        fill: #f7b68b;
      }

      .cls-10 {
        fill: #dd000b;
      }

      .cls-11 {
        fill: #163f59;
      }

      .cls-12 {
        fill: #194866;
      }

      .cls-13 {
        fill: #d1dbea;
      }

      .cls-14 {
        fill: #ec9568;
      }

      .cls-15 {
        fill: #0063cb;
      }

      .cls-16 {
        fill: #0450cf;
      }

      .cls-17 {
        fill: #acd4f8;
      }

      .cls-18 {
        fill: #003e99;
      }

      .cls-5 {
        stroke-width: .47px;
      }

      .cls-5, .cls-6 {
        stroke: #fff;
      }

      .cls-19 {
        fill: #b0bfde;
      }

      .cls-20 {
        fill: #3b47bc;
      }

      .cls-21 {
        fill: #fd2227;
      }

      .cls-22 {
        fill: #161711;
      }

      .cls-23 {
        fill: #212957;
      }

      .cls-24 {
        fill: #8dcfff;
      }

      .cls-25 {
        fill: #e9f6ff;
      }

      .cls-6 {
        stroke-width: .51px;
      }
    </style>
  </defs>
  <path class="cls-8" d="M389.4,204.73c-12.56-8.57-2.26-11.31,9.86-11.01-5.6-6.13-1.7-11.82,13.07-18,6.63-2.77,14.46-.97,22.05,2.93,6.54-11.69,15.01-19.61,24.15-15.05,7.56,3.77,13.07,8.27,16.43,13.01,2.44-.93,5.06-1.8,7.86-2.6,6.09-1.74,10.46-.22,13.51,3.22,12.09-6.82,24.2-10.73,30.98-5.74,11.79,8.69,13.07,15.91,4.79,22.87,12.08,.64,21.01,4.81,4.76,14.15,14.45-1.31,24.63,.4,18.1,9.11-14.59,19.39-79.21,21.5-126.92,11.63-30.3-2.22-55.32-8.38-59.73-18.45-3.25-7.41,7.4-8.09,21.12-6.08h-.02Z"/>
  <path class="cls-7" d="M245.62,241c-2.66-5.41,.6-10.26,13.11-13.31,13.66-3.34,26.72-2.06,37.48,.85-25.41-15.62-55.05-37.81-28.1-41.73,8.41-1.22,21.36,3.75,35.79,11.79-16.12-17.09-25.01-31.34-15.31-34.49,9.01-2.93,27.48,10.74,47.16,29.09-11.23-15.61-17.76-29.38-12.78-36.24,4.07-5.6,12.83,.23,22.92,11.29-.49-10.1,2.6-16.35,9.72-15.44,6.7,.85,12.17,12.33,16.11,26.21,6.32-22.08,23.23-36.16,40.37-30.31,20.14,6.88,4.22,59.85-4.66,85.09l-161.8,7.19h0Z"/>
  <path class="cls-17" d="M579.94,200.57c-13.39,5.91-22.22,17.9-24.77,31.38,11.68,7.19,26.49,8.73,39.88,2.81,13.39-5.91,22.22-17.9,24.77-31.38-11.68-7.19-26.49-8.73-39.88-2.81h0Z"/>
  <path class="cls-5" d="M614.64,205.43l-57.1,25.23m45.35-19.96l9.58,4.52m-19.32-.22l11.81,5.57m-21.54-1.27l19.74,9.32m-29.47-5.02l19.2,9.06m-28.94-4.77l10.69,5.05m29.35-22.94l3.11-10.13m-12.84,14.43l4.84-15.79m-14.58,20.09l6.06-19.77m-15.8,24.07l6.23-20.3m-15.96,24.6l5.35-17.44"/>
  <path class="cls-17" d="M536.71,196.53c-9.16,13.32-10.52,29.72-5.11,43.87,15.16-.02,29.98-7.15,39.14-20.47s10.52-29.72,5.11-43.87c-15.16,.02-29.98,7.15-39.14,20.47h0Z"/>
  <g>
    <path class="cls-6" d="M572.16,180.99l-39.08,56.82m31.08-45.06l11.63-1.3m-18.3,10.99l14.34-1.6m-21,11.29l23.97-2.68m-30.63,12.37l23.31-2.61m-29.98,12.29l12.98-1.45m14.3-38.59l-2.95-11.33m-3.71,21.01l-4.6-17.66m-2.06,27.35l-5.75-22.11m-.91,31.79l-5.91-22.71m-.75,32.4l-5.07-19.5"/>
    <path class="cls-25" d="M564.21,233.15c-36.12-.29-148.03-1.59-215.95-5.49-125.94-7.24-228.81,4.86-161.25,18.61,18.88,3.84-35.6,26.93,97.71,32.09,117.02,4.53,236.33-5.32,294.06-9.54,57.74-4.23,84.39-11.7,96.76-15.07,10.88-2.96,14.91-19.58-111.34-20.6h0Z"/>
  </g>
  <path class="cls-7" d="M486.16,196.49c-5.25-46.27,19.51-76.6,19.77-76.9l.68,.57c-.24,.3-24.78,30.36-19.57,76.23l-.88,.1h0Z"/>
  <path class="cls-7" d="M505.43,120.73s.24-2.85,2.14-4.94c.68-.76,2.43-1.56,3.14-.92s.41,2.12-.58,3.22c-1.89,2.09-4.69,2.64-4.69,2.64h0Z"/>
  <path class="cls-7" d="M502.8,124.85s1.67-1.93,4.16-2.53c.9-.22,2.62,.05,2.81,.84,.2,.8-.8,1.72-2.11,2.04-2.49,.6-4.85-.35-4.85-.35h0Z"/>
  <path class="cls-7" d="M498.94,132.22s1.64-1.68,3.8-1.84c.78-.06,2.19,.53,2.25,1.39,.06,.85-.89,1.62-2.02,1.71-2.17,.16-4.03-1.26-4.03-1.26h0Z"/>
  <path class="cls-7" d="M503.2,124.75s-2.16-.89-3.1-2.84c-.34-.7-.31-2.22,.45-2.59,.77-.37,1.83,.22,2.32,1.24,.94,1.94,.32,4.18,.32,4.18h0Z"/>
  <path class="cls-7" d="M486.16,173.88s-2.39-.13-4.18-1.64c-.66-.55-1.36-1.99-.85-2.6,.51-.61,1.75-.4,2.7,.4,1.8,1.52,2.33,3.84,2.33,3.84h0Z"/>
  <path class="cls-7" d="M498.49,131.95s-2.38-1.22-3.53-3.59c-.42-.86-.5-2.66,.3-3.04s1.97,.39,2.58,1.64c1.15,2.37,.65,4.99,.65,4.99h0Z"/>
  <path class="cls-7" d="M494.46,139.84s-2.52-.85-3.53-2.92c-.36-.75-.23-2.42,.7-2.88,.94-.46,2.17,.13,2.7,1.22,1.01,2.07,.12,4.58,.12,4.58h0Z"/>
  <path class="cls-7" d="M495.12,139.97s1.45-2.18,3.75-2.73c.83-.2,2.46,.24,2.69,1.2,.23,.96-.64,1.99-1.86,2.28-2.3,.55-4.58-.75-4.58-.75h0Z"/>
  <path class="cls-7" d="M486.38,174.25s.41-2.18,2.38-3.81c.72-.58,2.48-1.22,3.14-.73,.66,.47,.28,1.61-.76,2.47-1.97,1.62-4.76,2.08-4.76,2.08h0Z"/>
  <path class="cls-7" d="M489.22,156.16s1.3-1.13,3.55-1.22c.81-.03,2.46,.4,2.74,.98,.29,.58-.51,1.1-1.7,1.15-2.24,.08-4.59-.91-4.59-.91h0Z"/>
  <path class="cls-7" d="M491.21,148.38s-1.43-.75-2.14-2.63c-.26-.68-.32-2.2,.14-2.63,.47-.43,1.19,.09,1.56,1.08,.71,1.88,.44,4.17,.44,4.17h0Z"/>
  <path class="cls-7" d="M487.56,165.65s.66-2.69,2.14-4.13c.54-.51,1.71-.71,2.02,.14,.3,.85-.13,2.2-.92,2.95-1.49,1.42-3.24,1.04-3.24,1.04h0Z"/>
  <path class="cls-7" d="M489.33,156.53s-3.03-1.18-4.7-3.19c-.61-.73-.91-2.2,0-2.45,.92-.25,2.43,.47,3.32,1.54,1.68,2.02,1.38,4.11,1.38,4.11h0Z"/>
  <path class="cls-7" d="M487.14,165.96s-2.86-1.12-4.31-3c-.53-.68-.67-2.04,.26-2.26s2.36,.47,3.11,1.45c1.45,1.88,.93,3.81,.93,3.81h0Z"/>
  <path class="cls-7" d="M526.49,138.16s-2.39-.13-4.19-1.64c-.65-.55-1.36-1.99-.85-2.6,.51-.61,1.75-.4,2.7,.4,1.8,1.52,2.33,3.84,2.33,3.84h0Z"/>
  <path class="cls-7" d="M486.24,190.26s.41-2.18,2.39-3.8c.71-.59,2.47-1.22,3.14-.74,.66,.47,.28,1.61-.76,2.47-1.98,1.63-4.76,2.08-4.76,2.08h0Z"/>
  <path class="cls-7" d="M485.87,182.32s.52-1.64,2.42-2.87c.69-.44,2.32-.91,2.88-.55,.56,.36,.14,1.22-.86,1.87-1.89,1.22-4.43,1.56-4.43,1.56h0Z"/>
  <path class="cls-7" d="M501.37,150.07s1.52-2.09,3.38-2.94c.68-.31,1.84-.21,1.83,.57,0,.77-.87,1.79-1.85,2.24-1.87,.85-3.37,.13-3.37,.13h0Z"/>
  <path class="cls-7" d="M486.1,190.57s-3.15-.79-5.07-2.58c-.7-.65-1.19-2.06-.31-2.43,.88-.36,2.47,.17,3.49,1.11,1.92,1.79,1.89,3.9,1.89,3.9h0Z"/>
  <path class="cls-7" d="M485.78,182.48s-2.87-.73-4.38-2.32c-.55-.58-.77-1.83,.13-2.15s2.33,.17,3.13,1.01c1.52,1.6,1.11,3.46,1.11,3.46h0Z"/>
  <path class="cls-7" d="M491.31,148.99s1.26-1.79,3.81-2.81c.92-.37,2.89-.58,3.34-.04,.45,.54-.36,1.44-1.71,1.98-2.55,1.02-5.45,.88-5.45,.88h0Z"/>
  <path class="cls-24" d="M253.57,181.26s-1.95-1.3-2.57-3.42c-.22-.77,.03-2.28,.84-2.52,.8-.23,1.73,.56,2.05,1.68,.62,2.13-.32,4.27-.32,4.27h0Z"/>
  <path class="cls-24" d="M254.86,184.72s-.32-2.02,.69-3.64c.36-.58,1.51-1.28,2.13-.89,.62,.4,.67,1.45,.14,2.32-1.01,1.62-2.96,2.22-2.96,2.22h0Z"/>
  <path class="cls-24" d="M255.55,188.97s.53-1.98,2.11-3.04c.58-.39,1.9-.56,2.32,.06,.41,.61,.02,1.6-.81,2.17-1.58,1.07-3.61,.82-3.61,.82h0Z"/>
  <path class="cls-24" d="M254.84,184.83s-1.83,.51-3.62-.13c-.66-.23-1.61-1.1-1.41-1.67s1.19-.73,2.14-.4c1.79,.64,2.89,2.19,2.89,2.19h0Z"/>
  <path class="cls-24" d="M255.82,188.92s-1.85,.58-3.64-.07c-.65-.23-1.6-1.12-1.39-1.72s1.22-.8,2.17-.46c1.79,.64,2.87,2.25,2.87,2.25h0Z"/>
  <path class="cls-24" d="M256.13,194.71s-1.5,.7-2.88,.21c-.5-.17-1.18-.97-.96-1.57,.21-.61,1.02-.87,1.75-.61,1.38,.49,2.09,1.98,2.09,1.98h0Z"/>
  <path class="cls-24" d="M256.36,194.68s.28-1.56,1.41-2.61c.41-.38,1.42-.72,1.78-.32,.36,.39,.13,1.19-.47,1.74-1.14,1.05-2.72,1.19-2.72,1.19h0Z"/>
  <path class="cls-24" d="M262.43,217.27c.49,.05,.8-.06,.82-.07l-.13-.36,.07,.18-.06-.18s-.87,.29-1.94-.46c-1.21-.85-2.21-2.6-2.99-5.22-1.06-3.6-1.64-8.73-1.73-15.25-.1-7.58-1.53-11.46-2.47-14.03-.24-.66-.45-1.22-.58-1.72l-.37,.1c.13,.51,.35,1.09,.59,1.75,.93,2.54,2.34,6.39,2.44,13.9,.19,14.53,2.77,19.33,4.91,20.8,.55,.39,1.06,.53,1.45,.56h0Z"/>
  <path class="cls-24" d="M511.46,150.87s-.62-3,.76-5.53c.5-.92,2.13-2.09,3.08-1.57s1.1,2.1,.37,3.44c-1.38,2.54-4.21,3.66-4.21,3.66h0Z"/>
  <path class="cls-24" d="M509.47,155.26s1.56-2.17,3.98-2.75c.88-.21,2.58,.19,2.8,1.13,.23,.94-.7,1.97-1.98,2.28-2.43,.58-4.8-.66-4.8-.66h0Z"/>
  <path class="cls-24" d="M506.22,159.85s2.31-1.35,4.76-.89c.89,.17,2.28,1.22,2.09,2.17s-1.45,1.51-2.74,1.26c-2.45-.46-4.11-2.55-4.11-2.55h0Z"/>
  <path class="cls-24" d="M509.34,155.34s-2.17-1.19-3.25-3.44c-.39-.81-.49-2.5,.22-2.84,.71-.35,1.79,.41,2.36,1.59,1.08,2.24,.67,4.69,.67,4.69h0Z"/>
  <path class="cls-24" d="M506.51,160.05s-2.24-1.16-3.33-3.41c-.4-.81-.46-2.51,.29-2.88,.75-.36,1.87,.37,2.43,1.56,1.08,2.24,.6,4.72,.6,4.72h0Z"/>
  <path class="cls-24" d="M501.49,165.71s-2.04-.73-2.86-2.44c-.3-.62-.21-1.99,.55-2.36,.75-.36,1.75,.13,2.18,1.04,.83,1.71,.13,3.76,.13,3.76h0Z"/>
  <path class="cls-24" d="M501.73,165.89s1.68-1.19,3.71-1.12c.73,.02,1.98,.63,1.95,1.33-.02,.7-.97,1.22-2.04,1.18-2.02-.07-3.61-1.39-3.61-1.39h0Z"/>
  <path class="cls-24" d="M486.65,192.45c.41,.49,.8,.68,.83,.69l.21-.46-.1,.23,.11-.23s-1.07-.52-1.39-2.21c-.35-1.9,.32-4.45,2.01-7.59,2.31-4.32,6.47-9.61,12.38-15.76,6.86-7.14,9.1-12.04,10.57-15.29,.38-.83,.7-1.55,1.04-2.13l-.44-.25c-.35,.6-.68,1.33-1.06,2.17-1.46,3.22-3.67,8.08-10.48,15.15-13.14,13.67-15.15,20.5-14.52,23.82,.17,.87,.51,1.46,.84,1.86h0Z"/>
  <path class="cls-17" d="M215.31,237.49c-1.46-2.24,.36-4.15,7.29-5.17,7.57-1.11,14.79-.36,20.75,1.02-14.03-6.8-30.39-16.34-15.45-17.45,4.65-.34,11.82,1.91,19.78,5.44-8.88-7.23-13.78-13.17-8.39-14.28,4.99-1.03,15.19,4.85,26.03,12.66-6.18-6.54-9.76-12.25-6.99-14.94,2.27-2.2,7.1,.32,12.66,4.99-.24-4.11,1.48-6.59,5.42-6.09,3.71,.47,6.71,5.22,8.85,10.93,3.56-8.85,12.95-14.27,22.43-11.58,11.14,3.15,2.19,24.37-2.79,34.47h-89.59Z"/>
  <path class="cls-17" d="M272.8,228.16l.51-.15c-3.61-12.1-10.12-29.79-20.62-45.31-6.28-9.29-11.1-13.46-11.14-13.5l-.35,.4s4.81,4.17,11.06,13.41c5.77,8.54,14.01,23.29,20.54,45.13h0Z"/>
  <path class="cls-17" d="M275.5,223.47l.53-.04c-2.05-25.2-14.76-46.87-14.88-47.08l-.46,.27c.13,.21,12.78,21.78,14.81,46.85h0Z"/>
  <path class="cls-17" d="M265.99,225.84l.53-.05c-1.03-12.12-6.16-19.78-10.28-24.09-4.47-4.67-8.77-6.5-8.81-6.51l-.21,.49s4.25,1.81,8.65,6.41c4.05,4.24,9.1,11.8,10.12,23.75h0Z"/>
  <path class="cls-17" d="M239.02,166.06c-3.47,2.44-5.48,5.56-4.49,6.96,.99,1.41,4.6,.57,8.07-1.87s5.48-5.56,4.49-6.96-4.6-.56-8.07,1.88h0Z"/>
  <path class="cls-15" d="M240.23,167.79c-1.1,.77-1.74,1.76-1.42,2.21s1.46,.18,2.56-.59,1.74-1.76,1.42-2.21-1.46-.18-2.56,.59h0Z"/>
  <path class="cls-17" d="M259.93,175.08c-1.45,1.02-2.28,2.32-1.87,2.9s1.91,.24,3.36-.78c1.45-1.02,2.28-2.32,1.87-2.9s-1.92-.24-3.36,.78h0Z"/>
  <path class="cls-15" d="M260.43,175.8c-.46,.32-.73,.73-.59,.92,.13,.18,.61,.07,1.07-.24,.46-.32,.73-.73,.59-.92-.13-.18-.61-.07-1.07,.24h0Z"/>
  <path class="cls-17" d="M246.04,194.37c-1.45,1.75-2.06,3.65-1.35,4.24,.71,.59,2.47-.36,3.92-2.1,1.45-1.75,2.06-3.65,1.35-4.24-.71-.59-2.47,.36-3.92,2.1h0Z"/>
  <path class="cls-15" d="M246.91,195.1c-.46,.55-.66,1.16-.43,1.34,.22,.19,.78-.11,1.24-.66,.46-.56,.66-1.16,.43-1.35-.23-.19-.78,.11-1.25,.67h0Z"/>
  <path class="cls-1" d="M254.98,223.03c-.47-.07-.81-.52-.73-1,.07-.48,.52-.81,1-.73,.47,.07,.81,.52,.73,1-.07,.47-.51,.81-1,.73h0Zm1.99-.6c-.06-.05-.12-.09-.18-.13,.03,0,.06-.02,.09-.03,.83-.32,1.37-.94,1.2-1.38-.17-.43-.99-.52-1.82-.2-.07,.03-.14,.06-.21,.09,0-.03,.02-.06,.02-.1,.13-.89-.13-1.65-.59-1.73-.46-.07-.94,.59-1.07,1.48,0,.08-.02,.15-.02,.22-.02-.02-.05-.04-.08-.06-.7-.56-1.5-.72-1.79-.35-.29,.36,.04,1.11,.73,1.67,.06,.05,.12,.09,.18,.13-.03,.02-.06,.02-.09,.04-.83,.32-1.37,.94-1.2,1.38,.17,.43,.98,.52,1.82,.2,.07-.02,.14-.06,.21-.09,0,.03-.02,.06-.02,.1-.13,.89,.13,1.65,.59,1.73,.46,.07,.95-.59,1.07-1.48,.02-.08,.02-.15,.02-.22,.02,.02,.06,.05,.08,.06,.7,.56,1.5,.71,1.79,.35,.29-.36-.04-1.11-.73-1.67h0Z"/>
  <path class="cls-8" d="M479.58,245.38l-1.54,8.31h23.56s.15-2.62-2.62-3.39c-2.77-.77-10.31-3.08-12.31-5.54-2-2.47-7.08,.62-7.08,.62h0Z"/>
  <path class="cls-23" d="M478.88,244s-3.7-29.56-2.16-36.96c1.54-7.39,1.85-12,1.23-15.7s-5.74-49.86-5.74-49.86l15.9-16.64h4s.62,38.18-2.47,61.27c-3.08,23.09-4.31,58.82-4.31,58.82l-6.46-.92h0Z"/>
  <path class="cls-20" d="M468.41,123.91s-10.36,8.39-13.13,20.1c-2.77,11.7-8.12,44.87-8.73,47.03s-5.23,15.7-6.46,19.09c-1.23,3.39-6.46,33.87-6.46,33.87h6.16s12.62-30.79,14.78-37.87,5.05-13.83,5.05-13.83c0,0,20.2-41.59,24.2-52.06,4-10.47,4.32-15.4,4.32-15.4l-19.71-.92h0v-.02Z"/>
  <path class="cls-8" d="M439.85,245s-.31,3-.31,3.93,2,3.54,2.16,4.31l.15,.77h-15.09s-.31-1.54,2.16-3.54c2.47-2,3.23-3.39,3.54-5.93s7.39,.47,7.39,.47h0Z"/>
  <path class="cls-4" d="M469.1,127.22s-2.85,2.85-6.16,9.63c-2.03,4.16-4.24,9.79-6.08,17.16-6.34,25.35-5.18,33.96-5.18,33.96,0,0-10.05,22.16-13.75,36.71l-3.69,14.55m39.49-109.7s-4.62,9.01-9.7,9.24"/>
  <path class="cls-23" d="M489.91,82.99s-9.56-8.59-2.19-22.22c4.09-7.56,1.94-28.21-11.29-21.8-13.24,6.41-9.66-1.58-17.13,1.98-7.48,3.56-10.79,8.92-9.78,14.77s.36,16.99-4.24,19.13-26.62,14.13-12.43,29.27c14.19,15.14,65.81,4.02,57.06-21.14h0Z"/>
  <path class="cls-10" d="M482.21,83.29s8.28,26.51,7.84,30c-.45,3.49-3.11,14.25-6.33,12.48s-7.76-11.82-9.14-19.83c-1.38-8.01-15.33-34.27,7.63-22.65h0Z"/>
  <path class="cls-21" d="M473.84,80.31c-1.08,0-13.78-1.35-13.78-1.35l-8.65,3.79s-4.32-.27-3.24,6.76,12.43,34.32,14.6,35.67c2.17,1.35,14.55,6.17,22.43,7.29,5.04,.72,7.21-1.44,7.21-1.44,0,0-.45-24.5,.09-25.58s.81-7.57-5.41-12.43c-4.28-3.35-13.25-12.7-13.25-12.7h0Z"/>
  <path class="cls-10" d="M454.92,85.99s18.11,24.33,18.37,27.83c.27,3.52-2.97,13.78-6.49,12.7-3.51-1.08-10-10-12.97-17.57-2.97-7.57-13.25-32.16,1.08-22.97h0Z"/>
  <polygon class="cls-9" points="459.78 61.4 461.4 78.97 472.76 80.31 470.06 69.23 459.78 61.4 459.78 61.4"/>
  <path class="cls-14" d="M471.56,75.08c-.3-.12-.62-.26-.97-.43-3.57-1.79-7.49-4.4-10.14-6.83l-.67-7.77,10.27,8.4,1.51,6.63h0Z"/>
  <path class="cls-9" d="M480.32,51.39s.81,8.92-1.62,14.05c-2.43,5.14-2.17,9.19-7.57,6.49s-11.63-7.29-12.97-10.27c-1.35-2.97,.81-7.03,4.32-5.14,3.52,1.89,3.25-.81,6.76-.27,3.51,.54,10,0,11.08-4.87h0Z"/>
  <path class="cls-9" d="M491.33,114.29c.21-.02,.41-.06,.61-.1v-1.61c0-2.02-.8-3.87-2.09-5.25-.15,.23-.28,.42-.4,.54-1.11,1.11-1.48,2.54-6.65,4.21-7.86,2.54-17.76,2.88-19.09,9.3-1.33,6.43,8.04,7.03,8.04,7.03l15.15-12.35s1.77-1.44,4.43-1.77h.02Z"/>
  <path class="cls-3" d="M516.82,97.7l-5.99,6.46,6.33,7.52,.27-.73s-1.62-5.26-.97-8.04c.65-2.77,.37-5.23,.37-5.23h0Z"/>
  <path class="cls-8" d="M503.22,96.96s5.7,4.38,7.54,6.51c1.83,2.13,6.14,6.93,6.31,7.26,0,0-2.71-7.44-.24-13.02,.04-.09,1.46-.13,1.46-.13,0,0-1.49,3.95-1.43,6.61s.46,5.97,1.46,8.4c.19,.46-2.35,.36-2.35,.36l-14.72-14.45,.53-1.06,1.45-.48h0Z"/>
  <path class="cls-2" d="M489.68,113.32l12.09-15.88s6.02,4.21,9.6,8.24c3.58,4.03,5.37,7.04,5.37,7.04l-14.34,11.65s-10.48-10.71-12.72-11.06h0Z"/>
  <path class="cls-9" d="M485.07,103.81l5.55-1.36,6.33,1.06,3.1,1.76s1.06,.52,.28,1.14c-.77,.61-1.36,.92-1.83,.7-.47-.21-1.61-.55-1.61-.55,0,0,1.32,.58,1.6,1.1,.28,.51,.53,.58-.09,.97s-1.53,.67-1.79,.61c-.25-.06-5.38-.02-5.38-.02,0,0-.14,.84,.29,.74,.43-.09,4.62-.14,4.62-.14,0,0,.91-.27,1.34,.03,.43,.3,.13,.96,.04,1.31-.09,.35-.65,.95-.65,.95,0,0,.23,.38,.26,.68,.04,.3-.09,.97-.84,1.26s-2.96,.99-2.96,.99l-2.7,.66s-1.94,1.45-2.95,1.84c-1.02,.4-3.68,.96-3.68,.96l-1.71,1.21s-3.43-.62-3.45-.85c0-.23-1.6-4.13-1.06-4.96s2.92-1.52,2.92-1.52c0,0,3.75-5.03,4.41-8.55h-.02Z"/>
  <path class="cls-16" d="M518.32,112.58s-.76,.55-1.58,.14c-.19-.09-14.34,11.65-14.34,11.65,0,0,.2,.62,1,.39,.81-.23,14.92-12.18,14.92-12.18h0Z"/>
  <path class="cls-9" d="M505.51,115s1.34,.26,2.12,1.05c.77,.79,1.07,1.15,1.07,1.15l2.56,1.19,1.24-1.03,.02,2.25s-.15,1.22-.66,1.5c-.51,.28-1.45,.48-1.45,.48,0,0-.19,.92-.83,1.49s-1.05,.72-1.05,.72l-.6,.85-1.34,.36-.56,.37-2.61,.31s-2.13-2.29-2.27-3.25c-.13-.96,0-2.1,.27-2.32s-.04-1.31,.02-1.56c.06-.25-.28-.91,.15-1.03,.42-.13,1-.15,1.19,.17,.2,.32-.4-1.02-.4-1.02,0,0,.02-.94,.47-1,.44-.06,1.48,.79,1.48,.79,0,0,.28,.21,.41,.47,.13,.26-.07-.67-.02-1.08,.04-.4,.21-.86,.8-.85h0Z"/>
  <path class="cls-11" d="M346.67,27.12c12.58-4.92,13.66,1.39,16.84,8.97,3.18,7.58,5,24.82-1.63,31.34-6.63,6.52-6.59,17.24-11.63,11.78-5.86-6.36-8.31-.13-13.38-2.37-8.94-3.94-9.74-13-4.07-20.9s4.87-9.56,3.93-15.04,6-12.24,9.93-13.78h0Z"/>
  <path class="cls-11" d="M343.03,29.04c.92-.8,11-6.29,17.66-3.56,6.67,2.73,10.38,9.06,10.12,16.23-.27,7.18-2.88,9.3,3.93,14.96,8.32,6.92,13.7,11.88,11.67,16.67-3.93,9.26-19.5,13.62-21.67,8.99-2.69-5.76,5.73-20.75-2.49-22.22-6.09-1.09-8.21-2.05-9.41-9.52-1.19-7.48,5.44-12.34,.55-12.19-5.77,.17-18.38-2.39-10.36-9.35h0Z"/>
  <path class="cls-13" d="M362.76,58.99s-15.63,.43-16-.36c-.36-.77-1.98-2.54,.13-3.74,2.11-1.2,6.51-1.69,9.03-1.62,2.51,.07,8.56,.23,8.56,1,0,2.65-1.01,4.23-1.73,4.72h0Z"/>
  <path class="cls-9" d="M368.58,57.92s-5.37,10.46-11.67,11.9c-6.31,1.45-15.06,.09-15.96-2.43s1.3-7.48,2.75-8.75c1.45-1.26,6.13-2.52,7.4-4.87,1.03-1.91,.72-5.41,0-8.12-.72-2.7-2.88-2.88-.72-4.15s1.26-2.52,3.43-2.17c2.17,.36,3.43-.45,3.43,1.62,0,3.79-.31,9.1,1.8,11.54,2.35,2.7,5.77,2.17,9.55,5.41h-.02Z"/>
  <path class="cls-14" d="M351.09,45.65c-.72-2.7-2.88-2.88-.72-4.15s1.26-2.52,3.43-2.17c.4,.07,.78,.09,1.12,.1,.32,.28,.65,.55,1,.81,.43,.32,.87,.61,1.3,.88,0,1.57-.05,3.38,.05,5.14-.99,1.78-2.93,2.99-5.18,2.99-.13,0-.26,0-.39-.02-.09-1.22-.31-2.48-.61-3.6h0Z"/>
  <path class="cls-9" d="M366.16,229.42l.13,15.55s-5.55,6.77-7.57,7.85c-2.03,1.08-1.75,.13-1.62-.4,.13-.54,3.52-4.47,4.05-6.62,.54-2.17-.68-15.42-.54-16.1,.13-.68,5.55-.27,5.55-.27h0Z"/>
  <path class="cls-12" d="M367.69,121.76l-3.79,59.69s2.97,13.63,3.36,18.22c.66,7.86-.1,31.56-.1,31.56l-7.93,.36s-5.59-53.56-6.31-58.25c-.72-4.69-8.84-42.92-4.15-52.3s18.94,.72,18.94,.72h0Z"/>
  <path class="cls-22" d="M366.42,244.16s.54,.95,.39,1.94c-.13,.81-.79,3.19-.79,3.19l-1.49,.67v-1.08s-2.7,3.25-4.05,4.19c-1.35,.95-4.19,3.3-5.82,2.7-.43-.16-.54-.67-.54-.67,0,0,2.57-2.84,2.97-3.25,.4-.4,1.35,.4,2.43-.27,1.08-.68,4.17-3.63,5-4.6,1.08-1.26,1.9-2.84,1.9-2.84h0Z"/>
  <path class="cls-9" d="M351.28,225.9l.13,15.55s-5.55,6.77-7.57,7.85c-2.03,1.08-1.75,.13-1.62-.4,.13-.55,3.52-4.47,4.05-6.63,.54-2.17-.68-15.42-.54-16.1,.13-.67,5.55-.27,5.55-.27h0Z"/>
  <path class="cls-12" d="M349.03,119.05l.9,55.91,1.8,53.56-7.93,.36s-5.59-54.11-6.31-58.79c-.72-4.69-8.84-42.38-4.15-51.76,4.69-9.38,15.69,.72,15.69,.72h0Z"/>
  <path class="cls-11" d="M342.92,122.47l6.29,8.12,.54,33.37c-2.24-4.54-3.89-7.86-4.41-8.81-.85-1.56-4.3-7.18-8.2-14.13-.04-2.4-.06-4.82-.06-7.23,1.92-4.2,3.88-8.04,5.84-11.32h0Z"/>
  <path class="cls-22" d="M351.55,240.64s.54,.95,.39,1.95c-.13,.81-.79,3.19-.79,3.19l-1.49,.67v-1.08s-2.7,3.25-4.05,4.19c-1.35,.95-4.19,3.3-5.82,2.71-.43-.16-.54-.68-.54-.68,0,0,2.57-2.84,2.97-3.25,.4-.4,1.35,.4,2.43-.27s4.17-3.63,5-4.6c1.08-1.26,1.9-2.84,1.9-2.84h0Z"/>
  <path class="cls-10" d="M334.27,120.63h29.08l-4.2-24.65,.96-28.91s-5.41,2.09-10.15,2.38c-3.11,.2-9.74-2.38-9.74-2.38l-5.95,53.56h0Z"/>
  <path class="cls-13" d="M350.01,121.94s5.77-43.82,7.4-47.07c1.62-3.25,2.88-10.82,2.88-10.82l.36-7.03,2.88-2.35s7.03,3.07,8.3,4.87-2.35,10.46-3.25,13.17c-.9,2.7-4.69,11.54-4.87,13.52s.04,6.54,.9,8.65c6.85,16.77,6.91,27.87,6.67,27.77-5.41-2.35-21.28-.72-21.28-.72h0Z"/>
  <path class="cls-19" d="M367.78,76.94l1.68,18.67-.18,2.54,9.33-.54s-1.09-12.95-1.49-14.17-1.35-11.77-1.22-13.66c.13-1.9-3.32-14.61-6.95-9.33-5.23,7.57-1.16,16.5-1.16,16.5h0Z"/>
  <path class="cls-13" d="M346.76,55.4s-6.49,4.15-6.67,5.95-2.88,11.36-3.43,19.47c-.54,8.12,0,10.28-1.08,16.05s-2.69,6.75-3.79,13.89c-.85,5.59-1.08,10.64-1.08,10.64,0,0,2.35,1.26,4.69-.36,2.35-1.62,5.95-20.92,6.31-25.79s.36-17.85,1.26-21.1,4.24-13.17,5.05-14.07c2.02-2.25-.9-4.33-1.26-4.69h0Z"/>
  <path class="cls-19" d="M363.67,53.91l-3.07,3.11s.77-.48,1.33,1.11c.4,1.15,.95,2.57,.95,2.57l2.97-4.95s-1.24-2.38-2.19-1.84h0Z"/>
  <path class="cls-19" d="M346.86,54.9s.18,.52,.5,.85c.58,.63,1.24,1.75,1.24,1.75,0,0-.95-.74-1.56,.08-.75,1.01-1.62,3.49-1.62,3.49,0,0-1.23-3.67-.54-4.6,1.26-1.67,1.98-1.58,1.98-1.58h0Z"/>
  <path class="cls-9" d="M344.97,33.91c.13-.13,.28-.26,.43-.38,1.38,1.68,4.16,3.03,7.53,3.45,.81,.1,1.62,.13,2.39,.11l.97,1.75c1.45,2.6,.32,5.98-2.51,7.56s-6.3,.73-7.74-1.87l-2.2-3.96c.91-1.68,1.35-4.06,1.12-6.66h0Z"/>
  <path class="cls-9" d="M344.98,99.78l1.81-4.62c5.98,.45,12.27-.25,17.73-.7,11.7-.96,11.94,1.22,11.94,1.22-3.03,3.44-14.16,5.56-14.16,5.56l-17.32-1.45h0Z"/>
  <path class="cls-19" d="M371.93,91.68l-12.27,2.11,2.72,9.25,16.23-5.35s-3.31-6.13-6.69-6.01h0Z"/>
  <path class="cls-3" d="M313.87,78.41l6.84,7.38-7.22,8.58-.3-.83s1.85-6.01,1.11-9.17c-.73-3.16-.42-5.97-.42-5.97h0Z"/>
  <path class="cls-8" d="M329.39,77.55s-6.5,4.99-8.6,7.44c-2.09,2.43-7.01,7.91-7.2,8.28,0,0,3.1-8.49,.27-14.87-.05-.11-1.68-.16-1.68-.16,0,0,1.7,4.5,1.64,7.55-.06,3.04-.52,6.81-1.67,9.59-.21,.52,2.69,.41,2.69,.41l16.8-16.49-.6-1.21-1.65-.55h0Z"/>
  <path class="cls-2" d="M344.85,96.23l-13.8-18.12s-6.88,4.81-10.96,9.41c-4.09,4.6-6.12,8.04-6.12,8.04l16.38,13.29s11.96-12.23,14.51-12.61h0Z"/>
  <path class="cls-9" d="M343.27,88.73l-3.94-.96-4.5,.75-2.2,1.26s-.75,.37-.2,.81c.55,.43,.96,.65,1.3,.5s1.15-.39,1.15-.39c0,0-.93,.41-1.13,.78-.2,.36-.38,.4,.06,.69s1.09,.47,1.27,.43c.18-.04,3.83-.02,3.83-.02,0,0,.1,.59-.21,.53s-3.28-.1-3.28-.1c0,0-.65-.19-.95,.02s-.09,.68-.02,.93c.07,.24,.46,.67,.46,.67,0,0-.16,.27-.19,.48-.02,.21,.06,.69,.59,.89,.53,.21,2.11,.7,2.11,.7l1.92,.47s1.38,1.03,2.09,1.3,2.62,.68,2.62,.68l1.22,.85s2.43-.44,2.44-.61c0-.17,1.13-2.94,.75-3.52-.38-.59-2.07-1.07-2.07-1.07,0,0-2.66-3.57-3.13-6.08h0Z"/>
  <path class="cls-16" d="M312.16,95.38s.87,.62,1.8,.17c.21-.11,16.38,13.29,16.38,13.29,0,0-.23,.71-1.15,.44s-17.03-13.9-17.03-13.9h0Z"/>
  <path class="cls-9" d="M325.96,100.96s-.96,.18-1.5,.74-.75,.81-.75,.81l-1.82,.85-.88-.73v1.6s.09,.87,.47,1.07c.36,.2,1.03,.34,1.03,.34,0,0,.13,.66,.58,1.05,.45,.4,.74,.51,.74,.51l.43,.61,.95,.25,.4,.26,1.85,.21s1.51-1.62,1.6-2.3,0-1.49-.19-1.64c-.19-.16,.02-.92-.02-1.11s.19-.64-.1-.73c-.3-.09-.7-.1-.85,.12s.28-.72,.28-.72c0,0-.02-.67-.33-.71-.32-.04-1.04,.56-1.04,.56,0,0-.2,.14-.29,.33-.09,.18,.05-.48,.02-.77-.02-.28-.15-.61-.57-.6h0Z"/>
  <path class="cls-9" d="M422.17,54.43c2.17-.14,3.78-2.32,3.6-4.87l-1.26-18.87c-.44-.58-.93-1.05-1.46-1.37-2.61-1.49-5.47-1.3-7.86,.52-2.6,2.05-3.41,8.46-2.92,11.6,.66,4.5,1.33,9,1.99,13.51l7.9-.53h0Z"/>
  <path class="cls-19" d="M395.48,58.78s-5.32,3.75-9.2,26.33c-3.88,22.59-1.41,21.73-1.41,21.73l.7,5.14,9.88,.85,5.64-19.44-5.62-34.62h0Z"/>
  <path class="cls-22" d="M434.38,252.32v2.66h-14.81l-.36-7.16,8.94-.29s4.82,4.41,6.23,4.79h0Z"/>
  <path class="cls-23" d="M415.54,128.85s-7.67,43.91-15.67,63.18c-7.09,17.08-15.36-5.14-15.36-5.14l12.94-73.67,21.32-1.62s1.47,.54-3.23,17.24h0Z"/>
  <path class="cls-23" d="M413.76,111.78l-2.62,28.31,3.7,2.17s2.14,42.05,2.84,44.18c4,12.17,14.34,4.87,15.75,.81,1.41-4.05,3.76-34.09,3.3-56l-.47-21.92-22.49,2.43h0Z"/>
  <path class="cls-23" d="M418.58,175.16s-1.71,7.49-1.47,21.65c.16,8.98,1.04,32.75,2.68,50.45,.1,1.08,8.94,.26,8.94,.26,0,0,5.38-57.44,5.86-68.56,.14-3.35-8.95-11.73-16.01-3.8h0Z"/>
  <path class="cls-13" d="M395.18,58.76l15.56-7.03,8.02,2.4,9.93-1.13,10.94,4.74s4.93,4.74,.35,19.99c-4.58,15.25-3.9,40.42-3.9,40.42l-39.71,2.52s2.69-53.44-1.19-61.91h0Z"/>
  <path class="cls-13" d="M436.49,58.03s6.68-2.36,11.46,6.21c8.16,14.61,10.42,31.35,10.96,34.61,.54,3.26,.37,12.72-4.39,14.72-4.77,1.98-9.97,.61-9.97,.61l-4.74-13.79,3.41-1.04,.25-.06s-1.92-6.61-5.58-17.45c-3.65-10.84-1.4-23.8-1.4-23.8h0Z"/>
  <polygon class="cls-19" points="420.73 53.79 424.65 58.07 428.58 52.42 426.23 48.93 420.73 53.79 420.73 53.79"/>
  <polygon class="cls-19" points="412.12 49.27 419.66 54.13 416.1 58.41 410.21 51.73 412.12 49.27 412.12 49.27"/>
  <path class="cls-23" d="M388.09,185.9s2.48,.81,10.35,1.09c7.84,.28-10.12,63.42-10.12,63.42l-11.14-4.09,8.03-63.56,2.88,3.15h0Z"/>
  <path class="cls-22" d="M387.46,249.72l-1.06,5.53h-18.34v-2.03s8.82-3.05,10.58-6.44c1.76-3.38,8.82,2.94,8.82,2.94h0Z"/>
  <path class="cls-14" d="M421.39,47.97c2.17-.14,3.78-2.32,3.61-4.87l-1.26-18.87c-.44-.58-.93-1.05-1.46-1.37-2.61-1.49-5.47-1.3-7.86,.52-2.6,2.05-3.42,8.46-2.92,11.6,.66,4.5,1.33,9.01,1.99,13.51l7.9-.53h0Z"/>
  <path class="cls-11" d="M417.34,19.46l-.24-3.65-1.51,.1-3.98,.26-2.4,.16c-2.65,.17-4.65,2.47-4.47,5.12l.24,3.64,1.51-.1,3.97-.26,2.4-.16c2.65-.17,4.65-2.47,4.48-5.12h0Z"/>
  <path class="cls-9" d="M426.37,41.09c.16,2.36-1.63,4.39-3.98,4.55l-9.69,.65c-2.36,.16-4.39-1.63-4.55-3.98l-1.29-19.36c-.16-2.36,1.63-4.4,3.98-4.55l9.69-.65c2.36-.16,4.39,1.63,4.55,3.98l1.29,19.36h0Z"/>
  <path class="cls-11" d="M417.41,15.78c1.68-.11,3.22,.66,4.16,1.9l1.64-.11c2.05-.13,3.83,1.41,3.97,3.47l.61,9.18-2.62,.17-.24-3.74c-.09-1.45-1.35-2.54-2.79-2.44l-1.53,.1-3.98,.26-2.39,.16c-2.66,.17-4.94-1.83-5.12-4.48l-.26-3.93,8.55-.57h0v.02Z"/>
  <path class="cls-9" d="M424.5,32.85c-.09-1.26,.87-2.34,2.13-2.43l.18-.02c1.26-.09,2.35,.86,2.43,2.12l.18,2.77c.09,1.26-.87,2.35-2.13,2.43l-.19,.02c-.93,.06-1.77-.44-2.17-1.22"/>
  <polygon class="cls-8" points="367.71 86.25 385.29 96.43 377.28 108.85 376.22 109.39 366.61 87.56 367.71 86.25 367.71 86.25"/>
  <path class="cls-18" d="M362.73,86.53l2.72,.95,8.42,18.48,.5,3.92s-1.19-.08-1.36-.29c-.17-.21-10.27-23.06-10.27-23.06h0Z"/>
  <path class="cls-3" d="M401.46,83.03l-2.77,.08s-10.07,7.88-12.95,11.84c-2.88,3.96-8.6,10.89-9.03,13.45-.1,.63-.18,.84-.21,1.01-.04,.29,0-1.14,0-1.14,0,0,.04-4.33-.95-6.8s-7.84-15.22-7.84-15.22c0,0-2.81,1.07-3.34,1.15-.54,.08,9.4,21.95,9.4,21.95,0,0,.87,1.09,2.18,.77,1.32-.33,2,0,2.97-1.3,.28-.36,1.04-2.1,1.04-2.1l21.49-23.68h0Z"/>
  <path class="cls-16" d="M403.85,81.34l-.66-.04-24.51,26.32s-.21,.54-.12,.82c.08,.29-.4,1.25-1.46,1.34-1,.09-2.47,.32-3.32-.02-.82-.33-11.06-23.23-11.06-23.23l-.45,.21,10.23,22.19s-.24,.58,.08,.78c.33,.21,1.94,.95,2.36,.99,.41,.04,24.96,10.31,24.96,10.31l3.18-1.24,.99-1.56,16.54-17.41-16.75-19.47h0v.02Z"/>
  <polygon class="cls-2" points="421.22 99.57 403.85 81.34 379.31 107.94 403.19 119.2 422.33 100.72 421.22 99.57 421.22 99.57"/>
  <path class="cls-9" d="M429.59,96.06s-1.36-.62-4.29-1.9-4.95-3.26-5.82-3.18c-.87,.08-5.61,2.81-5.61,2.81l-6.93,3.34s-1.32,1.15-.99,1.86,.62,.66,1.24,.62c.62-.04,7.18-2.43,7.18-2.43l-9.12,4.99-2.64,1.69s-.58,.58-.62,1.03,.17,1.03,.74,.99,.99,.04,1.6-.29,4.79-2.23,4.79-2.23c0,0-4.58,2.19-5.41,3.09-.82,.91-.78,1.32-.62,1.77s.78,.54,.78,.54l3.55-1.86s-1.04,.58-.95,.82,.41,.66,.87,.62c.45-.04,4.41-1.36,4.41-1.36l3.83-.91,4.99-.54,6.23-1.56s1.11,.29,1.24-.08,3.14-6.27,1.53-7.84h0v.02Z"/>
  <path class="cls-2" d="M403.07,119.78l-23.6-10.93s-.29,.7-1.49,1.24c-1.19,.54-3.67,.41-3.67,.41l25.57,10.52s3.05-.29,3.18-1.24h0Z"/>
  <path class="cls-9" d="M385.29,115.08s-.37,.66,0,1.61,.45,1.53,1.45,1.86c.99,.33,1.07,.37,1.57-.04s2.6-2.02,2.6-2.02l1.65-2.23s.5-1.03-.17-1.28c-.66-.24-1.24-.33-2.1,.62-.87,.95-2.47,1.77-2.93,1.98-.48,.22-2.06-.5-2.06-.5h0Z"/>
  <path class="cls-9" d="M387.72,118.34s-.29,.74,.08,1.24,1.11,1.11,1.73,1.07,4.58-2.1,4.58-2.1l3.01-4.46,2.39-3.63s-.24-.78-.74-.87c-.5-.08-.82-.17-1.4,.37s-2.6,3.63-2.6,3.63l-2.73,2.19s-3.46,2.23-4.33,2.56h0Z"/>
  <path class="cls-9" d="M403.48,110.99s-.21-1.11-.86-.99c-.66,.13-1.78,1.24-2.97,2.51-1.19,1.28-1.82,2.02-1.82,2.02l-2.1,1.49-4.7,3.51-.41,.54s-.54,.78,.21,.99,1.24,1.03,2.43,.5c1.19-.54,5.11-3.46,5.11-3.46l2.47-3.3,1.75-2.51,.89-1.28h0Z"/>
  <path class="cls-9" d="M403.28,112.19c.54,.02,.66,.74,.66,.74l-3.96,5.82s-4.62,3.3-5.07,3.55c-.45,.24-1.4,.08-1.65-.74-.24-.82,6.35-5.82,6.35-5.82,0,0,2.6-3.59,3.67-3.55h0Z"/>
  <path class="cls-9" d="M446.82,101.81l-18-6.1c-.96,1.26-1.61,2.73-1.84,4.34l-.44,3.07c8.78,6.57,18.61,12.42,22.69,9.48,8.12-5.87-2.4-10.79-2.4-10.79h0Z"/>
</svg>