<?xml version="1.0" encoding="UTF-8"?>
<svg id="Capa_1" data-name="Capa 1" xmlns="http://www.w3.org/2000/svg" xmlns:xlink="http://www.w3.org/1999/xlink" viewBox="0 0 800 300">
  <defs>
    <style>
      .cls-1 {
        fill: #4c8ca5;
      }

      .cls-2 {
        fill: #fff;
      }

      .cls-3 {
        fill: #9e005d;
      }

      .cls-4 {
        opacity: .5;
      }

      .cls-5 {
        fill: #67a4c3;
      }

      .cls-6 {
        fill: #f63c4e;
      }

      .cls-7 {
        clip-path: url(#clippath-2);
      }

      .cls-8 {
        fill: #f15a24;
      }

      .cls-9 {
        fill: #001d73;
      }

      .cls-10 {
        fill: #e79329;
      }

      .cls-11 {
        fill: #ffe79d;
      }

      .cls-12 {
        clip-path: url(#clippath-6);
      }

      .cls-13 {
        clip-path: url(#clippath-7);
      }

      .cls-14 {
        clip-path: url(#clippath-1);
      }

      .cls-15 {
        clip-path: url(#clippath-4);
      }

      .cls-16 {
        fill: #ffba55;
      }

      .cls-17 {
        fill: #f4f5d3;
      }

      .cls-18 {
        opacity: .63;
      }

      .cls-19 {
        fill: #333a72;
      }

      .cls-20 {
        clip-path: url(#clippath);
      }

      .cls-21 {
        fill: #ff8f6b;
      }

      .cls-22 {
        fill: #fdb3d1;
      }

      .cls-23 {
        fill: #b82e41;
      }

      .cls-24 {
        fill: none;
      }

      .cls-25 {
        fill: #5394ad;
      }

      .cls-26 {
        clip-path: url(#clippath-3);
      }

      .cls-27 {
        fill: #c2e3f2;
      }

      .cls-28 {
        fill: #440b0b;
      }

      .cls-29 {
        fill: #f65b2b;
      }

      .cls-30 {
        clip-path: url(#clippath-5);
      }

      .cls-31 {
        fill: #d1d5e8;
      }

      .cls-32 {
        fill: #a6d2e2;
      }

      .cls-33 {
        fill: #1c1f2b;
      }

      .cls-34 {
        fill: #5e1212;
      }

      .cls-35 {
        fill: #fcee21;
      }

      .cls-36 {
        fill: #376f92;
      }
    </style>
    <clipPath id="clippath">
      <path class="cls-24" d="M399.48,240.56s-2.88,5.18-10.36,5.75c-7.48,.58-10.55,4.8-5.95,5.75,4.6,.96,17.45,.77,19.37-2.11,1.92-2.88,.96-8.06,.96-8.06l-4.03-1.34h0Z"/>
    </clipPath>
    <clipPath id="clippath-1">
      <path class="cls-24" d="M421.58,256.17s-.71,6.07-4.73,11.44c-4.03,5.37-5.95,9.02,0,7.48s11.99-8.75,12.27-12.47c.28-3.72,0-6.46,0-6.46h-7.54Z"/>
    </clipPath>
    <clipPath id="clippath-2">
      <path class="cls-24" d="M395.94,155.69s-.86,14.39,0,27.04c.86,12.66,2.59,30.78,2.16,36.25-.43,5.47,0,23.3,0,23.3,0,0,2.92,2.88,6.38,1.73,3.45-10.64,6.43-24.74,6.14-32.22-.29-7.48,.86-23.88,.86-23.88,0,0,0,19.28,3.17,28.48s6.33,42.29,6.33,42.29c0,0,4.89,1.15,8.34,0,0-7.77,4.03-38.55,2.59-45.74-1.44-7.19,.58-45.46-2.3-51.79-2.88-6.33-33.66-5.47-33.66-5.47h0Z"/>
    </clipPath>
    <clipPath id="clippath-3">
      <path class="cls-24" d="M414.77,110.13s-10.3-.18-15.48,2.7-5.18,12.08-6.71,15.92c-1.53,3.84-1.15,7.48-1.15,7.48,0,0-2.68,9.21-2.68,13.43s1.73,6.52,5.95,6.33c4.22-.19,2.49,4.03,2.49,4.03,0,0,3.6,4.41,9.47,5.56,5.87,1.15,13.99,2.11,17.42,0,3.42-2.11,6.1-1.92,5.53-4.41s.77-5.95,.96-7.1,1.73-12.08,1.73-12.08c0,0,4.99,4.8,10.55,3.84s5.95-3.37,8.25-7.34c2.3-3.97,8.82-13.37,8.82-13.37,0,0-4.99-.19-5.56-3.26-.58-3.07-11.12,6.71-11.12,6.71,0,0-7.57-12.15-10.63-15.22-3.07-3.07-17.81-3.2-17.81-3.2h0Z"/>
    </clipPath>
    <clipPath id="clippath-4">
      <path class="cls-24" d="M419.53,81.4s-.03-3.09-6.7-1.8c-6.67,1.29-7.82,3.45-8.4,4.96-.58,1.51,.07,2.01-.79,2.59-.86,.58-3.88,8.63,2.37,8.27,6.26-.36,16.69,4.35,16.69,4.35,0,0,3.96-2.48,3.52-3.42-.43-.94,5.83-13.31-6.69-14.96h0Z"/>
    </clipPath>
    <clipPath id="clippath-5">
      <path class="cls-24" d="M404.42,93.55s.14,4.17,1.15,7.05,2.3,6.76,6.47,6.76v4.46s.72,5.47,1.87,5.18c1.15-.29,7.19-8.92,7.19-8.92,0,0-1.15-2.16-1.15-3.88s2.01-1.29,3.45-3.74c1.44-2.45,.29-4.46-1.29-3.45s-1.87-3.31-3.74-3.45-4.13-2.01-4.13-2.01l.68,1.73s-1.44-.43-3.31-1.73c-1.87-1.29-3.6,0-3.6,0,0,0-2.01,2.59-3.6,2.01h0Z"/>
    </clipPath>
    <clipPath id="clippath-6">
      <path class="cls-24" d="M453.98,121.32s-.36-4.61,.79-6.62c1.15-2.01,2.95-3.52,2.95-3.52,0,0,2.23-1.94,4.24-2.73s.14,1.8-1.01,3.02c-1.15,1.22-1.37,2.45-.36,2.3s1.35,1.73,2.26,1.94,1.91,1.01,2.35,1.65c.43,.65,.79,2.57-.36,3.05-.53,.22-.84,.07-1.03-.16-.12-.15-.35-.1-.39,.09-.23,1.22-.82,3.57-1.96,4.08-1.56,.69-5.11,1.74-7.48-3.09h0Z"/>
    </clipPath>
    <clipPath id="clippath-7">
      <path class="cls-24" d="M387.88,140.06s-.86,.77-.38,2.88c.48,2.11,1.71,2.37,1.54,3.63s1.53,1.93,3.64,2.51c2.11,.58,0-1.63,0-1.63,0,0-.33-.77,.94-.96,1.27-.19-1.9-1.87-1.9-1.87,0,0,.67-.62,1.44-1.2s-1.73-1.25-1.73-1.25c0,0,1.82-.19,1.82-1.05s-5.37-1.05-5.37-1.05h0Z"/>
    </clipPath>
  </defs>
  <path class="cls-17" d="M333.01,60.37s37.33-49.52,79.74-45c43.94,4.68,50.88,28.47,76.91,29.48,26.03,1.01,56.98,9,56.4,43.09-.58,34.09-40.66,34.7-27.75,51.16,12.91,16.46,40.98,48.36,10.49,70.59-28.4,20.7-172.91,39.88-252.6-27.18-52.1-43.85-4.48-136.99,56.8-122.15h0Z"/>
  <g>
    <g>
      <rect class="cls-25" x="387" y="50.38" width="0" height="1.12"/>
      <rect class="cls-25" x="387" y="48.13" width="0" height="1.12"/>
      <polygon class="cls-25" points="386.99 47 386.99 46 387 46 386.88 46 386.88 45.99 387 45.99 387 45.99 387 46 387 47 386.99 47"/>
      <rect class="cls-25" x="384.63" y="45.99" width="1.12" height="0"/>
      <rect class="cls-25" x="382.38" y="45.99" width="1.12" height="0"/>
      <rect class="cls-25" x="380.13" y="45.99" width="1.12" height=".01"/>
      <rect class="cls-25" x="377.88" y="45.99" width="1.12" height=".01"/>
      <rect class="cls-25" x="375.64" y="45.99" width="1.12" height=".01"/>
      <rect class="cls-25" x="373.39" y="45.99" width="1.12" height=".02"/>
      <rect class="cls-25" x="371.14" y="45.99" width="1.12" height=".02"/>
      <rect class="cls-25" x="368.89" y="45.99" width="1.12" height=".02"/>
      <rect class="cls-25" x="366.64" y="45.99" width="1.12" height=".02"/>
      <rect class="cls-25" x="364.39" y="45.98" width="1.12" height=".02"/>
      <rect class="cls-25" x="362.14" y="45.98" width="1.12" height=".02"/>
      <rect class="cls-25" x="359.89" y="45.98" width="1.12" height=".03"/>
      <rect class="cls-25" x="357.65" y="45.98" width="1.12" height=".03"/>
      <rect class="cls-25" x="355.4" y="45.98" width="1.12" height=".03"/>
      <rect class="cls-25" x="353.15" y="45.98" width="1.12" height=".03"/>
      <rect class="cls-25" x="350.9" y="45.98" width="1.12" height=".03"/>
      <rect class="cls-25" x="348.65" y="45.98" width="1.12" height=".03"/>
      <polygon class="cls-25" points="347.53 46.01 346.4 46.01 346.4 45.98 347.53 45.98 347.53 46.01"/>
      <polygon class="cls-25" points="345.28 46.02 344.15 46.02 344.15 45.98 345.28 45.98 345.28 46.02"/>
      <polygon class="cls-25" points="343.03 46.02 341.91 46.02 341.91 45.97 343.03 45.97 343.03 46.02"/>
      <polygon class="cls-25" points="340.78 46.02 339.66 46.02 339.66 45.97 340.78 45.97 340.78 46.02"/>
      <polygon class="cls-25" points="338.53 46.02 337.41 46.02 337.41 45.97 338.53 45.97 338.53 46.02"/>
      <polygon class="cls-25" points="336.28 46.02 335.16 46.02 335.16 45.97 336.28 45.97 336.28 46.02"/>
      <polygon class="cls-25" points="334.03 46.03 332.91 46.03 332.91 45.96 334.03 45.97 334.03 46.03"/>
      <polygon class="cls-25" points="331.79 46.03 330.66 46.03 330.66 45.96 331.79 45.96 331.79 46.03"/>
      <polygon class="cls-25" points="329.54 46.03 328.41 46.03 328.41 45.96 329.54 45.96 329.54 46.03"/>
      <polygon class="cls-25" points="327.29 46.03 326.16 46.03 326.16 45.96 327.29 45.96 327.29 46.03"/>
      <polygon class="cls-25" points="325.04 46.03 323.92 46.04 323.92 45.96 325.04 45.96 325.04 46.03"/>
      <polygon class="cls-25" points="322.79 46.04 321.67 46.04 321.67 45.95 322.79 45.96 322.79 46.04"/>
      <polygon class="cls-25" points="320.54 46.04 319.42 46.04 319.42 45.95 320.54 45.95 320.54 46.04"/>
      <polygon class="cls-25" points="318.29 46.04 317.17 46.04 317.17 45.95 318.29 45.95 318.29 46.04"/>
      <polygon class="cls-25" points="316.04 46.04 314.92 46.04 314.92 45.95 316.04 45.95 316.04 46.04"/>
      <polygon class="cls-25" points="313.8 46.04 312.67 46.05 312.67 45.95 313.8 45.95 313.8 46.04"/>
      <polygon class="cls-25" points="311.55 46.05 310.42 46.05 310.42 45.94 311.55 45.94 311.55 46.05"/>
      <polygon class="cls-25" points="309.3 46.05 308.17 46.05 308.17 45.94 309.3 45.94 309.3 46.05"/>
      <polygon class="cls-25" points="307.05 46.05 305.93 46.05 305.93 45.94 307.05 45.94 307.05 46.05"/>
      <polygon class="cls-25" points="304.8 46.05 303.68 46.05 303.68 45.94 304.8 45.94 304.8 46.05"/>
      <polygon class="cls-25" points="302.55 46.06 301.43 46.06 301.43 45.94 302.55 45.94 302.55 46.06"/>
      <polygon class="cls-25" points="300.3 46.06 299.18 46.06 299.18 45.93 300.3 45.93 300.3 46.06"/>
      <polygon class="cls-25" points="298.06 46.06 296.93 46.06 296.93 45.93 298.06 45.93 298.06 46.06"/>
      <polygon class="cls-25" points="295.81 46.06 294.68 46.06 294.68 45.93 295.81 45.93 295.81 46.06"/>
      <polygon class="cls-25" points="293.56 46.06 292.43 46.06 292.43 45.93 293.56 45.93 293.56 46.06"/>
      <polygon class="cls-25" points="291.31 46.07 290.18 46.07 290.18 45.92 291.31 45.93 291.31 46.07"/>
      <polygon class="cls-25" points="289.06 46.07 287.94 46.07 287.94 45.92 289.06 45.92 289.06 46.07"/>
      <polygon class="cls-25" points="286.81 46.07 286.14 46.07 286.21 46 286.21 46.44 286.06 46.44 286.06 46 286.06 45.92 286.14 45.92 286.81 45.92 286.81 46.07"/>
      <polygon class="cls-25" points="286.21 47.57 286.21 48.69 286.06 48.69 286.06 47.57 286.21 47.57"/>
      <polygon class="cls-25" points="286.21 49.82 286.22 50.94 286.06 50.94 286.06 49.82 286.21 49.82"/>
      <polygon class="cls-25" points="286.22 52.07 286.22 53.19 286.05 53.19 286.05 52.07 286.22 52.07"/>
      <polygon class="cls-25" points="286.22 54.31 286.22 55.44 286.05 55.44 286.05 54.31 286.22 54.31"/>
      <polygon class="cls-25" points="286.22 56.56 286.22 57.69 286.05 57.69 286.05 56.56 286.22 56.56"/>
      <polygon class="cls-25" points="286.22 58.81 286.22 59.94 286.05 59.94 286.05 58.81 286.22 58.81"/>
      <polygon class="cls-25" points="286.22 61.06 286.23 62.18 286.04 62.18 286.05 61.06 286.22 61.06"/>
      <polygon class="cls-25" points="286.23 63.31 286.23 64.43 286.04 64.43 286.04 63.31 286.23 63.31"/>
      <polygon class="cls-25" points="286.23 65.56 286.23 66.68 286.04 66.68 286.04 65.56 286.23 65.56"/>
      <rect class="cls-25" x="286.04" y="67.81" width=".19" height="1.12"/>
      <rect class="cls-25" x="286.04" y="70.06" width=".19" height="1.12"/>
      <rect class="cls-25" x="286.04" y="72.3" width=".19" height="1.12"/>
      <rect class="cls-25" x="286.04" y="74.55" width=".2" height="1.12"/>
      <rect class="cls-25" x="286.04" y="76.8" width=".2" height="1.12"/>
      <rect class="cls-25" x="286.04" y="79.05" width=".2" height="1.12"/>
      <rect class="cls-25" x="286.03" y="81.3" width=".2" height="1.12"/>
      <rect class="cls-25" x="286.03" y="83.55" width=".2" height="1.12"/>
      <rect class="cls-25" x="286.03" y="85.8" width=".2" height="1.12"/>
      <rect class="cls-25" x="286.03" y="88.04" width=".21" height="1.12"/>
      <rect class="cls-25" x="286.03" y="90.29" width=".21" height="1.12"/>
      <rect class="cls-25" x="286.03" y="92.54" width=".21" height="1.12"/>
      <rect class="cls-25" x="286.03" y="94.79" width=".21" height="1.12"/>
      <rect class="cls-25" x="286.03" y="97.04" width=".21" height="1.12"/>
      <rect class="cls-25" x="286.03" y="99.29" width=".21" height="1.12"/>
      <rect class="cls-25" x="286.03" y="101.54" width=".22" height="1.12"/>
      <rect class="cls-25" x="286.03" y="103.79" width=".22" height="1.12"/>
      <rect class="cls-25" x="286.03" y="106.03" width=".22" height="1.12"/>
      <rect class="cls-25" x="286.02" y="108.28" width=".22" height="1.12"/>
      <rect class="cls-25" x="286.02" y="110.53" width=".22" height="1.12"/>
      <rect class="cls-25" x="286.02" y="112.78" width=".22" height="1.12"/>
      <rect class="cls-25" x="286.02" y="115.03" width=".22" height="1.12"/>
      <rect class="cls-25" x="286.02" y="117.28" width=".22" height="1.12"/>
      <rect class="cls-25" x="286.02" y="119.53" width=".22" height="1.12"/>
      <rect class="cls-25" x="286.19" y="121.61" width="1.12" height=".22"/>
      <rect class="cls-25" x="288.44" y="121.61" width="1.12" height=".22"/>
      <rect class="cls-25" x="290.69" y="121.61" width="1.12" height=".22"/>
      <rect class="cls-25" x="292.94" y="121.61" width="1.12" height=".21"/>
      <rect class="cls-25" x="295.19" y="121.61" width="1.12" height=".21"/>
      <rect class="cls-25" x="297.44" y="121.61" width="1.12" height=".21"/>
      <rect class="cls-25" x="299.69" y="121.61" width="1.12" height=".21"/>
      <rect class="cls-25" x="301.93" y="121.61" width="1.12" height=".21"/>
      <rect class="cls-25" x="304.18" y="121.61" width="1.12" height=".21"/>
      <rect class="cls-25" x="306.43" y="121.62" width="1.12" height=".2"/>
      <rect class="cls-25" x="308.68" y="121.62" width="1.12" height=".2"/>
      <rect class="cls-25" x="310.93" y="121.62" width="1.12" height=".2"/>
      <rect class="cls-25" x="313.18" y="121.62" width="1.12" height=".2"/>
      <rect class="cls-25" x="315.43" y="121.62" width="1.12" height=".2"/>
      <rect class="cls-25" x="317.68" y="121.62" width="1.12" height=".2"/>
      <rect class="cls-25" x="319.92" y="121.62" width="1.12" height=".19"/>
      <rect class="cls-25" x="322.17" y="121.62" width="1.12" height=".19"/>
      <rect class="cls-25" x="324.42" y="121.62" width="1.12" height=".19"/>
      <polygon class="cls-25" points="326.67 121.62 327.79 121.62 327.79 121.81 326.67 121.81 326.67 121.62"/>
      <polygon class="cls-25" points="328.92 121.63 330.04 121.63 330.04 121.81 328.92 121.81 328.92 121.63"/>
      <polygon class="cls-25" points="331.17 121.63 332.29 121.63 332.29 121.81 331.17 121.81 331.17 121.63"/>
      <polygon class="cls-25" points="333.42 121.63 334.54 121.63 334.54 121.8 333.42 121.81 333.42 121.63"/>
      <polygon class="cls-25" points="335.66 121.63 336.79 121.63 336.79 121.8 335.66 121.8 335.66 121.63"/>
      <polygon class="cls-25" points="337.91 121.63 339.04 121.63 339.04 121.8 337.91 121.8 337.91 121.63"/>
      <polygon class="cls-25" points="340.16 121.64 341.29 121.64 341.29 121.8 340.16 121.8 340.16 121.64"/>
      <polygon class="cls-25" points="342.41 121.64 343.54 121.64 343.54 121.8 342.41 121.8 342.41 121.64"/>
      <polygon class="cls-25" points="344.66 121.64 345.78 121.64 345.78 121.79 344.66 121.8 344.66 121.64"/>
      <polygon class="cls-25" points="346.91 121.64 348.03 121.64 348.03 121.79 346.91 121.79 346.91 121.64"/>
      <polygon class="cls-25" points="349.16 121.65 350.28 121.65 350.28 121.79 349.16 121.79 349.16 121.65"/>
      <polygon class="cls-25" points="351.41 121.65 352.53 121.65 352.53 121.79 351.41 121.79 351.41 121.65"/>
      <polygon class="cls-25" points="353.65 121.65 354.78 121.65 354.78 121.79 353.65 121.79 353.65 121.65"/>
      <polygon class="cls-25" points="355.9 121.65 357.03 121.65 357.03 121.78 355.9 121.78 355.9 121.65"/>
      <polygon class="cls-25" points="358.15 121.65 359.28 121.65 359.28 121.78 358.15 121.78 358.15 121.65"/>
      <polygon class="cls-25" points="360.4 121.66 361.53 121.66 361.53 121.78 360.4 121.78 360.4 121.66"/>
      <polygon class="cls-25" points="362.65 121.66 363.77 121.66 363.77 121.78 362.65 121.78 362.65 121.66"/>
      <polygon class="cls-25" points="364.9 121.66 366.02 121.66 366.02 121.78 364.9 121.78 364.9 121.66"/>
      <polygon class="cls-25" points="367.15 121.66 368.27 121.66 368.27 121.77 367.15 121.77 367.15 121.66"/>
      <polygon class="cls-25" points="369.4 121.66 370.52 121.67 370.52 121.77 369.4 121.77 369.4 121.66"/>
      <polygon class="cls-25" points="371.64 121.67 372.77 121.67 372.77 121.77 371.64 121.77 371.64 121.67"/>
      <polygon class="cls-25" points="373.89 121.67 375.02 121.67 375.02 121.77 373.89 121.77 373.89 121.67"/>
      <polygon class="cls-25" points="376.14 121.67 377.27 121.67 377.27 121.76 376.14 121.77 376.14 121.67"/>
      <polygon class="cls-25" points="378.39 121.67 379.51 121.67 379.51 121.76 378.39 121.76 378.39 121.67"/>
      <polygon class="cls-25" points="380.64 121.67 381.76 121.68 381.76 121.76 380.64 121.76 380.64 121.67"/>
      <polygon class="cls-25" points="382.89 121.68 384.01 121.68 384.01 121.76 382.89 121.76 382.89 121.68"/>
      <polygon class="cls-25" points="385.14 121.68 386.26 121.68 386.26 121.76 385.14 121.76 385.14 121.68"/>
      <polygon class="cls-25" points="386.96 121.33 386.96 120.2 387.03 120.2 387.03 121.33 386.96 121.33"/>
      <polygon class="cls-25" points="386.96 119.08 386.96 117.96 387.03 117.96 387.03 119.08 386.96 119.08"/>
      <polygon class="cls-25" points="386.96 116.83 386.96 115.71 387.03 115.71 387.03 116.83 386.96 116.83"/>
      <polygon class="cls-25" points="386.97 114.58 386.97 113.46 387.03 113.46 387.03 114.58 386.97 114.58"/>
      <polygon class="cls-25" points="386.97 112.33 386.97 111.21 387.02 111.21 387.03 112.33 386.97 112.33"/>
      <polygon class="cls-25" points="386.97 110.09 386.97 108.96 387.02 108.96 387.02 110.09 386.97 110.09"/>
      <polygon class="cls-25" points="386.97 107.84 386.97 106.71 387.02 106.71 387.02 107.84 386.97 107.84"/>
      <polygon class="cls-25" points="386.97 105.59 386.98 104.46 387.02 104.46 387.02 105.59 386.97 105.59"/>
      <polygon class="cls-25" points="386.98 103.34 386.98 102.22 387.02 102.22 387.02 103.34 386.98 103.34"/>
      <rect class="cls-25" x="386.98" y="99.97" width=".03" height="1.12"/>
      <rect class="cls-25" x="386.98" y="97.72" width=".03" height="1.12"/>
      <rect class="cls-25" x="386.98" y="95.47" width=".03" height="1.12"/>
      <rect class="cls-25" x="386.98" y="93.22" width=".03" height="1.12"/>
      <rect class="cls-25" x="386.98" y="90.97" width=".03" height="1.12"/>
      <rect class="cls-25" x="386.98" y="88.72" width=".03" height="1.12"/>
      <rect class="cls-25" x="386.98" y="86.47" width=".02" height="1.12"/>
      <rect class="cls-25" x="386.99" y="84.23" width=".02" height="1.12"/>
      <rect class="cls-25" x="386.99" y="81.98" width=".02" height="1.12"/>
      <rect class="cls-25" x="386.99" y="79.73" width=".02" height="1.12"/>
      <rect class="cls-25" x="386.99" y="77.48" width=".02" height="1.12"/>
      <rect class="cls-25" x="386.99" y="75.23" width=".02" height="1.12"/>
      <rect class="cls-25" x="386.99" y="72.98" width=".01" height="1.12"/>
      <rect class="cls-25" x="386.99" y="70.73" width=".01" height="1.12"/>
      <rect class="cls-25" x="386.99" y="68.48" width=".01" height="1.12"/>
      <rect class="cls-25" x="386.99" y="66.24" width=".01" height="1.12"/>
      <rect class="cls-25" x="386.99" y="63.99" width="0" height="1.12"/>
      <rect class="cls-25" x="386.99" y="61.74" width="0" height="1.12"/>
      <rect class="cls-25" x="386.99" y="59.49" width="0" height="1.12"/>
      <rect class="cls-25" x="387" y="57.24" width="0" height="1.12"/>
      <rect class="cls-25" x="387" y="54.99" width="0" height="1.12"/>
    </g>
    <g>
      <polygon class="cls-25" points="301.89 228.64 303.01 228.64 303.01 228.65 301.89 228.64"/>
      <polygon class="cls-25" points="304.13 228.64 305.26 228.64 305.26 228.65 304.13 228.65 304.13 228.64"/>
      <polygon class="cls-25" points="306.38 228.64 307.51 228.64 307.51 228.65 306.38 228.65 306.38 228.64"/>
      <polygon class="cls-25" points="308.63 228.63 309.76 228.63 309.76 228.65 308.63 228.65 308.63 228.63"/>
      <polygon class="cls-25" points="310.88 228.63 312.01 228.63 312.01 228.66 310.88 228.66 310.88 228.63"/>
      <polygon class="cls-25" points="313.13 228.63 314.25 228.63 314.25 228.66 313.13 228.66 313.13 228.63"/>
      <polygon class="cls-25" points="315.38 228.63 316.5 228.62 316.5 228.66 315.38 228.66 315.38 228.63"/>
      <polygon class="cls-25" points="317.63 228.62 318.75 228.62 318.75 228.67 317.63 228.67 317.63 228.62"/>
      <polygon class="cls-25" points="319.88 228.62 321 228.62 321 228.67 319.88 228.67 319.88 228.62"/>
      <polygon class="cls-25" points="322.12 228.62 323.25 228.61 323.25 228.67 322.12 228.67 322.12 228.62"/>
      <polygon class="cls-25" points="324.37 228.61 325.5 228.61 325.5 228.68 324.37 228.67 324.37 228.61"/>
      <polygon class="cls-25" points="326.62 228.61 327.75 228.61 327.75 228.68 326.62 228.68 326.62 228.61"/>
      <polygon class="cls-25" points="328.87 228.61 329.99 228.6 329.99 228.68 328.87 228.68 328.87 228.61"/>
      <polygon class="cls-25" points="331.12 228.6 332.24 228.6 332.24 228.69 331.12 228.68 331.12 228.6"/>
      <polygon class="cls-25" points="333.37 228.6 334.49 228.6 334.49 228.69 333.37 228.69 333.37 228.6"/>
      <polygon class="cls-25" points="335.62 228.6 336.74 228.59 336.74 228.69 335.62 228.69 335.62 228.6"/>
      <polygon class="cls-25" points="337.87 228.59 338.99 228.59 338.99 228.69 337.87 228.69 337.87 228.59"/>
      <polygon class="cls-25" points="340.11 228.59 341.24 228.59 341.24 228.7 340.11 228.7 340.11 228.59"/>
      <polygon class="cls-25" points="342.36 228.59 343.49 228.59 343.49 228.7 342.36 228.7 342.36 228.59"/>
      <polygon class="cls-25" points="344.61 228.59 345.74 228.58 345.74 228.7 344.61 228.7 344.61 228.59"/>
      <polygon class="cls-25" points="346.86 228.58 347.98 228.58 347.98 228.7 346.86 228.7 346.86 228.58"/>
      <polygon class="cls-25" points="349.11 228.58 350.23 228.58 350.23 228.71 349.11 228.71 349.11 228.58"/>
      <polygon class="cls-25" points="351.36 228.58 352.48 228.58 352.48 228.71 351.36 228.71 351.36 228.58"/>
      <polygon class="cls-25" points="353.61 228.58 354.73 228.58 354.73 228.71 353.61 228.71 353.61 228.58"/>
      <polygon class="cls-25" points="355.85 228.58 356.98 228.58 356.98 228.71 355.85 228.71 355.85 228.58"/>
      <polygon class="cls-25" points="358.1 228.58 359.23 228.57 359.23 228.71 358.1 228.71 358.1 228.58"/>
      <polygon class="cls-25" points="360.35 228.57 361.48 228.57 361.48 228.72 360.35 228.71 360.35 228.57"/>
      <polygon class="cls-25" points="362.6 228.57 363.73 228.57 363.73 228.72 362.6 228.72 362.6 228.57"/>
      <polygon class="cls-25" points="364.85 228.57 365.97 228.57 365.97 228.72 364.85 228.72 364.85 228.57"/>
      <polygon class="cls-25" points="367.1 228.57 368.22 228.57 368.22 228.72 367.1 228.72 367.1 228.57"/>
      <polygon class="cls-25" points="369.35 228.57 370.47 228.57 370.47 228.72 369.35 228.72 369.35 228.57"/>
      <polygon class="cls-25" points="371.6 228.56 372.72 228.56 372.72 228.72 371.6 228.72 371.6 228.56"/>
      <polygon class="cls-25" points="373.84 228.56 374.97 228.56 374.97 228.73 373.84 228.72 373.84 228.56"/>
      <polygon class="cls-25" points="376.09 228.56 377.22 228.56 377.22 228.73 376.09 228.73 376.09 228.56"/>
      <polygon class="cls-25" points="378.34 228.56 379.47 228.56 379.47 228.73 378.34 228.73 378.34 228.56"/>
      <polygon class="cls-25" points="380.59 228.56 381.72 228.56 381.72 228.73 380.59 228.73 380.59 228.56"/>
      <polygon class="cls-25" points="382.84 228.56 383.96 228.56 383.96 228.73 382.84 228.73 382.84 228.56"/>
      <polygon class="cls-25" points="385.09 228.55 386.21 228.55 386.21 228.73 385.09 228.73 385.09 228.55"/>
      <polygon class="cls-25" points="387.34 228.55 388.46 228.55 388.46 228.74 387.34 228.74 387.34 228.55"/>
      <polygon class="cls-25" points="389.59 228.55 390.71 228.55 390.71 228.74 389.59 228.74 389.59 228.55"/>
      <rect class="cls-25" x="390.79" y="226.57" width=".19" height="1.12"/>
      <rect class="cls-25" x="390.79" y="224.32" width=".19" height="1.12"/>
      <rect class="cls-25" x="390.78" y="222.07" width=".19" height="1.12"/>
      <rect class="cls-25" x="390.78" y="219.82" width=".19" height="1.12"/>
      <rect class="cls-25" x="390.78" y="217.57" width=".19" height="1.12"/>
      <rect class="cls-25" x="390.78" y="215.32" width=".2" height="1.12"/>
      <rect class="cls-25" x="390.78" y="213.07" width=".2" height="1.12"/>
      <rect class="cls-25" x="390.78" y="210.82" width=".2" height="1.12"/>
      <rect class="cls-25" x="390.78" y="208.58" width=".2" height="1.12"/>
      <rect class="cls-25" x="390.78" y="206.33" width=".2" height="1.12"/>
      <rect class="cls-25" x="390.78" y="204.08" width=".2" height="1.12"/>
      <rect class="cls-25" x="390.78" y="201.83" width=".2" height="1.12"/>
      <rect class="cls-25" x="390.78" y="199.58" width=".2" height="1.12"/>
      <rect class="cls-25" x="390.78" y="197.33" width=".21" height="1.12"/>
      <rect class="cls-25" x="390.78" y="195.08" width=".21" height="1.12"/>
      <rect class="cls-25" x="390.78" y="192.83" width=".21" height="1.12"/>
      <rect class="cls-25" x="390.78" y="190.59" width=".21" height="1.12"/>
      <rect class="cls-25" x="390.78" y="188.34" width=".21" height="1.12"/>
      <rect class="cls-25" x="390.78" y="186.09" width=".21" height="1.12"/>
      <rect class="cls-25" x="390.77" y="183.84" width=".21" height="1.12"/>
      <rect class="cls-25" x="390.77" y="181.59" width=".21" height="1.12"/>
      <rect class="cls-25" x="390.77" y="179.34" width=".21" height="1.12"/>
      <rect class="cls-25" x="390.77" y="177.09" width=".22" height="1.12"/>
      <rect class="cls-25" x="390.77" y="174.85" width=".22" height="1.12"/>
      <rect class="cls-25" x="390.77" y="172.6" width=".22" height="1.12"/>
      <rect class="cls-25" x="390.77" y="170.35" width=".22" height="1.12"/>
      <rect class="cls-25" x="390.77" y="168.1" width=".22" height="1.12"/>
      <rect class="cls-25" x="390.77" y="165.85" width=".22" height="1.12"/>
      <rect class="cls-25" x="390.77" y="163.6" width=".22" height="1.12"/>
      <rect class="cls-25" x="390.77" y="161.35" width=".22" height="1.12"/>
      <rect class="cls-25" x="389.6" y="160.27" width="1.12" height=".22"/>
      <rect class="cls-25" x="387.35" y="160.27" width="1.12" height=".22"/>
      <rect class="cls-25" x="385.1" y="160.27" width="1.12" height=".22"/>
      <rect class="cls-25" x="382.86" y="160.27" width="1.12" height=".22"/>
      <rect class="cls-25" x="380.61" y="160.27" width="1.12" height=".22"/>
      <rect class="cls-25" x="378.36" y="160.27" width="1.12" height=".22"/>
      <rect class="cls-25" x="376.11" y="160.27" width="1.12" height=".22"/>
      <rect class="cls-25" x="373.86" y="160.28" width="1.12" height=".22"/>
      <rect class="cls-25" x="371.61" y="160.28" width="1.12" height=".22"/>
      <rect class="cls-25" x="369.36" y="160.28" width="1.12" height=".21"/>
      <rect class="cls-25" x="367.11" y="160.28" width="1.12" height=".21"/>
      <rect class="cls-25" x="364.87" y="160.28" width="1.12" height=".21"/>
      <rect class="cls-25" x="362.62" y="160.28" width="1.12" height=".21"/>
      <rect class="cls-25" x="360.37" y="160.28" width="1.12" height=".21"/>
      <rect class="cls-25" x="358.12" y="160.28" width="1.12" height=".21"/>
      <rect class="cls-25" x="355.87" y="160.28" width="1.12" height=".21"/>
      <rect class="cls-25" x="353.62" y="160.28" width="1.12" height=".21"/>
      <rect class="cls-25" x="351.37" y="160.28" width="1.12" height=".2"/>
      <rect class="cls-25" x="349.12" y="160.28" width="1.12" height=".2"/>
      <rect class="cls-25" x="346.88" y="160.28" width="1.12" height=".2"/>
      <rect class="cls-25" x="344.63" y="160.28" width="1.12" height=".2"/>
      <rect class="cls-25" x="342.38" y="160.28" width="1.12" height=".2"/>
      <rect class="cls-25" x="340.13" y="160.28" width="1.12" height=".2"/>
      <rect class="cls-25" x="337.88" y="160.28" width="1.12" height=".2"/>
      <rect class="cls-25" x="335.63" y="160.29" width="1.12" height=".2"/>
      <rect class="cls-25" x="333.38" y="160.29" width="1.12" height=".2"/>
      <rect class="cls-25" x="331.13" y="160.29" width="1.12" height=".19"/>
      <rect class="cls-25" x="328.89" y="160.29" width="1.12" height=".19"/>
      <rect class="cls-25" x="326.64" y="160.29" width="1.12" height=".19"/>
      <rect class="cls-25" x="324.39" y="160.29" width="1.12" height=".19"/>
      <polygon class="cls-25" points="323.26 160.48 322.14 160.48 322.14 160.29 323.26 160.29 323.26 160.48"/>
      <polygon class="cls-25" points="321.02 160.48 319.89 160.48 319.89 160.29 321.02 160.29 321.02 160.48"/>
      <polygon class="cls-25" points="318.77 160.48 317.64 160.47 317.64 160.29 318.77 160.29 318.77 160.48"/>
      <polygon class="cls-25" points="316.52 160.47 315.39 160.47 315.39 160.29 316.52 160.29 316.52 160.47"/>
      <polygon class="cls-25" points="314.27 160.47 313.15 160.47 313.15 160.3 314.27 160.3 314.27 160.47"/>
      <polygon class="cls-25" points="312.02 160.47 310.9 160.47 310.9 160.3 312.02 160.3 312.02 160.47"/>
      <polygon class="cls-25" points="309.77 160.47 308.65 160.47 308.65 160.3 309.77 160.3 309.77 160.47"/>
      <polygon class="cls-25" points="307.52 160.47 306.4 160.47 306.4 160.3 307.52 160.3 307.52 160.47"/>
      <polygon class="cls-25" points="305.27 160.46 304.15 160.46 304.15 160.3 305.27 160.3 305.27 160.46"/>
      <polygon class="cls-25" points="303.03 160.46 301.9 160.46 301.9 160.3 303.03 160.3 303.03 160.46"/>
      <polygon class="cls-25" points="301.96 161.49 301.96 162.62 301.81 162.62 301.81 161.49 301.96 161.49"/>
      <polygon class="cls-25" points="301.96 163.74 301.96 164.87 301.81 164.87 301.81 163.74 301.96 163.74"/>
      <polygon class="cls-25" points="301.96 165.99 301.96 167.11 301.81 167.11 301.81 165.99 301.96 165.99"/>
      <polygon class="cls-25" points="301.96 168.24 301.96 169.36 301.82 169.36 301.81 168.24 301.96 168.24"/>
      <polygon class="cls-25" points="301.96 170.49 301.96 171.61 301.82 171.61 301.82 170.49 301.96 170.49"/>
      <polygon class="cls-25" points="301.95 172.74 301.95 173.86 301.82 173.86 301.82 172.74 301.95 172.74"/>
      <polygon class="cls-25" points="301.95 174.98 301.95 176.11 301.82 176.11 301.82 174.98 301.95 174.98"/>
      <polygon class="cls-25" points="301.95 177.23 301.95 178.36 301.82 178.36 301.82 177.23 301.95 177.23"/>
      <polygon class="cls-25" points="301.95 179.48 301.95 180.61 301.82 180.61 301.82 179.48 301.95 179.48"/>
      <polygon class="cls-25" points="301.95 181.73 301.95 182.85 301.83 182.85 301.82 181.73 301.95 181.73"/>
      <polygon class="cls-25" points="301.95 183.98 301.94 185.1 301.83 185.1 301.83 183.98 301.95 183.98"/>
      <polygon class="cls-25" points="301.94 186.23 301.94 187.35 301.83 187.35 301.83 186.23 301.94 186.23"/>
      <polygon class="cls-25" points="301.94 188.48 301.94 189.6 301.83 189.6 301.83 188.48 301.94 188.48"/>
      <polygon class="cls-25" points="301.94 190.73 301.94 191.85 301.83 191.85 301.83 190.73 301.94 190.73"/>
      <polygon class="cls-25" points="301.94 192.97 301.93 194.1 301.84 194.1 301.84 192.97 301.94 192.97"/>
      <polygon class="cls-25" points="301.93 195.22 301.93 196.35 301.84 196.35 301.84 195.22 301.93 195.22"/>
      <polygon class="cls-25" points="301.93 197.47 301.93 198.6 301.84 198.6 301.84 197.47 301.93 197.47"/>
      <polygon class="cls-25" points="301.93 199.72 301.93 200.84 301.85 200.84 301.85 199.72 301.93 199.72"/>
      <polygon class="cls-25" points="301.92 201.97 301.92 203.09 301.85 203.09 301.85 201.97 301.92 201.97"/>
      <polygon class="cls-25" points="301.92 204.22 301.92 205.34 301.85 205.34 301.85 204.22 301.92 204.22"/>
      <polygon class="cls-25" points="301.92 206.47 301.92 207.59 301.86 207.59 301.85 206.47 301.92 206.47"/>
      <polygon class="cls-25" points="301.91 208.72 301.91 209.84 301.86 209.84 301.86 208.72 301.91 208.72"/>
      <polygon class="cls-25" points="301.91 210.96 301.91 212.09 301.86 212.09 301.86 210.96 301.91 210.96"/>
      <polygon class="cls-25" points="301.91 213.21 301.91 214.34 301.87 214.34 301.86 213.21 301.91 213.21"/>
      <polygon class="cls-25" points="301.9 215.46 301.9 216.59 301.87 216.59 301.87 215.46 301.9 215.46"/>
      <polygon class="cls-25" points="301.9 217.71 301.9 218.83 301.87 218.83 301.87 217.71 301.9 217.71"/>
      <polygon class="cls-25" points="301.9 219.96 301.9 221.08 301.88 221.08 301.87 219.96 301.9 219.96"/>
      <polygon class="cls-25" points="301.89 222.21 301.89 223.33 301.88 223.33 301.88 222.21 301.89 222.21"/>
      <polygon class="cls-25" points="301.89 224.46 301.89 225.58 301.88 225.58 301.88 224.46 301.89 224.46"/>
      <polygon class="cls-25" points="301.89 226.7 301.89 227.83 301.88 227.83 301.88 226.7 301.89 226.7"/>
    </g>
    <g>
      <polygon class="cls-25" points="429.22 90.07 429.22 91.19 429.21 91.19 429.22 90.07"/>
      <polygon class="cls-25" points="429.22 92.32 429.22 93.44 429.21 93.44 429.21 92.32 429.22 92.32"/>
      <polygon class="cls-25" points="429.22 94.57 429.22 95.69 429.21 95.69 429.21 94.57 429.22 94.57"/>
      <polygon class="cls-25" points="429.22 96.81 429.23 97.94 429.2 97.94 429.21 96.81 429.22 96.81"/>
      <polygon class="cls-25" points="429.23 99.06 429.23 100.19 429.2 100.19 429.2 99.06 429.23 99.06"/>
      <polygon class="cls-25" points="429.23 101.31 429.23 102.44 429.2 102.44 429.2 101.31 429.23 101.31"/>
      <polygon class="cls-25" points="429.23 103.56 429.24 104.69 429.2 104.69 429.2 103.56 429.23 103.56"/>
      <polygon class="cls-25" points="429.24 105.81 429.24 106.93 429.19 106.93 429.19 105.81 429.24 105.81"/>
      <polygon class="cls-25" points="429.24 108.06 429.24 109.18 429.19 109.18 429.19 108.06 429.24 108.06"/>
      <polygon class="cls-25" points="429.24 110.31 429.25 111.43 429.19 111.43 429.19 110.31 429.24 110.31"/>
      <polygon class="cls-25" points="429.25 112.56 429.25 113.68 429.18 113.68 429.18 112.56 429.25 112.56"/>
      <polygon class="cls-25" points="429.25 114.8 429.25 115.93 429.18 115.93 429.18 114.8 429.25 114.8"/>
      <polygon class="cls-25" points="429.25 117.05 429.26 118.18 429.18 118.18 429.18 117.05 429.25 117.05"/>
      <polygon class="cls-25" points="429.26 119.3 429.26 120.43 429.17 120.43 429.17 119.3 429.26 119.3"/>
      <polygon class="cls-25" points="429.26 121.55 429.26 122.67 429.17 122.67 429.17 121.55 429.26 121.55"/>
      <polygon class="cls-25" points="429.26 123.8 429.27 124.92 429.17 124.92 429.17 123.8 429.26 123.8"/>
      <polygon class="cls-25" points="429.27 126.05 429.27 127.17 429.16 127.17 429.17 126.05 429.27 126.05"/>
      <polygon class="cls-25" points="429.27 128.3 429.27 129.42 429.16 129.42 429.16 128.3 429.27 128.3"/>
      <polygon class="cls-25" points="429.27 130.55 429.27 131.67 429.16 131.67 429.16 130.55 429.27 130.55"/>
      <polygon class="cls-25" points="429.27 132.79 429.28 133.92 429.16 133.92 429.16 132.79 429.27 132.79"/>
      <polygon class="cls-25" points="429.28 135.04 429.28 136.17 429.16 136.17 429.16 135.04 429.28 135.04"/>
      <polygon class="cls-25" points="429.28 137.29 429.28 138.42 429.15 138.42 429.15 137.29 429.28 137.29"/>
      <polygon class="cls-25" points="429.28 139.54 429.28 140.66 429.15 140.66 429.15 139.54 429.28 139.54"/>
      <polygon class="cls-25" points="429.28 141.79 429.28 142.91 429.15 142.91 429.15 141.79 429.28 141.79"/>
      <polygon class="cls-25" points="429.28 144.04 429.28 145.16 429.15 145.16 429.15 144.04 429.28 144.04"/>
      <polygon class="cls-25" points="429.29 146.29 429.29 147.41 429.15 147.41 429.15 146.29 429.29 146.29"/>
      <polygon class="cls-25" points="429.29 148.54 429.29 149.66 429.14 149.66 429.15 148.54 429.29 148.54"/>
      <polygon class="cls-25" points="429.29 150.78 429.29 151.41 429.22 151.33 429.72 151.33 429.72 151.48 429.22 151.48 429.14 151.48 429.14 151.41 429.14 150.78 429.29 150.78"/>
      <polygon class="cls-25" points="430.84 151.33 431.96 151.33 431.96 151.48 430.84 151.48 430.84 151.33"/>
      <polygon class="cls-25" points="433.09 151.33 434.21 151.33 434.21 151.49 433.09 151.48 433.09 151.33"/>
      <polygon class="cls-25" points="435.34 151.33 436.46 151.33 436.46 151.49 435.34 151.49 435.34 151.33"/>
      <polygon class="cls-25" points="437.59 151.33 438.71 151.33 438.71 151.49 437.59 151.49 437.59 151.33"/>
      <polygon class="cls-25" points="439.84 151.33 440.96 151.33 440.96 151.49 439.84 151.49 439.84 151.33"/>
      <polygon class="cls-25" points="442.08 151.32 443.21 151.32 443.21 151.49 442.08 151.49 442.08 151.32"/>
      <polygon class="cls-25" points="444.33 151.32 445.46 151.32 445.46 151.49 444.33 151.49 444.33 151.32"/>
      <polygon class="cls-25" points="446.58 151.32 447.71 151.32 447.71 151.5 446.58 151.5 446.58 151.32"/>
      <polygon class="cls-25" points="448.83 151.32 449.95 151.32 449.95 151.5 448.83 151.5 448.83 151.32"/>
      <polygon class="cls-25" points="451.08 151.32 452.2 151.32 452.2 151.5 451.08 151.5 451.08 151.32"/>
      <polygon class="cls-25" points="453.33 151.32 454.45 151.31 454.45 151.5 453.33 151.5 453.33 151.32"/>
      <polygon class="cls-25" points="455.58 151.31 456.7 151.31 456.7 151.5 455.58 151.5 455.58 151.31"/>
      <rect class="cls-25" x="457.83" y="151.31" width="1.12" height=".19"/>
      <rect class="cls-25" x="460.07" y="151.31" width="1.12" height=".19"/>
      <rect class="cls-25" x="462.32" y="151.31" width="1.12" height=".19"/>
      <rect class="cls-25" x="464.57" y="151.31" width="1.12" height=".19"/>
      <rect class="cls-25" x="466.82" y="151.31" width="1.12" height=".2"/>
      <rect class="cls-25" x="469.07" y="151.31" width="1.12" height=".2"/>
      <rect class="cls-25" x="471.32" y="151.31" width="1.12" height=".2"/>
      <rect class="cls-25" x="473.57" y="151.31" width="1.12" height=".2"/>
      <rect class="cls-25" x="475.81" y="151.31" width="1.12" height=".2"/>
      <rect class="cls-25" x="478.06" y="151.31" width="1.12" height=".2"/>
      <rect class="cls-25" x="480.31" y="151.31" width="1.12" height=".2"/>
      <rect class="cls-25" x="482.56" y="151.31" width="1.12" height=".2"/>
      <rect class="cls-25" x="484.81" y="151.31" width="1.12" height=".2"/>
      <rect class="cls-25" x="487.06" y="151.31" width="1.12" height=".21"/>
      <rect class="cls-25" x="489.31" y="151.3" width="1.12" height=".21"/>
      <rect class="cls-25" x="491.56" y="151.3" width="1.12" height=".21"/>
      <rect class="cls-25" x="493.8" y="151.3" width="1.12" height=".21"/>
      <rect class="cls-25" x="496.05" y="151.3" width="1.12" height=".21"/>
      <rect class="cls-25" x="498.3" y="151.3" width="1.12" height=".21"/>
      <rect class="cls-25" x="500.55" y="151.3" width="1.12" height=".21"/>
      <rect class="cls-25" x="502.8" y="151.3" width="1.12" height=".21"/>
      <rect class="cls-25" x="505.05" y="151.3" width="1.12" height=".22"/>
      <rect class="cls-25" x="507.3" y="151.3" width="1.12" height=".22"/>
      <rect class="cls-25" x="509.55" y="151.3" width="1.12" height=".22"/>
      <rect class="cls-25" x="511.79" y="151.3" width="1.12" height=".22"/>
      <rect class="cls-25" x="514.04" y="151.3" width="1.12" height=".22"/>
      <rect class="cls-25" x="516.29" y="151.3" width="1.12" height=".22"/>
      <rect class="cls-25" x="518.54" y="151.3" width="1.12" height=".22"/>
      <rect class="cls-25" x="520.79" y="151.3" width="1.12" height=".22"/>
      <rect class="cls-25" x="522.7" y="150.06" width=".22" height="1.12"/>
      <rect class="cls-25" x="522.7" y="147.81" width=".22" height="1.12"/>
      <rect class="cls-25" x="522.7" y="145.56" width=".22" height="1.12"/>
      <rect class="cls-25" x="522.7" y="143.31" width=".22" height="1.12"/>
      <rect class="cls-25" x="522.7" y="141.06" width=".22" height="1.12"/>
      <rect class="cls-25" x="522.7" y="138.82" width=".22" height="1.12"/>
      <rect class="cls-25" x="522.7" y="136.57" width=".22" height="1.12"/>
      <rect class="cls-25" x="522.7" y="134.32" width=".22" height="1.12"/>
      <rect class="cls-25" x="522.71" y="132.07" width=".21" height="1.12"/>
      <rect class="cls-25" x="522.71" y="129.82" width=".21" height="1.12"/>
      <rect class="cls-25" x="522.71" y="127.57" width=".21" height="1.12"/>
      <rect class="cls-25" x="522.71" y="125.32" width=".21" height="1.12"/>
      <rect class="cls-25" x="522.71" y="123.08" width=".21" height="1.12"/>
      <rect class="cls-25" x="522.71" y="120.83" width=".21" height="1.12"/>
      <rect class="cls-25" x="522.71" y="118.58" width=".21" height="1.12"/>
      <rect class="cls-25" x="522.71" y="116.33" width=".21" height="1.12"/>
      <rect class="cls-25" x="522.71" y="114.08" width=".21" height="1.12"/>
      <rect class="cls-25" x="522.71" y="111.83" width=".2" height="1.12"/>
      <rect class="cls-25" x="522.71" y="109.58" width=".2" height="1.12"/>
      <rect class="cls-25" x="522.71" y="107.33" width=".2" height="1.12"/>
      <rect class="cls-25" x="522.71" y="105.09" width=".2" height="1.12"/>
      <rect class="cls-25" x="522.71" y="102.84" width=".2" height="1.12"/>
      <rect class="cls-25" x="522.71" y="100.59" width=".2" height="1.12"/>
      <rect class="cls-25" x="522.72" y="98.34" width=".2" height="1.12"/>
      <rect class="cls-25" x="522.72" y="96.09" width=".2" height="1.12"/>
      <rect class="cls-25" x="522.72" y="93.84" width=".19" height="1.12"/>
      <rect class="cls-25" x="522.72" y="91.59" width=".19" height="1.12"/>
      <polygon class="cls-25" points="522.72 90.47 522.72 90.07 522.81 90.17 522.09 90.16 522.09 89.97 522.81 89.97 522.91 89.97 522.91 90.07 522.91 90.47 522.72 90.47"/>
      <rect class="cls-25" x="519.84" y="89.97" width="1.12" height=".19"/>
      <rect class="cls-25" x="517.59" y="89.97" width="1.12" height=".19"/>
      <polygon class="cls-25" points="516.47 90.16 515.34 90.16 515.34 89.98 516.47 89.97 516.47 90.16"/>
      <polygon class="cls-25" points="514.22 90.16 513.1 90.16 513.1 89.98 514.22 89.98 514.22 90.16"/>
      <polygon class="cls-25" points="511.97 90.16 510.85 90.16 510.85 89.98 511.97 89.98 511.97 90.16"/>
      <polygon class="cls-25" points="509.72 90.16 508.6 90.16 508.6 89.98 509.72 89.98 509.72 90.16"/>
      <polygon class="cls-25" points="507.47 90.16 506.35 90.16 506.35 89.98 507.47 89.98 507.47 90.16"/>
      <polygon class="cls-25" points="505.22 90.15 504.1 90.15 504.1 89.98 505.22 89.98 505.22 90.15"/>
      <polygon class="cls-25" points="502.98 90.15 501.85 90.15 501.85 89.99 502.98 89.99 502.98 90.15"/>
      <polygon class="cls-25" points="500.73 90.15 499.6 90.15 499.6 89.99 500.73 89.99 500.73 90.15"/>
      <polygon class="cls-25" points="498.48 90.15 497.35 90.15 497.35 89.99 498.48 89.99 498.48 90.15"/>
      <polygon class="cls-25" points="496.23 90.15 495.11 90.15 495.11 89.99 496.23 89.99 496.23 90.15"/>
      <polygon class="cls-25" points="493.98 90.15 492.86 90.14 492.86 89.99 493.98 89.99 493.98 90.15"/>
      <polygon class="cls-25" points="491.73 90.14 490.61 90.14 490.61 89.99 491.73 89.99 491.73 90.14"/>
      <polygon class="cls-25" points="489.48 90.14 488.36 90.14 488.36 90 489.48 90 489.48 90.14"/>
      <polygon class="cls-25" points="487.23 90.14 486.11 90.14 486.11 90 487.23 90 487.23 90.14"/>
      <polygon class="cls-25" points="484.99 90.14 483.86 90.14 483.86 90 484.99 90 484.99 90.14"/>
      <polygon class="cls-25" points="482.74 90.14 481.61 90.13 481.61 90 482.74 90 482.74 90.14"/>
      <polygon class="cls-25" points="480.49 90.13 479.36 90.13 479.36 90 480.49 90 480.49 90.13"/>
      <polygon class="cls-25" points="478.24 90.13 477.12 90.13 477.12 90.01 478.24 90 478.24 90.13"/>
      <polygon class="cls-25" points="475.99 90.13 474.87 90.13 474.87 90.01 475.99 90.01 475.99 90.13"/>
      <polygon class="cls-25" points="473.74 90.13 472.62 90.13 472.62 90.01 473.74 90.01 473.74 90.13"/>
      <polygon class="cls-25" points="471.49 90.13 470.37 90.13 470.37 90.01 471.49 90.01 471.49 90.13"/>
      <polygon class="cls-25" points="469.25 90.12 468.12 90.12 468.12 90.01 469.25 90.01 469.25 90.12"/>
      <polygon class="cls-25" points="467 90.12 465.87 90.12 465.87 90.02 467 90.01 467 90.12"/>
      <polygon class="cls-25" points="464.75 90.12 463.62 90.12 463.62 90.02 464.75 90.02 464.75 90.12"/>
      <polygon class="cls-25" points="462.5 90.12 461.37 90.11 461.37 90.02 462.5 90.02 462.5 90.12"/>
      <polygon class="cls-25" points="460.25 90.11 459.13 90.11 459.13 90.03 460.25 90.02 460.25 90.11"/>
      <polygon class="cls-25" points="458 90.11 456.88 90.11 456.88 90.03 458 90.03 458 90.11"/>
      <polygon class="cls-25" points="455.75 90.11 454.63 90.1 454.63 90.03 455.75 90.03 455.75 90.11"/>
      <polygon class="cls-25" points="453.5 90.1 452.38 90.1 452.38 90.04 453.5 90.03 453.5 90.1"/>
      <polygon class="cls-25" points="451.26 90.1 450.13 90.1 450.13 90.04 451.26 90.04 451.26 90.1"/>
      <polygon class="cls-25" points="449.01 90.1 447.88 90.09 447.88 90.04 449.01 90.04 449.01 90.1"/>
      <polygon class="cls-25" points="446.76 90.09 445.63 90.09 445.63 90.04 446.76 90.04 446.76 90.09"/>
      <polygon class="cls-25" points="444.51 90.09 443.38 90.09 443.38 90.05 444.51 90.05 444.51 90.09"/>
      <polygon class="cls-25" points="442.26 90.09 441.14 90.09 441.14 90.05 442.26 90.05 442.26 90.09"/>
      <polygon class="cls-25" points="440.01 90.08 438.89 90.08 438.89 90.06 440.01 90.05 440.01 90.08"/>
      <polygon class="cls-25" points="437.76 90.08 436.64 90.08 436.64 90.06 437.76 90.06 437.76 90.08"/>
      <polygon class="cls-25" points="435.51 90.08 434.39 90.08 434.39 90.06 435.51 90.06 435.51 90.08"/>
      <polygon class="cls-25" points="433.27 90.07 432.14 90.07 432.14 90.06 433.27 90.06 433.27 90.07"/>
      <polygon class="cls-25" points="431.02 90.07 429.89 90.07 429.89 90.07 431.02 90.07 431.02 90.07"/>
    </g>
    <g>
      <polygon class="cls-25" points="287.73 142.6 287.23 141.59 287.23 141.59 287.73 142.6"/>
      <polygon class="cls-25" points="286.67 140.62 286.04 139.68 286.05 139.68 286.67 140.61 286.67 140.62"/>
      <polygon class="cls-25" points="285.35 138.79 284.6 137.95 284.61 137.95 285.36 138.79 285.35 138.79"/>
      <polygon class="cls-25" points="283.8 137.17 282.95 136.43 282.96 136.42 283.81 137.15 283.8 137.17"/>
      <polygon class="cls-25" points="282.05 135.76 281.11 135.15 281.12 135.13 282.06 135.74 282.05 135.76"/>
      <polygon class="cls-25" points="280.13 134.6 279.11 134.13 279.12 134.1 280.14 134.58 280.13 134.6"/>
      <polygon class="cls-25" points="278.07 133.71 276.99 133.37 277.01 133.34 278.08 133.68 278.07 133.71"/>
      <polygon class="cls-25" points="275.9 133.11 274.8 132.91 274.81 132.86 275.91 133.06 275.9 133.11"/>
      <polygon class="cls-25" points="273.68 132.8 272.56 132.75 272.56 132.69 273.69 132.74 273.68 132.8"/>
      <polygon class="cls-25" points="271.44 132.79 270.32 132.89 270.31 132.81 271.43 132.71 271.44 132.79"/>
      <polygon class="cls-25" points="269.22 133.08 268.12 133.33 268.1 133.24 269.2 132.99 269.22 133.08"/>
      <polygon class="cls-25" points="267.05 133.66 266.01 134.06 265.96 133.96 267.02 133.57 267.05 133.66"/>
      <polygon class="cls-25" points="264.99 134.53 264 135.06 263.94 134.96 264.94 134.43 264.99 134.53"/>
      <polygon class="cls-25" points="263.06 135.66 262.15 136.32 262.07 136.22 262.98 135.56 263.06 135.66"/>
      <polygon class="cls-25" points="261.29 137.04 260.49 137.82 260.38 137.71 261.2 136.94 261.29 137.04"/>
      <polygon class="cls-25" points="259.73 138.65 259.04 139.52 258.9 139.42 259.61 138.54 259.73 138.65"/>
      <polygon class="cls-25" points="258.4 140.44 257.83 141.4 257.67 141.32 258.26 140.35 258.4 140.44"/>
      <polygon class="cls-25" points="257.33 142.4 256.89 143.43 256.71 143.36 257.16 142.32 257.33 142.4"/>
      <polygon class="cls-25" points="256.52 144.48 256.21 145.56 256.02 145.51 256.33 144.43 256.52 144.48"/>
      <polygon class="cls-25" points="255.99 146.66 255.83 147.76 255.63 147.74 255.79 146.62 255.99 146.66"/>
      <path class="cls-25" d="M255.75,148.88v.56c0,.09-.01,.19,0,.28v.28s-.2,0-.2,0v-.28c0-.09,0-.19,0-.28v-.57s.21,0,.21,0h0Z"/>
      <polygon class="cls-25" points="255.82 151.11 255.97 152.22 255.76 152.25 255.61 151.13 255.82 151.11"/>
      <polygon class="cls-25" points="256.19 153.31 256.48 154.39 256.27 154.45 255.98 153.36 256.19 153.31"/>
      <polygon class="cls-25" points="256.85 155.45 257.28 156.47 257.07 156.57 256.64 155.52 256.85 155.45"/>
      <polygon class="cls-25" points="257.78 157.47 258.34 158.44 258.16 158.55 257.58 157.58 257.78 157.47"/>
      <polygon class="cls-25" points="258.97 159.36 259.66 160.24 259.49 160.38 258.79 159.49 258.97 159.36"/>
      <polygon class="cls-25" points="260.4 161.07 261.2 161.85 261.06 162.01 260.25 161.22 260.4 161.07"/>
      <polygon class="cls-25" points="262.05 162.58 262.95 163.25 262.83 163.41 261.92 162.74 262.05 162.58"/>
      <path class="cls-25" d="M263.89,163.85l.48,.28c.16,.09,.33,.17,.49,.26l-.09,.18c-.17-.09-.33-.17-.5-.26l-.49-.28,.1-.17h0Z"/>
      <path class="cls-25" d="M265.88,164.86l.52,.21,.26,.1c.09,.04,.18,.06,.26,.1l-.06,.18c-.09-.03-.18-.06-.27-.1l-.26-.1-.53-.21,.08-.18h0Z"/>
      <polygon class="cls-25" points="267.99 165.61 269.07 165.87 269.04 166.05 267.94 165.78 267.99 165.61"/>
      <polygon class="cls-25" points="270.18 166.06 271.29 166.18 271.28 166.35 270.15 166.23 270.18 166.06"/>
      <polygon class="cls-25" points="272.41 166.22 273.52 166.19 273.53 166.34 272.41 166.38 272.41 166.22"/>
      <polygon class="cls-25" points="274.64 166.09 275.74 165.9 275.77 166.04 274.66 166.23 274.64 166.09"/>
      <polygon class="cls-25" points="276.83 165.65 277.9 165.32 277.95 165.43 276.87 165.77 276.83 165.65"/>
      <polygon class="cls-25" points="278.95 164.92 279.97 164.45 280.02 164.55 279 165.03 278.95 164.92"/>
      <polygon class="cls-25" points="280.95 163.92 281.9 163.32 281.96 163.4 281.01 164 280.95 163.92"/>
      <polygon class="cls-25" points="282.81 162.66 283.67 161.94 283.72 161.99 282.86 162.72 282.81 162.66"/>
      <polygon class="cls-25" points="284.48 161.16 285.23 160.33 285.28 160.37 284.53 161.21 284.48 161.16"/>
      <path class="cls-25" d="M285.93,159.45c.11-.15,.21-.31,.32-.46l.32-.46,.04,.03-.32,.47c-.11,.16-.21,.31-.32,.46l-.05-.03h0Z"/>
      <polygon class="cls-25" points="287.14 157.56 287.65 156.56 287.68 156.58 287.18 157.58 287.14 157.56"/>
      <polygon class="cls-25" points="288.09 155.53 288.19 155.26 288.28 155 288.46 154.47 288.49 154.48 288.31 155.01 288.22 155.28 288.12 155.54 288.09 155.53"/>
      <polygon class="cls-25" points="288.76 153.38 288.98 152.28 289.01 152.29 288.78 153.39 288.76 153.38"/>
      <polygon class="cls-25" points="289.13 151.17 289.21 150.05 289.23 150.05 289.15 151.17 289.13 151.17"/>
      <polygon class="cls-25" points="289.21 148.92 289.13 147.8 289.14 147.8 289.22 148.92 289.21 148.92"/>
      <polygon class="cls-25" points="288.98 146.69 288.75 145.59 288.76 145.59 288.99 146.69 288.98 146.69"/>
      <polygon class="cls-25" points="288.45 144.5 288.08 143.44 288.08 143.44 288.46 144.5 288.45 144.5"/>
    </g>
  </g>
  <g>
    <rect class="cls-8" x="297.23" y="54.73" width="100.86" height="75.72"/>
    <rect class="cls-8" x="297.23" y="54.73" width="100.86" height="7.75"/>
    <circle class="cls-2" cx="303.05" cy="58.49" r="1.62"/>
    <circle class="cls-2" cx="308.15" cy="58.49" r="1.62"/>
    <circle class="cls-2" cx="313.26" cy="58.49" r="1.62"/>
    <rect class="cls-2" x="305.17" y="65.64" width="85.45" height="16.54"/>
    <g>
      <path class="cls-5" d="M386.58,73.41c-.25,.83-.84,1.55-1.61,1.97-.76,.43-1.7,.55-2.57,.31-.43-.12-.84-.32-1.2-.6-.36-.28-.66-.63-.88-1.03-.22-.4-.36-.85-.41-1.31-.04-.46,0-.93,.14-1.37,.14-.44,.37-.85,.67-1.2,.3-.35,.67-.64,1.08-.84,.41-.21,.86-.32,1.31-.35s.91,.04,1.33,.19c.85,.29,1.55,.93,1.94,1.71,.39,.78,.46,1.71,.2,2.53h0Zm0,0c.13-.41,.17-.85,.13-1.28-.04-.43-.18-.85-.38-1.22-.21-.38-.49-.7-.83-.97-.33-.26-.72-.45-1.12-.56-.81-.22-1.68-.11-2.4,.29-.71,.4-1.26,1.06-1.5,1.84-.25,.77-.18,1.63,.18,2.36,.36,.73,1.01,1.33,1.81,1.6,.39,.14,.82,.2,1.24,.18,.42-.03,.84-.13,1.23-.32,.38-.19,.73-.46,1.01-.79s.49-.72,.62-1.13h0Z"/>
      <path class="cls-5" d="M376.57,78.72c.27-.38,.58-.73,.89-1.06,.31-.34,.64-.66,.98-.97,.34-.31,.68-.61,1.04-.9,.36-.29,.73-.56,1.13-.81-.27,.38-.58,.73-.89,1.06-.31,.34-.64,.66-.98,.97s-.68,.61-1.04,.9c-.36,.29-.73,.56-1.13,.81h0Z"/>
    </g>
    <rect class="cls-2" x="306.53" y="87.22" width="49.92" height="2.3"/>
    <rect class="cls-5" x="306.53" y="94.27" width="29.85" height="2.3"/>
    <rect class="cls-32" x="306.53" y="101.35" width="79.7" height="2.27"/>
    <rect class="cls-2" x="306.53" y="108.29" width="41.13" height="2.38"/>
    <rect class="cls-32" x="306.53" y="115.41" width="56.05" height="2.3"/>
    <rect class="cls-32" x="306.53" y="122.46" width="49.92" height="2.3"/>
  </g>
  <g>
    <rect class="cls-5" x="311.96" y="159.22" width="89" height="68.26"/>
    <rect class="cls-1" x="321.86" y="212.71" width="4.29" height="8.06"/>
    <rect class="cls-2" x="342.22" y="214.63" width="3.78" height="6.14"/>
    <rect class="cls-1" x="369.2" y="212.71" width="4.29" height="8.06"/>
    <rect class="cls-5" x="350.73" y="212.71" width="4.29" height="8.06"/>
    <rect class="cls-2" x="355.05" y="212.71" width="4.29" height="8.06"/>
    <rect class="cls-5" x="376.07" y="212.71" width="4.29" height="8.06"/>
    <rect class="cls-2" x="385.19" y="214.63" width="4.03" height="6.14"/>
    <rect class="cls-2" x="366.43" y="171.47" width="24.54" height="2.77"/>
    <g>
      <rect class="cls-27" x="366.72" y="177.23" width="19.51" height="1.2"/>
      <rect class="cls-27" x="366.72" y="180.78" width="19.51" height="1.2"/>
      <rect class="cls-27" x="366.72" y="184.32" width="19.51" height="1.2"/>
    </g>
    <rect class="cls-2" x="366.43" y="190.48" width="24.54" height="2.77"/>
    <g>
      <rect class="cls-27" x="366.72" y="196.24" width="19.51" height="1.2"/>
      <rect class="cls-27" x="366.72" y="199.78" width="19.51" height="1.2"/>
      <rect class="cls-27" x="366.72" y="203.33" width="19.51" height="1.2"/>
    </g>
    <g>
      <path class="cls-2" d="M358.84,184.93c-.26-8.15-5.8-14.98-13.31-17.16-.57-.17-1.15-.31-1.75-.42-1.11-.21-2.26-.32-3.43-.32-4.13,0-7.94,1.35-11.02,3.64-.67,.5-1.31,1.04-1.91,1.63-3.44,3.36-5.57,8.04-5.57,13.23,0,.76,.04,1.5,.13,2.23,.58,4.83,3.02,9.08,6.58,12.03,3.2,2.65,7.3,4.24,11.78,4.24,1.68,0,3.3-.22,4.84-.64,.54-.15,1.08-.32,1.6-.51,6.19-2.3,10.81-7.82,11.83-14.52,.14-.92,.21-1.86,.21-2.82,0-.2,0-.4-.01-.6h0Zm-13.79,13.36c-.5,.19-1.02,.34-1.55,.47-1.01,.24-2.07,.37-3.15,.37-3.31,0-6.33-1.18-8.69-3.14-2.87-2.38-4.74-5.93-4.9-9.91,0-.18-.01-.37-.01-.55,0-3.69,1.47-7.04,3.86-9.49,.5-.51,1.03-.98,1.61-1.41,2.27-1.7,5.08-2.7,8.13-2.7,.84,0,1.67,.08,2.47,.22,.84,.15,1.64,.38,2.41,.68,4.79,1.85,8.28,6.33,8.67,11.67,.02,.34,.04,.68,.04,1.02,0,.71-.05,1.4-.16,2.08-.76,4.94-4.18,9-8.74,10.68h0Z"/>
      <path class="cls-27" d="M343.79,167.35l-.96,4.8c-.8-.15-1.63-.22-2.47-.22-3.05,0-5.86,1-8.13,2.7l-2.89-3.96c3.08-2.29,6.89-3.64,11.02-3.64,1.17,0,2.32,.11,3.43,.32h0Z"/>
      <path class="cls-1" d="M358.85,185.53c0,.96-.07,1.9-.21,2.82l-4.84-.74c.1-.68,.16-1.38,.16-2.08,0-.34-.01-.68-.04-1.02-.4-5.34-3.88-9.83-8.67-11.67-.77-.3-1.58-.53-2.41-.68l.96-4.8c.59,.11,1.18,.25,1.75,.42,7.51,2.18,13.05,9.01,13.31,17.16,0,.2,.01,.4,.01,.6h0Z"/>
      <path class="cls-27" d="M346.81,202.87c-.52,.19-1.06,.37-1.6,.51-1.54,.42-3.17,.64-4.84,.64-4.48,0-8.58-1.59-11.78-4.24l3.09-3.8c2.36,1.96,5.38,3.14,8.69,3.14,1.09,0,2.14-.13,3.15-.37,.53-.13,1.04-.28,1.55-.47l1.75,4.58h0Z"/>
    </g>
    <path class="cls-5" d="M392.51,220.99h-71.72c-.12,0-.22-.1-.22-.22s.1-.22,.22-.22h71.72c.12,0,.22,.1,.22,.22s-.1,.22-.22,.22Z"/>
  </g>
  <ellipse class="cls-17" cx="413.1" cy="259.2" rx="78.55" ry="25.72"/>
  <ellipse class="cls-11" cx="413.88" cy="256.72" rx="46.05" ry="15.08"/>
  <g>
    <path class="cls-33" d="M399.48,240.56s-2.88,5.18-10.36,5.75c-7.48,.58-10.55,4.8-5.95,5.75,4.6,.96,17.45,.77,19.37-2.11,1.92-2.88,.96-8.06,.96-8.06l-4.03-1.34h0Z"/>
    <g class="cls-20">
      <path class="cls-2" d="M380.43,250.26c.35-.03,.7,.09,1.04,.21,7.33,2.53,15.77,1.65,22.42-2.34,.12-.07,.24-.14,.38-.15,.31-.02,.55,.3,.56,.6,0,.31-.16,.59-.34,.84-1.49,2.07-4.04,3.06-6.5,3.76-2.24,.63-4.52,1.1-6.83,1.42-2.28,.31-4.6,.46-6.87,.11s-4.51-1.21-6.22-2.73c-.34-.3-.67-.66-.75-1.1l3.12-.61h0Z"/>
    </g>
    <path class="cls-33" d="M421.58,256.17s-.71,6.07-4.73,11.44c-4.03,5.37-5.95,9.02,0,7.48s11.99-8.75,12.27-12.47c.28-3.72,0-6.46,0-6.46h-7.54Z"/>
    <g class="cls-14">
      <path class="cls-2" d="M413.08,272.97c.8,.92,2.09,1.27,3.3,1.23,3.14-.1,5.73-2.38,7.99-4.56,2.7-2.6,5.46-5.39,6.58-8.97-.15,4.34-1.78,8.62-4.57,11.96-2.78,3.34-6.7,5.72-10.94,6.65-1.44,.32-3.01,.46-4.35-.17s-2.29-2.27-1.72-3.63l3.7-2.51h0Z"/>
    </g>
    <path class="cls-6" d="M395.94,155.69s-.86,14.39,0,27.04c.86,12.66,2.59,30.78,2.16,36.25-.43,5.47,0,23.3,0,23.3,0,0,2.92,2.88,6.38,1.73,3.45-10.64,6.43-24.74,6.14-32.22-.29-7.48,.86-23.88,.86-23.88,0,0,0,19.28,3.17,28.48s6.33,42.29,6.33,42.29c0,0,4.89,1.15,8.34,0,0-7.77,4.03-38.55,2.59-45.74-1.44-7.19,.58-45.46-2.3-51.79-2.88-6.33-33.66-5.47-33.66-5.47h0Z"/>
    <g class="cls-7">
      <g>
        <path class="cls-23" d="M411.35,190.46c.62-4.77,.41-9.64-.63-14.34-.98,7.78-1.97,15.57-2.95,23.35-.38,3.04-.79,6.14-2.17,8.87-.51,1-1.15,2.18-.61,3.16,.43,.78,1.5,1.15,1.71,2.02,.19,.82-.49,1.55-.97,2.24-1.84,2.63-1.1,6.17-1.35,9.37-.27,3.33-1.69,6.45-3.17,9.44-.69,1.4-1.46,2.86-2.79,3.68-1.33,.82-3.38,.67-4.12-.7-.14,3.11,.84,6.26,2.71,8.75,1.91,2.54,5.47,4.42,8.23,2.84,2.15-1.23,2.84-3.94,3.29-6.37,2.55-13.83,3.69-27.92,3.39-41.98l-.56-10.34h0Z"/>
        <path class="cls-23" d="M439.45,201.81c.9-7.56,.4-15.28-1.46-22.66-2.11-8.33-5.96-16.34-6.26-24.93l-3.55,4.81c3.52,14.7,3.28,30.29-.69,44.87-.38,1.41-.8,2.87-.55,4.3,.47,2.69,3.23,5.1,2.25,7.65-.53,1.38-2.09,2.35-2.11,3.84,0,.57,.23,1.1,.42,1.63,1.25,3.38,1.05,7.1,.84,10.7-.28,4.87-.57,9.74-.85,14.6-.15,2.53-.61,5.55-2.91,6.61-2.17,.99-5.36-.11-6.67,1.88-.39,.59-.48,1.34-.47,2.05,.02,3.68,2.48,7.24,5.92,8.55,3.44,1.31,7.64,.3,10.11-2.43,1.7-1.89,2.55-4.39,3.22-6.84,2.22-8.16,2.97-16.72,2.2-25.14-.45-4.9-1.41-9.77-1.31-14.69,.1-4.97,1.28-9.85,1.87-14.79h0Z"/>
      </g>
    </g>
    <path class="cls-16" d="M414.77,110.13s-10.3-.18-15.48,2.7-5.18,12.08-6.71,15.92c-1.53,3.84-1.15,7.48-1.15,7.48,0,0-2.68,9.21-2.68,13.43s1.73,6.52,5.95,6.33c4.22-.19,2.49,4.03,2.49,4.03,0,0,3.6,4.41,9.47,5.56,5.87,1.15,13.99,2.11,17.42,0,3.42-2.11,6.1-1.92,5.53-4.41s.77-5.95,.96-7.1,1.73-12.08,1.73-12.08c0,0,4.99,4.8,10.55,3.84s5.95-3.37,8.25-7.34c2.3-3.97,8.82-13.37,8.82-13.37,0,0-4.99-.19-5.56-3.26-.58-3.07-11.12,6.71-11.12,6.71,0,0-7.57-12.15-10.63-15.22-3.07-3.07-17.81-3.2-17.81-3.2h0Z"/>
    <g class="cls-26">
      <g>
        <path class="cls-10" d="M445.46,124.61c-1.69-.14-3.18-1.19-4.31-2.45s-1.98-2.74-2.99-4.11c-1.68-2.27-3.8-4.2-6.21-5.66,.28,3.23,3.74,5.78,3.28,8.99-.1,.71-.4,1.41-.35,2.13,.16,2,2.72,2.77,3.85,4.43,.18,.26,.32,.55,.33,.86,.05,1.22-1.77,1.77-1.95,2.99,1.06-.47,2.21-.75,3.37-.82-1.02,1.57-1.26,3.62-.65,5.38,1.33-5.78,5.36-10.87,10.68-13.49l1.82-2.58c-1.7,2.27-4.06,4.56-6.88,4.33h0Z"/>
        <path class="cls-10" d="M438.7,149.58c.14-.09,.32-.16,.39-.31,.11-.25-.12-.51-.32-.68-2.07-1.75-4.13-3.49-6.2-5.24l.2-.59c-1.16-2.06-2.32-4.13-3.48-6.19,.91,5.55-.04,11.39-2.66,16.37-1.03,1.95-2.34,4.14-1.55,6.2,.18,.47,.48,.95,.4,1.45-.06,.32-.26,.59-.48,.83-2.1,2.33-5.56,2.78-8.69,2.75-5.45-.05-11.06-1.16-15.51-4.3-1.22-.86-2.48-1.91-3.97-1.86-.39,2.45,1.13,4.8,2.89,6.54,4.65,4.6,11.27,6.78,17.8,7.24,7.41,.52,15.36-1.25,20.58-6.54,1.04-1.05,1.97-2.26,2.42-3.67,.91-2.88-.34-5.97-1.78-8.62-.6-1.11-1.12-2.74-.04-3.39h0Z"/>
        <path class="cls-10" d="M397.21,157.51c.36-9.1,.88-18.2,1.58-27.28-1.05,2.23-1.32,4.74-1.81,7.15-.49,2.42-1.29,4.91-3.09,6.59-.83,.77-2.19,1.3-3.02,.53-.3-.28-.46-.69-.6-1.08-.45-1.23-.91-2.47-1.36-3.7-1.87,1.28-3.06,3.42-3.49,5.65s-.15,4.55,.48,6.73c.68,2.39,1.84,4.73,3.8,6.26,1.35,1.06,3.17,1.68,4.79,1.14,1.47-.48,2.55-2.13,2.21-3.59l.53,1.57h0Z"/>
        <path class="cls-10" d="M412.85,132.06c.51-.26,.82-.78,1.11-1.27,3.26-5.48,6.77-10.81,10.51-15.98,.94-1.3,1.93-2.66,2.2-4.25,.08-.5,.09-1.05-.17-1.49-.3-.52-.88-.8-1.44-1.04-3.32-1.4-6.84-2.31-10.42-2.7l-8.14-.42c2.56,8.13-.89,17.59,3,25.17,.66,1.28,2.06,2.62,3.35,1.96h0Z"/>
      </g>
    </g>
    <path class="cls-2" d="M409.98,110.24s-1.39,5.61-.67,11.08c.72,5.47,.86,9.78,2.09,9.21s11.24-19.93,11.24-19.93l-12.66-.36h0Z"/>
    <path class="cls-31" d="M422.26,118.58s-7.11-2.67-8.77-3.6c-1.67-.92-6.33,3.6-6.33,3.6,0,0,.07-.41,.2-1.05,.42-2.12,1.46-6.74,2.63-7.29,1.53-.72,3.5-1.87,3.5-1.87l5.32-1.29s3.31,2.01,4.17,2.88c.15,.15,.22,.49,.25,.96,.12,2.31-.97,7.67-.97,7.67h0Z"/>
    <path class="cls-2" d="M423.23,110.91c-.1,2.56-.97,6.8-.97,6.8,0,0-7.11-2.67-8.77-3.6-1.46-.81-5.23,2.57-6.13,3.41,.42-2.12,1.46-6.74,2.63-7.29,1.53-.72,3.5-1.87,3.5-1.87l5.32-1.29s3.31,2.01,4.17,2.88c.15,.15,.22,.49,.25,.96h0Z"/>
    <path class="cls-9" d="M419.53,81.4s-.03-3.09-6.7-1.8c-6.67,1.29-7.82,3.45-8.4,4.96-.58,1.51,.07,2.01-.79,2.59-.86,.58-3.88,8.63,2.37,8.27,6.26-.36,16.69,4.35,16.69,4.35,0,0,3.96-2.48,3.52-3.42-.43-.94,5.83-13.31-6.69-14.96h0Z"/>
    <g>
      <path class="cls-34" d="M419.53,81.4s-.03-3.09-6.7-1.8c-6.67,1.29-7.82,3.45-8.4,4.96-.58,1.51,.07,2.01-.79,2.59-.86,.58-3.88,8.63,2.37,8.27,6.26-.36,16.69,4.35,16.69,4.35,0,0,3.96-2.48,3.52-3.42-.43-.94,5.83-13.31-6.69-14.96h0Z"/>
      <g class="cls-15">
        <path class="cls-28" d="M418.84,83.6c-.58-1.52-2.28-2.52-3.89-2.31,.81,.7,1.44,1.59,1.82,2.59-.62-1.25-2.36-1.31-3.75-1.16-2.6,.27-5.54,.83-6.91,3.05-.53,.86-.75,1.87-1.19,2.77-.47,.97-1.2,1.82-2.09,2.43-.46,.32-1,.6-1.21,1.12-.28,.67,.1,1.44,.56,2.01,1.4,1.7,3.54,2.59,5.59,3.39,1.7,.66,3.42,1.3,5.13,1.94,2.53,.95,5.13,1.91,7.83,1.8,.85-.03,1.72-.18,2.44-.63,.89-.55,1.46-1.51,1.85-2.48,1.52-3.85,.38-8.58-2.71-11.33l2.54,.57c.17-.26-.02-.59-.21-.83-1.42-1.73-5.8-2.92-5.8-2.92h0Z"/>
      </g>
    </g>
    <path class="cls-21" d="M404.42,93.55s.14,4.17,1.15,7.05,2.3,6.76,6.47,6.76v4.46s.72,5.47,1.87,5.18c1.15-.29,7.19-8.92,7.19-8.92,0,0-1.15-2.16-1.15-3.88s2.01-1.29,3.45-3.74c1.44-2.45,.29-4.46-1.29-3.45s-1.87-3.31-3.74-3.45-4.13-2.01-4.13-2.01l.68,1.73s-1.44-.43-3.31-1.73c-1.87-1.29-3.6,0-3.6,0,0,0-2.01,2.59-3.6,2.01h0Z"/>
    <g class="cls-30">
      <g>
        <path class="cls-29" d="M421.44,96.8c-.13-2.37-.34-4.93-1.9-6.72-.71-.81-1.65-1.4-2.63-1.87-4.16-2.01-9.19-2.12-13.43-.28-.88,.38-1.79,.92-2.1,1.82,.18,.13,.36,.26,.54,.39l1.24,2.99c.89,.81,2.19,1.14,3.36,.84,.92-.23,1.72-.82,2.64-1.04,2.46-.57,4.8,1.6,7.33,1.57-.49-.29-.85-.81-.92-1.38,1.39,1,2.78,2,4.17,3,.51,.37,1.08,.75,1.7,.68h0Z"/>
        <path class="cls-29" d="M411.6,107.47l-1.47,1.04c-.47,.66-.06,1.68,.67,2.04,.73,.36,1.62,.21,2.36-.12,1.58-.71,2.76-2.26,3.02-3.97-1.34,.87-3,1.24-4.58,1.01h0Z"/>
        <path class="cls-29" d="M422.5,98.87c-.34-.29-.97-.13-1.4,.38-.43,.5-.51,1.15-.17,1.44,.34,.29,.97,.13,1.4-.38,.43-.5,.51-1.15,.17-1.44Z"/>
      </g>
    </g>
    <ellipse class="cls-34" cx="407.73" cy="96.36" rx=".58" ry=".94"/>
    <ellipse class="cls-2" cx="407.63" cy="96.19" rx=".31" ry=".51"/>
    <ellipse class="cls-34" cx="415.79" cy="96.36" rx=".58" ry=".94"/>
    <ellipse class="cls-2" cx="415.67" cy="96.19" rx=".29" ry=".47"/>
    <path class="cls-34" d="M411.47,96.77c.07,.37,.08,.75,.04,1.12-.02,.19-.06,.38-.12,.56-.06,.19-.14,.38-.28,.55-.07,.09-.16,.17-.28,.23l-.11,.05s-.02,.02-.02,.01c0-.01-.02,.02,0,.08,.02,.06,.06,.13,.1,.2,.18,.28,.43,.56,.67,.85-.18-.07-.34-.16-.5-.26-.16-.1-.31-.22-.45-.37-.07-.08-.13-.16-.19-.26-.03-.06-.05-.12-.06-.19-.01-.07,0-.17,.04-.25,.04-.08,.11-.14,.17-.18,.03-.02,.06-.03,.09-.05,.02,0,.02-.01,.03-.01h.02s.09-.08,.14-.13c.04-.05,.09-.12,.12-.19,.04-.07,.07-.15,.1-.22,.07-.16,.12-.32,.17-.49,.11-.34,.2-.69,.31-1.05h0Z"/>
    <path class="cls-34" d="M411.4,103.62c.28,.02,.53,.03,.78,.02,.25,0,.49-.04,.72-.09,.23-.06,.45-.13,.67-.25,.11-.05,.22-.12,.33-.18,.11-.06,.21-.15,.34-.21-.05,.13-.11,.26-.19,.37-.08,.11-.17,.23-.28,.31-.21,.19-.48,.33-.77,.39-.28,.07-.58,.07-.86,0-.28-.06-.54-.18-.75-.37h0Z"/>
    <circle class="cls-29" cx="417.95" cy="99.77" r="1.58"/>
    <g>
      <path class="cls-19" d="M405.07,96.79c0,.19,.03,.38,.04,.57,.02,.18,.02,.36,.05,.53,.06,.35,.25,.66,.51,.87,.26,.21,.59,.33,.92,.33,.36,0,.74-.02,1.1-.03l1.1-.02c.32,0,.63-.13,.86-.35,.23-.21,.39-.51,.43-.82,.02-.15,.01-.35,.01-.53,0-.18,0-.37,0-.55l.21,.21-1.28-.03-1.29-.05-1.32-.06-1.36-.07h0Zm0,0l1.26-.07,1.31-.06,1.33-.05,1.35-.03h.21s0,.21,0,.21c0,.18,0,.37,0,.55,0,.19,.01,.36-.01,.58-.04,.42-.25,.82-.57,1.1-.31,.28-.73,.45-1.15,.45-.38,0-.74-.01-1.11-.02-.37,0-.74-.02-1.11-.03-.41-.01-.81-.19-1.09-.47-.29-.28-.46-.66-.49-1.05-.01-.19,.01-.39,.02-.57,.01-.19,.03-.37,.04-.54h0Z"/>
      <path class="cls-19" d="M412.48,96.79c0,.19,.03,.38,.04,.57,.02,.18,.02,.36,.05,.53,.06,.35,.25,.66,.51,.87,.26,.21,.59,.33,.92,.33,.36,0,.74-.02,1.1-.03l1.1-.02c.32,0,.63-.13,.86-.35,.23-.21,.39-.51,.43-.82,.02-.15,.01-.35,.01-.53,0-.18,0-.37,0-.55l.21,.21-1.28-.03-1.29-.05-1.32-.06-1.36-.07h0Zm0,0l1.26-.07,1.31-.06,1.33-.05,1.35-.03h.21s0,.21,0,.21c0,.18,0,.37,0,.55,0,.19,.01,.36-.01,.58-.04,.42-.25,.82-.57,1.1-.31,.28-.73,.45-1.15,.45-.38,0-.74-.01-1.11-.02-.37,0-.74-.02-1.11-.03-.41-.01-.81-.19-1.09-.47-.29-.28-.46-.66-.49-1.05-.01-.19,.01-.39,.02-.57,.01-.19,.03-.37,.04-.54h0Z"/>
      <path class="cls-19" d="M410.32,97.41c.15-.17,.34-.28,.54-.36,.2-.08,.42-.13,.64-.13,.23,0,.47,.05,.67,.2,.1,.07,.18,.17,.24,.27,.05,.11,.08,.22,.07,.33-.09-.07-.16-.14-.24-.19-.08-.05-.16-.08-.24-.11-.16-.05-.33-.06-.5-.06-.18,0-.37,.01-.56,.02-.2,.01-.4,.03-.62,.02h0Z"/>
    </g>
    <path class="cls-34" d="M408.31,93.84l-.46-.08c-.14-.02-.26-.04-.38-.04-.06,0-.12,0-.18,0-.06,.01-.12,0-.19,.02-.07,0-.13,.03-.21,.04-.08,.02-.15,.04-.24,.06,.05-.17,.15-.32,.3-.42,.07-.06,.16-.09,.25-.12,.04-.01,.09-.02,.14-.03,.05,0,.09,0,.14,0,.19,0,.36,.07,.51,.17,.14,.1,.26,.23,.32,.4h0Z"/>
    <path class="cls-34" d="M416.61,93.84l-.46-.08c-.14-.02-.26-.04-.38-.04-.06,0-.12,0-.18,0-.06,.01-.12,0-.19,.02-.07,0-.13,.03-.21,.04-.08,.02-.15,.04-.24,.06,.05-.17,.15-.32,.3-.42,.07-.06,.16-.09,.25-.12,.04-.01,.09-.02,.14-.03,.05,0,.09,0,.14,0,.19,0,.36,.07,.51,.17,.14,.1,.26,.23,.32,.4h0Z"/>
    <path class="cls-22" d="M453.98,121.32s-.36-4.61,.79-6.62c1.15-2.01,2.95-3.52,2.95-3.52,0,0,2.23-1.94,4.24-2.73s.14,1.8-1.01,3.02c-1.15,1.22-1.37,2.45-.36,2.3s1.35,1.73,2.26,1.94,1.91,1.01,2.35,1.65c.43,.65,.79,2.57-.36,3.05-.53,.22-.84,.07-1.03-.16-.12-.15-.35-.1-.39,.09-.23,1.22-.82,3.57-1.96,4.08-1.56,.69-5.11,1.74-7.48-3.09h0Z"/>
    <g>
      <path class="cls-21" d="M453.98,121.32s-.36-4.61,.79-6.62c1.15-2.01,2.95-3.52,2.95-3.52,0,0,2.23-1.94,4.24-2.73s.14,1.8-1.01,3.02c-1.15,1.22-1.37,2.45-.36,2.3s1.35,1.73,2.26,1.94,1.91,1.01,2.35,1.65c.43,.65,.79,2.57-.36,3.05-.53,.22-.84,.07-1.03-.16-.12-.15-.35-.1-.39,.09-.23,1.22-.82,3.57-1.96,4.08-1.56,.69-5.11,1.74-7.48-3.09h0Z"/>
      <g class="cls-12">
        <path class="cls-29" d="M459.02,115.79c-.15,.59-.18,1.21-.1,1.81,.04,.28,.1,.56,.27,.79,.17,.22,.47,.37,.74,.28,.27-.08,.43-.35,.55-.61,.23-.49,.42-1,.55-1.53-.17,.67-.23,1.37-.16,2.06,.03,.34,.11,.71,.37,.94,.25,.22,.64,.27,.93,.1,.29-.16,.46-.52,.39-.85,.19,.68,.55,1.31,1.05,1.81,.25,.25,.56,.48,.92,.52,.74,.07,1.27-.67,1.63-1.32,.24-.42,.48-.86,.53-1.34-.44,.34-.9,.69-1.44,.82s-1.19-.03-1.47-.52c-.25-.44-.12-1-.24-1.49-.08-.32-.43-.65-.7-.47-.1,.07-.15,.19-.2,.31-.09,.23-.18,.46-.28,.69-.06,.15-.12,.31-.25,.41s-.33,.13-.44,.01c-.08-.09-.09-.22-.1-.33-.02-.46-.03-.93-.05-1.39,0-.16-.02-.34-.13-.45-.19-.19-.53-.06-.69,.15-.16,.21-.24,.48-.41,.68s-.52,.31-.69,.11c-.08-.09-.1-.22-.11-.34-.05-.45-.11-.89-.16-1.34l-.31,.48h0Z"/>
      </g>
    </g>
    <g>
      <path class="cls-21" d="M455.2,118.01s.43-2.09,1.65-3.38,2.16-2.73,2.52-2.66-.65,3.67-.65,3.67c0,0,2.3,2.09,.43,5.11l-3.96-2.73h0Z"/>
      <path class="cls-29" d="M455.2,118.01c.07-.47,.19-.92,.35-1.37,.16-.45,.35-.89,.59-1.3,.06-.1,.12-.21,.19-.31,.07-.1,.14-.2,.21-.29,.08-.09,.16-.19,.23-.28l.23-.26c.3-.36,.59-.72,.89-1.09l.45-.55c.15-.18,.31-.36,.49-.54,.05-.04,.1-.09,.15-.13s.12-.09,.21-.12c.02,0,.05-.02,.08-.02,.02,0,.03,0,.05,0,.02,0,.04,0,.06,0h.03s.03,.01,.05,.02c.04,.01,.06,.03,.09,.06,.02,.02,.03,.04,.05,.06,.01,.02,.02,.03,.03,.05,.04,.12,.04,.18,.04,.26,0,.27-.04,.5-.08,.74-.08,.47-.19,.93-.3,1.39-.11,.46-.24,.91-.37,1.37l-.06-.2c.1,.1,.17,.18,.25,.28,.08,.1,.15,.19,.22,.29,.14,.2,.25,.41,.35,.64,.2,.44,.32,.92,.33,1.4,.02,.48-.05,.96-.21,1.41-.15,.45-.38,.86-.65,1.24,.22-.41,.39-.84,.5-1.29,.03-.11,.04-.22,.07-.33,.01-.11,.03-.22,.03-.34,.02-.22,.01-.45-.01-.67-.05-.44-.18-.87-.38-1.27-.1-.2-.22-.39-.35-.57-.06-.09-.13-.18-.2-.26-.07-.08-.15-.17-.22-.23l-.09-.08,.03-.12c.23-.91,.47-1.82,.62-2.73,.04-.22,.08-.46,.08-.66,0-.04,0-.1,0-.09,0,0,0,0,0,.01,0,.01,.01,.01,.02,.03,.01,.01,.03,.02,.05,.03,0,0,.03,0,.03,0s0,0,0,0h.02s0,0,0,0c-.02,0-.06,.03-.09,.06-.04,.03-.08,.06-.12,.1-.16,.15-.31,.32-.46,.5l-.46,.53c-.3,.36-.61,.72-.94,1.06l-.25,.26c-.08,.09-.16,.17-.24,.25-.08,.08-.14,.18-.22,.26-.07,.09-.13,.19-.2,.28-.26,.38-.48,.79-.67,1.22-.19,.43-.36,.86-.5,1.31h0Z"/>
    </g>
    <g>
      <polygon class="cls-2" points="413.1 156.94 412.72 158.09 394.73 159.87 386.9 134.67 387.89 133.75 405.91 132.59 413.1 156.94"/>
      <ellipse class="cls-27" cx="398.09" cy="145.38" rx="3.02" ry="3.79" transform="translate(13.8 324.08) rotate(-45)"/>
      <polygon class="cls-27" points="413.1 156.94 412.72 158.09 404.42 134.02 386.9 134.67 387.89 133.75 405.91 132.59 413.1 156.94"/>
    </g>
    <path class="cls-21" d="M387.88,140.06s-.86,.77-.38,2.88c.48,2.11,1.71,2.37,1.54,3.63s1.53,1.93,3.64,2.51c2.11,.58,0-1.63,0-1.63,0,0-.33-.77,.94-.96,1.27-.19-1.9-1.87-1.9-1.87,0,0,.67-.62,1.44-1.2s-1.73-1.25-1.73-1.25c0,0,1.82-.19,1.82-1.05s-5.37-1.05-5.37-1.05h0Z"/>
    <g class="cls-13">
      <path class="cls-29" d="M392.34,140.12c.34,.12,.35,.64,.1,.89-.25,.26-.63,.32-.98,.37-.7,.1-1.39,.19-2.09,.29,.74,.27,1.49,.48,2.26,.63,.57,.11,1.17,.21,1.61,.59,.05,.04,.1,.1,.1,.17,0,.08-.09,.13-.17,.17-.92,.43-1.96,.58-2.96,.45-.08,.11,.04,.26,.15,.34,.92,.64,2.16,.6,3.17,1.1,.21,.1,.44,.28,.42,.51-.01,.2-.21,.35-.41,.38s-.4-.03-.6-.07c-.75-.18-1.6-.2-2.22,.25,1.08,.36,1.99,1.09,2.87,1.81,.18,.15,.38,.32,.41,.56,.03,.31-.26,.57-.57,.62-.31,.04-.61-.07-.9-.18-1.27-.48-2.54-.97-3.81-1.45,.32,.98,1.17,1.69,1.98,2.32,.39,.3,.78,.6,1.23,.78,.55,.23,1.17,.27,1.77,.23,.54-.03,1.11-.14,1.53-.48,.64-.52,.78-1.47,.58-2.27-.25-.99-.95-1.88-.93-2.9,.01-.81,.48-1.55,.56-2.36,.08-.88-.33-1.77-.97-2.37-.65-.6-1.5-.95-2.38-1.1l.22,.72h0Z"/>
    </g>
    <g>
      <path class="cls-2" d="M421.02,262.16c-.45-.51-.89-1.01-1.36-1.47-.24-.22-.48-.45-.74-.59-.13-.07-.26-.12-.35-.12-.04,0-.08,.01-.11,.04,0,0-.02,.01-.02,.02,0,.01-.02,.02-.02,.03-.02,.02-.03,.04-.05,.07-.13,.23-.1,.45,.09,.67,.18,.22,.46,.4,.74,.56,.57,.31,1.19,.55,1.83,.79h0Zm0,0c-.34-.02-.67-.08-1-.16-.33-.08-.66-.18-.98-.32-.16-.07-.32-.15-.47-.24-.15-.09-.3-.21-.43-.35-.13-.14-.25-.33-.28-.55v-.08s-.01-.06-.01-.08v-.08s.02-.08,.02-.08l.02-.08,.03-.07s.04-.1,.07-.14c.03-.05,.05-.09,.09-.14l.06-.07s.05-.04,.07-.06c.05-.04,.11-.06,.17-.09,.06-.02,.13-.03,.19-.03,.25,0,.43,.1,.59,.2,.16,.1,.3,.22,.42,.34,.13,.12,.24,.25,.35,.38,.44,.53,.81,1.1,1.1,1.71h0Z"/>
      <path class="cls-2" d="M421.6,262.16c.43-.35,.92-.63,1.46-.83,.27-.1,.56-.17,.87-.17,.16,0,.33,.04,.49,.13l.06,.04,.06,.04s.07,.06,.1,.1c.03,.03,.06,.08,.08,.12,.03,.04,.04,.09,.06,.13,.02,.04,.03,.1,.03,.16,0,.03,0,.06,0,.09,0,.03,0,.06-.02,.09-.01,.03-.02,.06-.04,.09-.02,.02-.04,.05-.06,.07-.02,.03-.04,.04-.06,.06-.02,.02-.04,.04-.06,.05-.17,.1-.32,.13-.47,.16-.3,.04-.58,.03-.86,.01-.56-.05-1.11-.16-1.64-.34h0Zm0,0c.56,0,1.11,0,1.65-.02,.27-.01,.54-.03,.78-.08,.12-.02,.24-.06,.3-.11,.03-.02,.04-.04,.04-.04,0,0,0,0,0,0,0,0,0,0,0,0,0-.01,0-.02-.01-.04-.01-.03-.03-.08-.06-.11-.01-.02-.03-.03-.04-.04l-.02-.02-.03-.02c-.08-.05-.18-.07-.29-.09-.23-.02-.49,.02-.75,.08-.52,.12-1.03,.31-1.56,.5h0Z"/>
      <path class="cls-2" d="M420.95,262.74c-.22,.12-.41,.23-.59,.35-.18,.12-.34,.26-.49,.4-.04,.03-.07,.08-.11,.11l-.06,.06s-.03,.04-.05,.06l-.11,.12s-.07,.09-.1,.13l-.05,.06-.05,.07s-.07,.09-.1,.14c-.07,.09-.13,.19-.22,.29,0-.12,0-.25,.01-.37,.01-.06,.03-.12,.04-.18,.01-.06,.03-.12,.06-.18,.02-.06,.05-.12,.08-.17,.03-.06,.07-.11,.1-.16,.02-.03,.03-.05,.05-.08l.06-.07s.08-.1,.13-.14c.18-.18,.41-.31,.65-.4,.24-.08,.5-.11,.75-.04h0Z"/>
      <path class="cls-2" d="M421.48,262.7c-.12,.22-.21,.43-.28,.63-.08,.2-.14,.41-.17,.61-.01,.05-.02,.1-.03,.16v.08s-.02,.05-.02,.08l-.02,.16c0,.05,0,.11,0,.16v.08s0,.08,0,.08c0,.06,0,.11,0,.17,0,.12,0,.23-.01,.36-.08-.1-.14-.2-.2-.31-.02-.06-.05-.11-.07-.17-.02-.06-.04-.12-.05-.18-.01-.06-.03-.12-.04-.19,0-.06,0-.13-.01-.19,0-.03,0-.06,0-.1v-.1c.02-.06,.02-.13,.03-.19,.05-.25,.16-.49,.31-.7,.15-.2,.35-.38,.59-.46h0Z"/>
    </g>
    <g>
      <path class="cls-2" d="M395.43,244.28c-.02-.68-.03-1.34-.09-2-.04-.32-.08-.65-.18-.93-.05-.14-.12-.26-.19-.32-.04-.02-.07-.04-.11-.04-.01,0-.02,0-.03,0-.01,0-.02,0-.04,0-.02,0-.05,.01-.08,.02-.24,.09-.37,.29-.36,.58,0,.29,.09,.6,.2,.9,.24,.61,.56,1.19,.89,1.78Zm0,0c-.25-.24-.46-.5-.67-.77-.2-.27-.39-.56-.54-.87-.08-.16-.15-.32-.2-.49-.06-.17-.1-.35-.11-.55,0-.19,.02-.41,.14-.6l.04-.07s.04-.04,.05-.06l.06-.06,.06-.05,.07-.05,.07-.04s.09-.05,.14-.07c.05-.02,.1-.04,.16-.04h.09s.06-.01,.09-.01c.06,0,.13,.02,.19,.04,.06,.02,.12,.06,.16,.1,.19,.16,.26,.35,.32,.53,.06,.18,.09,.36,.1,.53,.02,.17,.03,.35,.03,.52,0,.69-.09,1.36-.26,2.02h0Z"/>
      <path class="cls-2" d="M395.87,244.65c.56,.01,1.11,.11,1.65,.3,.27,.1,.54,.23,.78,.44,.12,.11,.23,.24,.3,.42l.02,.07v.07s.03,.09,.03,.14c0,.05,0,.09-.01,.14,0,.05-.02,.09-.04,.14-.01,.04-.05,.1-.08,.14-.02,.02-.04,.05-.06,.07-.02,.02-.05,.04-.08,.06-.03,.02-.06,.03-.09,.04-.03,0-.06,.01-.09,.02-.03,0-.06,0-.08,0-.03,0-.06,0-.08,0-.19-.03-.33-.11-.46-.19-.26-.16-.47-.35-.67-.55-.4-.4-.74-.84-1.04-1.31h0Zm0,0c.43,.35,.84,.72,1.27,1.05,.21,.16,.43,.33,.65,.45,.11,.06,.22,.11,.3,.11,.03,0,.06,0,.06,0,0,0,0,0,0,0,0,0,0,0,0,0,0-.01,.01-.02,.02-.04,.01-.03,.02-.08,.02-.12,0-.02,0-.04,0-.06v-.03s-.02-.03-.02-.03c-.03-.09-.09-.17-.17-.26-.16-.17-.39-.3-.63-.42-.47-.24-.99-.43-1.51-.62h0Z"/>
      <path class="cls-2" d="M395.01,244.68c-.24-.06-.46-.09-.68-.11-.22-.02-.43-.03-.64-.01-.05,0-.1,.01-.16,.02h-.08s-.05,.02-.08,.02l-.16,.02c-.05,.01-.11,.02-.16,.03h-.08s-.08,.04-.08,.04c-.06,.01-.11,.03-.17,.04-.11,.03-.22,.06-.35,.08,.07-.1,.16-.19,.25-.28,.05-.04,.1-.08,.15-.11,.05-.04,.1-.07,.16-.1,.06-.03,.11-.06,.17-.08,.06-.02,.12-.04,.18-.06,.03-.01,.06-.02,.09-.03l.09-.02c.06,0,.13-.02,.19-.02,.26-.02,.52,.02,.76,.12,.24,.1,.45,.24,.6,.45h0Z"/>
      <path class="cls-2" d="M395.44,244.99c-.23,.1-.43,.19-.62,.3-.19,.11-.37,.22-.53,.36-.04,.03-.08,.07-.12,.1l-.06,.05s-.04,.04-.06,.06l-.12,.11s-.07,.08-.11,.12l-.06,.06-.05,.06s-.08,.09-.12,.13c-.08,.09-.15,.18-.24,.27,0-.12,.02-.25,.05-.37,.02-.06,.04-.12,.06-.18,.02-.06,.04-.12,.08-.17,.03-.06,.06-.11,.09-.17,.03-.05,.08-.1,.11-.15,.02-.03,.04-.05,.06-.07l.07-.07s.09-.09,.14-.13c.2-.16,.44-.28,.69-.34,.25-.06,.51-.06,.75,.03h0Z"/>
    </g>
  </g>
  <g>
    <g>
      <rect class="cls-35" x="435.99" y="26.8" width="67.01" height="45.82"/>
      <rect class="cls-2" x="445.9" y="43.5" width="6.79" height="23.99"/>
      <rect class="cls-2" x="455.94" y="47.46" width="6.79" height="20.03"/>
      <rect class="cls-2" x="465.98" y="41.96" width="6.79" height="25.52"/>
      <rect class="cls-2" x="476.01" y="38.76" width="6.79" height="28.73"/>
      <rect class="cls-2" x="486.05" y="40.78" width="6.79" height="26.7"/>
    </g>
    <g>
      <g class="cls-4">
        <circle class="cls-2" cx="465.39" cy="51.97" r="12.87"/>
        <path d="M465.39,65.07c-7.22,0-13.1-5.87-13.1-13.1s5.87-13.1,13.1-13.1,13.1,5.87,13.1,13.1-5.87,13.1-13.1,13.1h0Zm0-25.74c-6.97,0-12.65,5.67-12.65,12.65s5.67,12.65,12.65,12.65,12.65-5.67,12.65-12.65-5.67-12.65-12.65-12.65Z"/>
      </g>
      <polygon class="cls-36" points="484.12 91.88 481.13 93.05 481.12 93.01 471.1 67.69 470.99 65.32 471.22 65.23 472.41 64.76 474.13 66.62 484.12 91.88"/>
      <polygon class="cls-5" points="482.89 92.31 481.12 93.01 471.1 67.69 470.99 65.32 471.22 65.23 472.91 67.05 482.89 92.31"/>
      <path class="cls-5" d="M465.39,36.7c-8.44,0-15.28,6.84-15.28,15.28s6.84,15.28,15.28,15.28,15.28-6.84,15.28-15.28-6.84-15.28-15.28-15.28h0Zm0,26.96c-6.45,0-11.69-5.23-11.69-11.69s5.23-11.69,11.69-11.69,11.69,5.23,11.69,11.69-5.23,11.69-11.69,11.69Z"/>
    </g>
  </g>
  <g class="cls-18">
    <rect class="cls-3" x="434.97" y="101.35" width="93.6" height="61.34"/>
    <rect class="cls-2" x="441.54" y="105.06" width="77.82" height="8.92" rx="1.35" ry="1.35"/>
    <g>
      <path class="cls-5" d="M515.39,108.58c0,.34-.13,.69-.36,.95-.23,.26-.58,.44-.95,.47-.19,.01-.38,0-.56-.07-.18-.06-.36-.16-.5-.29-.29-.26-.47-.66-.47-1.06,0-.4,.18-.8,.47-1.07,.29-.27,.69-.39,1.07-.36,.37,.03,.72,.21,.95,.48,.24,.26,.36,.61,.36,.95h0Zm0,0c0-.34-.15-.68-.41-.91-.13-.11-.27-.19-.43-.24-.16-.05-.32-.06-.48-.05-.31,.03-.6,.19-.79,.41-.19,.22-.3,.5-.3,.79,0,.29,.1,.57,.3,.79,.19,.22,.48,.38,.79,.41,.31,.03,.65-.07,.91-.29,.25-.22,.41-.56,.41-.91h0Z"/>
      <path class="cls-5" d="M512.23,111.77c.01-.2,.06-.39,.12-.56,.06-.17,.14-.34,.23-.5s.19-.31,.31-.45c.12-.14,.25-.27,.43-.39,0,.2-.06,.39-.12,.56-.06,.17-.14,.34-.23,.5-.09,.16-.2,.31-.31,.45-.12,.14-.25,.27-.43,.39Z"/>
    </g>
    <rect class="cls-5" x="481.77" y="120.4" width="36.15" height="3.36"/>
    <rect class="cls-2" x="464.7" y="125.92" width="53.22" height="1.58"/>
    <rect class="cls-2" x="459.9" y="130.45" width="58.02" height="1.58"/>
    <rect class="cls-5" x="481.77" y="137.16" width="36.15" height="3.36"/>
    <rect class="cls-5" x="481.77" y="153.98" width="36.15" height="3.36"/>
    <rect class="cls-2" x="464.7" y="142.67" width="53.22" height="1.58"/>
    <rect class="cls-2" x="447.58" y="147.21" width="70.34" height="1.58"/>
  </g>
  <g>
    <polygon class="cls-2" points="519.93 200.61 505.53 200.61 502.1 184.05 498.05 200.61 483.3 200.61 482.72 196.4 481.95 200.61 474.3 200.61 471.74 190.29 467.73 200.61 447.58 200.61 447.58 200.16 467.42 200.16 471.84 188.8 474.65 200.16 481.58 200.16 482.78 193.54 483.69 200.16 497.7 200.16 502.13 182 505.9 200.16 519.93 200.16 519.93 200.61"/>
    <g>
      <rect class="cls-2" x="452.69" y="184.93" width="7.21" height="21.44"/>
      <rect class="cls-5" x="469.17" y="177.23" width="7.21" height="29.14"/>
      <rect class="cls-2" x="485.64" y="181.98" width="7.21" height="24.39"/>
      <rect class="cls-5" x="502.11" y="175.74" width="7.21" height="30.63"/>
    </g>
  </g>
  <g>
    <path class="cls-2" d="M281.02,165.13c7.04,2.31,14.58-.3,18.77-6.03,.32-.44,.62-.89,.9-1.36,.52-.88,.97-1.83,1.34-2.83,1.28-3.52,1.31-7.19,.31-10.53-.22-.73-.48-1.44-.79-2.13-1.79-3.97-5.13-7.25-9.56-8.86-.64-.23-1.29-.43-1.95-.58-4.3-1-8.69-.24-12.3,1.88-3.25,1.91-5.88,4.91-7.27,8.73-.52,1.43-.83,2.88-.96,4.33-.04,.51-.06,1.02-.06,1.53,.04,5.99,3.31,11.65,8.71,14.6,.74,.41,1.52,.76,2.34,1.06,.17,.06,.34,.12,.51,.18h0Zm-7.12-15.91c0-.49,.03-.97,.08-1.46,.11-.94,.33-1.88,.66-2.8,1.03-2.82,2.97-5.04,5.37-6.44,2.93-1.71,6.53-2.2,9.97-1.1,.16,.05,.32,.1,.47,.16,3.15,1.15,5.55,3.44,6.9,6.24,.28,.58,.51,1.19,.7,1.81,.74,2.46,.73,5.17-.22,7.77-.26,.72-.58,1.4-.96,2.04-.39,.66-.84,1.28-1.33,1.85-3.06,3.52-7.97,5.1-12.65,3.78-.29-.08-.59-.18-.88-.28-.6-.22-1.18-.48-1.73-.78-3.98-2.18-6.38-6.35-6.4-10.77h0Z"/>
    <path class="cls-27" d="M300.69,157.74l-3.8-2.31c.38-.64,.7-1.32,.96-2.04,.95-2.6,.96-5.31,.22-7.77l4.27-1.23c1,3.33,.97,7-.31,10.53-.36,1-.81,1.94-1.34,2.83h0Z"/>
    <path class="cls-5" d="M280.51,164.95c-.82-.3-1.6-.65-2.34-1.06l2.13-3.9c.55,.3,1.12,.56,1.73,.78,.29,.11,.59,.2,.88,.28,4.68,1.32,9.59-.26,12.65-3.78,.49-.57,.94-1.18,1.33-1.85l3.8,2.31c-.28,.47-.58,.93-.9,1.36-4.19,5.73-11.73,8.33-18.77,6.03-.17-.06-.34-.11-.51-.18h0Z"/>
    <path class="cls-27" d="M269.46,149.29c0-.51,.02-1.02,.06-1.53,.12-1.45,.44-2.9,.96-4.33,1.39-3.82,4.02-6.82,7.27-8.73l2.28,3.81c-2.4,1.4-4.35,3.62-5.37,6.44-.34,.93-.56,1.86-.66,2.8-.06,.49-.08,.98-.08,1.46l-4.45,.07h0Z"/>
  </g>
</svg>