<?xml version="1.0" encoding="UTF-8"?>
<svg id="Capa_1" data-name="Capa 1" xmlns="http://www.w3.org/2000/svg" xmlns:xlink="http://www.w3.org/1999/xlink" viewBox="0 0 800 300">
  <defs>
    <style>
      .cls-1 {
        fill: #4c8ca5;
      }

      .cls-2 {
        fill: #fff;
      }

      .cls-3 {
        opacity: .5;
      }

      .cls-4 {
        fill: rgba(255, 255, 255, 0);
      }

      .cls-5 {
        fill: #67a4c3;
      }

      .cls-6 {
        fill: #f63c4e;
      }

      .cls-7 {
        clip-path: url(#clippath-2);
      }

      .cls-8 {
        fill: #001d73;
      }

      .cls-9 {
        fill: #e79329;
      }

      .cls-10 {
        clip-path: url(#clippath-6);
      }

      .cls-11 {
        clip-path: url(#clippath-7);
      }

      .cls-12 {
        clip-path: url(#clippath-1);
      }

      .cls-13 {
        clip-path: url(#clippath-4);
      }

      .cls-14 {
        fill: #ffba55;
      }

      .cls-15 {
        opacity: .63;
      }

      .cls-16 {
        fill: #333a72;
      }

      .cls-17 {
        clip-path: url(#clippath);
      }

      .cls-18 {
        fill: #ff8f6b;
      }

      .cls-19 {
        fill: #fdb3d1;
      }

      .cls-20 {
        fill: #b82e41;
      }

      .cls-21 {
        fill: none;
      }

      .cls-22 {
        fill: #5394ad;
      }

      .cls-23 {
        clip-path: url(#clippath-3);
      }

      .cls-24 {
        fill: #c2e3f2;
      }

      .cls-25 {
        fill: #440b0b;
      }

      .cls-26 {
        fill: #d7eaf4;
      }

      .cls-27 {
        fill: #c0d7e2;
      }

      .cls-28 {
        fill: #f65b2b;
      }

      .cls-29 {
        clip-path: url(#clippath-5);
      }

      .cls-30 {
        fill: #d1d5e8;
      }

      .cls-31 {
        fill: #a6d2e2;
      }

      .cls-32 {
        fill: #1c1f2b;
      }

      .cls-33 {
        fill: #5e1212;
      }

      .cls-34 {
        fill: #376f92;
      }
    </style>
    <clipPath id="clippath">
      <path class="cls-21" d="M399.51,234.33s-2.76,4.97-9.94,5.52c-7.18,.55-10.13,4.6-5.71,5.52,4.42,.92,16.76,.74,18.6-2.02s.92-7.73,.92-7.73l-3.87-1.29Z"/>
    </clipPath>
    <clipPath id="clippath-1">
      <path class="cls-21" d="M420.71,249.31s-.68,5.83-4.54,10.99c-3.87,5.16-5.71,8.65,0,7.18s11.51-8.4,11.78-11.97c.27-3.57,0-6.2,0-6.2h-7.24Z"/>
    </clipPath>
    <clipPath id="clippath-2">
      <path class="cls-21" d="M396.1,152.85s-.83,13.81,0,25.96c.83,12.15,2.48,29.55,2.07,34.8s0,22.37,0,22.37c0,0,2.81,2.76,6.12,1.66,3.31-10.22,6.17-23.75,5.89-30.93s.83-22.92,.83-22.92c0,0,0,18.51,3.04,27.34s6.08,40.6,6.08,40.6c0,0,4.7,1.11,8.01,0,0-7.46,3.87-37.01,2.48-43.91-1.38-6.9,.55-43.64-2.21-49.71s-32.31-5.25-32.31-5.25Z"/>
    </clipPath>
    <clipPath id="clippath-3">
      <path class="cls-21" d="M414.18,109.11s-9.89-.17-14.86,2.59c-4.97,2.77-4.97,11.6-6.45,15.28-.89,2.28-1.27,4.74-1.1,7.18,0,0-2.58,8.84-2.58,12.89s1.66,6.26,5.71,6.08,2.4,3.86,2.4,3.86c0,0,3.45,4.24,9.09,5.34,5.64,1.1,13.44,2.03,16.72,0s5.86-1.84,5.31-4.23c-.55-2.39,.74-5.71,.92-6.81s1.66-11.6,1.66-11.6c0,0,4.79,4.6,10.13,3.68s5.71-3.24,7.92-7.05,8.47-12.84,8.47-12.84c0,0-4.79-.18-5.34-3.13s-10.68,6.44-10.68,6.44c0,0-7.26-11.67-10.21-14.61s-17.1-3.07-17.1-3.07Z"/>
    </clipPath>
    <clipPath id="clippath-4">
      <path class="cls-21" d="M418.75,81.53s-.03-2.97-6.44-1.73c-6.41,1.24-7.51,3.31-8.06,4.76s.07,1.93-.76,2.48-3.73,8.29,2.28,7.94,16.02,4.18,16.02,4.18c0,0,3.8-2.38,3.38-3.28s5.59-12.77-6.43-14.36Z"/>
    </clipPath>
    <clipPath id="clippath-5">
      <path class="cls-21" d="M404.25,93.2s.14,4.01,1.11,6.77,2.21,6.49,6.21,6.49v4.28s.69,5.25,1.8,4.97,6.91-8.56,6.91-8.56c0,0-1.1-2.07-1.1-3.73s1.93-1.24,3.31-3.59,.28-4.28-1.24-3.31-1.8-3.18-3.59-3.31-3.97-1.93-3.97-1.93l.65,1.66s-1.38-.41-3.18-1.66-3.45,0-3.45,0c0,0-1.93,2.49-3.45,1.94Z"/>
    </clipPath>
    <clipPath id="clippath-6">
      <path class="cls-21" d="M451.82,119.86s-.34-4.43,.76-6.36,2.83-3.38,2.83-3.38c0,0,2.14-1.86,4.07-2.62s.14,1.73-.97,2.9-1.31,2.35-.35,2.21,1.3,1.66,2.17,1.86,1.83,.97,2.25,1.59,.76,2.47-.34,2.93c-.51,.21-.81,.06-.99-.16-.08-.09-.21-.1-.3-.02-.03,.03-.06,.07-.07,.11-.22,1.17-.79,3.42-1.88,3.91-1.49,.67-4.9,1.67-7.18-2.96Z"/>
    </clipPath>
    <clipPath id="clippath-7">
      <path class="cls-21" d="M388.37,137.85s-.83,.74-.37,2.76,1.64,2.27,1.48,3.48,1.47,1.86,3.5,2.41,0-1.57,0-1.57c0,0-.32-.74,.9-.92s-1.82-1.8-1.82-1.8c0,0,.65-.6,1.38-1.15s-1.66-1.2-1.66-1.2c0,0,1.75-.18,1.75-1.01s-5.16-1.01-5.16-1.01Z"/>
    </clipPath>
  </defs>
  <g id="_03" data-name=" 03">
    <rect id="_03-2" data-name=" 03-2" class="cls-4" x="147.42" y="-21" width="505.15" height="336.77"/>
    <path class="cls-26" d="M335.69,61.34s35.84-47.54,76.55-43.2c42.18,4.49,48.85,27.33,73.84,28.3s54.7,8.64,54.15,41.37c-.55,32.73-39.03,33.31-26.64,49.11,12.4,15.8,39.34,46.42,10.07,67.76-27.27,19.88-166,38.29-242.5-26.09-50.01-42.09-4.3-131.51,54.53-117.26Z"/>
    <rect class="cls-22" x="387.52" y="51.75" width="0" height="1.08"/>
    <rect class="cls-22" x="387.52" y="49.59" width="0" height="1.08"/>
    <polygon class="cls-22" points="387.51 48.51 387.51 47.54 387.52 47.55 387.4 47.55 387.4 47.54 387.52 47.54 387.52 47.54 387.52 47.54 387.52 48.51 387.51 48.51"/>
    <rect class="cls-22" x="385.25" y="47.54" width="1.08" height="0"/>
    <rect class="cls-22" x="383.09" y="47.54" width="1.08" height="0"/>
    <rect class="cls-22" x="380.93" y="47.54" width="1.08" height="0"/>
    <rect class="cls-22" x="378.77" y="47.54" width="1.08" height=".01"/>
    <rect class="cls-22" x="376.61" y="47.54" width="1.08" height=".01"/>
    <rect class="cls-22" x="374.45" y="47.54" width="1.08" height=".02"/>
    <rect class="cls-22" x="372.29" y="47.53" width="1.08" height=".02"/>
    <rect class="cls-22" x="370.13" y="47.53" width="1.08" height=".02"/>
    <rect class="cls-22" x="367.98" y="47.53" width="1.08" height=".02"/>
    <rect class="cls-22" x="365.82" y="47.53" width="1.08" height=".02"/>
    <rect class="cls-22" x="363.66" y="47.53" width="1.08" height=".02"/>
    <rect class="cls-22" x="361.5" y="47.53" width="1.08" height=".02"/>
    <rect class="cls-22" x="359.34" y="47.53" width="1.08" height=".03"/>
    <rect class="cls-22" x="357.18" y="47.53" width="1.08" height=".03"/>
    <rect class="cls-22" x="355.02" y="47.53" width="1.08" height=".03"/>
    <rect class="cls-22" x="352.86" y="47.53" width="1.08" height=".03"/>
    <rect class="cls-22" x="350.71" y="47.53" width="1.08" height=".03"/>
    <polygon class="cls-22" points="349.63 47.56 348.55 47.56 348.55 47.53 349.63 47.53 349.63 47.56"/>
    <polygon class="cls-22" points="347.47 47.56 346.39 47.56 346.39 47.52 347.47 47.53 347.47 47.56"/>
    <polygon class="cls-22" points="345.31 47.56 344.23 47.57 344.23 47.52 345.31 47.52 345.31 47.56"/>
    <polygon class="cls-22" points="343.15 47.57 342.07 47.57 342.07 47.52 343.15 47.52 343.15 47.57"/>
    <polygon class="cls-22" points="340.99 47.57 339.91 47.57 339.91 47.52 340.99 47.52 340.99 47.57"/>
    <polygon class="cls-22" points="338.83 47.57 337.75 47.57 337.75 47.52 338.83 47.52 338.83 47.57"/>
    <polygon class="cls-22" points="336.67 47.57 335.59 47.57 335.59 47.51 336.67 47.51 336.67 47.57"/>
    <polygon class="cls-22" points="334.51 47.57 333.44 47.57 333.44 47.51 334.51 47.51 334.51 47.57"/>
    <polygon class="cls-22" points="332.36 47.58 331.28 47.58 331.28 47.51 332.36 47.51 332.36 47.58"/>
    <polygon class="cls-22" points="330.2 47.58 329.12 47.58 329.12 47.51 330.2 47.51 330.2 47.58"/>
    <polygon class="cls-22" points="328.04 47.58 326.96 47.58 326.96 47.51 328.04 47.51 328.04 47.58"/>
    <polygon class="cls-22" points="325.88 47.58 324.8 47.58 324.8 47.5 325.88 47.5 325.88 47.58"/>
    <polygon class="cls-22" points="323.72 47.58 322.64 47.59 322.64 47.5 323.72 47.5 323.72 47.58"/>
    <polygon class="cls-22" points="321.56 47.59 320.48 47.59 320.48 47.5 321.56 47.5 321.56 47.59"/>
    <polygon class="cls-22" points="319.4 47.59 318.32 47.59 318.32 47.5 319.4 47.5 319.4 47.59"/>
    <polygon class="cls-22" points="317.24 47.59 316.16 47.59 316.16 47.49 317.24 47.5 317.24 47.59"/>
    <polygon class="cls-22" points="315.09 47.59 314.01 47.59 314.01 47.49 315.09 47.49 315.09 47.59"/>
    <polygon class="cls-22" points="312.93 47.59 311.85 47.6 311.85 47.49 312.93 47.49 312.93 47.59"/>
    <polygon class="cls-22" points="310.77 47.6 309.69 47.6 309.69 47.49 310.77 47.49 310.77 47.6"/>
    <polygon class="cls-22" points="308.61 47.6 307.53 47.6 307.53 47.49 308.61 47.49 308.61 47.6"/>
    <polygon class="cls-22" points="306.45 47.6 305.37 47.6 305.37 47.49 306.45 47.49 306.45 47.6"/>
    <polygon class="cls-22" points="304.29 47.6 303.21 47.6 303.21 47.48 304.29 47.48 304.29 47.6"/>
    <polygon class="cls-22" points="302.13 47.61 301.05 47.61 301.05 47.48 302.13 47.48 302.13 47.61"/>
    <polygon class="cls-22" points="299.97 47.61 298.89 47.61 298.89 47.48 299.97 47.48 299.97 47.61"/>
    <polygon class="cls-22" points="297.82 47.61 296.74 47.61 296.74 47.48 297.82 47.48 297.82 47.61"/>
    <polygon class="cls-22" points="295.66 47.61 294.58 47.61 294.58 47.48 295.66 47.48 295.66 47.61"/>
    <polygon class="cls-22" points="293.5 47.61 292.42 47.61 292.42 47.47 293.5 47.47 293.5 47.61"/>
    <polygon class="cls-22" points="291.34 47.61 290.69 47.62 290.76 47.54 290.76 47.97 290.62 47.97 290.62 47.54 290.62 47.47 290.69 47.47 291.34 47.47 291.34 47.61"/>
    <polygon class="cls-22" points="290.76 49.05 290.76 50.13 290.61 50.13 290.62 49.05 290.76 49.05"/>
    <polygon class="cls-22" points="290.76 51.21 290.77 52.29 290.61 52.29 290.61 51.21 290.76 51.21"/>
    <polygon class="cls-22" points="290.77 53.37 290.77 54.45 290.61 54.45 290.61 53.37 290.77 53.37"/>
    <polygon class="cls-22" points="290.77 55.53 290.77 56.61 290.61 56.61 290.61 55.53 290.77 55.53"/>
    <polygon class="cls-22" points="290.77 57.69 290.77 58.77 290.61 58.77 290.61 57.69 290.77 57.69"/>
    <polygon class="cls-22" points="290.77 59.85 290.77 60.93 290.61 60.93 290.61 59.85 290.77 59.85"/>
    <polygon class="cls-22" points="290.78 62.01 290.78 63.08 290.6 63.08 290.6 62.01 290.78 62.01"/>
    <polygon class="cls-22" points="290.78 64.16 290.78 65.24 290.6 65.24 290.6 64.16 290.78 64.16"/>
    <polygon class="cls-22" points="290.78 66.32 290.78 67.4 290.6 67.4 290.6 66.32 290.78 66.32"/>
    <rect class="cls-22" x="290.6" y="68.48" width=".18" height="1.08"/>
    <rect class="cls-22" x="290.6" y="70.64" width=".18" height="1.08"/>
    <rect class="cls-22" x="290.6" y="72.8" width=".19" height="1.08"/>
    <rect class="cls-22" x="290.6" y="74.96" width=".19" height="1.08"/>
    <rect class="cls-22" x="290.6" y="77.12" width=".19" height="1.08"/>
    <rect class="cls-22" x="290.59" y="79.28" width=".19" height="1.08"/>
    <rect class="cls-22" x="290.59" y="81.43" width=".19" height="1.08"/>
    <rect class="cls-22" x="290.59" y="83.59" width=".19" height="1.08"/>
    <rect class="cls-22" x="290.59" y="85.75" width=".2" height="1.08"/>
    <rect class="cls-22" x="290.59" y="87.91" width=".2" height="1.08"/>
    <rect class="cls-22" x="290.59" y="90.07" width=".2" height="1.08"/>
    <rect class="cls-22" x="290.59" y="92.23" width=".2" height="1.08"/>
    <rect class="cls-22" x="290.59" y="94.39" width=".2" height="1.08"/>
    <rect class="cls-22" x="290.59" y="96.55" width=".2" height="1.08"/>
    <rect class="cls-22" x="290.59" y="98.7" width=".21" height="1.08"/>
    <rect class="cls-22" x="290.59" y="100.86" width=".21" height="1.08"/>
    <rect class="cls-22" x="290.59" y="103.02" width=".21" height="1.08"/>
    <rect class="cls-22" x="290.58" y="105.18" width=".21" height="1.08"/>
    <rect class="cls-22" x="290.58" y="107.34" width=".21" height="1.08"/>
    <rect class="cls-22" x="290.58" y="109.5" width=".21" height="1.08"/>
    <rect class="cls-22" x="290.58" y="111.66" width=".21" height="1.08"/>
    <rect class="cls-22" x="290.58" y="113.82" width=".21" height="1.08"/>
    <rect class="cls-22" x="290.58" y="115.97" width=".21" height="1.08"/>
    <rect class="cls-22" x="290.58" y="118.13" width=".21" height="1.08"/>
    <rect class="cls-22" x="290.75" y="120.13" width="1.08" height=".21"/>
    <rect class="cls-22" x="292.9" y="120.13" width="1.08" height=".21"/>
    <rect class="cls-22" x="295.06" y="120.13" width="1.08" height=".21"/>
    <rect class="cls-22" x="297.22" y="120.13" width="1.08" height=".21"/>
    <rect class="cls-22" x="299.38" y="120.14" width="1.08" height=".2"/>
    <rect class="cls-22" x="301.54" y="120.14" width="1.08" height=".2"/>
    <rect class="cls-22" x="303.7" y="120.14" width="1.08" height=".2"/>
    <rect class="cls-22" x="305.86" y="120.14" width="1.08" height=".2"/>
    <rect class="cls-22" x="308.02" y="120.14" width="1.08" height=".2"/>
    <rect class="cls-22" x="310.17" y="120.14" width="1.08" height=".2"/>
    <rect class="cls-22" x="312.33" y="120.14" width="1.08" height=".19"/>
    <rect class="cls-22" x="314.49" y="120.14" width="1.08" height=".19"/>
    <rect class="cls-22" x="316.65" y="120.14" width="1.08" height=".19"/>
    <rect class="cls-22" x="318.81" y="120.14" width="1.08" height=".19"/>
    <rect class="cls-22" x="320.97" y="120.14" width="1.08" height=".19"/>
    <rect class="cls-22" x="323.13" y="120.14" width="1.08" height=".19"/>
    <rect class="cls-22" x="325.29" y="120.15" width="1.08" height=".18"/>
    <rect class="cls-22" x="327.44" y="120.15" width="1.08" height=".18"/>
    <polygon class="cls-22" points="329.6 120.15 330.68 120.15 330.68 120.33 329.6 120.33 329.6 120.15"/>
    <polygon class="cls-22" points="331.76 120.15 332.84 120.15 332.84 120.32 331.76 120.33 331.76 120.15"/>
    <polygon class="cls-22" points="333.92 120.15 335 120.15 335 120.32 333.92 120.32 333.92 120.15"/>
    <polygon class="cls-22" points="336.08 120.15 337.16 120.15 337.16 120.32 336.08 120.32 336.08 120.15"/>
    <polygon class="cls-22" points="338.24 120.16 339.32 120.16 339.32 120.32 338.24 120.32 338.24 120.16"/>
    <polygon class="cls-22" points="340.4 120.16 341.48 120.16 341.48 120.32 340.4 120.32 340.4 120.16"/>
    <polygon class="cls-22" points="342.56 120.16 343.64 120.16 343.64 120.31 342.56 120.32 342.56 120.16"/>
    <polygon class="cls-22" points="344.71 120.16 345.79 120.16 345.79 120.31 344.71 120.31 344.71 120.16"/>
    <polygon class="cls-22" points="346.87 120.16 347.95 120.16 347.95 120.31 346.87 120.31 346.87 120.16"/>
    <polygon class="cls-22" points="349.03 120.16 350.11 120.17 350.11 120.31 349.03 120.31 349.03 120.16"/>
    <polygon class="cls-22" points="351.19 120.17 352.27 120.17 352.27 120.31 351.19 120.31 351.19 120.17"/>
    <polygon class="cls-22" points="353.35 120.17 354.43 120.17 354.43 120.3 353.35 120.31 353.35 120.17"/>
    <polygon class="cls-22" points="355.51 120.17 356.59 120.17 356.59 120.3 355.51 120.3 355.51 120.17"/>
    <polygon class="cls-22" points="357.67 120.17 358.75 120.17 358.75 120.3 357.67 120.3 357.67 120.17"/>
    <polygon class="cls-22" points="359.83 120.18 360.91 120.18 360.91 120.3 359.83 120.3 359.83 120.18"/>
    <polygon class="cls-22" points="361.99 120.18 363.06 120.18 363.06 120.3 361.99 120.3 361.99 120.18"/>
    <polygon class="cls-22" points="364.14 120.18 365.22 120.18 365.22 120.29 364.14 120.3 364.14 120.18"/>
    <polygon class="cls-22" points="366.3 120.18 367.38 120.18 367.38 120.29 366.3 120.29 366.3 120.18"/>
    <polygon class="cls-22" points="368.46 120.18 369.54 120.18 369.54 120.29 368.46 120.29 368.46 120.18"/>
    <polygon class="cls-22" points="370.62 120.19 371.7 120.19 371.7 120.29 370.62 120.29 370.62 120.19"/>
    <polygon class="cls-22" points="372.78 120.19 373.86 120.19 373.86 120.29 372.78 120.29 372.78 120.19"/>
    <polygon class="cls-22" points="374.94 120.19 376.02 120.19 376.02 120.28 374.94 120.28 374.94 120.19"/>
    <polygon class="cls-22" points="377.1 120.19 378.18 120.19 378.18 120.28 377.1 120.28 377.1 120.19"/>
    <polygon class="cls-22" points="379.26 120.19 380.33 120.2 380.33 120.28 379.26 120.28 379.26 120.19"/>
    <polygon class="cls-22" points="381.41 120.2 382.49 120.2 382.49 120.28 381.41 120.28 381.41 120.2"/>
    <polygon class="cls-22" points="383.57 120.2 384.65 120.2 384.65 120.28 383.57 120.28 383.57 120.2"/>
    <polygon class="cls-22" points="385.73 120.2 386.81 120.2 386.81 120.27 385.73 120.27 385.73 120.2"/>
    <polygon class="cls-22" points="387.48 119.86 387.48 118.79 387.55 118.79 387.55 119.86 387.48 119.86"/>
    <polygon class="cls-22" points="387.48 117.71 387.48 116.63 387.55 116.63 387.55 117.71 387.48 117.71"/>
    <polygon class="cls-22" points="387.49 115.55 387.49 114.47 387.55 114.47 387.55 115.55 387.49 115.55"/>
    <polygon class="cls-22" points="387.49 113.39 387.49 112.31 387.54 112.31 387.55 113.39 387.49 113.39"/>
    <polygon class="cls-22" points="387.49 111.23 387.49 110.15 387.54 110.15 387.54 111.23 387.49 111.23"/>
    <polygon class="cls-22" points="387.49 109.07 387.49 107.99 387.54 107.99 387.54 109.07 387.49 109.07"/>
    <polygon class="cls-22" points="387.49 106.91 387.5 105.83 387.54 105.83 387.54 106.91 387.49 106.91"/>
    <polygon class="cls-22" points="387.5 104.75 387.5 103.67 387.54 103.67 387.54 104.75 387.5 104.75"/>
    <polygon class="cls-22" points="387.5 102.59 387.5 101.52 387.54 101.52 387.54 102.59 387.5 102.59"/>
    <rect class="cls-22" x="387.5" y="99.36" width=".03" height="1.08"/>
    <rect class="cls-22" x="387.5" y="97.2" width=".03" height="1.08"/>
    <rect class="cls-22" x="387.5" y="95.04" width=".03" height="1.08"/>
    <rect class="cls-22" x="387.5" y="92.88" width=".03" height="1.08"/>
    <rect class="cls-22" x="387.5" y="90.72" width=".03" height="1.08"/>
    <rect class="cls-22" x="387.5" y="88.56" width=".02" height="1.08"/>
    <rect class="cls-22" x="387.5" y="86.4" width=".02" height="1.08"/>
    <rect class="cls-22" x="387.51" y="84.24" width=".02" height="1.08"/>
    <rect class="cls-22" x="387.51" y="82.09" width=".02" height="1.08"/>
    <rect class="cls-22" x="387.51" y="79.93" width=".02" height="1.08"/>
    <rect class="cls-22" x="387.51" y="77.77" width=".02" height="1.08"/>
    <rect class="cls-22" x="387.51" y="75.61" width=".02" height="1.08"/>
    <rect class="cls-22" x="387.51" y="73.45" width=".01" height="1.08"/>
    <rect class="cls-22" x="387.51" y="71.29" width=".01" height="1.08"/>
    <rect class="cls-22" x="387.51" y="69.13" width=".01" height="1.08"/>
    <rect class="cls-22" x="387.51" y="66.97" width="0" height="1.08"/>
    <rect class="cls-22" x="387.51" y="64.82" width="0" height="1.08"/>
    <rect class="cls-22" x="387.51" y="62.66" width="0" height="1.08"/>
    <rect class="cls-22" x="387.51" y="60.5" width="0" height="1.08"/>
    <rect class="cls-22" x="387.52" y="58.34" width="0" height="1.08"/>
    <rect class="cls-22" x="387.52" y="56.18" width="0" height="1.08"/>
    <polygon class="cls-22" points="305.81 222.89 306.89 222.88 306.89 222.89 305.81 222.89"/>
    <polygon class="cls-22" points="307.97 222.88 309.05 222.88 309.05 222.89 307.97 222.89 307.97 222.88"/>
    <polygon class="cls-22" points="310.13 222.88 311.21 222.88 311.21 222.89 310.13 222.89 310.13 222.88"/>
    <polygon class="cls-22" points="312.29 222.88 313.37 222.88 313.37 222.9 312.29 222.9 312.29 222.88"/>
    <polygon class="cls-22" points="314.45 222.88 315.52 222.87 315.52 222.9 314.45 222.9 314.45 222.88"/>
    <polygon class="cls-22" points="316.6 222.87 317.68 222.87 317.68 222.9 316.6 222.9 316.6 222.87"/>
    <polygon class="cls-22" points="318.76 222.87 319.84 222.87 319.84 222.91 318.76 222.91 318.76 222.87"/>
    <polygon class="cls-22" points="320.92 222.87 322 222.86 322 222.91 320.92 222.91 320.92 222.87"/>
    <polygon class="cls-22" points="323.08 222.86 324.16 222.86 324.16 222.91 323.08 222.91 323.08 222.86"/>
    <polygon class="cls-22" points="325.24 222.86 326.32 222.86 326.32 222.92 325.24 222.91 325.24 222.86"/>
    <polygon class="cls-22" points="327.4 222.86 328.48 222.86 328.48 222.92 327.4 222.92 327.4 222.86"/>
    <polygon class="cls-22" points="329.56 222.85 330.64 222.85 330.64 222.92 329.56 222.92 329.56 222.85"/>
    <polygon class="cls-22" points="331.72 222.85 332.8 222.85 332.8 222.92 331.72 222.92 331.72 222.85"/>
    <polygon class="cls-22" points="333.87 222.85 334.95 222.85 334.95 222.93 333.87 222.93 333.87 222.85"/>
    <polygon class="cls-22" points="336.03 222.84 337.11 222.84 337.11 222.93 336.03 222.93 336.03 222.84"/>
    <polygon class="cls-22" points="338.19 222.84 339.27 222.84 339.27 222.93 338.19 222.93 338.19 222.84"/>
    <polygon class="cls-22" points="340.35 222.84 341.43 222.84 341.43 222.94 340.35 222.93 340.35 222.84"/>
    <polygon class="cls-22" points="342.51 222.84 343.59 222.83 343.59 222.94 342.51 222.94 342.51 222.84"/>
    <polygon class="cls-22" points="344.67 222.83 345.75 222.83 345.75 222.94 344.67 222.94 344.67 222.83"/>
    <polygon class="cls-22" points="346.83 222.83 347.91 222.83 347.91 222.94 346.83 222.94 346.83 222.83"/>
    <polygon class="cls-22" points="348.99 222.83 350.07 222.83 350.07 222.95 348.99 222.94 348.99 222.83"/>
    <polygon class="cls-22" points="351.14 222.83 352.22 222.83 352.22 222.95 351.14 222.95 351.14 222.83"/>
    <polygon class="cls-22" points="353.3 222.83 354.38 222.83 354.38 222.95 353.3 222.95 353.3 222.83"/>
    <polygon class="cls-22" points="355.46 222.82 356.54 222.82 356.54 222.95 355.46 222.95 355.46 222.82"/>
    <polygon class="cls-22" points="357.62 222.82 358.7 222.82 358.7 222.95 357.62 222.95 357.62 222.82"/>
    <polygon class="cls-22" points="359.78 222.82 360.86 222.82 360.86 222.95 359.78 222.95 359.78 222.82"/>
    <polygon class="cls-22" points="361.94 222.82 363.02 222.82 363.02 222.96 361.94 222.95 361.94 222.82"/>
    <polygon class="cls-22" points="364.1 222.82 365.18 222.82 365.18 222.96 364.1 222.96 364.1 222.82"/>
    <polygon class="cls-22" points="366.26 222.82 367.34 222.81 367.34 222.96 366.26 222.96 366.26 222.82"/>
    <polygon class="cls-22" points="368.41 222.81 369.49 222.81 369.49 222.96 368.41 222.96 368.41 222.81"/>
    <polygon class="cls-22" points="370.57 222.81 371.65 222.81 371.65 222.96 370.57 222.96 370.57 222.81"/>
    <polygon class="cls-22" points="372.73 222.81 373.81 222.81 373.81 222.96 372.73 222.96 372.73 222.81"/>
    <polygon class="cls-22" points="374.89 222.81 375.97 222.81 375.97 222.96 374.89 222.96 374.89 222.81"/>
    <polygon class="cls-22" points="377.05 222.81 378.13 222.81 378.13 222.97 377.05 222.97 377.05 222.81"/>
    <polygon class="cls-22" points="379.21 222.81 380.29 222.8 380.29 222.97 379.21 222.97 379.21 222.81"/>
    <polygon class="cls-22" points="381.37 222.8 382.45 222.8 382.45 222.97 381.37 222.97 381.37 222.8"/>
    <polygon class="cls-22" points="383.53 222.8 384.61 222.8 384.61 222.97 383.53 222.97 383.53 222.8"/>
    <polygon class="cls-22" points="385.69 222.8 386.76 222.8 386.76 222.97 385.69 222.97 385.69 222.8"/>
    <polygon class="cls-22" points="387.84 222.8 388.92 222.8 388.92 222.98 387.84 222.97 387.84 222.8"/>
    <polygon class="cls-22" points="390 222.8 391.08 222.8 391.08 222.98 390 222.98 390 222.8"/>
    <rect class="cls-22" x="391.15" y="220.89" width=".18" height="1.08"/>
    <rect class="cls-22" x="391.15" y="218.73" width=".18" height="1.08"/>
    <rect class="cls-22" x="391.15" y="216.57" width=".18" height="1.08"/>
    <rect class="cls-22" x="391.15" y="214.41" width=".19" height="1.08"/>
    <rect class="cls-22" x="391.15" y="212.26" width=".19" height="1.08"/>
    <rect class="cls-22" x="391.15" y="210.1" width=".19" height="1.08"/>
    <rect class="cls-22" x="391.15" y="207.94" width=".19" height="1.08"/>
    <rect class="cls-22" x="391.15" y="205.78" width=".19" height="1.08"/>
    <rect class="cls-22" x="391.15" y="203.62" width=".19" height="1.08"/>
    <rect class="cls-22" x="391.15" y="201.46" width=".19" height="1.08"/>
    <rect class="cls-22" x="391.15" y="199.3" width=".19" height="1.08"/>
    <rect class="cls-22" x="391.15" y="197.14" width=".19" height="1.08"/>
    <rect class="cls-22" x="391.15" y="194.99" width=".2" height="1.08"/>
    <rect class="cls-22" x="391.15" y="192.83" width=".2" height="1.08"/>
    <rect class="cls-22" x="391.15" y="190.67" width=".2" height="1.08"/>
    <rect class="cls-22" x="391.15" y="188.51" width=".2" height="1.08"/>
    <rect class="cls-22" x="391.15" y="186.35" width=".2" height="1.08"/>
    <rect class="cls-22" x="391.14" y="184.19" width=".2" height="1.08"/>
    <rect class="cls-22" x="391.14" y="182.03" width=".2" height="1.08"/>
    <rect class="cls-22" x="391.14" y="179.87" width=".2" height="1.08"/>
    <rect class="cls-22" x="391.14" y="177.72" width=".21" height="1.08"/>
    <rect class="cls-22" x="391.14" y="175.56" width=".21" height="1.08"/>
    <rect class="cls-22" x="391.14" y="173.4" width=".21" height="1.08"/>
    <rect class="cls-22" x="391.14" y="171.24" width=".21" height="1.08"/>
    <rect class="cls-22" x="391.14" y="169.08" width=".21" height="1.08"/>
    <rect class="cls-22" x="391.14" y="166.92" width=".21" height="1.08"/>
    <rect class="cls-22" x="391.14" y="164.76" width=".21" height="1.08"/>
    <rect class="cls-22" x="391.14" y="162.6" width=".21" height="1.08"/>
    <rect class="cls-22" x="391.14" y="160.45" width=".21" height="1.08"/>
    <rect class="cls-22" x="391.14" y="158.29" width=".21" height="1.08"/>
    <rect class="cls-22" x="390.02" y="157.25" width="1.08" height=".22"/>
    <rect class="cls-22" x="387.86" y="157.25" width="1.08" height=".21"/>
    <rect class="cls-22" x="385.7" y="157.25" width="1.08" height=".21"/>
    <rect class="cls-22" x="383.54" y="157.25" width="1.08" height=".21"/>
    <rect class="cls-22" x="381.38" y="157.25" width="1.08" height=".21"/>
    <rect class="cls-22" x="379.22" y="157.25" width="1.08" height=".21"/>
    <rect class="cls-22" x="377.07" y="157.25" width="1.08" height=".21"/>
    <rect class="cls-22" x="374.91" y="157.25" width="1.08" height=".21"/>
    <rect class="cls-22" x="372.75" y="157.25" width="1.08" height=".21"/>
    <rect class="cls-22" x="370.59" y="157.25" width="1.08" height=".21"/>
    <rect class="cls-22" x="368.43" y="157.25" width="1.08" height=".2"/>
    <rect class="cls-22" x="366.27" y="157.25" width="1.08" height=".2"/>
    <rect class="cls-22" x="364.11" y="157.26" width="1.08" height=".2"/>
    <rect class="cls-22" x="361.95" y="157.26" width="1.08" height=".2"/>
    <rect class="cls-22" x="359.79" y="157.26" width="1.08" height=".2"/>
    <rect class="cls-22" x="357.64" y="157.26" width="1.08" height=".2"/>
    <rect class="cls-22" x="355.48" y="157.26" width="1.08" height=".2"/>
    <rect class="cls-22" x="353.32" y="157.26" width="1.08" height=".2"/>
    <rect class="cls-22" x="351.16" y="157.26" width="1.08" height=".2"/>
    <rect class="cls-22" x="349" y="157.26" width="1.08" height=".19"/>
    <rect class="cls-22" x="346.84" y="157.26" width="1.08" height=".19"/>
    <rect class="cls-22" x="344.68" y="157.26" width="1.08" height=".19"/>
    <rect class="cls-22" x="342.52" y="157.26" width="1.08" height=".19"/>
    <rect class="cls-22" x="340.37" y="157.26" width="1.08" height=".19"/>
    <rect class="cls-22" x="338.21" y="157.26" width="1.08" height=".19"/>
    <rect class="cls-22" x="336.05" y="157.26" width="1.08" height=".19"/>
    <rect class="cls-22" x="333.89" y="157.26" width="1.08" height=".19"/>
    <rect class="cls-22" x="331.73" y="157.26" width="1.08" height=".19"/>
    <rect class="cls-22" x="329.57" y="157.26" width="1.08" height=".18"/>
    <rect class="cls-22" x="327.41" y="157.26" width="1.08" height=".18"/>
    <polygon class="cls-22" points="326.33 157.45 325.25 157.45 325.25 157.27 326.33 157.27 326.33 157.45"/>
    <polygon class="cls-22" points="324.18 157.45 323.1 157.45 323.1 157.27 324.18 157.27 324.18 157.45"/>
    <polygon class="cls-22" points="322.02 157.44 320.94 157.44 320.94 157.27 322.02 157.27 322.02 157.44"/>
    <polygon class="cls-22" points="319.86 157.44 318.78 157.44 318.78 157.27 319.86 157.27 319.86 157.44"/>
    <polygon class="cls-22" points="317.7 157.44 316.62 157.44 316.62 157.27 317.7 157.27 317.7 157.44"/>
    <polygon class="cls-22" points="315.54 157.44 314.46 157.44 314.46 157.27 315.54 157.27 315.54 157.44"/>
    <polygon class="cls-22" points="313.38 157.44 312.3 157.44 312.3 157.28 313.38 157.28 313.38 157.44"/>
    <polygon class="cls-22" points="311.22 157.44 310.14 157.44 310.14 157.28 311.22 157.28 311.22 157.44"/>
    <polygon class="cls-22" points="309.06 157.43 307.98 157.43 307.98 157.28 309.06 157.28 309.06 157.43"/>
    <polygon class="cls-22" points="306.9 157.43 305.83 157.43 305.83 157.28 306.9 157.28 306.9 157.43"/>
    <polygon class="cls-22" points="305.88 158.42 305.88 159.5 305.74 159.5 305.74 158.42 305.88 158.42"/>
    <polygon class="cls-22" points="305.88 160.58 305.88 161.66 305.74 161.66 305.74 160.58 305.88 160.58"/>
    <polygon class="cls-22" points="305.88 162.74 305.88 163.82 305.74 163.82 305.74 162.74 305.88 162.74"/>
    <polygon class="cls-22" points="305.88 164.9 305.88 165.98 305.74 165.98 305.74 164.9 305.88 164.9"/>
    <polygon class="cls-22" points="305.88 167.06 305.88 168.14 305.74 168.14 305.74 167.06 305.88 167.06"/>
    <polygon class="cls-22" points="305.88 169.21 305.88 170.29 305.75 170.29 305.74 169.21 305.88 169.21"/>
    <polygon class="cls-22" points="305.87 171.37 305.87 172.45 305.75 172.45 305.75 171.37 305.87 171.37"/>
    <polygon class="cls-22" points="305.87 173.53 305.87 174.61 305.75 174.61 305.75 173.53 305.87 173.53"/>
    <polygon class="cls-22" points="305.87 175.69 305.87 176.77 305.75 176.77 305.75 175.69 305.87 175.69"/>
    <polygon class="cls-22" points="305.87 177.85 305.87 178.93 305.75 178.93 305.75 177.85 305.87 177.85"/>
    <polygon class="cls-22" points="305.87 180.01 305.87 181.09 305.75 181.09 305.75 180.01 305.87 180.01"/>
    <polygon class="cls-22" points="305.87 182.17 305.87 183.25 305.76 183.25 305.75 182.17 305.87 182.17"/>
    <polygon class="cls-22" points="305.86 184.33 305.86 185.41 305.76 185.41 305.76 184.33 305.86 184.33"/>
    <polygon class="cls-22" points="305.86 186.48 305.86 187.56 305.76 187.56 305.76 186.48 305.86 186.48"/>
    <polygon class="cls-22" points="305.86 188.64 305.86 189.72 305.76 189.72 305.76 188.64 305.86 188.64"/>
    <polygon class="cls-22" points="305.85 190.8 305.85 191.88 305.77 191.88 305.77 190.8 305.85 190.8"/>
    <polygon class="cls-22" points="305.85 192.96 305.85 194.04 305.77 194.04 305.77 192.96 305.85 192.96"/>
    <polygon class="cls-22" points="305.85 195.12 305.85 196.2 305.77 196.2 305.77 195.12 305.85 195.12"/>
    <polygon class="cls-22" points="305.85 197.28 305.84 198.36 305.78 198.36 305.77 197.28 305.85 197.28"/>
    <polygon class="cls-22" points="305.84 199.44 305.84 200.52 305.78 200.52 305.78 199.44 305.84 199.44"/>
    <polygon class="cls-22" points="305.84 201.6 305.84 202.68 305.78 202.68 305.78 201.6 305.84 201.6"/>
    <polygon class="cls-22" points="305.84 203.76 305.84 204.84 305.78 204.84 305.78 203.76 305.84 203.76"/>
    <polygon class="cls-22" points="305.83 205.91 305.83 206.99 305.79 206.99 305.79 205.91 305.83 205.91"/>
    <polygon class="cls-22" points="305.83 208.07 305.83 209.15 305.79 209.15 305.79 208.07 305.83 208.07"/>
    <polygon class="cls-22" points="305.83 210.23 305.83 211.31 305.79 211.31 305.79 210.23 305.83 210.23"/>
    <polygon class="cls-22" points="305.82 212.39 305.82 213.47 305.8 213.47 305.8 212.39 305.82 212.39"/>
    <polygon class="cls-22" points="305.82 214.55 305.82 215.63 305.8 215.63 305.8 214.55 305.82 214.55"/>
    <polygon class="cls-22" points="305.82 216.71 305.82 217.79 305.8 217.79 305.8 216.71 305.82 216.71"/>
    <polygon class="cls-22" points="305.82 218.87 305.81 219.95 305.81 219.95 305.8 218.87 305.82 218.87"/>
    <polygon class="cls-22" points="305.81 221.03 305.81 222.11 305.81 222.11 305.81 221.03 305.81 221.03"/>
    <polygon class="cls-22" points="428.05 89.85 428.05 90.93 428.05 90.93 428.05 89.85"/>
    <polygon class="cls-22" points="428.05 92.01 428.05 93.09 428.04 93.09 428.04 92.01 428.05 92.01"/>
    <polygon class="cls-22" points="428.05 94.17 428.06 95.25 428.04 95.25 428.04 94.17 428.05 94.17"/>
    <polygon class="cls-22" points="428.06 96.33 428.06 97.41 428.04 97.41 428.04 96.33 428.06 96.33"/>
    <polygon class="cls-22" points="428.06 98.49 428.06 99.57 428.03 99.57 428.04 98.49 428.06 98.49"/>
    <polygon class="cls-22" points="428.06 100.65 428.06 101.73 428.03 101.73 428.03 100.65 428.06 100.65"/>
    <polygon class="cls-22" points="428.07 102.81 428.07 103.89 428.03 103.89 428.03 102.81 428.07 102.81"/>
    <polygon class="cls-22" points="428.07 104.96 428.07 106.04 428.03 106.04 428.03 104.96 428.07 104.96"/>
    <polygon class="cls-22" points="428.07 107.12 428.07 108.2 428.02 108.2 428.02 107.12 428.07 107.12"/>
    <polygon class="cls-22" points="428.07 109.28 428.08 110.36 428.02 110.36 428.02 109.28 428.07 109.28"/>
    <polygon class="cls-22" points="428.08 111.44 428.08 112.52 428.02 112.52 428.02 111.44 428.08 111.44"/>
    <polygon class="cls-22" points="428.08 113.6 428.08 114.68 428.01 114.68 428.01 113.6 428.08 113.6"/>
    <polygon class="cls-22" points="428.08 115.76 428.09 116.84 428.01 116.84 428.01 115.76 428.08 115.76"/>
    <polygon class="cls-22" points="428.09 117.92 428.09 119 428.01 119 428.01 117.92 428.09 117.92"/>
    <polygon class="cls-22" points="428.09 120.08 428.09 121.16 428 121.16 428 120.08 428.09 120.08"/>
    <polygon class="cls-22" points="428.09 122.24 428.1 123.31 428 123.31 428 122.24 428.09 122.24"/>
    <polygon class="cls-22" points="428.1 124.39 428.1 125.47 428 125.47 428 124.39 428.1 124.39"/>
    <polygon class="cls-22" points="428.1 126.55 428.1 127.63 427.99 127.63 428 126.55 428.1 126.55"/>
    <polygon class="cls-22" points="428.1 128.71 428.1 129.79 427.99 129.79 427.99 128.71 428.1 128.71"/>
    <polygon class="cls-22" points="428.1 130.87 428.11 131.95 427.99 131.95 427.99 130.87 428.1 130.87"/>
    <polygon class="cls-22" points="428.11 133.03 428.11 134.11 427.99 134.11 427.99 133.03 428.11 133.03"/>
    <polygon class="cls-22" points="428.11 135.19 428.11 136.27 427.99 136.27 427.99 135.19 428.11 135.19"/>
    <polygon class="cls-22" points="428.11 137.35 428.11 138.43 427.99 138.43 427.99 137.35 428.11 137.35"/>
    <polygon class="cls-22" points="428.11 139.51 428.11 140.58 427.98 140.58 427.98 139.51 428.11 139.51"/>
    <polygon class="cls-22" points="428.11 141.66 428.11 142.74 427.98 142.74 427.98 141.66 428.11 141.66"/>
    <polygon class="cls-22" points="428.11 143.82 428.11 144.9 427.98 144.9 427.98 143.82 428.11 143.82"/>
    <polygon class="cls-22" points="428.12 145.98 428.12 147.06 427.98 147.06 427.98 145.98 428.12 145.98"/>
    <polygon class="cls-22" points="428.12 148.14 428.12 148.74 428.05 148.67 428.53 148.67 428.53 148.81 428.05 148.81 427.98 148.81 427.98 148.74 427.98 148.14 428.12 148.14"/>
    <polygon class="cls-22" points="429.61 148.67 430.69 148.67 430.69 148.81 429.61 148.81 429.61 148.67"/>
    <polygon class="cls-22" points="431.77 148.67 432.85 148.67 432.85 148.81 431.77 148.81 431.77 148.67"/>
    <polygon class="cls-22" points="433.93 148.67 435 148.66 435 148.82 433.93 148.82 433.93 148.67"/>
    <polygon class="cls-22" points="436.08 148.66 437.16 148.66 437.16 148.82 436.08 148.82 436.08 148.66"/>
    <polygon class="cls-22" points="438.24 148.66 439.32 148.66 439.32 148.82 438.24 148.82 438.24 148.66"/>
    <polygon class="cls-22" points="440.4 148.66 441.48 148.66 441.48 148.82 440.4 148.82 440.4 148.66"/>
    <polygon class="cls-22" points="442.56 148.66 443.64 148.66 443.64 148.82 442.56 148.82 442.56 148.66"/>
    <polygon class="cls-22" points="444.72 148.66 445.8 148.66 445.8 148.82 444.72 148.82 444.72 148.66"/>
    <polygon class="cls-22" points="446.88 148.65 447.96 148.65 447.96 148.83 446.88 148.83 446.88 148.65"/>
    <polygon class="cls-22" points="449.04 148.65 450.12 148.65 450.12 148.83 449.04 148.83 449.04 148.65"/>
    <polygon class="cls-22" points="451.2 148.65 452.27 148.65 452.27 148.83 451.2 148.83 451.2 148.65"/>
    <polygon class="cls-22" points="453.35 148.65 454.43 148.65 454.43 148.83 453.35 148.83 453.35 148.65"/>
    <rect class="cls-22" x="455.51" y="148.65" width="1.08" height=".18"/>
    <rect class="cls-22" x="457.67" y="148.65" width="1.08" height=".18"/>
    <rect class="cls-22" x="459.83" y="148.65" width="1.08" height=".19"/>
    <rect class="cls-22" x="461.99" y="148.65" width="1.08" height=".19"/>
    <rect class="cls-22" x="464.15" y="148.65" width="1.08" height=".19"/>
    <rect class="cls-22" x="466.31" y="148.65" width="1.08" height=".19"/>
    <rect class="cls-22" x="468.46" y="148.64" width="1.08" height=".19"/>
    <rect class="cls-22" x="470.62" y="148.64" width="1.08" height=".19"/>
    <rect class="cls-22" x="472.78" y="148.64" width="1.08" height=".19"/>
    <rect class="cls-22" x="474.94" y="148.64" width="1.08" height=".19"/>
    <rect class="cls-22" x="477.1" y="148.64" width="1.08" height=".19"/>
    <rect class="cls-22" x="479.26" y="148.64" width="1.08" height=".2"/>
    <rect class="cls-22" x="481.42" y="148.64" width="1.08" height=".2"/>
    <rect class="cls-22" x="483.58" y="148.64" width="1.08" height=".2"/>
    <rect class="cls-22" x="485.73" y="148.64" width="1.08" height=".2"/>
    <rect class="cls-22" x="487.89" y="148.64" width="1.08" height=".2"/>
    <rect class="cls-22" x="490.05" y="148.64" width="1.08" height=".2"/>
    <rect class="cls-22" x="492.21" y="148.64" width="1.08" height=".2"/>
    <rect class="cls-22" x="494.37" y="148.64" width="1.08" height=".2"/>
    <rect class="cls-22" x="496.53" y="148.64" width="1.08" height=".21"/>
    <rect class="cls-22" x="498.69" y="148.64" width="1.08" height=".21"/>
    <rect class="cls-22" x="500.85" y="148.64" width="1.08" height=".21"/>
    <rect class="cls-22" x="503" y="148.64" width="1.08" height=".21"/>
    <rect class="cls-22" x="505.16" y="148.64" width="1.08" height=".21"/>
    <rect class="cls-22" x="507.32" y="148.63" width="1.08" height=".21"/>
    <rect class="cls-22" x="509.48" y="148.63" width="1.08" height=".21"/>
    <rect class="cls-22" x="511.64" y="148.63" width="1.08" height=".21"/>
    <rect class="cls-22" x="513.8" y="148.63" width="1.08" height=".21"/>
    <rect class="cls-22" x="515.96" y="148.63" width="1.08" height=".21"/>
    <rect class="cls-22" x="517.79" y="147.45" width=".22" height="1.08"/>
    <rect class="cls-22" x="517.79" y="145.29" width=".21" height="1.08"/>
    <rect class="cls-22" x="517.8" y="143.13" width=".21" height="1.08"/>
    <rect class="cls-22" x="517.8" y="140.97" width=".21" height="1.08"/>
    <rect class="cls-22" x="517.8" y="138.81" width=".21" height="1.08"/>
    <rect class="cls-22" x="517.8" y="136.65" width=".21" height="1.08"/>
    <rect class="cls-22" x="517.8" y="134.49" width=".21" height="1.08"/>
    <rect class="cls-22" x="517.8" y="132.33" width=".21" height="1.08"/>
    <rect class="cls-22" x="517.8" y="130.18" width=".21" height="1.08"/>
    <rect class="cls-22" x="517.8" y="128.02" width=".21" height="1.08"/>
    <rect class="cls-22" x="517.8" y="125.86" width=".2" height="1.08"/>
    <rect class="cls-22" x="517.8" y="123.7" width=".2" height="1.08"/>
    <rect class="cls-22" x="517.8" y="121.54" width=".2" height="1.08"/>
    <rect class="cls-22" x="517.8" y="119.38" width=".2" height="1.08"/>
    <rect class="cls-22" x="517.8" y="117.22" width=".2" height="1.08"/>
    <rect class="cls-22" x="517.8" y="115.06" width=".2" height="1.08"/>
    <rect class="cls-22" x="517.8" y="112.91" width=".2" height="1.08"/>
    <rect class="cls-22" x="517.8" y="110.75" width=".2" height="1.08"/>
    <rect class="cls-22" x="517.8" y="108.59" width=".2" height="1.08"/>
    <rect class="cls-22" x="517.81" y="106.43" width=".19" height="1.08"/>
    <rect class="cls-22" x="517.81" y="104.27" width=".19" height="1.08"/>
    <rect class="cls-22" x="517.81" y="102.11" width=".19" height="1.08"/>
    <rect class="cls-22" x="517.81" y="99.95" width=".19" height="1.08"/>
    <rect class="cls-22" x="517.81" y="97.79" width=".19" height="1.08"/>
    <rect class="cls-22" x="517.81" y="95.64" width=".19" height="1.08"/>
    <rect class="cls-22" x="517.81" y="93.48" width=".19" height="1.08"/>
    <rect class="cls-22" x="517.81" y="91.32" width=".19" height="1.08"/>
    <polygon class="cls-22" points="517.81 90.24 517.81 89.85 517.9 89.95 517.21 89.95 517.21 89.76 517.9 89.76 517.99 89.76 517.99 89.85 517.99 90.24 517.81 90.24"/>
    <rect class="cls-22" x="515.05" y="89.76" width="1.08" height=".18"/>
    <rect class="cls-22" x="512.89" y="89.76" width="1.08" height=".18"/>
    <polygon class="cls-22" points="511.81 89.94 510.73 89.94 510.73 89.76 511.81 89.76 511.81 89.94"/>
    <polygon class="cls-22" points="509.65 89.94 508.57 89.94 508.57 89.77 509.65 89.76 509.65 89.94"/>
    <polygon class="cls-22" points="507.49 89.94 506.41 89.94 506.41 89.77 507.49 89.77 507.49 89.94"/>
    <polygon class="cls-22" points="505.33 89.94 504.25 89.94 504.25 89.77 505.33 89.77 505.33 89.94"/>
    <polygon class="cls-22" points="503.18 89.94 502.1 89.94 502.1 89.77 503.18 89.77 503.18 89.94"/>
    <polygon class="cls-22" points="501.02 89.94 499.94 89.93 499.94 89.77 501.02 89.77 501.02 89.94"/>
    <polygon class="cls-22" points="498.86 89.93 497.78 89.93 497.78 89.77 498.86 89.77 498.86 89.93"/>
    <polygon class="cls-22" points="496.7 89.93 495.62 89.93 495.62 89.78 496.7 89.77 496.7 89.93"/>
    <polygon class="cls-22" points="494.54 89.93 493.46 89.93 493.46 89.78 494.54 89.78 494.54 89.93"/>
    <polygon class="cls-22" points="492.38 89.93 491.3 89.93 491.3 89.78 492.38 89.78 492.38 89.93"/>
    <polygon class="cls-22" points="490.22 89.93 489.14 89.93 489.14 89.78 490.22 89.78 490.22 89.93"/>
    <polygon class="cls-22" points="488.06 89.92 486.98 89.92 486.98 89.78 488.06 89.78 488.06 89.92"/>
    <polygon class="cls-22" points="485.91 89.92 484.83 89.92 484.83 89.78 485.91 89.78 485.91 89.92"/>
    <polygon class="cls-22" points="483.75 89.92 482.67 89.92 482.67 89.79 483.75 89.79 483.75 89.92"/>
    <polygon class="cls-22" points="481.59 89.92 480.51 89.92 480.51 89.79 481.59 89.79 481.59 89.92"/>
    <polygon class="cls-22" points="479.43 89.92 478.35 89.92 478.35 89.79 479.43 89.79 479.43 89.92"/>
    <polygon class="cls-22" points="477.27 89.92 476.19 89.92 476.19 89.79 477.27 89.79 477.27 89.92"/>
    <polygon class="cls-22" points="475.11 89.91 474.03 89.91 474.03 89.79 475.11 89.79 475.11 89.91"/>
    <polygon class="cls-22" points="472.95 89.91 471.87 89.91 471.87 89.8 472.95 89.79 472.95 89.91"/>
    <polygon class="cls-22" points="470.79 89.91 469.71 89.91 469.71 89.8 470.79 89.8 470.79 89.91"/>
    <polygon class="cls-22" points="468.64 89.91 467.56 89.91 467.56 89.8 468.64 89.8 468.64 89.91"/>
    <polygon class="cls-22" points="466.48 89.91 465.4 89.91 465.4 89.8 466.48 89.8 466.48 89.91"/>
    <polygon class="cls-22" points="464.32 89.91 463.24 89.9 463.24 89.8 464.32 89.8 464.32 89.91"/>
    <polygon class="cls-22" points="462.16 89.9 461.08 89.9 461.08 89.81 462.16 89.8 462.16 89.9"/>
    <polygon class="cls-22" points="460 89.9 458.92 89.9 458.92 89.81 460 89.81 460 89.9"/>
    <polygon class="cls-22" points="457.84 89.9 456.76 89.89 456.76 89.81 457.84 89.81 457.84 89.9"/>
    <polygon class="cls-22" points="455.68 89.89 454.6 89.89 454.6 89.82 455.68 89.81 455.68 89.89"/>
    <polygon class="cls-22" points="453.52 89.89 452.44 89.89 452.44 89.82 453.52 89.82 453.52 89.89"/>
    <polygon class="cls-22" points="451.36 89.89 450.29 89.88 450.29 89.82 451.36 89.82 451.36 89.89"/>
    <polygon class="cls-22" points="449.21 89.88 448.13 89.88 448.13 89.83 449.21 89.82 449.21 89.88"/>
    <polygon class="cls-22" points="447.05 89.88 445.97 89.88 445.97 89.83 447.05 89.83 447.05 89.88"/>
    <polygon class="cls-22" points="444.89 89.88 443.81 89.88 443.81 89.83 444.89 89.83 444.89 89.88"/>
    <polygon class="cls-22" points="442.73 89.87 441.65 89.87 441.65 89.83 442.73 89.83 442.73 89.87"/>
    <polygon class="cls-22" points="440.57 89.87 439.49 89.87 439.49 89.84 440.57 89.84 440.57 89.87"/>
    <polygon class="cls-22" points="438.41 89.87 437.33 89.87 437.33 89.84 438.41 89.84 438.41 89.87"/>
    <polygon class="cls-22" points="436.25 89.87 435.17 89.86 435.17 89.84 436.25 89.84 436.25 89.87"/>
    <polygon class="cls-22" points="434.09 89.86 433.02 89.86 433.02 89.85 434.09 89.84 434.09 89.86"/>
    <polygon class="cls-22" points="431.94 89.86 430.86 89.86 430.86 89.85 431.94 89.85 431.94 89.86"/>
    <polygon class="cls-22" points="429.78 89.86 428.7 89.85 428.7 89.85 429.78 89.85 429.78 89.86"/>
    <polygon class="cls-22" points="292.22 140.28 291.74 139.31 291.74 139.31 292.22 140.28"/>
    <polygon class="cls-22" points="291.2 138.38 290.6 137.48 290.6 137.48 291.2 138.38 291.2 138.38"/>
    <polygon class="cls-22" points="289.94 136.63 289.22 135.82 289.23 135.82 289.94 136.62 289.94 136.63"/>
    <polygon class="cls-22" points="288.45 135.07 287.63 134.37 287.64 134.35 288.46 135.06 288.45 135.07"/>
    <polygon class="cls-22" points="286.77 133.72 285.86 133.13 285.88 133.11 286.78 133.7 286.77 133.72"/>
    <polygon class="cls-22" points="284.92 132.61 283.95 132.15 283.96 132.12 284.93 132.59 284.92 132.61"/>
    <polygon class="cls-22" points="282.94 131.75 281.91 131.43 281.92 131.39 282.95 131.72 282.94 131.75"/>
    <polygon class="cls-22" points="280.87 131.17 279.81 130.99 279.81 130.94 280.88 131.13 280.87 131.17"/>
    <polygon class="cls-22" points="278.73 130.87 277.66 130.83 277.66 130.77 278.74 130.82 278.73 130.87"/>
    <polygon class="cls-22" points="276.58 130.86 275.51 130.97 275.5 130.89 276.58 130.79 276.58 130.86"/>
    <polygon class="cls-22" points="274.45 131.14 273.4 131.39 273.37 131.3 274.43 131.06 274.45 131.14"/>
    <polygon class="cls-22" points="272.37 131.7 271.36 132.09 271.32 131.99 272.34 131.61 272.37 131.7"/>
    <polygon class="cls-22" points="270.39 132.54 269.44 133.05 269.38 132.95 270.34 132.44 270.39 132.54"/>
    <polygon class="cls-22" points="268.53 133.62 267.66 134.26 267.58 134.15 268.46 133.52 268.53 133.62"/>
    <polygon class="cls-22" points="266.84 134.95 266.07 135.69 265.96 135.59 266.75 134.85 266.84 134.95"/>
    <polygon class="cls-22" points="265.34 136.49 264.67 137.33 264.55 137.23 265.23 136.39 265.34 136.49"/>
    <polygon class="cls-22" points="264.07 138.21 263.52 139.14 263.37 139.05 263.93 138.12 264.07 138.21"/>
    <polygon class="cls-22" points="263.03 140.09 262.61 141.08 262.44 141.01 262.87 140.02 263.03 140.09"/>
    <polygon class="cls-22" points="262.25 142.09 261.97 143.13 261.78 143.08 262.08 142.04 262.25 142.09"/>
    <polygon class="cls-22" points="261.75 144.18 261.6 145.24 261.41 145.22 261.56 144.14 261.75 144.18"/>
    <path class="cls-22" d="M261.52,146.31v.54c0,.09,0,.18,0,.27v.27h-.2s0-.27,0-.27v-.81h.21Z"/>
    <polygon class="cls-22" points="261.59 148.45 261.73 149.52 261.53 149.55 261.39 148.47 261.59 148.45"/>
    <polygon class="cls-22" points="261.94 150.57 262.22 151.6 262.02 151.66 261.74 150.61 261.94 150.57"/>
    <polygon class="cls-22" points="262.57 152.62 262.99 153.6 262.79 153.69 262.37 152.69 262.57 152.62"/>
    <polygon class="cls-22" points="263.47 154.56 264.01 155.49 263.83 155.6 263.28 154.66 263.47 154.56"/>
    <polygon class="cls-22" points="264.61 156.38 265.27 157.22 265.11 157.35 264.44 156.5 264.61 156.38"/>
    <polygon class="cls-22" points="265.98 158.02 266.75 158.77 266.62 158.92 265.84 158.16 265.98 158.02"/>
    <polygon class="cls-22" points="267.57 159.46 268.43 160.1 268.32 160.26 267.44 159.62 267.57 159.46"/>
    <path class="cls-22" d="M269.33,160.68l.47,.27c.16,.09,.32,.17,.47,.25l-.09,.17c-.16-.08-.32-.17-.48-.25l-.47-.27,.1-.17Z"/>
    <path class="cls-22" d="M271.24,161.66l.5,.2,.25,.1c.08,.03,.17,.06,.25,.09l-.06,.17c-.09-.03-.17-.06-.26-.09l-.25-.1-.51-.2,.07-.17Z"/>
    <polygon class="cls-22" points="273.27 162.37 274.31 162.62 274.27 162.79 273.22 162.54 273.27 162.37"/>
    <polygon class="cls-22" points="275.37 162.81 276.44 162.92 276.43 163.08 275.34 162.97 275.37 162.81"/>
    <polygon class="cls-22" points="277.51 162.96 278.58 162.93 278.59 163.08 277.51 163.12 277.51 162.96"/>
    <polygon class="cls-22" points="279.65 162.83 280.71 162.65 280.74 162.78 279.67 162.97 279.65 162.83"/>
    <polygon class="cls-22" points="281.76 162.41 282.79 162.09 282.83 162.2 281.79 162.53 281.76 162.41"/>
    <polygon class="cls-22" points="283.79 161.71 284.77 161.26 284.82 161.35 283.84 161.81 283.79 161.71"/>
    <polygon class="cls-22" points="285.72 160.75 286.63 160.17 286.68 160.25 285.77 160.83 285.72 160.75"/>
    <polygon class="cls-22" points="287.5 159.54 288.32 158.85 288.37 158.9 287.55 159.6 287.5 159.54"/>
    <polygon class="cls-22" points="289.1 158.1 289.82 157.3 289.87 157.35 289.15 158.15 289.1 158.1"/>
    <path class="cls-22" d="M290.49,156.46c.11-.15,.21-.29,.31-.44l.31-.44,.04,.03-.3,.45c-.11,.15-.2,.3-.31,.45l-.05-.03Z"/>
    <polygon class="cls-22" points="291.66 154.65 292.14 153.69 292.18 153.7 291.69 154.67 291.66 154.65"/>
    <polygon class="cls-22" points="292.56 152.69 292.66 152.44 292.75 152.19 292.92 151.68 292.95 151.68 292.77 152.2 292.69 152.45 292.59 152.71 292.56 152.69"/>
    <polygon class="cls-22" points="293.21 150.64 293.42 149.58 293.44 149.58 293.23 150.64 293.21 150.64"/>
    <polygon class="cls-22" points="293.57 148.51 293.64 147.43 293.66 147.43 293.59 148.51 293.57 148.51"/>
    <polygon class="cls-22" points="293.64 146.36 293.56 145.28 293.58 145.28 293.65 146.35 293.64 146.36"/>
    <polygon class="cls-22" points="293.42 144.21 293.2 143.15 293.21 143.15 293.43 144.21 293.42 144.21"/>
    <polygon class="cls-22" points="292.91 142.11 292.56 141.09 292.56 141.09 292.92 142.11 292.91 142.11"/>
    <rect class="cls-5" x="301.34" y="55.93" width="96.83" height="72.69"/>
    <rect class="cls-5" x="301.34" y="55.93" width="96.83" height="7.44"/>
    <circle class="cls-2" cx="306.92" cy="59.54" r="1.55"/>
    <circle class="cls-2" cx="311.83" cy="59.54" r="1.55"/>
    <circle class="cls-2" cx="316.73" cy="59.54" r="1.55"/>
    <rect class="cls-2" x="308.96" y="66.41" width="82.03" height="15.88"/>
    <path class="cls-5" d="M387.11,73.86c-.54,1.73-2.38,2.7-4.12,2.15-.38-.12-.73-.3-1.04-.55-.7-.55-1.15-1.36-1.24-2.25-.04-.44,0-.89,.13-1.31,.14-.42,.35-.82,.64-1.16,.29-.34,.64-.61,1.04-.81,1.63-.8,3.59-.14,4.4,1.49,.37,.76,.44,1.63,.19,2.43Zm0,0c.12-.4,.16-.82,.12-1.23-.04-.41-.17-.81-.37-1.17-.82-1.49-2.69-2.03-4.18-1.2s-2.03,2.69-1.2,4.18c.82,1.49,2.69,2.03,4.18,1.2,.32-.18,.61-.41,.85-.69,.27-.32,.47-.69,.6-1.08Z"/>
    <path class="cls-5" d="M377.51,78.95c.26-.36,.55-.7,.85-1.02,.3-.32,.62-.63,.94-.93s.66-.59,1-.86c.35-.28,.71-.54,1.08-.77-.26,.36-.55,.7-.85,1.02-.3,.32-.62,.63-.94,.93s-.66,.59-1,.86c-.35,.28-.71,.54-1.08,.77Z"/>
    <rect class="cls-2" x="310.27" y="87.12" width="47.93" height="2.21"/>
    <rect class="cls-5" x="310.27" y="93.88" width="28.65" height="2.21"/>
    <rect class="cls-31" x="310.27" y="100.69" width="76.51" height="2.17"/>
    <rect class="cls-2" x="310.27" y="107.35" width="39.48" height="2.28"/>
    <rect class="cls-31" x="310.27" y="114.18" width="53.81" height="2.21"/>
    <rect class="cls-31" x="310.27" y="120.95" width="47.93" height="2.21"/>
    <rect class="cls-5" x="315.48" y="156.24" width="85.44" height="65.53"/>
    <rect class="cls-1" x="324.99" y="207.59" width="4.12" height="7.73"/>
    <rect class="cls-2" x="344.54" y="209.43" width="3.62" height="5.89"/>
    <rect class="cls-1" x="370.43" y="207.59" width="4.12" height="7.73"/>
    <rect class="cls-5" x="352.7" y="207.59" width="4.12" height="7.73"/>
    <rect class="cls-2" x="356.85" y="207.59" width="4.12" height="7.73"/>
    <rect class="cls-5" x="377.03" y="207.59" width="4.12" height="7.73"/>
    <rect class="cls-2" x="385.78" y="209.43" width="3.87" height="5.89"/>
    <rect class="cls-2" x="367.77" y="168" width="23.56" height="2.66"/>
    <rect class="cls-24" x="368.05" y="173.53" width="18.73" height="1.15"/>
    <rect class="cls-24" x="368.05" y="176.93" width="18.73" height="1.15"/>
    <rect class="cls-24" x="368.05" y="180.34" width="18.73" height="1.15"/>
    <rect class="cls-2" x="367.77" y="186.25" width="23.56" height="2.66"/>
    <rect class="cls-24" x="368.05" y="191.78" width="18.73" height="1.15"/>
    <rect class="cls-24" x="368.05" y="195.18" width="18.73" height="1.15"/>
    <rect class="cls-24" x="368.05" y="198.59" width="18.73" height="1.15"/>
    <path class="cls-2" d="M360.49,180.92c-.25-7.68-5.4-14.33-12.78-16.48-.55-.16-1.11-.29-1.68-.4-9.64-1.81-18.92,4.54-20.73,14.18-1.81,9.64,4.54,18.92,14.18,20.73,2.63,.49,5.33,.39,7.91-.31,.52-.14,1.04-.31,1.54-.49,6.95-2.59,11.57-9.22,11.57-16.64,0-.19,0-.39,0-.58Zm-13.24,12.83c-6.77,2.49-14.28-.98-16.76-7.75-.47-1.27-.74-2.61-.79-3.97,0-.17-.01-.35-.01-.53,0-7.21,5.85-13.06,13.06-13.06,.8,0,1.59,.07,2.38,.22,.79,.15,1.57,.36,2.32,.66,4.71,1.81,7.95,6.18,8.33,11.21,.02,.32,.04,.65,.04,.98,0,5.47-3.41,10.37-8.55,12.25h0Z"/>
    <path class="cls-24" d="M346.04,164.04l-.92,4.61c-3.58-.66-7.26,.2-10.18,2.37l-2.77-3.8c3.98-2.94,9-4.1,13.87-3.19h0Z"/>
    <path class="cls-1" d="M360.5,181.5c0,.91-.07,1.81-.21,2.71l-4.64-.71c.1-.66,.15-1.33,.15-2,0-.32-.01-.66-.04-.98-.38-5.03-3.62-9.4-8.34-11.21-.75-.29-1.53-.51-2.32-.66l.92-4.61c.57,.11,1.13,.24,1.68,.4,7.38,2.15,12.53,8.8,12.78,16.48,0,.19,0,.38,0,.58Z"/>
    <path class="cls-24" d="M348.93,198.14c-.5,.19-1.02,.35-1.54,.49-5.56,1.5-11.51,.21-15.96-3.45l2.97-3.65c3.58,2.98,8.48,3.82,12.85,2.21l1.68,4.4Z"/>
    <path class="cls-5" d="M392.81,215.54h-68.86c-.12,0-.22-.1-.22-.22s.1-.22,.22-.22h68.86c.12,0,.22,.1,.22,.22s-.1,.22-.22,.22h0Z"/>
    <ellipse class="cls-26" cx="412.58" cy="252.22" rx="75.41" ry="24.69"/>
    <ellipse class="cls-27" cx="413.33" cy="249.84" rx="44.2" ry="14.47"/>
    <path class="cls-32" d="M399.51,234.33s-2.76,4.97-9.94,5.52c-7.18,.55-10.13,4.6-5.71,5.52,4.42,.92,16.76,.74,18.6-2.02s.92-7.73,.92-7.73l-3.87-1.29Z"/>
    <g class="cls-17">
      <path class="cls-2" d="M381.22,243.64c.34-.03,.67,.09,1,.2,7.04,2.43,15.14,1.59,21.53-2.25,.11-.08,.23-.13,.36-.15,.29-.02,.53,.28,.54,.58s-.16,.57-.32,.81c-1.43,1.99-3.89,2.94-6.24,3.61-2.15,.61-4.34,1.06-6.56,1.36-2.18,.3-4.41,.44-6.59,.11-2.18-.33-4.33-1.16-5.97-2.62-.32-.29-.65-.63-.72-1.06l2.99-.59Z"/>
    </g>
    <path class="cls-32" d="M420.71,249.31s-.68,5.83-4.54,10.99c-3.87,5.16-5.71,8.65,0,7.18s11.51-8.4,11.78-11.97c.27-3.57,0-6.2,0-6.2h-7.24Z"/>
    <g class="cls-12">
      <path class="cls-2" d="M412.55,265.44c.76,.88,2,1.22,3.17,1.19,3.01-.09,5.5-2.28,7.68-4.37,2.59-2.5,5.24-5.18,6.32-8.61-.3,8.66-6.43,16.01-14.88,17.87-1.39,.3-2.89,.44-4.18-.17s-2.2-2.18-1.65-3.49l3.55-2.42Z"/>
    </g>
    <path class="cls-6" d="M396.1,152.85s-.83,13.81,0,25.96c.83,12.15,2.48,29.55,2.07,34.8s0,22.37,0,22.37c0,0,2.81,2.76,6.12,1.66,3.31-10.22,6.17-23.75,5.89-30.93s.83-22.92,.83-22.92c0,0,0,18.51,3.04,27.34s6.08,40.6,6.08,40.6c0,0,4.7,1.11,8.01,0,0-7.46,3.87-37.01,2.48-43.91-1.38-6.9,.55-43.64-2.21-49.71s-32.31-5.25-32.31-5.25Z"/>
    <g class="cls-7">
      <g>
        <path class="cls-20" d="M410.9,186.23c.6-4.59,.39-9.25-.6-13.77-.95,7.47-1.89,14.95-2.84,22.42-.37,2.91-.76,5.9-2.08,8.52-.49,.96-1.1,2.09-.59,3.03,.41,.76,1.44,1.1,1.64,1.94,.19,.79-.47,1.49-.93,2.15-1.77,2.52-1.05,5.93-1.3,8.99-.26,3.2-1.62,6.19-3.04,9.07-.66,1.34-1.4,2.75-2.68,3.53s-3.24,.65-3.96-.67c-.12,3.02,.79,5.98,2.6,8.4,1.83,2.44,5.25,4.24,7.9,2.73,2.06-1.18,2.73-3.78,3.16-6.12,2.45-13.29,3.54-26.79,3.25-40.3l-.54-9.92Z"/>
        <path class="cls-20" d="M437.87,197.12c.87-7.28,.39-14.65-1.4-21.76-2.02-8-5.72-15.69-6.01-23.94l-3.41,4.62c3.38,14.19,3.15,29-.66,43.08-.37,1.35-.77,2.75-.53,4.13,.45,2.58,3.1,4.9,2.16,7.35-.51,1.33-2.01,2.26-2.03,3.68,0,.54,.22,1.06,.41,1.57,1.2,3.25,1.01,6.82,.81,10.27-.27,4.67-.55,9.35-.82,14.02-.14,2.43-.58,5.33-2.8,6.34-2.08,.95-5.15-.11-6.4,1.8-.37,.57-.46,1.28-.46,1.97,.02,3.54,2.38,6.95,5.69,8.2s7.34,.29,9.71-2.33c1.64-1.81,2.45-4.21,3.09-6.57,2.14-7.86,2.85-16.03,2.11-24.14-.43-4.7-1.35-9.38-1.25-14.1,.09-4.77,1.23-9.45,1.79-14.2Z"/>
      </g>
    </g>
    <path class="cls-14" d="M414.18,109.11s-9.89-.17-14.86,2.59c-4.97,2.77-4.97,11.6-6.45,15.28-.89,2.28-1.27,4.74-1.1,7.18,0,0-2.58,8.84-2.58,12.89s1.66,6.26,5.71,6.08,2.4,3.86,2.4,3.86c0,0,3.45,4.24,9.09,5.34,5.64,1.1,13.44,2.03,16.72,0s5.86-1.84,5.31-4.23c-.55-2.39,.74-5.71,.92-6.81s1.66-11.6,1.66-11.6c0,0,4.79,4.6,10.13,3.68s5.71-3.24,7.92-7.05,8.47-12.84,8.47-12.84c0,0-4.79-.18-5.34-3.13s-10.68,6.44-10.68,6.44c0,0-7.26-11.67-10.21-14.61s-17.1-3.07-17.1-3.07Z"/>
    <g class="cls-23">
      <g>
        <path class="cls-9" d="M443.64,123.01c-1.62-.13-3.06-1.14-4.14-2.35s-1.9-2.64-2.87-3.94c-1.61-2.18-3.64-4.03-5.97-5.43,.27,3.1,3.59,5.55,3.15,8.63-.1,.68-.39,1.35-.33,2.04,.15,1.92,2.61,2.66,3.7,4.25,.18,.24,.29,.53,.32,.83,.05,1.17-1.7,1.7-1.87,2.87,1.02-.45,2.12-.72,3.24-.78-.98,1.54-1.21,3.44-.62,5.17,1.28-5.54,5.15-10.43,10.25-12.95l1.74-2.48c-1.63,2.18-3.9,4.38-6.61,4.16Z"/>
        <path class="cls-9" d="M437.15,146.98c.14-.08,.31-.15,.37-.3,.11-.24-.11-.49-.31-.65l-5.95-5.03,.2-.56c-1.11-1.98-2.23-3.96-3.34-5.94,.86,5.38-.03,10.89-2.55,15.71-.98,1.87-2.25,3.98-1.48,5.95,.18,.46,.46,.91,.38,1.39-.05,.31-.25,.57-.46,.8-2.01,2.24-5.33,2.67-8.34,2.64-5.23-.05-10.61-1.11-14.89-4.12-1.17-.83-2.38-1.83-3.81-1.79-.38,2.35,1.08,4.61,2.78,6.28,4.46,4.42,10.82,6.51,17.09,6.95,7.11,.5,14.75-1.21,19.76-6.28,1-1.01,1.89-2.17,2.32-3.52,.88-2.76-.32-5.73-1.71-8.28-.58-1.06-1.07-2.64-.04-3.26Z"/>
        <path class="cls-9" d="M397.32,154.59c.35-8.74,.85-17.47,1.51-26.19-1.01,2.14-1.27,4.55-1.74,6.87s-1.23,4.71-2.97,6.33c-.79,.74-2.11,1.25-2.89,.51-.29-.27-.44-.66-.58-1.03l-1.31-3.55c-1.8,1.23-2.94,3.28-3.35,5.42s-.14,4.37,.46,6.46c.66,2.29,1.77,4.54,3.64,6.01,1.3,1.01,3.04,1.61,4.6,1.1,1.41-.46,2.44-2.05,2.12-3.44l.51,1.51Z"/>
        <path class="cls-9" d="M412.34,130.17c.49-.25,.79-.75,1.07-1.22,3.13-5.26,6.49-10.37,10.09-15.34,.91-1.25,1.85-2.55,2.11-4.08,.08-.48,.08-1.01-.16-1.43-.29-.5-.85-.77-1.38-1-3.19-1.34-6.56-2.21-10.01-2.59l-7.81-.4c2.46,7.8-.86,16.89,2.88,24.17,.63,1.23,1.98,2.52,3.21,1.89Z"/>
      </g>
    </g>
    <path class="cls-2" d="M409.58,109.22s-1.33,5.39-.64,10.63,.83,9.39,2,8.84,10.79-19.13,10.79-19.13l-12.15-.34Z"/>
    <path class="cls-30" d="M421.37,117.22s-6.82-2.56-8.42-3.45-6.08,3.45-6.08,3.45c0,0,.07-.4,.19-1.01,.4-2.03,1.4-6.48,2.52-7,1.47-.69,3.36-1.8,3.36-1.8l5.11-1.24s3.18,1.93,4,2.76c.14,.14,.22,.47,.24,.93,.12,2.22-.93,7.36-.93,7.36Z"/>
    <path class="cls-2" d="M422.3,109.86c-.1,2.46-.93,6.53-.93,6.53,0,0-6.82-2.56-8.42-3.45-1.4-.78-5.02,2.47-5.89,3.28,.4-2.03,1.4-6.48,2.52-7,1.47-.69,3.36-1.8,3.36-1.8l5.11-1.24s3.18,1.93,4,2.76c.14,.14,.22,.47,.24,.93Z"/>
    <path class="cls-8" d="M418.75,81.53s-.03-2.97-6.44-1.73c-6.41,1.24-7.51,3.31-8.06,4.76s.07,1.93-.76,2.48-3.73,8.29,2.28,7.94,16.02,4.18,16.02,4.18c0,0,3.8-2.38,3.38-3.28s5.59-12.77-6.43-14.36Z"/>
    <path class="cls-33" d="M418.75,81.53s-.03-2.97-6.44-1.73c-6.41,1.24-7.51,3.31-8.06,4.76s.07,1.93-.76,2.48-3.73,8.29,2.28,7.94,16.02,4.18,16.02,4.18c0,0,3.8-2.38,3.38-3.28s5.59-12.77-6.43-14.36Z"/>
    <g class="cls-13">
      <path class="cls-25" d="M418.09,83.65c-.56-1.46-2.18-2.42-3.73-2.22,.78,.67,1.38,1.53,1.75,2.48-.59-1.21-2.27-1.26-3.6-1.12-2.5,.26-5.32,.79-6.64,2.93-.51,.82-.72,1.79-1.14,2.66-.46,.94-1.15,1.74-2.01,2.33-.44,.3-.96,.58-1.16,1.08-.27,.65,.09,1.38,.54,1.93,1.34,1.64,3.4,2.48,5.37,3.25,1.64,.63,3.28,1.25,4.92,1.87,2.42,.91,4.93,1.83,7.52,1.73,.81-.03,1.65-.17,2.34-.61,.86-.53,1.4-1.45,1.77-2.38,1.46-3.69,.37-8.24-2.6-10.87l2.44,.55c.17-.24-.02-.57-.2-.8-1.36-1.67-5.56-2.81-5.56-2.81Z"/>
    </g>
    <path class="cls-18" d="M404.25,93.2s.14,4.01,1.11,6.77,2.21,6.49,6.21,6.49v4.28s.69,5.25,1.8,4.97,6.91-8.56,6.91-8.56c0,0-1.1-2.07-1.1-3.73s1.93-1.24,3.31-3.59,.28-4.28-1.24-3.31-1.8-3.18-3.59-3.31-3.97-1.93-3.97-1.93l.65,1.66s-1.38-.41-3.18-1.66-3.45,0-3.45,0c0,0-1.93,2.49-3.45,1.94Z"/>
    <g class="cls-29">
      <g>
        <path class="cls-28" d="M420.58,96.32c-.13-2.28-.32-4.73-1.83-6.45-.68-.78-1.59-1.34-2.52-1.79-4.06-1.93-8.76-2.03-12.9-.27-.84,.36-1.72,.88-2.02,1.75l.51,.37,1.19,2.87c.87,.79,2.08,1.09,3.23,.81,.88-.23,1.65-.79,2.54-1,2.36-.55,4.6,1.54,7.03,1.51-.48-.29-.81-.77-.89-1.33l4,2.88c.49,.35,1.04,.72,1.63,.65Z"/>
        <path class="cls-28" d="M411.14,106.56l-1.41,1c-.46,.64-.06,1.61,.65,1.96s1.55,.21,2.27-.12c1.54-.71,2.63-2.14,2.9-3.81-1.3,.84-2.87,1.19-4.4,.97Z"/>
        <path class="cls-28" d="M421.6,98.31c-.32-.28-.93-.12-1.34,.36s-.49,1.1-.16,1.38,.93,.12,1.34-.36,.49-1.1,.16-1.38Z"/>
      </g>
    </g>
    <ellipse class="cls-33" cx="407.42" cy="95.89" rx=".55" ry=".9"/>
    <ellipse class="cls-2" cx="407.32" cy="95.73" rx=".3" ry=".49"/>
    <ellipse class="cls-33" cx="415.16" cy="95.89" rx=".55" ry=".9"/>
    <ellipse class="cls-2" cx="415.04" cy="95.73" rx=".28" ry=".46"/>
    <path class="cls-33" d="M411.01,96.28c.07,.36,.08,.72,.04,1.08-.02,.18-.06,.36-.11,.54-.06,.19-.15,.37-.27,.53-.07,.09-.16,.17-.26,.22l-.11,.05s-.02,.01-.02,.01-.02,.02,0,.08c.02,.07,.06,.13,.1,.19,.2,.28,.41,.55,.64,.81-.17-.07-.33-.15-.48-.25-.16-.1-.3-.22-.43-.35-.07-.08-.13-.16-.18-.25-.03-.06-.05-.12-.06-.19-.01-.08,0-.17,.04-.24,.04-.07,.09-.13,.16-.17,.03-.02,.06-.03,.09-.05h.02s.02-.02,.02-.02c.05-.03,.09-.07,.13-.12,.05-.06,.09-.12,.12-.18,.04-.07,.07-.14,.1-.22,.06-.15,.12-.31,.17-.47,.1-.33,.19-.66,.3-1.01Z"/>
    <path class="cls-33" d="M410.94,102.86c.27,.02,.51,.03,.76,.02,.23,0,.46-.04,.69-.09,.23-.05,.44-.13,.65-.24,.11-.05,.21-.12,.32-.17s.21-.14,.32-.21c-.05,.13-.11,.25-.18,.36-.08,.11-.17,.21-.27,.3-.21,.19-.46,.32-.74,.38-.27,.07-.55,.07-.82,0-.27-.05-.52-.17-.73-.35Z"/>
    <circle class="cls-28" cx="417.23" cy="99.17" r="1.52"/>
    <path class="cls-16" d="M404.87,96.3c0,.19,.02,.37,.04,.54s.02,.34,.05,.51c.06,.33,.23,.63,.49,.84,.25,.21,.56,.32,.89,.31,.35,0,.71-.02,1.06-.03l1.06-.02c.31,0,.6-.13,.83-.34,.23-.21,.37-.49,.41-.79,.02-.14,0-.33,.01-.51s0-.35,0-.53l.2,.2-1.23-.03-1.24-.05-1.27-.06-1.3-.06Zm0,0l1.21-.07,1.25-.06,1.28-.05,1.3-.03h.2v.21c0,.18,0,.35,0,.53s.01,.34,0,.56c-.05,.41-.24,.78-.55,1.06-.3,.27-.7,.43-1.11,.43-.36,0-.71-.01-1.07-.02s-.71-.02-1.07-.03c-.39-.02-.77-.18-1.05-.45-.28-.27-.44-.62-.47-1.01,0-.18,0-.37,.02-.55,.02-.18,.03-.35,.04-.52Z"/>
    <path class="cls-16" d="M411.98,96.3c0,.19,.02,.37,.04,.54s.02,.34,.05,.51c.06,.33,.23,.63,.49,.84,.25,.21,.56,.32,.89,.31,.35,0,.71-.02,1.06-.03l1.06-.02c.31,0,.6-.13,.83-.34,.23-.21,.37-.49,.41-.79,.02-.14,.01-.33,.01-.51s0-.35,0-.53l.2,.2-1.23-.03-1.24-.05-1.27-.06-1.3-.06Zm0,0l1.21-.07,1.25-.06,1.28-.05,1.3-.03h.2v.21c0,.18,0,.35,0,.53s0,.34,0,.56c-.05,.41-.24,.78-.55,1.06-.3,.27-.7,.43-1.11,.43-.36,0-.71-.01-1.07-.02s-.71-.02-1.07-.03c-.39-.02-.77-.18-1.05-.45-.28-.27-.44-.62-.47-1.01,0-.18,0-.37,.02-.55,.02-.18,.03-.35,.04-.52Z"/>
    <path class="cls-16" d="M409.91,96.9c.14-.15,.32-.27,.51-.35,.2-.08,.41-.13,.62-.13,.23,0,.46,.06,.65,.19,.09,.07,.17,.16,.23,.26,.05,.1,.08,.21,.07,.32-.07-.07-.15-.13-.23-.18-.07-.04-.15-.08-.23-.1-.16-.04-.32-.06-.48-.06-.17,0-.35,.01-.54,.02s-.38,.02-.59,.02Z"/>
    <path class="cls-33" d="M407.97,93.47l-.44-.08c-.12-.02-.24-.04-.37-.04-.06,0-.11,0-.17,0s-.12,0-.18,.02c-.07,.01-.13,.02-.2,.04-.07,.02-.14,.04-.23,.06,.04-.17,.15-.31,.29-.41,.07-.05,.15-.09,.24-.12,.04,0,.09-.02,.13-.02,.22-.02,.44,.03,.62,.16,.14,.09,.25,.23,.3,.39Z"/>
    <path class="cls-33" d="M415.95,93.47l-.44-.08c-.12-.02-.24-.04-.37-.04-.06,0-.11,0-.17,0s-.12,0-.18,.02c-.07,.01-.13,.02-.2,.04-.07,.02-.14,.04-.23,.06,.04-.17,.15-.31,.29-.41,.07-.05,.15-.09,.24-.12,.04,0,.09-.02,.13-.02,.22-.02,.44,.03,.62,.16,.14,.09,.25,.23,.31,.39Z"/>
    <path class="cls-19" d="M451.82,119.86s-.34-4.43,.76-6.36,2.83-3.38,2.83-3.38c0,0,2.14-1.86,4.07-2.62s.14,1.73-.97,2.9-1.31,2.35-.35,2.21,1.3,1.66,2.17,1.86,1.83,.97,2.25,1.59,.76,2.47-.34,2.93c-.51,.21-.81,.06-.99-.16-.08-.09-.21-.1-.3-.02-.03,.03-.06,.07-.07,.11-.22,1.17-.79,3.42-1.88,3.91-1.49,.67-4.9,1.67-7.18-2.96Z"/>
    <path class="cls-18" d="M451.82,119.86s-.34-4.43,.76-6.36,2.83-3.38,2.83-3.38c0,0,2.14-1.86,4.07-2.62s.14,1.73-.97,2.9-1.31,2.35-.35,2.21,1.3,1.66,2.17,1.86,1.83,.97,2.25,1.59,.76,2.47-.34,2.93c-.51,.21-.81,.06-.99-.16-.08-.09-.21-.1-.3-.02-.03,.03-.06,.07-.07,.11-.22,1.17-.79,3.42-1.88,3.91-1.49,.67-4.9,1.67-7.18-2.96Z"/>
    <g class="cls-10">
      <path class="cls-28" d="M456.66,114.55c-.14,.57-.18,1.15-.1,1.73,.02,.27,.11,.53,.26,.76,.16,.22,.45,.35,.71,.27s.41-.34,.52-.58c.22-.47,.4-.96,.53-1.47-.17,.64-.22,1.31-.15,1.98,.03,.33,.11,.68,.36,.9,.31,.28,.8,.26,1.09-.05,.16-.18,.23-.42,.18-.66,.18,.66,.53,1.26,1.01,1.74,.24,.24,.54,.46,.88,.5,.71,.07,1.22-.65,1.57-1.26,.23-.4,.46-.82,.51-1.29-.42,.32-.86,.66-1.38,.78s-1.14-.03-1.4-.5c-.24-.43-.12-.96-.23-1.43-.08-.31-.41-.62-.67-.45-.09,.08-.16,.18-.19,.29l-.26,.66c-.05,.15-.13,.29-.24,.4-.12,.11-.3,.12-.43,.01-.07-.09-.1-.21-.09-.32l-.05-1.33c0-.15-.02-.32-.13-.43-.18-.18-.51-.06-.66,.14s-.23,.46-.39,.66-.5,.3-.66,.11c-.07-.1-.11-.21-.11-.33l-.16-1.28-.3,.46Z"/>
    </g>
    <path class="cls-18" d="M453,116.67s.41-2,1.59-3.25,2.07-2.62,2.42-2.55-.62,3.52-.62,3.52c0,0,2.21,2,.41,4.9l-3.8-2.62Z"/>
    <path class="cls-28" d="M453,116.67c.07-.45,.19-.89,.34-1.32,.15-.43,.34-.85,.57-1.25,.06-.1,.12-.2,.18-.29s.13-.19,.21-.28,.15-.18,.22-.27l.22-.25c.29-.34,.57-.69,.85-1.04l.43-.53c.15-.18,.3-.35,.47-.52,.05-.04,.1-.09,.15-.13,.06-.05,.13-.09,.2-.12,.02,0,.05-.02,.08-.02h.13s.03,0,.05,.01c.03,.01,.06,.03,.08,.05,.02,.02,.03,.04,.05,.06,0,.02,.02,.03,.03,.05,.03,.08,.04,.16,.04,.25,0,.24-.03,.48-.07,.71-.08,.45-.18,.89-.29,1.34s-.23,.88-.36,1.31l-.06-.2c.09,.08,.17,.17,.24,.27,.07,.09,.14,.18,.21,.28,.13,.19,.24,.4,.34,.61,.38,.85,.43,1.82,.12,2.7-.15,.42-.36,.82-.62,1.19,.21-.39,.37-.8,.48-1.23,.03-.11,.04-.22,.06-.32s.03-.22,.03-.32c.02-.22,.01-.43-.01-.65-.05-.43-.17-.84-.37-1.22-.1-.19-.21-.37-.33-.54-.06-.09-.13-.17-.2-.25-.07-.08-.14-.15-.22-.22l-.09-.08,.03-.12c.22-.86,.45-1.75,.6-2.62,.04-.21,.07-.42,.07-.63,0-.03,0-.06,0-.09,0,0,0,0,0,.01,0,0,.01,.02,.02,.03,.01,.01,.03,.02,.05,.03,0,0,.02,0,.03,0h.02s-.06,.03-.09,.05c-.04,.03-.07,.06-.11,.09-.15,.14-.3,.31-.45,.48l-.44,.51c-.29,.34-.59,.69-.9,1.02l-.24,.25c-.08,.08-.15,.16-.22,.24s-.14,.17-.22,.25-.13,.18-.19,.27c-.25,.37-.47,.76-.65,1.17-.19,.41-.35,.84-.47,1.27Z"/>
    <polygon class="cls-2" points="412.58 154.05 412.21 155.15 394.94 156.86 387.42 132.67 388.38 131.79 405.67 130.67 412.58 154.05"/>
    <ellipse class="cls-24" cx="398.17" cy="142.96" rx="2.9" ry="3.64" transform="translate(15.54 323.42) rotate(-45)"/>
    <polygon class="cls-24" points="412.58 154.05 412.21 155.15 404.25 132.05 387.42 132.67 388.38 131.79 405.67 130.67 412.58 154.05"/>
    <path class="cls-18" d="M388.37,137.85s-.83,.74-.37,2.76,1.64,2.27,1.48,3.48,1.47,1.86,3.5,2.41,0-1.57,0-1.57c0,0-.32-.74,.9-.92s-1.82-1.8-1.82-1.8c0,0,.65-.6,1.38-1.15s-1.66-1.2-1.66-1.2c0,0,1.75-.18,1.75-1.01s-5.16-1.01-5.16-1.01Z"/>
    <g class="cls-11">
      <path class="cls-28" d="M392.64,137.91c.32,.11,.33,.61,.09,.85s-.6,.3-.94,.35l-2.01,.28c.71,.26,1.43,.46,2.17,.61,.54,.11,1.13,.2,1.55,.56,.06,.04,.09,.1,.09,.16,0,.08-.09,.13-.16,.16-.89,.41-1.87,.56-2.84,.43-.08,.11,.04,.25,.15,.32,.89,.61,2.08,.58,3.04,1.05,.2,.1,.42,.26,.41,.49-.01,.19-.2,.34-.39,.37-.19,.01-.39-.01-.57-.07-.72-.17-1.53-.2-2.13,.24,1.04,.35,1.91,1.05,2.76,1.74,.18,.14,.37,.31,.39,.54,.03,.29-.25,.55-.55,.59s-.59-.06-.86-.17l-3.65-1.39c.31,.94,1.12,1.62,1.9,2.23,.37,.29,.75,.58,1.19,.76,.53,.22,1.12,.26,1.69,.22,.52-.03,1.07-.13,1.47-.46,.61-.5,.75-1.41,.56-2.18-.24-.95-.91-1.8-.89-2.78,.01-.78,.47-1.49,.54-2.27,.08-.85-.32-1.7-.94-2.28s-1.44-.91-2.28-1.05l.21,.7Z"/>
    </g>
    <path class="cls-2" d="M420.18,255.06c-.43-.49-.85-.97-1.3-1.41-.21-.22-.45-.41-.71-.57-.1-.06-.22-.1-.34-.11-.04,0-.08,.01-.11,.04l-.02,.02-.02,.03s-.03,.04-.04,.07c-.12,.22-.09,.43,.09,.65,.2,.22,.44,.4,.71,.54,.57,.29,1.15,.54,1.76,.75Zm0,0c-.33-.03-.65-.08-.96-.15-.32-.07-.63-.18-.94-.31-.16-.07-.31-.14-.45-.23-.15-.09-.29-.21-.41-.33-.14-.15-.23-.33-.27-.53v-.08s-.01-.05-.01-.08v-.08l.02-.08,.02-.08,.03-.07s.04-.1,.06-.14c.02-.05,.05-.09,.09-.13l.06-.06s.05-.04,.07-.06c.05-.04,.11-.07,.16-.09,.06-.02,.12-.03,.18-.03,.2,0,.4,.07,.56,.19,.15,.09,.28,.2,.4,.32,.12,.12,.23,.24,.34,.37,.42,.5,.78,1.05,1.06,1.64Z"/>
    <path class="cls-2" d="M420.73,255.06c.42-.34,.89-.61,1.4-.8,.27-.1,.55-.16,.84-.16,.17,0,.33,.04,.47,.12l.06,.03,.05,.04s.07,.06,.1,.1c.03,.03,.06,.07,.08,.11,.02,.04,.04,.08,.06,.13,.02,.05,.03,.1,.03,.15,0,.03,0,.06,0,.09,0,.03,0,.06-.02,.09-.01,.03-.02,.06-.04,.09-.02,.02-.04,.05-.05,.07-.02,.02-.04,.04-.06,.06-.02,.02-.04,.03-.06,.05-.14,.08-.3,.13-.46,.15-.28,.03-.55,.04-.83,0-.54-.05-1.07-.15-1.58-.32Zm0,0c.54,0,1.06,0,1.58-.02,.25,0,.51-.03,.76-.07,.1-.02,.2-.05,.29-.1,.03-.02,.04-.04,.04-.04s0,0,0,0h0s0-.03-.01-.05c-.01-.04-.03-.08-.06-.11-.01-.02-.03-.03-.04-.04l-.02-.02-.03-.02c-.09-.05-.18-.08-.28-.08-.24-.01-.49,.01-.72,.07-.51,.13-1.01,.29-1.5,.47Z"/>
    <path class="cls-2" d="M420.11,255.62c-.2,.1-.39,.21-.57,.34-.17,.12-.33,.24-.47,.39-.04,.03-.07,.07-.11,.11l-.05,.05s-.03,.04-.05,.06l-.11,.12s-.06,.08-.1,.12l-.05,.06-.05,.07s-.06,.09-.1,.13c-.07,.1-.14,.19-.21,.28,0-.12,0-.24,.01-.36,.01-.06,.02-.12,.04-.17,.01-.06,.03-.12,.06-.17,.02-.06,.05-.11,.07-.17s.06-.11,.1-.16c.02-.03,.03-.05,.05-.08l.06-.07s.08-.09,.13-.14c.18-.17,.39-.3,.63-.38,.23-.08,.48-.1,.72-.03Z"/>
    <path class="cls-2" d="M420.62,255.58c-.1,.2-.19,.4-.27,.61-.07,.19-.13,.39-.17,.59-.01,.05-.02,.1-.02,.15v.07s-.01,.05-.02,.08l-.02,.15c0,.05,0,.11,0,.16v.08s0,.08,0,.08c0,.05,0,.11,0,.17,0,.11,0,.22-.01,.35-.07-.09-.14-.2-.19-.3-.02-.05-.05-.11-.07-.17-.02-.06-.04-.11-.05-.17-.01-.06-.02-.12-.03-.18s0-.12-.01-.18v-.18c.01-.06,.02-.12,.03-.18,.05-.24,.15-.47,.29-.67,.14-.2,.34-.35,.57-.44Z"/>
    <path class="cls-2" d="M395.62,237.9c-.02-.65-.03-1.3-.09-1.92-.03-.3-.08-.6-.18-.89-.03-.12-.1-.22-.19-.31-.03-.03-.07-.04-.11-.04h-.07s-.05,.02-.08,.03c-.23,.09-.35,.27-.35,.55,.02,.3,.08,.59,.2,.86,.24,.59,.53,1.16,.86,1.71Zm0,0c-.23-.23-.45-.48-.64-.74-.2-.26-.37-.54-.52-.84-.08-.15-.14-.31-.2-.47-.06-.17-.09-.35-.1-.52-.01-.2,.03-.4,.13-.58l.04-.07s.03-.04,.05-.06l.05-.06,.06-.05,.06-.05,.07-.04s.09-.05,.14-.06c.05-.02,.1-.04,.15-.04h.08s.06-.01,.09-.01c.06,0,.12,.02,.18,.04,.06,.02,.11,.05,.16,.09,.15,.14,.26,.31,.31,.51,.05,.17,.08,.34,.1,.51,.02,.17,.03,.33,.02,.5,0,.65-.09,1.31-.25,1.94Z"/>
    <path class="cls-2" d="M396.04,238.25c.54,0,1.08,.11,1.59,.29,.27,.09,.52,.23,.74,.42,.13,.11,.22,.25,.28,.4l.02,.06v.07s.03,.09,.02,.14c0,.05,0,.09-.01,.13,0,.05-.02,.09-.04,.13-.02,.05-.04,.1-.07,.14-.02,.02-.04,.05-.06,.07-.02,.02-.05,.04-.07,.06-.03,.02-.06,.03-.09,.04-.03,0-.06,.01-.09,.02-.03,0-.05,0-.08,0-.03,0-.05,0-.08,0-.16-.03-.31-.09-.44-.18-.23-.15-.45-.33-.64-.53-.38-.38-.71-.8-1-1.26Zm0,0c.42,.34,.81,.69,1.22,1.01,.2,.16,.4,.3,.62,.43,.09,.05,.19,.09,.29,.11,.03,0,.06,0,.05,0s0,0,0,0h0s.01-.02,.02-.04c.01-.04,.02-.08,.02-.12,0-.02,0-.04,0-.06v-.06c-.05-.09-.1-.18-.17-.24-.18-.16-.38-.3-.6-.41-.47-.23-.96-.44-1.46-.61Z"/>
    <path class="cls-2" d="M395.21,238.27c-.22-.05-.43-.09-.66-.11-.2-.02-.41-.02-.61-.01-.05,0-.1,.01-.15,.02h-.08s-.05,.02-.08,.02l-.15,.02c-.05,.01-.1,.02-.15,.03h-.08s-.08,.03-.08,.03c-.05,.01-.11,.03-.16,.04-.11,.02-.22,.06-.34,.08,.07-.1,.15-.18,.24-.26,.05-.04,.09-.07,.14-.11,.05-.04,.1-.07,.15-.09,.05-.03,.11-.06,.16-.08s.12-.04,.17-.06l.09-.03,.09-.02c.06,0,.12-.02,.18-.02,.25-.02,.5,.02,.73,.11,.23,.09,.43,.24,.57,.44Z"/>
    <path class="cls-2" d="M395.62,238.58c-.21,.08-.41,.18-.6,.29-.18,.1-.35,.21-.51,.34-.04,.03-.08,.07-.12,.1l-.06,.05-.05,.05-.11,.11s-.07,.08-.11,.12l-.06,.06-.05,.06s-.07,.08-.11,.12c-.08,.08-.14,.17-.23,.26,0-.12,.02-.24,.05-.36,.02-.06,.04-.11,.06-.17,.02-.06,.04-.11,.07-.17,.03-.05,.06-.11,.09-.16s.07-.1,.11-.15c.02-.02,.04-.05,.06-.07l.06-.06s.09-.09,.14-.13c.19-.16,.42-.27,.66-.32,.24-.06,.49-.05,.72,.03Z"/>
    <rect class="cls-24" x="434.55" y="29.12" width="64.33" height="43.99"/>
    <rect class="cls-2" x="444.06" y="45.14" width="6.52" height="23.03"/>
    <rect class="cls-2" x="453.7" y="48.95" width="6.52" height="19.22"/>
    <rect class="cls-2" x="463.34" y="43.67" width="6.52" height="24.5"/>
    <rect class="cls-2" x="472.98" y="40.6" width="6.52" height="27.58"/>
    <rect class="cls-2" x="482.61" y="42.54" width="6.52" height="25.63"/>
    <g class="cls-3">
      <circle class="cls-2" cx="462.78" cy="53.28" r="12.36"/>
      <path d="M462.78,65.85c-6.94,0-12.57-5.63-12.57-12.57s5.63-12.57,12.57-12.57,12.57,5.63,12.57,12.57h0c0,6.94-5.63,12.56-12.57,12.57Zm0-24.71c-6.7,0-12.14,5.44-12.14,12.14s5.44,12.14,12.14,12.14,12.14-5.44,12.14-12.14c0-6.7-5.44-12.13-12.14-12.14Z"/>
    </g>
    <polygon class="cls-34" points="480.75 91.59 477.89 92.72 477.87 92.68 468.26 68.37 468.15 66.1 468.37 66.01 469.51 65.56 471.17 67.34 480.75 91.59"/>
    <polygon class="cls-5" points="479.58 92 477.87 92.68 468.26 68.37 468.15 66.1 468.37 66.01 469.99 67.75 479.58 92"/>
    <path class="cls-5" d="M462.78,38.62c-8.1,0-14.67,6.56-14.67,14.66,0,8.1,6.56,14.67,14.66,14.67,8.1,0,14.67-6.56,14.67-14.66h0c0-8.1-6.57-14.67-14.66-14.67Zm0,25.88c-6.2,0-11.22-5.02-11.22-11.22,0-6.2,5.02-11.22,11.22-11.22,6.2,0,11.22,5.02,11.22,11.22h0c0,6.2-5.02,11.22-11.22,11.22h0Z"/>
    <g class="cls-15">
      <rect class="cls-5" x="433.57" y="100.69" width="89.85" height="58.89"/>
      <rect class="cls-2" x="439.87" y="104.24" width="74.71" height="8.56" rx="1.3" ry="1.3"/>
      <path class="cls-5" d="M510.78,107.62c0,.76-.61,1.37-1.37,1.37-.15,0-.29-.02-.43-.07-.72-.24-1.11-1.03-.86-1.75,.08-.22,.21-.42,.38-.58,.57-.5,1.43-.45,1.94,.11,.22,.25,.35,.57,.35,.91h0Zm0,0c0-.5-.32-.95-.8-1.1-.61-.19-1.26,.14-1.45,.75s.14,1.26,.75,1.45c.39,.12,.81,.03,1.11-.23,.25-.22,.39-.54,.39-.87Z"/>
      <path class="cls-5" d="M507.74,110.69c.01-.18,.05-.37,.11-.54,.06-.17,.13-.33,.22-.48,.09-.15,.19-.3,.3-.43,.12-.14,.26-.27,.41-.37-.01,.18-.05,.37-.11,.54-.06,.17-.13,.33-.22,.48-.09,.15-.19,.3-.3,.43-.12,.14-.26,.27-.41,.37Z"/>
      <rect class="cls-5" x="478.5" y="118.98" width="34.71" height="3.22"/>
      <rect class="cls-2" x="462.11" y="124.27" width="51.1" height="1.52"/>
      <rect class="cls-2" x="457.51" y="128.62" width="55.7" height="1.52"/>
      <rect class="cls-5" x="478.5" y="135.06" width="34.71" height="3.22"/>
      <rect class="cls-5" x="478.5" y="151.21" width="34.71" height="3.22"/>
      <rect class="cls-2" x="462.11" y="140.36" width="51.1" height="1.52"/>
      <rect class="cls-2" x="445.68" y="144.71" width="67.53" height="1.52"/>
    </g>
    <polygon class="cls-2" points="515.14 195.97 501.31 195.97 498.01 180.07 494.13 195.97 479.97 195.97 479.41 191.93 478.68 195.97 471.33 195.97 468.88 186.07 465.02 195.97 445.68 195.97 445.68 195.54 464.72 195.54 468.97 184.64 471.67 195.54 478.32 195.54 479.47 189.18 480.34 195.54 493.79 195.54 498.05 178.11 501.67 195.54 515.14 195.54 515.14 195.97"/>
    <rect class="cls-2" x="450.58" y="180.92" width="6.92" height="20.59"/>
    <rect class="cls-5" x="466.4" y="173.53" width="6.92" height="27.97"/>
    <rect class="cls-2" x="482.21" y="178.09" width="6.92" height="23.42"/>
    <rect class="cls-5" x="498.03" y="172.1" width="6.92" height="29.41"/>
    <path class="cls-2" d="M285.78,161.91c6.63,2.17,13.9-.16,18.02-5.78,.31-.42,.6-.85,.86-1.31,.51-.86,.94-1.77,1.28-2.71,3.03-8.37-1.29-17.61-9.66-20.64-8.37-3.03-17.61,1.29-20.64,9.66-.48,1.33-.79,2.71-.91,4.12-.04,.49-.06,.98-.06,1.47,.04,6.74,4.28,12.74,10.61,15.04,.16,.06,.33,.11,.49,.17Zm-6.83-15.28c-.02-6.55,5.26-11.87,11.81-11.89,1.24,0,2.46,.18,3.64,.56,.15,.05,.3,.1,.45,.15,6.15,2.23,9.33,9.03,7.1,15.18-2.12,5.84-8.38,9.06-14.36,7.37-.28-.08-.56-.17-.85-.27-4.67-1.69-7.79-6.12-7.8-11.09Z"/>
    <path class="cls-24" d="M304.67,154.82l-3.65-2.21c1.67-2.85,2.08-6.26,1.13-9.42l4.1-1.19c.99,3.31,.89,6.86-.3,10.1-.34,.94-.77,1.85-1.28,2.72Z"/>
    <path class="cls-5" d="M285.29,161.74c-.77-.28-1.53-.62-2.25-1.02l2.05-3.74c.53,.29,1.09,.55,1.66,.76,.28,.11,.56,.19,.85,.27,4.41,1.24,9.13-.17,12.14-3.63,.48-.55,.91-1.14,1.28-1.77l3.65,2.21c-.27,.45-.56,.89-.86,1.31-4.12,5.62-11.39,7.96-18.02,5.78-.17-.07-.33-.12-.49-.17Z"/>
    <path class="cls-24" d="M274.68,146.71c0-.49,.02-.98,.06-1.47,.45-5.21,3.39-9.89,7.9-12.54l2.19,3.66c-3.65,2.13-5.89,6.05-5.88,10.28l-4.27,.07Z"/>
  </g>
</svg>