<?xml version="1.0" encoding="UTF-8"?>
<svg id="_10" data-name="10" xmlns="http://www.w3.org/2000/svg" xmlns:xlink="http://www.w3.org/1999/xlink" viewBox="0 0 800 300">
  <defs>
    <style>
      .cls-1 {
        fill: #cfcdf1;
      }

      .cls-2 {
        fill: #5a6aff;
      }

      .cls-3 {
        clip-path: url(#clippath-11);
      }

      .cls-4, .cls-5 {
        fill: #fff;
      }

      .cls-6 {
        fill: #d8d8d8;
      }

      .cls-7 {
        opacity: .5;
      }

      .cls-8 {
        fill: #ed9021;
      }

      .cls-5 {
        opacity: 0;
      }

      .cls-9 {
        fill: #ffb38d;
      }

      .cls-10 {
        clip-path: url(#clippath-2);
      }

      .cls-11 {
        fill: #2b39ff;
      }

      .cls-12 {
        clip-path: url(#clippath-13);
      }

      .cls-13 {
        fill: #59110e;
      }

      .cls-14 {
        fill: #842117;
      }

      .cls-15 {
        clip-path: url(#clippath-15);
      }

      .cls-16 {
        clip-path: url(#clippath-6);
      }

      .cls-17 {
        fill: #f29b27;
      }

      .cls-18 {
        fill: #662714;
      }

      .cls-19 {
        clip-path: url(#clippath-7);
      }

      .cls-20 {
        fill: #ffc783;
      }

      .cls-21 {
        fill: #a7a7d8;
      }

      .cls-22 {
        fill: #354ac9;
      }

      .cls-23 {
        fill: #fab953;
      }

      .cls-24 {
        clip-path: url(#clippath-1);
      }

      .cls-25 {
        clip-path: url(#clippath-4);
      }

      .cls-26 {
        fill: #ffdeb3;
      }

      .cls-27 {
        fill: #f46938;
      }

      .cls-28 {
        fill: #444;
      }

      .cls-29 {
        opacity: .4;
      }

      .cls-30 {
        clip-path: url(#clippath-12);
      }

      .cls-31 {
        opacity: .3;
      }

      .cls-32 {
        fill: #ffc1af;
      }

      .cls-33 {
        fill: #fc966a;
      }

      .cls-34 {
        fill: #722912;
      }

      .cls-35 {
        fill: #e7e6f6;
      }

      .cls-36 {
        fill: #112472;
      }

      .cls-37 {
        fill: #1f32a0;
      }

      .cls-38 {
        clip-path: url(#clippath-9);
      }

      .cls-39 {
        clip-path: url(#clippath);
      }

      .cls-40 {
        fill: #081644;
      }

      .cls-41 {
        fill: #913d1c;
      }

      .cls-42 {
        fill: #d82762;
      }

      .cls-43 {
        fill: #772c15;
      }

      .cls-44 {
        fill: none;
      }

      .cls-45 {
        fill: #9090bf;
      }

      .cls-46 {
        clip-path: url(#clippath-3);
      }

      .cls-47 {
        clip-path: url(#clippath-8);
      }

      .cls-48 {
        clip-path: url(#clippath-14);
      }

      .cls-49 {
        clip-path: url(#clippath-5);
      }

      .cls-50 {
        fill: #c11b5b;
      }

      .cls-51 {
        clip-path: url(#clippath-10);
      }
    </style>
    <clipPath id="clippath">
      <polygon class="cls-44" points="309.55 110.13 303.85 157.86 329.96 157.86 333.87 143.75 336.27 157.86 364.19 157.86 356.08 115.24 309.55 110.13"/>
    </clipPath>
    <clipPath id="clippath-1">
      <path class="cls-44" d="M385.57,53.7s-1.35-4.13,.08-6.45,6.45-5.4,7.2-4.73-2.03,4.43-2.03,4.43c0,0,3.75,3.75,1.43,7.88s-5.18,4.58-5.18,4.58l-1.5-5.7Z"/>
    </clipPath>
    <clipPath id="clippath-2">
      <path class="cls-44" d="M324.11,13.39s1.1-4.46,6.03-4.23,8.3,1.1,9.16,1.41-1.72,1.1-1.72,1.1c0,0,7.75,.63,9,2.35s-1.8,3.6-1.1,4.07,.94,1.72,.78,2.82-2.27,2.58-2.58,2.74-20.9,5.56-20.9,5.56c0,0-9.94-12.6,1.33-15.81Z"/>
    </clipPath>
    <clipPath id="clippath-3">
      <path class="cls-44" d="M343.85,22.56v8.18c0,4.59-3.7,8.36-8.27,8.47l.29,2.51,.1,.87s-3.08,3.08-4.2,3.45-6.75-2.7-6.6-4.5c.11-1.33,.22-6.08,.27-8.45-.84,0-1.73-.26-2.51-.81-1.84-1.28-2.43-3.61-1.31-5.21,1.1-1.58,3.45-1.85,5.28-.62v-1.03l1.35-3.92s3.9,.23,5.63,.45,.15-.98,.15-.98c0,0,5.63,.6,7.35,.15,.96-.25,1.59-.36,1.97-.41,.32,.54,.51,1.17,.51,1.84Z"/>
    </clipPath>
    <clipPath id="clippath-4">
      <path class="cls-44" d="M338.67,32.61s-2.63,.45-4.5,0,.45,3.15,2.55,2.85,1.95-2.85,1.95-2.85Z"/>
    </clipPath>
    <clipPath id="clippath-5">
      <path class="cls-44" d="M328.96,48.3l.9,2.7-2.6,30.52,3,11.41,6.5-10.51-3.3-31.32,.6-3.1s-1.7-1.9-2.5-1.5-2.6,1.8-2.6,1.8Z"/>
    </clipPath>
    <clipPath id="clippath-6">
      <path class="cls-44" d="M396.9,59.3s-13.21,31.82-25.42,29.22c-1.21-.26-2.33-.55-3.38-.88-8.69-2.69-12.17-7.35-12.75-8.19-.06-.09-.08-.13-.08-.13l1.71,18.92,.31,3.44,1.78,19.66-52.03,.6s-6.05-66.64-3.05-71.84c1.14-1.98,5.72-3.35,8.46-4,4.45-1.06,8.81-2.2,8.81-2.2,0,0,7,29.42,9.61,40.63,2.6,11.21,8.8-41.02,8.8-41.02,0,0,6.01,1.23,10.01,2.6,1.5,.51,3.73,3.07,4.6,4,3.2,3.4,17.41,17.61,17.41,17.61l12.01-14.61,13.21,6.2Z"/>
    </clipPath>
    <clipPath id="clippath-7">
      <path class="cls-44" d="M307.15,92.42l14.11,24.91-14.41,8.4s-19.66-23.26-19.81-33.02,11.11-46.83,20.86-44.28c9.76,2.55,3.65,16.71,1.55,27.37-2.1,10.66-2.3,16.61-2.3,16.61Z"/>
    </clipPath>
    <clipPath id="clippath-8">
      <path class="cls-44" d="M321.11,117.19s2.25-.15,3.75,3.3,6,7.65,4.05,7.65-3.3-1.05-3.3-1.05c0,0,.9,3-.15,3.6s-2.85-.45-4.35,1.2-4.95,2.25-4.95,2.25c0,0-3.9-.3-4.2-2.7s-1.35-8.25-1.35-8.25l10.51-6Z"/>
    </clipPath>
    <clipPath id="clippath-9">
      <path class="cls-44" d="M515.52,181.9s-40.07,9.18-46.5,14.07-9.18,68.52-9.18,68.52l27.53-.31,1.84-47.72,15.91-4.59-7.65,51.7,23.55,2.75,8.87-54.75s18.35-6.73,20.19-11.93-2.14-25.39-2.14-25.39l-32.42,7.65Z"/>
    </clipPath>
    <clipPath id="clippath-10">
      <path class="cls-44" d="M554.66,179.01c-1.85,2.95-8.87,5.91-8.87,5.91l-36.21,.37-.28-3.83-.27-3.75-8.09,7.39-1.41-3.35-21.04-1.8,17.96-12.32s5.56-24.11,12.39-29.84c6.84-5.73,16.07-5.54,16.07-5.54,0,0,12.38,.92,19.59,6.47,7.21,5.54,12.01,37.32,10.16,40.28Z"/>
    </clipPath>
    <clipPath id="clippath-11">
      <path class="cls-44" d="M534.86,110.07s1.39-2.61-3.65-4.89c-5.04-2.28-6.76,.54-12.51-1.05s-12.11,9.43-3.74,14.38c8.37,4.95,14.55,9.8,14.55,9.8,0,0,1.98,2.6,3.89,1.97s.09-3.99,.09-3.99c0,0,15-9.39,1.37-16.21Z"/>
    </clipPath>
    <clipPath id="clippath-12">
      <path class="cls-44" d="M534.9,123.86c-.52-1.9-2.73-2.95-4.92-2.34-.7,.19-1.31,.53-1.81,.96-.94,.04-1.83-.1-1.82-.75,.01-1.38,.03-5.45-1.66-5.1-1.69,.35-7.89-.26-8.63-3.37,0,0-9.87,19.69,6.71,17.57,0,0-1.32,2.25-.89,5.27s1.19,4.53,3.02,4.1c1.73-.41,5.52-4.06,6.36-6.04l-.2-5.62c.27-.03,.54-.08,.81-.15,2.2-.61,3.55-2.64,3.03-4.54Z"/>
    </clipPath>
    <clipPath id="clippath-13">
      <path class="cls-44" d="M435.24,183.15s4.05,1.06-5.75,1.7c-9.8,.64-25.13,1.06-34.08,5.54-8.95,4.47-11.08,12.14-11.5,19.59s5.32,32.59,5.32,32.59l2.56,9.8s15.76-18.32,27.47-9.58c-3.41-12.78-8.31-34.5-8.31-34.5,0,0,21.94,3.62,37.27,.21,15.33-3.41,18.1-13.21,15.55-24.28s-28.54-1.06-28.54-1.06Z"/>
    </clipPath>
    <clipPath id="clippath-14">
      <path class="cls-44" d="M444.9,128.28c0,5.34-6.96,10.6-12.07,9.67-4.75-.86-5.11-4.49-4.72-9.82,.39-5.33,2.37-10.68,7.19-10.68s9.59,5.49,9.59,10.83Z"/>
    </clipPath>
    <clipPath id="clippath-15">
      <path class="cls-44" d="M431.98,118.62s-.46,6.58,4.56,7.74c-.54-2.24-.15-2.4-.15-2.4,0,0,1.55,3.4,3.56,3.87,2.4-1.16,2.94,1.39,2.63,2.94s-3.09,2.63-3.87,2.63,.46,1.62-1.24,4.02-4,5.85-4.02,10.06c-.03,4.67,1.55,8.2,6.19,10.06s5.49,1.47,5.49,1.47l-.39-3.09s1.39,2.94,3.02,3.17,5.96,.46,5.96,.46l-.46-2.78,2.4,2.55s4.8-2.4,5.41-5.11-.19-6.97-1.8-9.18c-2.58-3.53-6.24-6.06-6.24-9.85s1.7-6.78,1.7-10.21c0-6.5-4.87-11.29-12.92-12.69-8.04-1.39-15.08,3.02-12.53,9.21,1.32-1.86,2.71-2.86,2.71-2.86Z"/>
    </clipPath>
  </defs>
  <rect id="_10-2" data-name="10" class="cls-5" x="137.97" y="-31.16" width="524.06" height="349.37"/>
  <g>
    <path class="cls-35" d="M485.95,89.59l-112.57-54.5c-14.9-7.21-32.31-8.19-47.56-2.67l-33.07,11.97c-17.47,6.32-29.87,20.36-32.95,37.28l-1.47,8.1c-1.62,8.93-5.88,17.21-12.33,23.98l-12.35,12.96c-16.43,17.25-17.47,42.83-2.52,62.18l12.7,16.44c11.55,14.95,30.72,23.59,50.46,22.72l95.66-4.19c2.05-.09,4.12-.08,6.18,.04l52.02,2.91c26.41,1.48,49.7-13.87,55.97-36.88l11.37-41.73c6.24-22.89-6.04-47.23-29.56-58.61Z"/>
    <g>
      <g>
        <circle class="cls-4" cx="245.06" cy="176.86" r="3.5"/>
        <circle class="cls-4" cx="255.18" cy="176.86" r="3.5"/>
        <circle class="cls-4" cx="265.29" cy="176.86" r="3.5"/>
        <circle class="cls-4" cx="275.41" cy="176.86" r="3.5"/>
        <circle class="cls-4" cx="285.53" cy="176.86" r="3.5"/>
        <circle class="cls-4" cx="295.65" cy="176.86" r="3.5"/>
        <circle class="cls-4" cx="305.77" cy="176.86" r="3.5"/>
      </g>
      <g>
        <circle class="cls-4" cx="245.06" cy="186.43" r="3.5"/>
        <circle class="cls-4" cx="255.18" cy="186.43" r="3.5"/>
        <circle class="cls-4" cx="265.29" cy="186.43" r="3.5"/>
        <circle class="cls-4" cx="275.41" cy="186.43" r="3.5"/>
        <circle class="cls-4" cx="285.53" cy="186.43" r="3.5"/>
        <circle class="cls-4" cx="295.65" cy="186.43" r="3.5"/>
        <circle class="cls-4" cx="305.77" cy="186.43" r="3.5"/>
      </g>
      <g>
        <circle class="cls-4" cx="245.06" cy="196" r="3.5"/>
        <circle class="cls-4" cx="255.18" cy="196" r="3.5"/>
        <circle class="cls-4" cx="265.29" cy="196" r="3.5"/>
        <circle class="cls-4" cx="275.41" cy="196" r="3.5"/>
        <circle class="cls-4" cx="285.53" cy="196" r="3.5"/>
        <circle class="cls-4" cx="295.65" cy="196" r="3.5"/>
        <circle class="cls-4" cx="305.77" cy="196" r="3.5"/>
      </g>
      <g>
        <circle class="cls-4" cx="245.06" cy="205.56" r="3.5"/>
        <circle class="cls-4" cx="255.18" cy="205.56" r="3.5"/>
        <circle class="cls-4" cx="265.29" cy="205.56" r="3.5"/>
        <circle class="cls-4" cx="275.41" cy="205.56" r="3.5"/>
        <circle class="cls-4" cx="285.53" cy="205.56" r="3.5"/>
        <circle class="cls-4" cx="295.65" cy="205.56" r="3.5"/>
        <circle class="cls-4" cx="305.77" cy="205.56" r="3.5"/>
      </g>
      <g>
        <circle class="cls-4" cx="245.06" cy="215.13" r="3.5"/>
        <circle class="cls-4" cx="255.18" cy="215.13" r="3.5"/>
        <circle class="cls-4" cx="265.29" cy="215.13" r="3.5"/>
        <circle class="cls-4" cx="275.41" cy="215.13" r="3.5"/>
        <circle class="cls-4" cx="285.53" cy="215.13" r="3.5"/>
        <circle class="cls-4" cx="295.65" cy="215.13" r="3.5"/>
        <circle class="cls-4" cx="305.77" cy="215.13" r="3.5"/>
      </g>
      <g>
        <circle class="cls-4" cx="245.06" cy="224.7" r="3.5"/>
        <circle class="cls-4" cx="255.18" cy="224.7" r="3.5"/>
        <circle class="cls-4" cx="265.29" cy="224.7" r="3.5"/>
        <circle class="cls-4" cx="275.41" cy="224.7" r="3.5"/>
        <circle class="cls-4" cx="285.53" cy="224.7" r="3.5"/>
        <circle class="cls-4" cx="295.65" cy="224.7" r="3.5"/>
        <circle class="cls-4" cx="305.77" cy="224.7" r="3.5"/>
      </g>
      <g>
        <circle class="cls-4" cx="245.06" cy="234.27" r="3.5"/>
        <circle class="cls-4" cx="255.18" cy="234.27" r="3.5"/>
        <circle class="cls-4" cx="265.29" cy="234.27" r="3.5"/>
        <circle class="cls-4" cx="275.41" cy="234.27" r="3.5"/>
        <circle class="cls-4" cx="285.53" cy="234.27" r="3.5"/>
        <circle class="cls-4" cx="295.65" cy="234.27" r="3.5"/>
        <circle class="cls-4" cx="305.77" cy="234.27" r="3.5"/>
      </g>
    </g>
    <g>
      <g>
        <circle class="cls-4" cx="420.13" cy="60.29" r="3.5"/>
        <circle class="cls-4" cx="430.25" cy="60.29" r="3.5"/>
        <circle class="cls-4" cx="440.37" cy="60.29" r="3.5"/>
        <circle class="cls-4" cx="450.49" cy="60.29" r="3.5"/>
        <circle class="cls-4" cx="460.61" cy="60.29" r="3.5"/>
        <circle class="cls-4" cx="470.73" cy="60.29" r="3.5"/>
        <circle class="cls-4" cx="480.84" cy="60.29" r="3.5"/>
      </g>
      <g>
        <circle class="cls-4" cx="420.13" cy="69.85" r="3.5"/>
        <circle class="cls-4" cx="430.25" cy="69.85" r="3.5"/>
        <circle class="cls-4" cx="440.37" cy="69.85" r="3.5"/>
        <circle class="cls-4" cx="450.49" cy="69.85" r="3.5"/>
        <circle class="cls-4" cx="460.61" cy="69.85" r="3.5"/>
        <circle class="cls-4" cx="470.73" cy="69.85" r="3.5"/>
        <circle class="cls-4" cx="480.84" cy="69.85" r="3.5"/>
      </g>
      <g>
        <circle class="cls-4" cx="420.13" cy="79.42" r="3.5"/>
        <circle class="cls-4" cx="430.25" cy="79.42" r="3.5"/>
        <circle class="cls-4" cx="440.37" cy="79.42" r="3.5"/>
        <circle class="cls-4" cx="450.49" cy="79.42" r="3.5"/>
        <circle class="cls-4" cx="460.61" cy="79.42" r="3.5"/>
        <circle class="cls-4" cx="470.73" cy="79.42" r="3.5"/>
        <circle class="cls-4" cx="480.84" cy="79.42" r="3.5"/>
      </g>
      <g>
        <circle class="cls-4" cx="420.13" cy="88.99" r="3.5"/>
        <circle class="cls-4" cx="430.25" cy="88.99" r="3.5"/>
        <circle class="cls-4" cx="440.37" cy="88.99" r="3.5"/>
        <circle class="cls-4" cx="450.49" cy="88.99" r="3.5"/>
        <circle class="cls-4" cx="460.61" cy="88.99" r="3.5"/>
        <circle class="cls-4" cx="470.73" cy="88.99" r="3.5"/>
        <circle class="cls-4" cx="480.84" cy="88.99" r="3.5"/>
      </g>
      <g>
        <circle class="cls-4" cx="420.13" cy="98.56" r="3.5"/>
        <circle class="cls-4" cx="430.25" cy="98.56" r="3.5"/>
        <circle class="cls-4" cx="440.37" cy="98.56" r="3.5"/>
        <circle class="cls-4" cx="450.49" cy="98.56" r="3.5"/>
        <circle class="cls-4" cx="460.61" cy="98.56" r="3.5"/>
        <circle class="cls-4" cx="470.73" cy="98.56" r="3.5"/>
        <circle class="cls-4" cx="480.84" cy="98.56" r="3.5"/>
      </g>
      <g>
        <circle class="cls-4" cx="420.13" cy="108.12" r="3.5"/>
        <circle class="cls-4" cx="430.25" cy="108.12" r="3.5"/>
        <circle class="cls-4" cx="440.37" cy="108.12" r="3.5"/>
        <circle class="cls-4" cx="450.49" cy="108.12" r="3.5"/>
        <circle class="cls-4" cx="460.61" cy="108.12" r="3.5"/>
        <circle class="cls-4" cx="470.73" cy="108.12" r="3.5"/>
        <circle class="cls-4" cx="480.84" cy="108.12" r="3.5"/>
      </g>
      <g>
        <circle class="cls-4" cx="420.13" cy="117.69" r="3.5"/>
        <circle class="cls-4" cx="430.25" cy="117.69" r="3.5"/>
        <circle class="cls-4" cx="440.37" cy="117.69" r="3.5"/>
        <circle class="cls-4" cx="450.49" cy="117.69" r="3.5"/>
        <circle class="cls-4" cx="460.61" cy="117.69" r="3.5"/>
        <circle class="cls-4" cx="470.73" cy="117.69" r="3.5"/>
        <circle class="cls-4" cx="480.84" cy="117.69" r="3.5"/>
      </g>
    </g>
    <g>
      <g>
        <g class="cls-31">
          <rect x="213.01" y="45.46" width="217.52" height="158.37" rx="11" ry="11"/>
        </g>
        <rect class="cls-4" x="224.02" y="34.12" width="217.52" height="158.37" rx="11" ry="11"/>
        <rect class="cls-23" x="224.02" y="34.12" width="217.52" height="158.37" rx="11" ry="11"/>
        <rect class="cls-26" x="360.71" y="71.2" width="62.58" height="37.62" rx="12" ry="12"/>
        <rect class="cls-20" x="360.71" y="117.92" width="62.58" height="14.9" rx="7.45" ry="7.45"/>
        <rect class="cls-26" x="360.71" y="142.09" width="62.58" height="14.9" rx="7.45" ry="7.45"/>
        <rect class="cls-20" x="360.71" y="166.26" width="62.58" height="14.9" rx="7.45" ry="7.45"/>
        <path class="cls-4" d="M430.55,34.12H235.02c-6.07,0-11,4.92-11,11v1.33h217.52v-1.33c0-6.07-4.92-11-11-11Z"/>
        <rect class="cls-8" x="224.02" y="46.45" width="217.52" height="13.56"/>
        <circle class="cls-23" cx="233.3" cy="40.29" r="3.27"/>
        <circle class="cls-23" cx="242.97" cy="40.29" r="3.27"/>
        <circle class="cls-23" cx="252.65" cy="40.29" r="3.27"/>
        <path class="cls-26" d="M435.12,46.45h-45.9c2.38-5.71,7.97-9.43,14.16-9.43h17.59c6.19,0,11.77,3.72,14.16,9.43h0Z"/>
        <path class="cls-23" d="M394.26,46.45h-45.9c2.38-5.71,7.97-9.43,14.16-9.43h17.59c6.19,0,11.77,3.72,14.16,9.43h0Z"/>
        <path class="cls-26" d="M353.14,46.45h-45.9c2.38-5.71,7.97-9.43,14.16-9.43h17.59c6.19,0,11.77,3.72,14.16,9.43h0Z"/>
        <path class="cls-23" d="M312.28,46.45h-45.9c2.38-5.71,7.97-9.43,14.16-9.43h17.59c6.19,0,11.77,3.72,14.16,9.43h0Z"/>
        <rect class="cls-4" x="249.38" y="49.6" width="185.74" height="6.57"/>
        <g>
          <polygon class="cls-4" points="231.52 56.68 228.06 53.23 231.52 49.77 231.83 50.09 228.7 53.23 231.83 56.36 231.52 56.68"/>
          <polygon class="cls-4" points="241.49 56.68 241.17 56.36 244.3 53.23 241.17 50.09 241.49 49.77 244.94 53.23 241.49 56.68"/>
          <rect class="cls-4" x="228.38" y="53" width="4.5" height=".45"/>
          <rect class="cls-4" x="239.7" y="53" width="4.5" height=".45"/>
        </g>
      </g>
      <g>
        <g>
          <g class="cls-29">
            <rect class="cls-28" x="241.15" y="71.44" width="149.84" height="109.09" rx="7.58" ry="7.58"/>
          </g>
          <rect class="cls-1" x="248.05" y="59.32" width="149.84" height="109.09" rx="7.58" ry="7.58"/>
          <path class="cls-4" d="M390.31,59.32H255.62c-4.18,0-7.58,3.39-7.58,7.58v.91h149.84v-.91c0-4.18-3.39-7.58-7.58-7.58Z"/>
          <rect class="cls-45" x="248.05" y="67.81" width="149.84" height="9.34"/>
        </g>
        <rect class="cls-21" x="262.06" y="95.5" width="127.92" height="62.23" rx="7.76" ry="7.76"/>
      </g>
      <g>
        <polygon class="cls-37" points="309.55 110.13 303.85 157.86 329.96 157.86 333.87 143.75 336.27 157.86 364.19 157.86 356.08 115.24 309.55 110.13"/>
        <g class="cls-39">
          <g>
            <g>
              <g class="cls-31">
                <path class="cls-4" d="M351.13,117.64l.58,2.69,.57,2.69,1.14,5.37,2.24,10.76c.75,3.58,1.47,7.17,2.21,10.76l2.2,10.76,2.16,10.77,1.08,5.39,.54,2.69,.53,2.7,2.12,10.78,1.04,5.39,.52,2.7,.51,2.7-.58-2.69-.57-2.69-1.14-5.37-2.24-10.76-.56-2.69-.55-2.69-1.1-5.38-2.2-10.76-2.16-10.77c-.72-3.59-1.45-7.18-2.14-10.78l-2.12-10.78-1.04-5.39-.52-2.7-.51-2.7Z"/>
              </g>
              <g class="cls-31">
                <path class="cls-4" d="M318.71,121.99l-.41,2.49-.42,2.49-.83,4.98-1.7,9.95c-.56,3.32-1.15,6.63-1.73,9.95l-1.74,9.95-1.78,9.94-.89,4.97-.45,2.48-.46,2.48-1.83,9.93-.93,4.96-.47,2.48-.47,2.48,.41-2.49,.42-2.49,.83-4.98,1.7-9.95,.43-2.49,.44-2.49,.87-4.97,1.74-9.95,1.78-9.94c.6-3.31,1.18-6.63,1.8-9.94l1.82-9.93,.93-4.96,.47-2.48,.47-2.48Z"/>
              </g>
            </g>
            <g class="cls-7">
              <polygon points="330.26 162.96 334.77 139.25 348.58 164.76 330.26 162.96"/>
            </g>
          </g>
        </g>
        <g>
          <path class="cls-33" d="M393.9,59.1l4.04-4.25c1.05-1.1,1.28-2.76,.57-4.1l-2.96-5.6-6.23,.08-3.45,6.38-.75,7.73,8.78-.23Z"/>
          <rect class="cls-42" x="392.25" y="9.9" width="1.5" height="48.03" rx=".75" ry=".75"/>
          <rect class="cls-32" x="391.22" y="43.49" width="6.46" height="2.63" rx="1.31" ry="1.31" transform="translate(6.68 129.83) rotate(-18.85)"/>
          <rect class="cls-32" x="391.84" y="46.23" width="7.28" height="2.63" rx="1.31" ry="1.31" transform="translate(5.85 130.31) rotate(-18.85)"/>
          <rect class="cls-32" x="394.19" y="48.68" width="6.05" height="2.63" rx="1.31" ry="1.31" transform="translate(5.15 131.01) rotate(-18.85)"/>
          <rect class="cls-32" x="396.49" y="51.36" width="3.94" height="2.63" rx="1.31" ry="1.31" transform="translate(4.35 131.55) rotate(-18.85)"/>
          <path class="cls-32" d="M385.57,53.7s-1.35-4.13,.08-6.45,6.45-5.4,7.2-4.73-2.03,4.43-2.03,4.43c0,0,3.75,3.75,1.43,7.88s-5.18,4.58-5.18,4.58l-1.5-5.7Z"/>
          <g class="cls-24">
            <path class="cls-33" d="M392.59,40.99c.28,1.79-1.34,3.24-2.75,4.39-.23,.19-.47,.39-.58,.67-.25,.63,.25,1.28,.64,1.83,1.09,1.58,1.39,3.68,.78,5.5s-2.09,3.33-3.91,3.95c-.8,.27-1.88,.68-1.75,1.52,.03,.23,.17,.44,.32,.62,.94,1.13,2.49,1.56,3.96,1.63,1.3,.06,2.71-.16,3.65-1.06,.55-.53,.88-1.24,1.2-1.94,1.25-2.75,2.45-5.91,1.29-8.7-.59-1.43-1.8-2.77-1.51-4.29,.18-.98,.96-1.73,1.39-2.63s.31-2.28-.66-2.53l-2.07,1.03Z"/>
          </g>
        </g>
        <path class="cls-4" d="M323.16,43.19l-3.5,1.4s10.41,47.43,11.01,47.73,7.4-22.11,7.4-22.11l2.3-26.42-6.5-.6h-10.71Z"/>
        <polygon class="cls-6" points="325.56 41.59 322.36 44.29 325.26 51.2 331.67 46.74 336.87 50.2 337.87 43.79 334.87 42.89 325.56 41.59"/>
        <polygon class="cls-4" points="325.66 40.89 322.46 43.59 325.36 50.5 331.77 46.04 336.97 49.5 337.97 43.09 334.97 42.19 325.66 40.89"/>
        <path class="cls-41" d="M324.11,13.39s1.1-4.46,6.03-4.23,8.3,1.1,9.16,1.41-1.72,1.1-1.72,1.1c0,0,7.75,.63,9,2.35s-1.8,3.6-1.1,4.07,.94,1.72,.78,2.82-2.27,2.58-2.58,2.74-20.9,5.56-20.9,5.56c0,0-9.94-12.6,1.33-15.81Z"/>
        <g class="cls-10">
          <g>
            <path class="cls-43" d="M348.7,18.45c-.66-.69-1.67-.92-2.62-.93s-1.9,.15-2.85,.1c-3.15-.17-6-2.64-9.13-2.2-.74,.1-1.5,.41-1.94,1.02-.37,.51-.48,1.18-.9,1.64-.36,.39-.9,.57-1.43,.64-1.89,.26-3.71-.67-5.55-1.16-.42-.11-.85-.2-1.28-.14-.45,.07-.86,.3-1.22,.59-1.53,1.22-2.16,3.33-1.95,5.27,.21,1.94,1.15,3.74,2.3,5.32,.46,.63,.96,1.53,.45,2.12l-2.33-.72c-.05,.5,.57,.75,1.07,.82,6.35,.99,12.97,.23,18.94-2.16,2.73-1.1,5.37-2.56,7.4-4.7,.71-.75,1.36-1.61,1.63-2.6,.28-1,.12-2.16-.59-2.91Z"/>
            <path class="cls-43" d="M323.69,13.06c1.1-1.18,2.73-1.72,4.33-1.95,5.49-.79,11.16,1.52,16.58,.34,.49-.11,1.05-.32,1.18-.8,.07-.25,0-.51-.1-.75-.45-1.17-1.43-2.08-2.53-2.67-1.11-.59-2.34-.88-3.57-1.12-2.81-.54-5.7-.79-8.55-.49-2.85,.3-5.66,1.18-8.05,2.75-.78,.51-1.6,1.31-1.4,2.22l2.11,2.47Z"/>
          </g>
        </g>
        <path class="cls-32" d="M343.85,22.56v8.18c0,4.59-3.7,8.36-8.27,8.47l.29,2.51,.1,.87s-3.08,3.08-4.2,3.45-6.75-2.7-6.6-4.5c.11-1.33,.22-6.08,.27-8.45-.84,0-1.73-.26-2.51-.81-1.84-1.28-2.43-3.61-1.31-5.21,1.1-1.58,3.45-1.85,5.28-.62v-1.03l1.35-3.92s3.9,.23,5.63,.45,.15-.98,.15-.98c0,0,5.63,.6,7.35,.15,.96-.25,1.59-.36,1.97-.41,.32,.54,.51,1.17,.51,1.84Z"/>
        <g class="cls-46">
          <path class="cls-33" d="M327.15,26.62l1.76-3.17c.09-.16,.19-.33,.33-.45,.46-.38,1.14-.11,1.7,.08,1.88,.66,4.09,.28,5.64-.97,1.16,.98,2.86,.93,4.38,.79,1.2-.12,2.4-.26,3.59-.42,1.12-.16,2.38-.44,2.93-1.42,.39-.7,.29-1.57-.01-2.31-.54-1.33-1.69-2.36-2.98-3s-2.73-.93-4.15-1.12c-4.28-.56-8.68-.25-12.84,.9-1.42,.39-2.88,.93-3.85,2.03s-1.26,2.94-.27,4.02l3.78,5.04Z"/>
        </g>
        <path class="cls-33" d="M322.71,29.6c-.02,.16,.03,.33,.11,.46,.08,.14,.2,.25,.33,.34,.27,.17,.59,.25,.89,.25,.31,0,.61-.07,.86-.21,.25-.14,.43-.35,.45-.57,.02-.22-.1-.47-.32-.65-.21-.19-.49-.32-.79-.38-.3-.06-.63-.06-.93,.06-.15,.06-.29,.14-.4,.26-.11,.12-.19,.27-.21,.43Zm0,0c.02-.16,.09-.31,.19-.44,.1-.13,.24-.23,.38-.31,.29-.16,.63-.23,.98-.23,.34,0,.7,.09,1,.3,.15,.1,.29,.24,.39,.41,.1,.17,.16,.38,.14,.6-.02,.21-.12,.41-.26,.55-.14,.15-.3,.25-.47,.32-.34,.13-.71,.14-1.04,.08-.34-.07-.65-.21-.91-.43-.13-.11-.23-.24-.31-.38-.07-.15-.11-.31-.1-.47Z"/>
        <path class="cls-14" d="M330.43,23.76c.1-.1,.19-.18,.3-.26,.1-.08,.21-.15,.32-.22,.22-.13,.47-.24,.73-.31,.26-.07,.55-.08,.82-.04,.28,.03,.54,.14,.79,.26,.17,.08,.24,.29,.16,.46-.08,.17-.29,.24-.46,.16,0,0-.01,0-.02-.01l-.03-.02c-.17-.1-.35-.2-.55-.23-.19-.04-.4-.05-.6-.02-.2,.03-.41,.1-.6,.2-.1,.05-.19,.1-.28,.16-.09,.06-.19,.13-.26,.19h-.01c-.09,.09-.23,.08-.32-.01-.08-.09-.07-.22,0-.3Z"/>
        <path class="cls-14" d="M341.98,23.7c-.07-.06-.17-.13-.26-.18-.09-.06-.19-.11-.29-.15-.2-.09-.4-.15-.61-.18-.21-.03-.41-.01-.6,.04-.19,.04-.37,.15-.54,.25l-.03,.02c-.16,.1-.37,.05-.47-.11-.1-.16-.05-.37,.11-.47,0,0,.01,0,.02-.01,.24-.13,.5-.25,.78-.29,.27-.05,.56-.04,.82,.02,.27,.06,.51,.16,.74,.28,.11,.06,.22,.13,.33,.21,.11,.08,.2,.15,.3,.25,.09,.09,.09,.23,0,.32-.08,.08-.21,.09-.3,.02h-.01Z"/>
        <path class="cls-33" d="M337.23,26.73s2.15,3.54,.37,3.95c-1.31,.3-1.44-.44-1.54-1.07s.33-3.57,1.17-2.88Z"/>
        <circle class="cls-18" cx="340.86" cy="26.71" r=".96"/>
        <circle class="cls-18" cx="331.94" cy="26.95" r=".96"/>
        <path class="cls-18" d="M338.67,32.61s-2.63,.45-4.5,0,.45,3.15,2.55,2.85,1.95-2.85,1.95-2.85Z"/>
        <g class="cls-25">
          <ellipse class="cls-4" cx="336.16" cy="32.35" rx="3.64" ry="1.54"/>
        </g>
        <circle class="cls-27" cx="329.74" cy="30.66" r="2.4"/>
        <path class="cls-33" d="M335.87,41.72c-3.15,.09-6.69-5.69-5.53-4.53s5.24,2.02,5.24,2.02l.29,2.51Z"/>
        <g class="cls-7">
          <path d="M323.66,22.1c.16,.33,.3,.65,.46,.96,.15,.31,.32,.61,.49,.91,.17,.3,.36,.58,.56,.85,.05,.07,.1,.14,.15,.21l.17,.2,.08,.1s.06,.06,.09,.1c.06,.07,.12,.13,.18,.21-.09-.03-.17-.07-.25-.11-.04-.02-.08-.04-.12-.06l-.12-.07c-.08-.05-.15-.1-.23-.16-.07-.06-.14-.12-.21-.18-.27-.25-.51-.54-.69-.86-.19-.32-.33-.66-.43-1.01-.1-.35-.15-.72-.13-1.08Z"/>
        </g>
        <g class="cls-7">
          <path d="M329.81,13.47c-.46-.04-.91-.03-1.35,.02-.44,.05-.87,.16-1.25,.35-.38,.19-.69,.48-.89,.84-.2,.36-.3,.78-.34,1.21l-.02,.18-.18,.02c-.29,.04-.61,.11-.9,.22-.29,.11-.58,.24-.83,.42-.25,.18-.48,.39-.65,.66-.18,.26-.28,.57-.35,.89-.01-.33,.04-.67,.19-.98,.07-.16,.16-.31,.27-.44,.11-.14,.22-.26,.36-.37,.26-.22,.56-.4,.88-.53,.16-.07,.32-.13,.48-.17,.17-.05,.33-.09,.51-.12l-.19,.2c.03-.48,.14-.97,.4-1.4,.25-.43,.66-.77,1.11-.96,.45-.19,.93-.26,1.4-.25,.47,0,.93,.08,1.37,.23Z"/>
        </g>
        <path class="cls-33" d="M330.75,25.97c.02-.21,.13-.4,.28-.56,.15-.16,.36-.28,.6-.31,.24-.03,.49,.04,.66,.18,.05,.03,.09,.07,.12,.11,.04,.04,.07,.08,.11,.12,.06,.09,.11,.18,.14,.28-.11-.03-.2-.07-.28-.11-.05-.01-.09-.03-.13-.04-.04-.02-.08-.03-.12-.04-.04,0-.08-.02-.12-.03l-.11-.02s-.07,0-.11,0h-.05s-.04,0-.05,0c-.14,.01-.29,.06-.44,.14-.15,.08-.31,.18-.49,.29Z"/>
        <path class="cls-33" d="M339.76,25.48c.02-.21,.13-.4,.28-.56,.15-.16,.36-.28,.6-.31,.24-.03,.49,.04,.66,.18,.05,.03,.09,.07,.12,.11,.04,.04,.07,.08,.11,.12,.06,.09,.11,.18,.14,.28-.11-.03-.2-.07-.28-.11-.05-.01-.09-.03-.13-.04-.04-.02-.08-.03-.12-.04-.04,0-.08-.02-.12-.03l-.11-.02s-.07,0-.11,0h-.05s-.04,0-.05,0c-.14,.01-.29,.06-.44,.14-.15,.08-.31,.18-.49,.29Z"/>
        <path class="cls-42" d="M328.96,48.3l.9,2.7-2.6,30.52,3,11.41,6.5-10.51-3.3-31.32,.6-3.1s-1.7-1.9-2.5-1.5-2.6,1.8-2.6,1.8Z"/>
        <g class="cls-49">
          <path class="cls-50" d="M331.64,46c.23,.79-.13,1.62-.38,2.4s-.35,1.76,.26,2.33c.75,.7,1.99,.27,2.97,.58-.7,.26-1.46,.27-2.19,.44s-1.47,.57-1.72,1.28c-.19,.55-.03,1.16,.07,1.73,.3,1.71,.02,3.46-.13,5.19-.34,3.9-.03,7.83,.28,11.73,.13,1.65,.26,3.3,.39,4.95,.15,1.88,.34,3.87,1.5,5.35,.88,1.13,2.2,1.8,3.33,2.67s2.17,2.14,2.04,3.56c-.12,1.29-1.16,2.3-2.24,3.03-3.13,2.11-7.15,2.84-10.83,1.97-1-.24-2-.6-2.75-1.3-1.44-1.33-1.65-3.51-1.66-5.47-.03-6.08,.89-12.17,.36-18.23-.23-2.6-.72-5.22-.39-7.81,.31-2.41,1.32-4.68,2.48-6.81,.81-1.48,1.72-2.97,2.01-4.63,.18-1.03,.13-2.15,.72-3.01,.74-1.07,2.2-1.32,3.49-1.47l2.39,1.54Z"/>
        </g>
        <path class="cls-37" d="M396.9,59.3s-13.21,31.82-25.42,29.22c-1.21-.26-2.33-.55-3.38-.88-8.69-2.69-12.17-7.35-12.75-8.19-.06-.09-.08-.13-.08-.13l1.71,18.92,.31,3.44,1.78,19.66-52.03,.6s-6.05-66.64-3.05-71.84c1.14-1.98,5.72-3.35,8.46-4,4.45-1.06,8.81-2.2,8.81-2.2,0,0,7,29.42,9.61,40.63,2.6,11.21,8.8-41.02,8.8-41.02,0,0,6.01,1.23,10.01,2.6,1.5,.51,3.73,3.07,4.6,4,3.2,3.4,17.41,17.61,17.41,17.61l12.01-14.61,13.21,6.2Z"/>
        <g class="cls-16">
          <g class="cls-7">
            <path d="M303.17,42.44c5.36,5.48,7.47,13.37,8.26,20.99s.46,15.37,1.9,22.9c.67,3.47,1.74,6.92,3.68,9.87,2.76,4.19,7.08,7.1,11.54,9.4,6.46,3.32,13.46,5.58,20.63,6.67,6.8,1.03,14.66,1.48,18.82,6.95,.51,.67,.96,1.44,.98,2.28,.03,1.35-1.02,2.47-2.12,3.25-3.14,2.22-7.07,2.9-10.87,3.51-18.53,2.96-37.37,5.35-56.03,3.31-7.78-.85-16.52-3.23-19.99-10.24-3.32-6.69-.42-14.6,1.88-21.71,5.57-17.23,7.37-35.67,5.24-53.65l16.09-3.55Z"/>
          </g>
        </g>
        <g class="cls-7">
          <path d="M343.42,64.21l-3.8,.55,2.3,3.1s-7.45,18.66-10.26,18.66-11.61-18.56-11.61-18.56l1.95-3.9-3-.1-9.01-16.81c4.2-2.2,10.21-2.65,10.21-2.65,0,0,7.45,23.42,10.06,38.97,2.6,15.54,8.35-39.52,8.35-39.52,0,0,5.08,.15,9.08,2.04l-4.28,18.22Z"/>
        </g>
        <path class="cls-21" d="M344.47,63.76l-3.8,.55,2.3,3.1s-8.5,19.11-11.31,19.11-10.56-19.01-10.56-19.01l1.95-3.9-3-.1-9.01-16.81c4.2-2.2,10.21-2.65,10.21-2.65,0,0,6.4,23.87,9.01,39.42,2.6,15.54,9.4-39.97,9.4-39.97,0,0,5.08,.15,9.08,2.04l-4.28,18.22Z"/>
        <path class="cls-21" d="M357.3,101.68l-6.86-3.12c-.75-.34-1.09-1.24-.74-1.99,.25-.55,.8-.88,1.37-.88,.21,0,.42,.05,.62,.14l5.31,2.41,.31,3.44Z"/>
        <g>
          <polygon class="cls-42" points="335.67 124.14 329.64 126.21 305.06 134.64 301.25 135.95 298.85 135.15 289.64 108.93 300.08 105.45 313.45 100.99 320.86 98.52 330.47 124.14 333.87 122.94 325.66 97.52 326.66 96.92 335.67 124.14"/>
          <g class="cls-7">
            <path d="M305.06,134.64c.95-1.86,1.19-4.11,.23-5.94-.78-1.49-2.21-2.52-3.26-3.85-1.77-2.24-2.36-5.37-1.5-8.1,.77-2.45,2.6-5.06,1.37-7.32-.35-.65-.92-1.15-1.3-1.78-.41-.68-.57-1.43-.53-2.2l13.37-4.46c.11,.22,.21,.44,.31,.66,3.56,7.91,8.15,15.37,13.61,22.11,.69,.86,1.43,1.72,2.27,2.44l-24.58,8.43Z"/>
          </g>
          <polygon class="cls-4" points="321.46 99.93 326.06 98.53 333.87 122.94 330.16 124.24 321.46 99.93"/>
          <g class="cls-7">
            <path d="M323.86,99.43c.28,.53,.52,1.07,.74,1.62,.22,.55,.43,1.1,.62,1.66,.19,.56,.37,1.12,.53,1.69,.16,.57,.31,1.14,.41,1.73-.28-.53-.52-1.07-.74-1.62-.22-.55-.43-1.1-.62-1.66-.19-.56-.37-1.12-.53-1.69-.16-.57-.31-1.14-.41-1.73Z"/>
          </g>
          <g class="cls-7">
            <path d="M332.17,123.14c-.35-.77-.65-1.56-.95-2.35-.15-.39-.29-.79-.43-1.19l-.41-1.2-.38-1.21c-.12-.4-.25-.81-.36-1.21-.12-.4-.23-.81-.34-1.22-.11-.41-.21-.82-.33-1.22,.21,.37,.37,.76,.54,1.15,.16,.39,.32,.78,.47,1.18,.15,.39,.29,.79,.43,1.19l.41,1.2c.13,.4,.26,.8,.38,1.21,.12,.4,.25,.81,.36,1.22,.23,.81,.44,1.63,.62,2.46Z"/>
          </g>
        </g>
        <g>
          <path class="cls-37" d="M307.15,92.42l14.11,24.91-14.41,8.4s-19.66-23.26-19.81-33.02,11.11-46.83,20.86-44.28c9.76,2.55,3.65,16.71,1.55,27.37-2.1,10.66-2.3,16.61-2.3,16.61Z"/>
          <g class="cls-19">
            <g class="cls-7">
              <path d="M292.94,116.67c14.55-.23,29.11-.12,43.66,.32-6.62,6.01-13.86,11.42-21.97,15.18-8.1,3.77-17.11,5.84-26.01,5.04-3.22-.29-6.62-1.06-8.88-3.37s-2.74-6.58-.23-8.62l13.43-8.55Z"/>
            </g>
          </g>
          <path class="cls-32" d="M321.11,117.19s2.25-.15,3.75,3.3,6,7.65,4.05,7.65-3.3-1.05-3.3-1.05c0,0,.9,3-.15,3.6s-2.85-.45-4.35,1.2-4.95,2.25-4.95,2.25c0,0-3.9-.3-4.2-2.7s-1.35-8.25-1.35-8.25l10.51-6Z"/>
          <g class="cls-47">
            <g>
              <path class="cls-33" d="M330.87,127.72l-.87-.41c-.3,.36-.86,.41-1.3,.24-.44-.17-.79-.51-1.12-.84-1.03-1.02-2.06-2.04-3.09-3.06-.04-.04-.07-.07-.12-.09-.22-.07-.28,.29-.21,.5,.75,2.36,2.01,4.72,1.59,7.16-.02,.13-.05,.28,.04,.39,.05,.06,.12,.09,.19,.12,1.11,.45,2.44,.33,3.45-.32,1.01-.65,1.67-1.81,1.71-3.01,0-.26-.03-.56-.26-.69Z"/>
              <path class="cls-33" d="M322.54,130.68c-.24-.17-.5-.35-.79-.32-.17,.02-.32,.11-.46,.2-.45,.31-.85,.7-1.16,1.15-.25,.37-.48,.81-.9,.97-.37,.14-.78,.03-1.17,.03-1,0-1.85,.7-2.81,.97-1.22,.34-2.51-.02-3.72-.39,.06,.66,.61,1.16,1.15,1.52,3.02,2.03,7.33,1.91,10.23-.29,.29-.22,.6-.52,.58-.89l1.69-2.46c-.76,.59-1.86,.06-2.64-.5Z"/>
              <path class="cls-33" d="M322.67,115.94l-5.08-1.44c-3.9,2.49-7.95,5.14-10.22,9.17-.41,.73-.69,1.81-.01,2.3,.42,.31,1.01,.2,1.51,.07,5.59-1.52,10.1-5.64,13.8-10.1Z"/>
            </g>
          </g>
          <g class="cls-7">
            <path class="cls-4" d="M298.25,92.95c-.07,0-.14-.03-.18-.1-.07-.1-.04-.24,.06-.31,.05-.04,1.35-.93,3.13-1.42,2.38-.66,4.48-.27,6.05,1.14,.09,.08,.1,.22,.02,.32-.08,.09-.22,.1-.32,.02-3.53-3.14-8.58,.28-8.63,.32-.04,.03-.08,.04-.13,.04Z"/>
          </g>
          <g class="cls-7">
            <path class="cls-4" d="M306.85,91.34c-.11,0-.2-.08-.22-.18-.76-4.15-6.51-3.82-6.57-3.82-.12,0-.23-.09-.24-.21,0-.12,.09-.23,.21-.24,.06,0,1.56-.1,3.18,.36,2.18,.61,3.52,1.94,3.86,3.83,.02,.12-.06,.24-.18,.26-.01,0-.03,0-.04,0Z"/>
          </g>
        </g>
        <g class="cls-7">
          <path d="M368.11,87.64c-8.69-2.69-12.17-7.35-12.75-8.19l-.28-1.13-1.6-8.61,14.63,17.93Z"/>
        </g>
        <g class="cls-7">
          <path class="cls-4" d="M369.09,72.93s-.02,0-.03,0c-.12-.01-.21-.12-.2-.25,.2-1.84,2.55-4.98,2.64-5.11,.07-.1,.21-.12,.31-.04,.1,.07,.12,.21,.04,.31-.02,.03-2.37,3.17-2.56,4.89-.01,.11-.11,.2-.22,.2Z"/>
        </g>
        <g>
          <path class="cls-4" d="M327.99,26.37c0,.23,.03,.48,.07,.72,.04,.24,.1,.48,.18,.71,.15,.46,.37,.9,.68,1.27,.15,.18,.33,.35,.52,.48,.19,.14,.4,.25,.62,.34,.45,.17,.93,.24,1.42,.23,.49,0,.97-.08,1.42-.25,.44-.17,.83-.46,1.11-.83,.28-.37,.45-.83,.53-1.3,.04-.24,.06-.48,.07-.72,0-.24,0-.49-.04-.72h0c-.02-.13,.06-.25,.19-.26,.12-.02,.24,.06,.26,.19h0c.04,.28,.05,.53,.04,.8,0,.26-.03,.53-.08,.79-.1,.52-.29,1.04-.62,1.48-.17,.22-.36,.41-.58,.57-.22,.17-.46,.29-.71,.39-.51,.19-1.04,.27-1.56,.27-.53,0-1.06-.07-1.56-.27-.25-.1-.49-.23-.71-.39-.22-.16-.41-.35-.59-.55-.35-.41-.58-.9-.74-1.4-.08-.25-.14-.51-.18-.76-.04-.26-.07-.51-.07-.79,0-.1,.08-.18,.18-.18,.1,0,.18,.08,.18,.18h0Z"/>
          <path class="cls-4" d="M338.66,26.22c-.01,.23,0,.48,.02,.72,.02,.24,.06,.48,.12,.71,.12,.47,.31,.91,.6,1.28,.29,.37,.67,.65,1.11,.82,.44,.17,.92,.22,1.4,.21,.48-.01,.96-.09,1.4-.27,.43-.18,.81-.46,1.08-.84,.27-.37,.44-.83,.52-1.29,.04-.23,.06-.47,.07-.71,0-.24-.01-.49-.04-.71h0c-.02-.13,.07-.25,.19-.27,.12-.02,.24,.07,.26,.19h0c.04,.28,.05,.53,.05,.79,0,.26-.03,.52-.08,.78-.09,.52-.28,1.03-.61,1.47-.32,.44-.77,.78-1.27,.97-.5,.2-1.03,.28-1.54,.29-.52,.01-1.05-.05-1.55-.24-.5-.19-.95-.52-1.27-.95-.33-.42-.53-.92-.66-1.43-.06-.25-.1-.51-.13-.77-.02-.26-.03-.51-.02-.78,0-.1,.09-.17,.19-.17,.1,0,.17,.09,.17,.19h0Z"/>
          <path class="cls-4" d="M334.84,27.41c-.05,0-.11-.02-.15-.06-.09-.08-.1-.23-.01-.32,.01-.02,1.5-1.58,3.74-.09,.1,.07,.13,.21,.06,.31-.07,.1-.21,.13-.31,.06-1.92-1.28-3.11-.03-3.16,.02-.04,.05-.1,.07-.16,.07Z"/>
        </g>
      </g>
    </g>
    <g>
      <ellipse class="cls-35" cx="279.39" cy="264.27" rx="67.49" ry="8.98"/>
      <ellipse class="cls-35" cx="428.74" cy="270.43" rx="38.75" ry="3.85"/>
      <ellipse class="cls-35" cx="553.46" cy="268.63" rx="34.64" ry="4.62"/>
    </g>
    <g>
      <g>
        <polygon class="cls-2" points="505.18 205.86 502.24 216.62 487.03 272.09 485.35 272.09 498.37 216.62 500.81 206.2 505.18 205.86"/>
        <g class="cls-7">
          <polygon points="505.18 205.86 502.24 216.62 498.37 216.62 500.81 206.2 505.18 205.86"/>
        </g>
        <polygon class="cls-2" points="560.65 272.09 558.97 272.09 543.95 217.29 540.82 205.86 545.19 206.2 547.79 217.29 560.65 272.09"/>
        <g class="cls-7">
          <polygon points="547.79 217.29 543.95 217.29 540.82 205.86 545.19 206.2 547.79 217.29"/>
        </g>
        <path class="cls-22" d="M527.65,153.63l-14.91,45.41c-.31,.94-1.1,1.64-2.07,1.83l-24.73,4.95c-1.28,.26-2.2,1.38-2.2,2.69h0c0,1.51,1.23,2.74,2.74,2.74h63.87c1.09,0,2.08-.65,2.51-1.64l23.61-54.02c.79-1.81-.54-3.84-2.51-3.84h-43.71c-1.18,0-2.23,.76-2.6,1.89Z"/>
        <path class="cls-2" d="M525.08,152.09l-14.91,45.41c-.31,.94-1.1,1.64-2.07,1.83l-24.73,4.95c-1.28,.26-2.2,1.38-2.2,2.69h0c0,1.51,1.23,2.74,2.74,2.74h63.87c1.09,0,2.08-.65,2.51-1.64l23.61-54.02c.79-1.81-.54-3.84-2.51-3.84h-43.71c-1.18,0-2.23,.76-2.6,1.89Z"/>
      </g>
      <g>
        <path class="cls-37" d="M520.34,257.4s-1.03,8.64-1.69,11.87c-.15,.76-.32,1.36-.53,1.86-.68,1.63-1.78,2.14-4.12,3.2-3.06,1.39-23.4,1.7-23.22-.43,.03-.37,.11-.74,.26-1.13,.69-1.83,2.88-3.78,8.49-5.44,.99-5.6,1.3-13.24,1.3-13.24l19.51,3.31Z"/>
        <path class="cls-4" d="M518.12,271.13c-.68,1.63-1.78,2.14-4.12,3.2-3.06,1.39-23.4,1.7-23.22-.43,.03-.37,.11-.74,.26-1.13,5.05,.71,14.97,1.54,26.12-1.4,.33-.09,.65-.17,.96-.24Z"/>
        <path class="cls-37" d="M483.71,258.27s-.66,9.32-1.67,13.65c-.24,1.03-.5,1.78-.77,2.06-1.43,1.43-24.06,3.26-26.31,2.45-.81-.3-.56-.91,.23-1.65,1.38-1.31,4.4-3.02,6.09-4.06,2.65-1.63,3.06-12.24,3.06-12.24l19.37-.21Z"/>
        <path class="cls-4" d="M482.03,271.92c-.24,1.03-.5,1.78-.77,2.06-1.43,1.43-24.06,3.26-26.31,2.45-.81-.3-.56-.91,.23-1.65,7.2-.14,19.44-.7,26.85-2.85Z"/>
        <path class="cls-42" d="M515.52,181.9s-40.07,9.18-46.5,14.07-9.18,68.52-9.18,68.52l27.53-.31,1.84-47.72,15.91-4.59-7.65,51.7,23.55,2.75,8.87-54.75s15.79-6.51,17.63-11.71,.42-25.61,.42-25.61l-32.42,7.65Z"/>
        <g class="cls-38">
          <g>
            <g class="cls-7">
              <path d="M497.89,229.39l7.23-17.51s3.93-11.36,10.09-15.21c6.16-3.85-31.95,15.4-31.95,15.4l-12.32,60.81,23.09-5,3.85-38.49Z"/>
            </g>
            <path class="cls-4" d="M512.13,266.56s-.01,0-.02,0c-.12-.01-.21-.12-.2-.24,0,0,.04-.48,.13-1.36,.01-.12,.12-.21,.24-.2,.12,.01,.21,.12,.2,.24-.08,.87-.13,1.36-.13,1.36-.01,.12-.11,.2-.22,.2Zm.26-2.7s-.01,0-.02,0c-.12-.01-.21-.12-.2-.24,.04-.41,.09-.86,.14-1.34,.01-.12,.12-.21,.25-.2,.12,.01,.21,.12,.2,.25-.05,.49-.09,.94-.13,1.34-.01,.12-.11,.2-.22,.2Zm.27-2.69s-.02,0-.02,0c-.12-.01-.21-.12-.2-.25,.04-.43,.09-.87,.14-1.34,.01-.12,.12-.21,.25-.2,.12,.01,.21,.12,.2,.25-.05,.47-.1,.91-.14,1.34-.01,.12-.11,.2-.22,.2Zm.29-2.68s-.02,0-.02,0c-.12-.01-.21-.12-.2-.25,.05-.43,.1-.88,.15-1.34,.01-.12,.12-.21,.25-.2,.12,.01,.21,.12,.2,.25-.05,.46-.1,.91-.15,1.34-.01,.11-.11,.2-.22,.2Zm.3-2.68s-.02,0-.03,0c-.12-.01-.21-.12-.2-.25,.05-.44,.1-.88,.15-1.34,.01-.12,.12-.21,.25-.2,.12,.01,.21,.13,.2,.25-.05,.45-.1,.9-.15,1.34-.01,.11-.11,.2-.22,.2Zm.31-2.68s-.02,0-.03,0c-.12-.01-.21-.13-.2-.25,.05-.44,.1-.89,.16-1.34,.01-.12,.13-.21,.25-.2,.12,.01,.21,.13,.2,.25-.05,.45-.11,.9-.16,1.34-.01,.11-.11,.2-.22,.2Zm.32-2.67s-.02,0-.03,0c-.12-.01-.21-.13-.2-.25,.05-.44,.11-.89,.16-1.34,.02-.12,.13-.21,.25-.19,.12,.02,.21,.13,.19,.25-.06,.45-.11,.9-.16,1.34-.01,.11-.11,.2-.22,.2Zm.33-2.67s-.02,0-.03,0c-.12-.02-.21-.13-.19-.25,.06-.44,.11-.89,.17-1.34,.02-.12,.13-.21,.25-.19,.12,.02,.21,.13,.19,.25-.06,.45-.11,.89-.17,1.33-.01,.11-.11,.2-.22,.2Zm.34-2.67s-.02,0-.03,0c-.12-.02-.21-.13-.19-.25,.06-.44,.12-.89,.18-1.33,.02-.12,.13-.21,.25-.19,.12,.02,.21,.13,.19,.25-.06,.45-.12,.89-.18,1.33-.01,.11-.11,.19-.22,.19Zm.36-2.67s-.02,0-.03,0c-.12-.02-.21-.13-.19-.25,.06-.44,.12-.89,.18-1.33,.02-.12,.13-.21,.25-.19,.12,.02,.21,.13,.19,.25-.06,.45-.12,.89-.18,1.33-.02,.11-.11,.19-.22,.19Zm.37-2.67s-.02,0-.03,0c-.12-.02-.21-.13-.19-.25,.06-.44,.13-.89,.19-1.33,.02-.12,.13-.21,.25-.19,.12,.02,.21,.13,.19,.25-.06,.44-.13,.89-.19,1.33-.02,.11-.11,.19-.22,.19Zm.39-2.66s-.02,0-.03,0c-.12-.02-.21-.13-.19-.25,.07-.44,.13-.89,.2-1.34,.02-.12,.13-.21,.26-.19,.12,.02,.21,.13,.19,.26-.07,.44-.14,.89-.2,1.33-.02,.11-.11,.19-.22,.19Zm.41-2.66s-.02,0-.03,0c-.12-.02-.21-.13-.19-.26,.07-.44,.14-.89,.21-1.33,.02-.12,.13-.21,.26-.19,.12,.02,.21,.13,.19,.26-.07,.44-.14,.88-.21,1.33-.02,.11-.11,.19-.22,.19Zm.43-2.66s-.02,0-.04,0c-.12-.02-.2-.14-.18-.26,.07-.44,.15-.89,.22-1.33,.02-.12,.14-.2,.26-.18,.12,.02,.2,.14,.18,.26-.07,.44-.15,.88-.22,1.33-.02,.11-.11,.19-.22,.19Zm.45-2.65s-.03,0-.04,0c-.12-.02-.2-.14-.18-.26,.08-.44,.16-.89,.24-1.33,.02-.12,.14-.2,.26-.18,.12,.02,.2,.14,.18,.26-.08,.44-.16,.88-.24,1.32-.02,.11-.11,.19-.22,.19Zm.48-2.65s-.03,0-.04,0c-.12-.02-.2-.14-.18-.26,.08-.44,.17-.89,.25-1.32,.02-.12,.14-.2,.26-.18,.12,.02,.2,.14,.18,.26-.08,.44-.17,.88-.25,1.32-.02,.11-.11,.18-.22,.18Zm.51-2.64s-.03,0-.04,0c-.12-.02-.2-.14-.18-.26,.09-.44,.18-.89,.27-1.32,.03-.12,.14-.2,.26-.17,.12,.03,.2,.14,.17,.26-.09,.43-.18,.87-.27,1.32-.02,.11-.11,.18-.22,.18Zm.55-2.64s-.03,0-.05,0c-.12-.03-.2-.15-.17-.27,.1-.44,.19-.88,.29-1.32,.03-.12,.15-.2,.27-.17,.12,.03,.2,.15,.17,.27-.1,.43-.2,.87-.29,1.31-.02,.1-.12,.18-.22,.18Zm.6-2.62s-.03,0-.05,0c-.12-.03-.19-.15-.17-.27,.11-.45,.22-.89,.32-1.31,.03-.12,.15-.19,.27-.16,.12,.03,.19,.15,.16,.27-.11,.42-.21,.86-.32,1.3-.02,.1-.12,.17-.22,.17Zm.66-2.61s-.04,0-.06,0c-.12-.03-.19-.16-.16-.27,.12-.45,.24-.88,.36-1.3,.03-.12,.16-.19,.28-.15,.12,.03,.19,.16,.15,.28-.12,.41-.24,.85-.36,1.29-.03,.1-.12,.17-.22,.17Zm.75-2.59s-.04,0-.07-.01c-.12-.04-.18-.16-.15-.28,.14-.45,.28-.88,.42-1.29,.04-.12,.17-.18,.28-.14,.12,.04,.18,.17,.14,.28-.14,.4-.28,.83-.42,1.27-.03,.1-.12,.16-.21,.16Zm.88-2.54s-.05,0-.08-.02c-.12-.04-.17-.17-.13-.29,.17-.45,.35-.87,.52-1.25,.05-.11,.18-.16,.3-.11,.11,.05,.16,.18,.11,.3-.17,.38-.34,.79-.52,1.23-.03,.09-.12,.14-.21,.14Zm1.12-2.44s-.07,0-.11-.03c-.11-.06-.15-.2-.09-.3,.25-.45,.5-.83,.76-1.15,.08-.1,.22-.11,.31-.04s.11,.22,.04,.31c-.24,.3-.48,.66-.72,1.09-.04,.07-.12,.11-.2,.11Zm1.72-2.01c-.07,0-.14-.04-.19-.1-.07-.1-.04-.24,.06-.31,.36-.23,.75-.47,1.16-.71,.11-.06,.24-.03,.31,.08,.06,.11,.03,.24-.08,.31-.4,.23-.78,.47-1.14,.7-.04,.02-.08,.04-.12,.04Zm2.32-1.36c-.08,0-.16-.04-.2-.12-.06-.11-.02-.24,.09-.3,.38-.2,.77-.4,1.2-.61,.11-.05,.25,0,.3,.1,.05,.11,0,.25-.1,.3-.43,.21-.82,.41-1.19,.61-.03,.02-.07,.03-.1,.03Zm2.41-1.19c-.08,0-.16-.05-.2-.13-.05-.11,0-.25,.11-.3,.37-.17,.77-.36,1.22-.56,.11-.05,.25,0,.3,.11,.05,.11,0,.25-.11,.3-.45,.2-.85,.39-1.22,.56-.03,.01-.06,.02-.09,.02Zm2.45-1.11c-.09,0-.17-.05-.2-.13-.05-.11,0-.25,.11-.3l1.23-.55c.11-.05,.25,0,.3,.11,.05,.11,0,.25-.11,.3l-1.23,.55s-.06,.02-.09,.02Zm2.46-1.1c-.09,0-.17-.05-.2-.13-.05-.11,0-.25,.11-.3,.45-.2,.84-.39,1.22-.56,.11-.05,.25,0,.3,.11,.05,.11,0,.25-.11,.3-.38,.18-.78,.36-1.22,.57-.03,.01-.06,.02-.09,.02Zm2.43-1.15c-.08,0-.16-.05-.2-.12-.06-.11-.01-.25,.1-.3,.42-.21,.82-.42,1.19-.61,.11-.06,.24-.02,.3,.09,.06,.11,.02,.24-.09,.3-.37,.2-.78,.41-1.2,.62-.03,.02-.07,.02-.1,.02Zm2.37-1.28c-.08,0-.15-.04-.19-.11-.06-.11-.03-.24,.08-.31,.4-.24,.78-.48,1.13-.71,.1-.07,.24-.04,.31,.06,.07,.1,.04,.24-.06,.31-.35,.24-.74,.48-1.15,.72-.04,.02-.08,.03-.11,.03Zm2.22-1.51c-.07,0-.13-.03-.18-.08-.08-.1-.06-.24,.04-.31,.36-.29,.69-.58,.99-.87,.09-.09,.23-.09,.32,0,.09,.09,.09,.23,0,.32-.31,.3-.65,.61-1.02,.9-.04,.03-.09,.05-.14,.05Zm1.89-1.9s-.09-.01-.13-.05c-.1-.07-.12-.21-.04-.31,.27-.36,.5-.73,.68-1.1,.05-.11,.19-.16,.3-.1,.11,.05,.16,.19,.1,.3-.2,.4-.44,.79-.73,1.17-.04,.06-.11,.09-.18,.09Zm1.17-2.39s-.04,0-.05,0c-.12-.03-.19-.15-.16-.27,.06-.24,.1-.49,.13-.73,.02-.17,.04-.36,.05-.56,0-.12,.12-.21,.24-.21,.12,0,.22,.12,.21,.24-.01,.2-.03,.39-.05,.57-.03,.27-.08,.53-.14,.79-.03,.1-.12,.17-.22,.17Zm.24-2.67h0c-.12,0-.22-.1-.22-.23,0-.09,0-.19,0-.28,0-.33,0-.69-.02-1.06,0-.12,.09-.23,.22-.23,0,0,0,0,0,0,.12,0,.22,.1,.22,.22,.01,.37,.02,.73,.02,1.07,0,.1,0,.19,0,.28,0,.12-.1,.22-.22,.22Zm-.07-2.69c-.12,0-.22-.09-.22-.21-.02-.42-.05-.87-.09-1.34,0-.12,.08-.23,.21-.24,.12-.01,.23,.08,.24,.21,.03,.47,.06,.92,.09,1.35,0,.12-.09,.23-.21,.24,0,0,0,0-.01,0Zm-.2-2.68c-.11,0-.21-.09-.22-.2-.04-.43-.08-.88-.13-1.34-.01-.12,.08-.23,.2-.25,.12-.01,.23,.08,.25,.2,.05,.46,.09,.91,.13,1.34,.01,.12-.08,.23-.2,.24,0,0-.01,0-.02,0Zm-.27-2.68c-.11,0-.21-.08-.22-.2-.05-.44-.1-.89-.16-1.33-.02-.12,.07-.23,.2-.25,.12-.01,.23,.07,.25,.2,.05,.45,.11,.89,.16,1.34,.01,.12-.07,.23-.2,.25,0,0-.02,0-.03,0Zm-.33-2.67c-.11,0-.21-.08-.22-.19-.06-.45-.12-.89-.18-1.33-.02-.12,.07-.24,.19-.25,.12-.02,.24,.07,.25,.19,.06,.44,.12,.89,.18,1.34,.02,.12-.07,.24-.19,.25,0,0-.02,0-.03,0Zm-.37-2.67c-.11,0-.21-.08-.22-.19-.06-.45-.13-.89-.2-1.33-.02-.12,.07-.24,.19-.25,.12-.02,.24,.07,.25,.19,.07,.44,.13,.88,.2,1.33,.02,.12-.07,.24-.19,.25-.01,0-.02,0-.03,0Zm-.4-2.66c-.11,0-.2-.08-.22-.19-.07-.45-.14-.9-.21-1.33-.02-.12,.06-.24,.19-.26,.12-.02,.24,.06,.26,.19,.07,.43,.14,.88,.21,1.33,.02,.12-.06,.24-.19,.26-.01,0-.02,0-.03,0Zm-.43-2.66c-.11,0-.2-.08-.22-.19-.08-.46-.15-.9-.22-1.33-.02-.12,.06-.24,.18-.26,.12-.02,.24,.06,.26,.18,.07,.42,.15,.87,.22,1.33,.02,.12-.06,.24-.18,.26-.01,0-.02,0-.04,0Zm-.45-2.66c-.11,0-.2-.08-.22-.19-.08-.48-.16-.92-.23-1.33-.02-.12,.06-.24,.18-.26,.12-.02,.24,.06,.26,.18,.07,.4,.15,.85,.23,1.33,.02,.12-.06,.24-.18,.26-.01,0-.03,0-.04,0Zm-.47-2.65c-.11,0-.2-.08-.22-.18-.12-.64-.19-1-.19-1.01l.22-.04-.02-.22c.2-.02,.23,.1,.29,.45,.03,.17,.08,.43,.14,.75,.02,.12-.06,.24-.18,.26-.01,0-.03,0-.04,0Z"/>
          </g>
        </g>
        <path class="cls-4" d="M480.95,211.58c.42-.18,.87-.29,1.32-.37,.46-.07,.92-.11,1.39-.09,.47,.01,.93,.09,1.39,.21,.45,.13,.89,.31,1.3,.55,.1,.06,.2,.12,.3,.19l.29,.21c.18,.15,.37,.3,.52,.48,.17,.16,.31,.35,.46,.53,.13,.19,.28,.38,.38,.59,.47,.81,.77,1.7,.9,2.6-.32-.86-.7-1.68-1.2-2.41l-.09-.14s-.07-.09-.1-.13l-.2-.26c-.15-.16-.29-.33-.45-.48-.15-.16-.32-.29-.49-.43l-.27-.19c-.09-.06-.19-.11-.28-.17-.37-.22-.78-.4-1.19-.53-.42-.14-.85-.22-1.29-.27-.88-.09-1.79-.05-2.68,.11Z"/>
        <path class="cls-4" d="M486.07,206.54c.42,.18,.81,.43,1.18,.71,.37,.28,.71,.6,1.01,.95,.31,.35,.57,.74,.8,1.15,.22,.42,.38,.86,.49,1.32,.02,.12,.05,.23,.07,.35l.04,.35c.01,.24,.03,.47,.01,.71,0,.24-.05,.47-.07,.7-.05,.23-.09,.46-.16,.68-.27,.9-.71,1.72-1.27,2.44,.4-.82,.74-1.66,.93-2.53l.04-.16c.01-.05,.02-.11,.03-.16l.05-.33c.02-.22,.05-.44,.04-.66,0-.22,0-.44-.02-.65l-.05-.32c-.02-.11-.04-.21-.07-.32-.09-.43-.24-.84-.43-1.23-.19-.4-.43-.77-.69-1.13-.54-.71-1.19-1.34-1.92-1.88Z"/>
        <path class="cls-4" d="M499.54,267.34c.34-.23,.71-.39,1.09-.53,.38-.14,.78-.24,1.19-.3,.4-.07,.82-.08,1.23-.07,.41,.02,.82,.08,1.22,.17,.2,.05,.4,.11,.59,.18,.19,.08,.39,.14,.57,.24,.19,.08,.37,.19,.55,.29,.17,.11,.35,.21,.51,.34,.66,.48,1.23,1.07,1.69,1.74-.59-.54-1.21-1.04-1.88-1.45-.08-.05-.17-.1-.25-.15-.09-.05-.17-.1-.26-.14-.18-.08-.35-.17-.53-.24-.18-.08-.36-.14-.54-.21-.19-.06-.37-.12-.56-.16-.75-.19-1.53-.24-2.31-.19-.39,.03-.78,.08-1.17,.16-.39,.08-.77,.18-1.15,.32Z"/>
        <g class="cls-51">
          <path class="cls-23" d="M554.66,179.01c-1.85,2.95-8.87,5.91-8.87,5.91l-36.21,.37-.28-3.83-.27-3.75-8.09,7.39-1.41-3.35-21.04-1.8,17.96-12.32s5.56-24.11,12.39-29.84c6.84-5.73,16.07-5.54,16.07-5.54,0,0,12.38,.92,19.59,6.47,7.21,5.54,12.01,37.32,10.16,40.28Z"/>
          <g>
            <g class="cls-7">
              <rect class="cls-4" x="510.77" y="185.03" width="6.78" height="2.06" rx="1.03" ry="1.03" transform="translate(705.17 698.4) rotate(-130.34)"/>
            </g>
            <g class="cls-7">
              <rect class="cls-4" x="504.53" y="164.74" width="6.78" height="2.06" rx="1.03" ry="1.03" transform="translate(710.37 660.23) rotate(-130.34)"/>
            </g>
            <g class="cls-7">
              <rect class="cls-4" x="525.87" y="177.47" width="6.78" height="2.06" rx="1.03" ry="1.03" transform="translate(735.82 697.44) rotate(-130.34)"/>
            </g>
            <g class="cls-7">
              <rect class="cls-4" x="513.32" y="148.17" width="6.78" height="2.06" rx="1.03" ry="1.03" transform="translate(737.48 639.62) rotate(-130.34)"/>
            </g>
            <g class="cls-7">
              <rect class="cls-4" x="535.82" y="190.63" width="6.78" height="2.06" rx="1.03" ry="1.03" transform="translate(742.18 726.72) rotate(-130.34)"/>
            </g>
            <g class="cls-7">
              <rect class="cls-4" x="541.29" y="179.98" width="6.78" height="2.06" rx="1.03" ry="1.03" transform="translate(759.3 713.33) rotate(-130.34)"/>
            </g>
            <g class="cls-7">
              <rect class="cls-4" x="535.05" y="159.69" width="6.78" height="2.06" rx="1.03" ry="1.03" transform="translate(764.5 675.16) rotate(-130.34)"/>
            </g>
            <g class="cls-7">
              <rect class="cls-4" x="550.11" y="166.7" width="6.78" height="2.06" rx="1.03" ry="1.03" transform="translate(783.96 698.19) rotate(-130.34)"/>
            </g>
            <g class="cls-7">
              <rect class="cls-4" x="493.81" y="168.5" width="6.78" height="2.06" rx="1.03" ry="1.03" transform="translate(689.85 658.24) rotate(-130.34)"/>
            </g>
            <g class="cls-7">
              <rect class="cls-4" x="527.39" y="144.77" width="6.78" height="2.06" rx="1.03" ry="1.03" transform="translate(763.24 644.75) rotate(-130.34)"/>
            </g>
            <g class="cls-7">
              <rect class="cls-4" x="519.41" y="133.48" width="6.78" height="2.06" rx="1.03" ry="1.03" transform="translate(758.71 620.07) rotate(-130.34)"/>
            </g>
            <g class="cls-7">
              <rect class="cls-4" x="539.88" y="143.23" width="6.78" height="2.06" rx="1.03" ry="1.03" transform="translate(784.99 651.73) rotate(-130.34)"/>
            </g>
            <g class="cls-7">
              <rect class="cls-4" x="499.33" y="144.29" width="6.78" height="2.06" rx="1.03" ry="1.03" transform="translate(717.39 622.57) rotate(-130.34)"/>
            </g>
            <g class="cls-7">
              <rect class="cls-4" x="520.2" y="163.09" width="6.78" height="2.06" rx="1.03" ry="1.03" transform="translate(737.44 669.44) rotate(-130.34)"/>
            </g>
          </g>
        </g>
        <path class="cls-4" d="M524.08,130.05s-5.4,2.63-4.16,8.73,5.04,1,5.04,1c0,0,4.8,.53,6.88,1.22s1.39-6.65,.28-8.45-6.24-5.82-6.24-5.82l-1.8,3.33Z"/>
        <path class="cls-27" d="M513.99,119.19s-3.29,2.52-1.78,3.55c1.11,.76,1.5,.11,1.82-.44s.99-3.45-.04-3.11Z"/>
        <path class="cls-41" d="M534.86,110.07s1.39-2.61-3.65-4.89c-5.04-2.28-6.76,.54-12.51-1.05s-12.11,9.43-3.74,14.38c8.37,4.95,14.55,9.8,14.55,9.8,0,0,1.98,2.6,3.89,1.97s.09-3.99,.09-3.99c0,0,15-9.39,1.37-16.21Z"/>
        <g class="cls-3">
          <path class="cls-34" d="M543.82,115.32c-.24-2.7-1.93-5.08-3.93-6.91-.37-.34-.75-.66-1.01-1.09-.57-.94-.4-2.13-.49-3.22-.26-3.24-3-5.9-6.11-6.85-3.11-.95-6.48-.46-9.59,.5l-.03,6.46c2.15-.71,4.59-.49,6.59,.57,2,1.07,3.53,2.98,4.14,5.16,.07,.24,.13,.49,.26,.7,.26,.41,.74,.62,1.17,.86,2.64,1.47,3.69,4.89,3.27,7.88-.39,2.8-1.81,5.33-3.27,7.77-.27-.67-.64-1.31-1.11-1.87-.27-.33-.57-.64-.73-1.03-.21-.52-.15-1.1-.09-1.65l.57-5.09c.02-.2,.07-.43,.25-.5,.18-.07,.37,.05,.51,.18,.6,.53,1.07,1.22,1.32,1.98,.43-1.79,.15-3.74-.78-5.33-.47-.82-1.4-1.62-2.26-1.23l.13-1.27c-.27-1.65-1.68-3.04-3.33-3.28,.77,.81,.98,2.1,.51,3.11-2.2-.12-4.6-.32-6.23-1.81-1.9-1.73-2.16-4.68-3.8-6.67-1.74-2.12-4.89-2.76-7.5-1.92-2.61,.84-4.68,2.95-5.94,5.38-1.5,2.89-1.95,6.46-.58,9.42,.64,1.37,1.63,2.56,2.72,3.61,1.81,1.74,3.9,3.15,5.97,4.54,4.22,2.84,8.44,5.68,12.66,8.52,1.67,1.12,3.4,2.32,4.33,4.1,.08,.15,.16,.32,.31,.41,.27,.15,.61-.04,.86-.24,2.6-2.11,3.45-5.98,2.32-9.09,2.18-1.35,4.35-2.77,6.07-4.68,1.82-2.02,3.08-4.7,2.84-7.41Z"/>
        </g>
        <path class="cls-32" d="M534.9,123.86c-.52-1.9-2.73-2.95-4.92-2.34-.7,.19-1.31,.53-1.81,.96-.94,.04-1.83-.1-1.82-.75,.01-1.38,.03-5.45-1.66-5.1-1.69,.35-7.89-.26-8.63-3.37,0,0-9.87,19.69,6.71,17.57,0,0-1.32,2.25-.89,5.27s1.19,4.53,3.02,4.1c1.73-.41,5.52-4.06,6.36-6.04l-.2-5.62c.27-.03,.54-.08,.81-.15,2.2-.61,3.55-2.64,3.03-4.54Z"/>
        <g class="cls-30">
          <g>
            <path class="cls-33" d="M523.28,118.12c1.68,1.25,2.07,4.19,4.14,4.47,1.47-3.15,1.89-6.85,.78-10.15-1.11-3.29-3.85-6.09-7.23-6.89-1.86-.44-3.8-.29-5.68,.05-3.87,.7-7.83,2.42-9.87,5.78l8.22,.2c1.01,2.94,4.01,4.79,7.02,5.57,.91,.23,1.87,.41,2.62,.96Z"/>
            <path class="cls-33" d="M527.51,129.55c-2.09,.81-4.3,1.29-6.53,1.44l-1.79,2.8c-.02,.7-.05,1.41,.16,2.08s.71,1.28,1.39,1.45c.36,.08,.73,.04,1.09-.03,3.39-.68,6.13-3.83,6.32-7.28,0-.18,0-.38-.15-.48-.14-.1-.34-.04-.5,.03Z"/>
          </g>
        </g>
        <path class="cls-33" d="M528.61,125.46c-.07-.16-.07-.35-.02-.52,.04-.17,.13-.33,.24-.48,.21-.29,.51-.52,.84-.69,.33-.16,.7-.27,1.1-.26,.2,.01,.4,.05,.59,.15,.19,.1,.36,.27,.46,.48,.09,.22,.08,.46,.01,.66-.06,.21-.18,.38-.31,.52-.27,.29-.61,.47-.96,.59-.35,.11-.72,.15-1.08,.09-.18-.03-.35-.08-.5-.17-.15-.09-.28-.22-.35-.39Zm0,0c.07,.16,.2,.29,.36,.37,.16,.08,.33,.12,.5,.13,.35,.01,.69-.09,.99-.24,.3-.16,.56-.37,.75-.63,.09-.13,.16-.26,.2-.4,.03-.13,.03-.26-.01-.37-.05-.11-.13-.2-.25-.28-.12-.07-.26-.12-.42-.15-.31-.05-.65-.02-.97,.08-.32,.1-.63,.27-.87,.52-.12,.13-.22,.28-.27,.44-.05,.17-.06,.35,0,.52Z"/>
        <path class="cls-13" d="M518.25,116.07c.14-.04,.26-.07,.39-.09,.13-.02,.26-.03,.39-.04,.26-.01,.53,.01,.79,.08,.26,.06,.52,.19,.74,.35,.23,.16,.41,.38,.57,.61,.11,.15,.07,.37-.08,.47-.15,.11-.37,.07-.47-.08,0,0,0-.01-.01-.02l-.02-.03c-.1-.17-.21-.34-.37-.47-.15-.13-.32-.24-.52-.3-.2-.07-.41-.11-.63-.12-.11,0-.22,0-.33,0-.11,0-.22,.03-.32,.05h-.02c-.12,.03-.24-.05-.27-.17-.02-.11,.04-.23,.15-.26Z"/>
        <circle class="cls-18" cx="517.93" cy="119.55" r=".96"/>
        <circle class="cls-27" cx="522.31" cy="122.97" r="2.07"/>
        <path class="cls-14" d="M515.72,126.35c-.46,0-.94-.15-1.44-.44-.11-.06-.14-.2-.08-.31,.06-.11,.2-.14,.31-.08,.59,.35,1.15,.46,1.66,.32,.79-.22,1.21-.99,1.21-.99,.06-.11,.19-.15,.3-.09,.11,.06,.15,.19,.09,.3-.02,.04-.51,.94-1.48,1.21-.19,.05-.38,.08-.57,.08Z"/>
        <g class="cls-7">
          <path d="M524.91,184.92c-.03-.76-.11-1.51-.21-2.25-.1-.75-.25-1.49-.42-2.22-.18-.73-.41-1.45-.68-2.15-.28-.69-.62-1.36-1.03-1.98l-.11-.16,.18-.07c1.47-.56,2.95-1.09,4.44-1.61,1.49-.52,2.98-1.02,4.47-1.51,1.49-.49,2.99-.98,4.49-1.45,1.5-.47,3-.94,4.51-1.4l-.15,.26c-.34-1.44-.67-2.89-1-4.33-.32-1.45-.64-2.89-.95-4.34-.3-1.45-.61-2.9-.87-4.36-.07-.36-.14-.73-.2-1.09-.07-.36-.13-.73-.19-1.09-.06-.37-.12-.73-.17-1.1-.02-.18-.05-.37-.07-.55l-.05-.55,.07,.55c.02,.18,.06,.36,.09,.55,.06,.36,.14,.73,.21,1.09,.07,.36,.15,.72,.23,1.09,.08,.36,.16,.72,.24,1.08,.33,1.44,.66,2.89,1,4.33,.33,1.44,.68,2.88,1.02,4.32,.34,1.44,.69,2.88,1.04,4.32l.05,.2-.19,.06c-1.5,.46-3,.94-4.5,1.42-1.5,.47-3,.95-4.49,1.44-1.49,.49-2.99,.97-4.48,1.47-1.49,.5-2.98,1-4.46,1.53l.07-.23c.41,.65,.74,1.35,1.01,2.06,.26,.72,.46,1.45,.62,2.19,.15,.74,.27,1.49,.35,2.25,.08,.75,.12,1.51,.11,2.27Z"/>
        </g>
        <g class="cls-7">
          <path d="M540.62,170.33c.38-.22,.8-.35,1.23-.44,.43-.09,.88-.13,1.32-.09,.45,.03,.9,.14,1.3,.35,.2,.11,.39,.24,.55,.39,.16,.16,.3,.34,.4,.53-.18-.13-.35-.26-.53-.36-.18-.1-.37-.18-.56-.25-.38-.13-.79-.2-1.19-.23-.41-.03-.82-.03-1.24,0-.42,.02-.84,.06-1.28,.1Z"/>
        </g>
        <g class="cls-7">
          <path d="M540.46,169.47c.16-.41,.41-.78,.69-1.12,.28-.34,.6-.65,.98-.9,.37-.25,.79-.45,1.23-.54,.22-.04,.45-.05,.68-.04,.22,.03,.44,.08,.64,.17-.22,0-.43,.01-.63,.05-.2,.03-.4,.09-.59,.16-.38,.14-.74,.34-1.07,.57-.34,.23-.66,.49-.98,.77-.32,.28-.62,.57-.94,.87Z"/>
        </g>
        <polygon class="cls-17" points="524.18 140.58 525.28 154.62 526.02 139.66 524.18 140.58"/>
        <g class="cls-7">
          <polygon points="509.67 179.01 509.3 181.47 509.03 177.72 500.94 185.11 500.43 185.11 507.09 157.03 509.67 179.01"/>
        </g>
        <path class="cls-32" d="M523.25,177.35s-7.94-.18-9.98,1.85-2.77,5.17-2.77,5.17l14.41,.55s1.48-3.14-1.66-7.58Z"/>
      </g>
      <g>
        <g>
          <polygon class="cls-11" points="361.32 179.56 359.18 191.24 343.62 276.52 340.49 276.52 350.65 196.23 352.76 179.56 361.32 179.56"/>
          <g class="cls-7">
            <path d="M361.32,179.56l-2.13,11.69c-1.7,.38-3.36,1.05-4.91,2.01-1.29,.8-2.51,1.81-3.63,2.97l2.11-16.67h8.56Z"/>
          </g>
        </g>
        <g>
          <polygon class="cls-11" points="547.48 179.56 549.61 191.24 565.17 276.52 568.31 276.52 558.15 196.23 556.04 179.56 547.48 179.56"/>
          <g class="cls-7">
            <path d="M547.48,179.56l2.13,11.69c1.7,.38,3.36,1.05,4.91,2.01,1.29,.8,2.51,1.81,3.63,2.97l-2.11-16.67h-8.56Z"/>
          </g>
        </g>
        <rect class="cls-11" x="339.56" y="179.39" width="227.88" height="7.78" rx="3.89" ry="3.89"/>
      </g>
      <g>
        <g>
          <path class="cls-9" d="M392.12,248.77s-1.39,2.73-3.25,6.17c-.16,.29-.32,.58-.48,.88-2.98,5.46-6.91,12.19-8.41,12.76-2.56,.96-24.92,1.6-28.11-.96-3.19-2.55,8.62-4.79,10.86-5.75,.97-.42,3.45-4.94,5.95-9.92,.5-.99,.99-1.99,1.47-2.99,2.69-5.53,5.04-10.73,5.04-10.73l16.93,10.54Z"/>
          <path class="cls-33" d="M392.12,248.77s-1.39,2.73-3.25,6.17l-18.72-5.98c2.69-5.53,5.04-10.73,5.04-10.73l16.93,10.54Z"/>
          <path class="cls-23" d="M388.39,255.83c-2.98,5.46-6.91,12.19-8.41,12.76-2.56,.96-24.92,1.6-28.11-.96s8.63-4.79,10.86-5.75c.97-.42,3.45-4.94,5.95-9.92,4.56,2.21,11.79,4.76,19.71,3.87Z"/>
          <path class="cls-4" d="M369.15,257.43c-.1,0-.19-.04-.26-.12-1.66-2.03-3.1-1.01-3.16-.97-.15,.11-.36,.08-.47-.07-.11-.15-.08-.36,.07-.47,.02-.01,2-1.46,4.08,1.08,.12,.14,.1,.36-.05,.47-.06,.05-.14,.08-.21,.08Z"/>
          <path class="cls-4" d="M367.87,259.66c-.1,0-.19-.04-.26-.12-1.66-2.03-3.1-1.01-3.16-.97-.15,.11-.36,.08-.47-.07s-.08-.36,.07-.47c.02-.01,2-1.46,4.08,1.08,.12,.14,.1,.36-.05,.47-.06,.05-.14,.08-.21,.08Z"/>
          <path class="cls-4" d="M366.59,261.9c-.1,0-.19-.04-.26-.12-1.66-2.03-3.1-1.02-3.16-.97-.15,.11-.36,.08-.47-.07-.11-.15-.08-.36,.07-.47,.02-.01,2-1.46,4.08,1.08,.12,.14,.1,.36-.05,.47-.06,.05-.14,.08-.21,.08Z"/>
          <path class="cls-37" d="M454.42,200.86c-6.39,9.58-35.15,6.15-35.15,6.15l-5.78,10.03-22,38.13-6.56-4.37-18.35-12.24,14.46-21.07,15.57-22.7,5.07-1.11,57.86-12.63s1.28,10.22-5.11,19.81Z"/>
          <g class="cls-31">
            <polygon points="413.48 217.03 391.48 255.16 384.92 250.79 381.02 217.48 396.59 194.79 401.67 193.68 413.48 217.03"/>
          </g>
          <ellipse cx="405.49" cy="247.6" rx="14.61" ry="5.87" transform="translate(-59.58 150.45) rotate(-19.61)"/>
          <path class="cls-37" d="M435.24,183.15s4.05,1.06-5.75,1.7c-9.8,.64-25.13,1.06-34.08,5.54-8.95,4.47-11.08,12.14-11.5,19.59s5.32,32.59,5.32,32.59l2.56,9.8s15.76-18.32,27.47-9.58c-3.41-12.78-8.31-34.5-8.31-34.5,0,0,21.94,3.62,37.27,.21,15.33-3.41,18.1-13.21,15.55-24.28s-28.54-1.06-28.54-1.06Z"/>
          <g class="cls-12">
            <g>
              <g class="cls-7">
                <circle class="cls-4" cx="397.11" cy="192.31" r="5.11"/>
              </g>
              <g class="cls-7">
                <circle class="cls-4" cx="420.12" cy="194.44" r="5.11"/>
              </g>
              <g class="cls-7">
                <circle class="cls-4" cx="442.05" cy="184.43" r="5.11"/>
              </g>
              <g class="cls-7">
                <circle class="cls-4" cx="461.65" cy="197" r="5.11"/>
              </g>
              <g class="cls-7">
                <circle class="cls-4" cx="402.23" cy="211.91" r="5.11"/>
              </g>
              <g class="cls-7">
                <circle class="cls-4" cx="385.19" cy="223.83" r="5.11"/>
              </g>
              <g class="cls-7">
                <circle class="cls-4" cx="399.46" cy="244.49" r="5.11"/>
              </g>
              <g class="cls-7">
                <circle class="cls-4" cx="436.3" cy="208.5" r="5.11"/>
              </g>
              <g class="cls-29">
                <path d="M466.55,193.8s-6.6,17.04-26.41,15.55-33.65-3.83-33.65-3.83l-.64,49.63,24.28-.43,36.42-60.91Z"/>
              </g>
            </g>
          </g>
          <path class="cls-9" d="M406.7,274.74c-4.05,2.34-12.78,1.7-15.55,1.28s.21-3.19,3.83-3.83,4.05-11.08,3.83-13.42c-.1-1.06-.81-3.06-1.56-4.91-.9-2.22-1.85-4.25-1.85-4.25,3.83-7.24,16.19-9.37,16.19-9.37,0,0,.87,3.13,1.96,6.71,1.13,3.73,2.5,7.95,3.37,9.69,1.7,3.41-6.18,15.76-10.22,18.1Z"/>
          <path class="cls-23" d="M406.7,274.74c-3.29,1.91-9.69,1.84-13.45,1.52-.86-.07-1.58-.16-2.1-.24-2.77-.43,.21-3.19,3.83-3.83s4.05-11.08,3.83-13.42c-.1-1.06-.81-3.06-1.56-4.91,3.63-4.47,9.14-8.72,16.3-6.91,.74,2.44,1.58,5.08,2.32,7.11,.39,1.07,.75,1.97,1.05,2.57,1.7,3.41-6.18,15.76-10.22,18.1Z"/>
          <path class="cls-4" d="M397.04,259.35c-.17,0-.32-.13-.33-.3-.09-.85,.44-2.56,3.04-2.94,.18-.03,.35,.1,.38,.28,.03,.18-.1,.35-.28,.38-2.59,.37-2.47,2.13-2.46,2.21,.02,.18-.12,.35-.3,.37-.01,0-.02,0-.03,0Z"/>
          <path class="cls-4" d="M398.06,262.06c-.17,0-.32-.13-.33-.3-.09-.85,.44-2.56,3.04-2.94,.18-.03,.35,.1,.38,.28,.03,.18-.1,.35-.28,.38-2.59,.37-2.47,2.13-2.46,2.21,.02,.18-.12,.35-.3,.37-.01,0-.02,0-.03,0Z"/>
          <g class="cls-7">
            <path d="M406.7,274.74c-3.29,1.91-9.69,1.84-13.45,1.52,11.81-2.35,15.98-22.8,20.69-22.6,.72,.03,1.36,.18,1.93,.41,.39,1.07,.75,1.97,1.05,2.57,1.7,3.41-6.18,15.76-10.22,18.1Z"/>
          </g>
          <path class="cls-42" d="M458,144.87c-2.59-5.62-15.02-4.64-15.02-4.64,0,0-6.59,.11-8.1,.97-1.51,.86-3.03,1.51-3.03,1.51,0,0-3.89,1.51-6.7,3.24-2.81,1.73-10.37,13.9-11.07,15.47-2.58,5.77-11.29,14.08,.13,17.75,.21,.07,.42,.13,.64,.2,7.59,2.18,12.62,1.63,15.37,.88,.02,0,.03,0,.05-.01l.06,4.84s10.37,4.11,21.18,3.46c10.81-.65,13.62-2.81,13.62-2.81,0,0-4.54-35.23-7.13-40.85Zm-33.91,24.94l-.11-.04,3.14-4.67,2.99,2.46,.05,4.24-.35-.12-5.73-1.88Z"/>
        </g>
        <g>
          <path class="cls-27" d="M426.41,129.6c1.86,1.08,2.63-1.47,2.32-4.87,0,0-4.18,3.79-2.32,4.87Z"/>
          <path class="cls-32" d="M435.31,117.46c-4.83,0-6.81,5.35-7.19,10.68-.39,5.34-.03,8.96,4.72,9.82,5.11,.93,12.07-4.33,12.07-9.67s-4.76-10.83-9.59-10.83Z"/>
          <g class="cls-48">
            <path class="cls-33" d="M441.86,112.13c-2.41-1.36-5.63-1.52-7.87,.11l-3.96,6.41c.17,2.17,1.26,4.25,2.94,5.64l.08-1.29c1.92,2.28,5.3,3.49,6.1,6.37,.52,1.89-.32,3.9-1.45,5.51-1.13,1.61-2.56,3-3.48,4.74s-1.22,4-.04,5.57c.39,.52,.95,.94,1.59,1.03,1.17,.16,2.18-.78,2.98-1.65,1.39-1.5,2.75-3.02,4.09-4.57,1.41-1.62,2.8-3.28,3.83-5.17,2.73-4.97,2.7-11.23,.42-16.42-1.12-2.54-2.81-4.92-5.22-6.29Z"/>
          </g>
          <path class="cls-36" d="M453.02,135.17c0-3.79,1.7-6.78,1.7-10.21,0-6.5-4.87-11.29-12.92-12.69-8.04-1.39-15.08,3.02-12.53,9.21,1.32-1.86,2.71-2.86,2.71-2.86,0,0-.46,6.58,4.56,7.74-.54-2.24-.15-2.4-.15-2.4,0,0,1.55,3.4,3.56,3.87,2.4-1.16,2.94,1.39,2.63,2.94s-3.09,2.63-3.87,2.63,.46,1.62-1.24,4.02-4,5.85-4.02,10.06c-.03,4.67,1.55,8.2,6.19,10.06,4.64,1.86,5.49,1.47,5.49,1.47l-.39-3.09s1.39,2.94,3.02,3.17,5.96,.46,5.96,.46l-.46-2.78,2.4,2.55s4.8-2.4,5.41-5.11c.62-2.71-.19-6.97-1.8-9.18-2.58-3.53-6.24-6.06-6.24-9.85Z"/>
          <g class="cls-15">
            <g>
              <path class="cls-40" d="M446.15,159.11c-.04-.25,.02-.51,.1-.75,.28-.86,.59-3.83-.89-6.12-1.91-2.95-5.09-5.03-5.16-8.55-.07-3.51,1.39-6.9,3.32-9.84,.7-1.06,1.49-2.16,1.57-3.43,.09-1.42-.86-2.83-2.2-3.3-1.24-.43-2.65-.1-3.89-.53-1.35-.47-2.24-1.73-2.98-2.95-.15,.46-.17,.96-.08,1.43-2.25-1.73-2.63-4.92-2.82-7.75-2.15,.27-4.19,1.34-5.63,2.97l-2.27,2.82c1.07,.81,2.15,1.64,2.98,2.69,.83,1.06,1.38,2.39,1.24,3.73-.1,.86-.47,1.66-.88,2.43-.95,1.81-2.05,3.56-2.77,5.47-2.28,6.05-.19,13.3,4.52,17.72,4.72,4.42,11.67,6.07,18.03,4.92-.87,.15-2.04-.08-2.18-.96Z"/>
              <path class="cls-40" d="M448.67,146.19c-.47-.73-.84-1.52-1.16-2.33-.84-2.14-1.34-4.51-.8-6.74-.73,2.79-1.47,5.67-1.13,8.53,.23,1.9,.94,3.74,2.05,5.31,1.15,1.63,2.72,2.93,3.84,4.59,1.12,1.65,1.74,3.88,.77,5.63l.84-.32c0,.41,.39,.74,.8,.83,.41,.08,.82-.03,1.22-.15,.92-.29,1.83-.69,2.56-1.32,.73-.63,1.28-1.52,1.32-2.49,.05-1.02-.45-1.98-1.05-2.8-2.53-3.43-6.96-5.14-9.26-8.72Z"/>
              <path class="cls-40" d="M463.29,154.36c-.02,.19-.03,.38-.05,.57,.03-.19,.04-.38,.05-.57Z"/>
              <path class="cls-40" d="M459.8,138.09c-1.14-1.62-1.81-3.56-1.93-5.54-.12-1.98,.32-3.95,.48-5.93,.16-1.98,0-4.1-1.15-5.71l-2.73,1.29c.78,2.81-.41,5.75-1.53,8.44-1.12,2.69-2.22,5.69-1.27,8.45,.88,2.55,3.27,4.21,5.43,5.83,1.65,1.23,3.27,2.55,4.47,4.23,1.09,1.52,1.8,3.37,1.73,5.22,.17-2.1,.33-4.2,.37-6.31,.04-2.15-.07-4.38-1.09-6.27-.73-1.35-1.89-2.42-2.77-3.68Z"/>
              <path class="cls-40" d="M446.49,116.55c.05-.58-.44-1.09-.99-1.28-.55-.19-1.81,.45-1.81,.45,1.12,.15,2.04,1.21,2.05,2.34,1.09-.44,2.48,.05,3.05,1.08-.07-.65-.23-1.3-.62-1.82-.39-.52-1.05-.88-1.69-.77Z"/>
            </g>
          </g>
          <path class="cls-33" d="M440.77,129.3c-.16-.13-.37-.18-.55-.17-.18,0-.35,.06-.5,.13-.3,.15-.52,.39-.69,.64-.16,.26-.28,.55-.32,.85-.02,.15-.02,.3,.02,.44,.04,.14,.11,.28,.23,.37-.11-.09-.19-.23-.21-.37-.03-.14-.01-.29,.02-.43,.07-.28,.24-.52,.43-.72,.2-.19,.43-.35,.67-.43,.12-.04,.24-.06,.35-.06,.11,0,.2,.04,.27,.09,.07,.06,.12,.14,.15,.24,.03,.1,.03,.23,.02,.35-.03,.25-.13,.51-.27,.75-.15,.23-.35,.45-.61,.58-.13,.07-.27,.11-.41,.12-.14,0-.29-.04-.41-.12,.11,.09,.26,.14,.41,.14,.15,0,.3-.03,.44-.07,.28-.1,.54-.28,.76-.5,.21-.22,.39-.49,.48-.82,.04-.16,.06-.34,.02-.52-.03-.18-.13-.37-.29-.5Z"/>
          <path class="cls-18" d="M433.26,124.49c-.52-.07-.99,.29-1.06,.81s.3,.99,.81,1.06,.99-.3,1.06-.81c.07-.52-.29-.99-.81-1.06Z"/>
          <path class="cls-27" d="M435.76,127.35c-1.12-.12-2.12,.68-2.25,1.79-.12,1.12,.68,2.12,1.79,2.25,1.12,.12,2.12-.68,2.25-1.79s-.68-2.12-1.79-2.25Z"/>
          <path class="cls-14" d="M430.72,132.14c-.11,.06-.21,.14-.32,.19-.1,.06-.22,.1-.32,.14-.11,.03-.22,.07-.33,.09-.23,.04-.46,.06-.71,.05-.25,0-.5-.03-.77-.07,.19,.2,.45,.33,.71,.41,.27,.08,.56,.1,.85,.04,.07-.02,.14-.03,.21-.05,.07-.03,.14-.05,.2-.08,.13-.07,.26-.14,.36-.24,.11-.09,.2-.21,.28-.32,.04-.06,.07-.12,.1-.18,.03-.06,.05-.13,.07-.19-.06,.04-.12,.08-.17,.11-.06,.04-.1,.08-.16,.11Z"/>
          <g class="cls-7">
            <path d="M442.97,125.7c-.07-.13-.17-.26-.25-.38-.09-.12-.19-.24-.28-.36l-.26-.35c-.09-.12-.18-.23-.26-.35-.16-.24-.34-.47-.49-.73l-.23-.37-.22-.38c-.15-.25-.28-.51-.41-.77-.07-.13-.13-.26-.19-.4-.06-.13-.13-.26-.19-.4l-.18-.4-.17-.41c-.06-.13-.11-.27-.16-.41-.05-.14-.11-.27-.15-.41-.2-.55-.39-1.11-.55-1.68,.06,.59,.19,1.17,.34,1.75,.16,.57,.33,1.15,.55,1.7,.42,1.12,.99,2.18,1.68,3.17,.08,.13,.18,.24,.27,.36l.28,.36c.09,.12,.18,.22,.27,.34,.08,.12,.17,.23,.24,.35,.31,.48,.55,1,.67,1.55,.26,1.11-.02,2.32-.71,3.28,.21-.21,.39-.45,.55-.71,.16-.26,.28-.54,.37-.82,.09-.29,.15-.59,.17-.9,.02-.31,0-.62-.04-.92-.09-.61-.34-1.19-.66-1.71Z"/>
          </g>
        </g>
        <g class="cls-7">
          <path d="M430.25,171.16h0c-.12,0-.22,.1-.22,.23l.13,9.24c0,.12,.1,.22,.22,.22h0c.12,0,.22-.1,.22-.23l-.13-9.24c0-.12-.1-.22-.22-.22Z"/>
        </g>
        <g class="cls-7">
          <path d="M429.91,171.88c-.03-.07-.05-.13-.09-.19l-5.73-1.88c-2.65,3.93-5.45,8.48-9.62,9.2-.1,.02-.19,.08-.26,.16,.21,.07,.42,.13,.64,.19,7.59,2.18,12.62,1.63,15.37,.88-.06-2.42-.11-4.84-.17-7.26,0-.37-.02-.75-.15-1.1Z"/>
        </g>
      </g>
      <g>
        <polygon class="cls-2" points="417.97 224.37 405.4 277.9 407.02 277.9 421.7 224.37 424.55 213.98 420.33 214.31 417.97 224.37"/>
        <g class="cls-7">
          <polygon points="417.97 224.37 421.7 224.37 424.55 213.98 420.33 214.31 417.97 224.37"/>
        </g>
        <polygon class="cls-2" points="463.15 214.31 458.94 213.98 461.96 225.01 476.46 277.9 478.08 277.9 465.67 225.01 463.15 214.31"/>
        <g class="cls-7">
          <polygon points="458.94 213.98 461.96 225.01 465.67 225.01 463.15 214.31 458.94 213.98"/>
        </g>
        <path class="cls-22" d="M490.93,161.75h-42.18c-1.14,0-2.16,.73-2.51,1.82l-14.4,43.83c-.3,.91-1.06,1.58-1.99,1.77l-23.87,4.77c-1.24,.25-2.13,1.33-2.13,2.59h0c0,1.46,1.18,2.65,2.65,2.65h61.65c1.05,0,2-.62,2.42-1.59l22.79-52.14c.76-1.75-.52-3.71-2.42-3.71Z"/>
        <path class="cls-2" d="M493.62,162.13h-42.18c-1.14,0-2.16,.73-2.51,1.82l-14.4,43.83c-.3,.91-1.06,1.58-1.99,1.77l-23.87,4.77c-1.24,.25-2.13,1.33-2.13,2.59h0c0,1.46,1.18,2.65,2.65,2.65h61.65c1.05,0,2-.62,2.42-1.59l22.79-52.14c.76-1.75-.52-3.71-2.42-3.71Z"/>
      </g>
    </g>
  </g>
</svg>